<svg width="163" height="347" viewBox="0 0 163 347" fill="none" xmlns="http://www.w3.org/2000/svg">
<g clip-path="url(#clip0_1_542)">
<path d="M97.1353 273.577C100.492 273.578 103.219 276.273 103.272 279.617L103.273 279.719L103.252 332.028C103.251 335.419 100.501 338.167 97.1105 338.165C93.7536 338.164 91.027 335.469 90.9741 332.125L90.9733 332.023L90.9934 279.714C90.9947 276.323 93.7445 273.576 97.1353 273.577Z" fill="#EDBC3D"/>
<path d="M64.4727 273.577C67.8296 273.578 70.5562 276.273 70.6092 279.617L70.61 279.719L70.5898 332.028C70.5885 335.419 67.8387 338.167 64.4479 338.165C61.091 338.164 58.3644 335.469 58.3115 332.125L58.3107 332.023L58.3308 279.714C58.3321 276.323 61.082 273.576 64.4727 273.577Z" fill="#EDBC3D"/>
<path d="M78.9397 223.232H108.41L105.778 323.185H91.5347L87.5351 312.625L78.9397 223.232Z" fill="#35383E"/>
<path d="M82.869 223.232H53.399L56.0305 323.185H70.2743L74.2736 312.625L82.869 223.232Z" fill="#35383E"/>
<path d="M83.6853 307.816C84.8113 305.994 87.3442 306.431 88.4702 306.878L88.1888 307.949C87.7197 308.04 86.5282 308.219 86.0778 308.754C85.5149 309.425 85.9371 310.763 85.5149 311.031C85.0927 311.301 83.9667 311.031 83.4039 311.031C82.841 311.031 82.2781 310.095 83.6853 307.816Z" fill="black"/>
<path d="M133.567 340.867C133.867 340.13 133.815 338.534 131.967 337.797C130.119 337.06 108.309 340.867 108.309 340.867C102.694 340.41 87.6146 333.077 82.0627 336.446C80.3063 337.512 80.9016 340.889 81.55 344.049C82.5875 345.103 93.0835 346.024 96.4866 345.233C96.4866 343.391 96.7515 342.205 96.7515 342.205C96.7515 342.205 98.8132 343.531 101.039 344.049C105.578 345.103 106.571 346.269 120.631 346.269C131.907 345.216 132.718 342.954 133.567 340.867Z" fill="#383129"/>
<path fill-rule="evenodd" clip-rule="evenodd" d="M82.8329 338.654C83.192 338.886 83.6138 339.074 84.1481 339.241L84.0751 339.475C83.5208 339.303 83.0789 339.106 82.6995 338.86L82.8329 338.654ZM131.417 340.284C131.874 339.939 132.241 339.606 132.49 339.313L132.677 339.472C132.416 339.78 132.036 340.125 131.565 340.48L131.417 340.284ZM128.915 341.788C129.368 341.567 129.799 341.334 130.202 341.094L130.328 341.305C129.919 341.549 129.482 341.785 129.023 342.009L128.915 341.788ZM127.576 342.381C127.127 342.56 126.667 342.725 126.197 342.874L126.272 343.108C126.747 342.957 127.213 342.79 127.667 342.609L127.576 342.381ZM123.346 343.559C123.829 343.48 124.308 343.383 124.782 343.269L124.839 343.508C124.36 343.623 123.875 343.721 123.386 343.801L123.346 343.559ZM121.889 343.742C121.403 343.785 120.915 343.808 120.427 343.813L120.429 344.058C120.924 344.054 121.418 344.03 121.911 343.987L121.889 343.742ZM117.49 343.771C117.976 343.786 118.466 343.797 118.961 343.804L118.957 344.05C118.462 344.043 117.97 344.031 117.482 344.016L117.49 343.771ZM116.018 343.713C115.524 343.689 115.034 343.662 114.549 343.63L114.533 343.875C115.02 343.907 115.511 343.935 116.007 343.958L116.018 343.713ZM111.617 343.383C112.099 343.433 112.587 343.479 113.081 343.52L113.061 343.765C112.565 343.723 112.075 343.677 111.591 343.627L111.617 343.383ZM110.155 343.217C109.661 343.156 109.175 343.09 108.697 343.021L108.662 343.264C109.141 343.333 109.629 343.399 110.125 343.461L110.155 343.217ZM105.798 342.528C106.269 342.62 106.751 342.708 107.245 342.792L107.204 343.034C106.708 342.95 106.224 342.862 105.751 342.769L105.798 342.528ZM104.359 342.226C103.865 342.115 103.388 341.999 102.931 341.881L102.869 342.118C103.329 342.238 103.808 342.354 104.305 342.466L104.359 342.226ZM101.513 341.485L101.444 341.721L101.083 341.616L100.029 341.308L100.099 341.073L100.445 341.174L101.513 341.485ZM98.6161 340.891L98.686 340.656L97.6039 340.332L97.2748 340.233L97.2039 340.469L98.4264 340.835L98.6161 340.891ZM95.8085 339.908L95.8277 340.153C95.3844 340.188 94.881 340.221 94.3545 340.249L94.3413 340.004C94.7347 339.983 95.1151 339.959 95.4669 339.934L95.8085 339.908ZM92.8715 340.068C92.3713 340.084 91.8787 340.095 91.4011 340.099L91.4033 340.345C91.8829 340.341 92.3774 340.33 92.8796 340.313L92.8715 340.068ZM88.466 340.021C88.9126 340.054 89.403 340.077 89.9316 340.09L89.9257 340.335C89.3932 340.323 88.8986 340.3 88.4475 340.266L88.466 340.021ZM86.9734 340.088L87.0128 339.846L86.4773 339.756C86.1399 339.698 85.8401 339.643 85.5664 339.588L85.5182 339.829L85.8401 339.891C86.1741 339.954 86.5464 340.019 86.9734 340.088Z" fill="#67513B"/>
<path d="M100.792 306.362C99.5903 306.362 92.5728 310.034 88.9377 307.18C88.5396 306.868 87.7311 307.124 87.7304 307.63C87.724 312.514 87.6516 321.016 86.9168 324.388C86.139 327.959 85.4821 327.448 84.7041 330.764C84.1655 333.06 82.4209 338.416 84.7041 338.416H95.1173C97.581 338.416 100.909 341.267 109.113 342.068C122.732 343.399 126.06 341.577 128.779 340.717C134.966 338.762 131.826 334.288 128.779 332.858C124.315 330.764 117.917 329.192 114.663 327.456C112.129 326.105 111.258 325.685 109.957 324.263C107.812 321.92 105.927 309.589 105.637 306.372C105.617 306.149 105.303 306.033 105.112 306.151C103.843 306.932 101.984 306.362 100.792 306.362Z" fill="#2D2B30"/>
<path d="M126.956 336.168C127.41 336.031 127.89 336.289 128.026 336.743C128.163 337.198 127.906 337.677 127.451 337.814C125.66 338.354 124.45 338.638 122.869 338.808C120.717 339.038 118.443 338.932 115.943 338.41C115.478 338.313 115.18 337.857 115.277 337.393C115.374 336.928 115.83 336.63 116.295 336.727C118.617 337.212 120.711 337.31 122.686 337.098C124.139 336.943 125.258 336.68 126.956 336.168Z" fill="#59555F"/>
<path d="M111.389 332.026C108.976 329.815 100.176 324.877 100.792 306.362C99.7467 306.362 97.2189 307.713 93.3991 307.959C89.3873 307.838 89.4533 307.477 88.3909 306.878C88.3622 306.861 88.329 306.836 88.3018 306.819C86.6355 305.702 87.3848 323.556 86.189 326.719C85.2239 329.273 83.4142 333.104 83.4142 337.77C84.2587 339.243 92.5835 338.507 95.238 338.507C96.4794 331.903 106.214 336.937 108.309 336.323C110.147 335.786 111.389 334.727 111.389 332.026Z" fill="#1D1D20"/>
<path d="M108.432 324.069C105.672 321.908 104.612 311.397 104.489 306.362C104.982 306.24 105.105 305.896 105.475 306.019C105.844 306.141 105.844 307.615 105.968 308.843C106.102 310.189 107.077 314.368 107.569 317.193C108.062 320.017 108.555 321.736 110.404 324.069C111.882 325.935 117.674 327.851 119.522 329.447C119.316 329.405 118.783 329.128 118.29 329.226C117.674 329.349 117.797 329.472 117.057 329.472C116.318 329.472 111.882 326.77 108.432 324.069Z" fill="#1D1D20"/>
<path d="M104.912 306.762C105.233 306.655 105.581 306.829 105.688 307.151C105.79 307.459 105.634 307.791 105.338 307.913L105.299 307.927L102.013 309.018L105.273 309.947C105.795 310.095 105.877 310.79 105.424 311.062L105.385 311.084L102.675 312.472L106.203 313.126C106.795 313.236 106.886 314.036 106.355 314.284L106.316 314.301L102.624 315.755L106.77 317.074C107.286 317.238 107.347 317.936 106.887 318.193L106.847 318.214L103.593 319.758L107.642 320.242C108.179 320.306 108.371 320.977 107.969 321.318L107.937 321.343L104.98 323.553L109.541 323.553C110.079 323.553 110.351 324.192 109.996 324.579L109.968 324.608L107.081 327.405L112.86 326.146C113.398 326.029 113.8 326.62 113.511 327.073L113.489 327.105L111.468 329.91L115.556 327.913C115.848 327.77 116.198 327.881 116.357 328.158L116.377 328.195C116.52 328.487 116.409 328.837 116.132 328.997L116.095 329.016L109.811 332.086C109.248 332.361 108.692 331.72 109.022 331.207L109.043 331.176L111.556 327.687L105.236 329.065C104.645 329.193 104.251 328.485 104.651 328.052L104.678 328.024L108.025 324.781L103.134 324.781C102.556 324.781 102.304 324.063 102.735 323.7L102.766 323.675L105.972 321.279L101.335 320.725C100.738 320.653 100.595 319.861 101.108 319.579L101.145 319.56L104.913 317.772L100.606 316.402C100.07 316.232 100.032 315.498 100.526 315.264L100.567 315.246L103.874 313.943L100.68 313.351C100.118 313.247 99.9968 312.506 100.475 312.221L100.512 312.201L103.439 310.701L99.7615 309.654C99.1949 309.493 99.1639 308.712 99.6942 308.496L99.7361 308.481L104.912 306.762Z" fill="black"/>
<path d="M78.1233 307.816C76.9973 305.994 74.4644 306.431 73.3384 306.878L73.6198 307.949C74.0889 308.04 75.2804 308.219 75.7308 308.754C76.2937 309.425 75.8716 310.763 76.2937 311.031C76.7159 311.301 77.8419 311.031 78.4048 311.031C78.9676 311.031 79.5305 310.095 78.1233 307.816Z" fill="black"/>
<path d="M28.2416 340.867C27.9418 340.13 27.9934 338.534 29.8416 337.797C31.6898 337.06 53.5 340.867 53.5 340.867C59.1145 340.41 74.194 333.077 79.7459 336.446C81.5024 337.512 80.9071 340.889 80.2587 344.049C79.2211 345.103 68.7252 346.024 65.3221 345.233C65.3221 343.391 65.0571 342.205 65.0571 342.205C65.0571 342.205 62.9955 343.531 60.77 344.049C56.2309 345.103 55.2375 346.269 41.1779 346.269C29.9016 345.216 29.0906 342.954 28.2416 340.867Z" fill="#383129"/>
<path fill-rule="evenodd" clip-rule="evenodd" d="M79.1091 338.86C78.7297 339.105 78.2878 339.302 77.7335 339.475L77.6605 339.24C78.1947 339.074 78.6165 338.886 78.9757 338.654L79.1091 338.86ZM30.2438 340.48C29.773 340.125 29.3929 339.78 29.1317 339.472L29.3189 339.313C29.5672 339.606 29.9343 339.939 30.3916 340.284L30.2438 340.48ZM32.7859 342.009C32.3267 341.785 31.8895 341.549 31.4803 341.305L31.6061 341.094C32.0093 341.334 32.4405 341.567 32.8937 341.789L32.7859 342.009ZM34.1417 342.609C34.596 342.79 35.062 342.957 35.5372 343.109L35.6116 342.875C35.142 342.725 34.6816 342.56 34.2327 342.381L34.1417 342.609ZM38.4225 343.802C37.9339 343.722 37.4491 343.623 36.9694 343.508L37.0267 343.269C37.5007 343.383 37.9797 343.48 38.4623 343.559L38.4225 343.802ZM39.8981 343.987C40.3908 344.03 40.8848 344.054 41.3794 344.058L41.3816 343.813C40.8935 343.809 40.4058 343.785 39.9194 343.742L39.8981 343.987ZM44.3266 344.017C43.8388 344.032 43.3471 344.043 42.8516 344.05L42.8481 343.804C43.3423 343.797 43.8326 343.786 44.3191 343.771L44.3266 344.017ZM45.8022 343.959C46.2979 343.935 46.7891 343.907 47.2754 343.875L47.2594 343.63C46.7745 343.662 46.2848 343.69 45.7904 343.713L45.8022 343.959ZM50.2162 343.628C49.7324 343.678 49.2424 343.724 48.7465 343.765L48.726 343.521C49.2202 343.479 49.7087 343.433 50.1909 343.383L50.2162 343.628ZM51.6839 343.461C52.1795 343.399 52.6673 343.334 53.1468 343.264L53.1114 343.021C52.6336 343.09 52.1475 343.156 51.6537 343.217L51.6839 343.461ZM56.0575 342.77C55.5848 342.862 55.1004 342.95 54.6049 343.034L54.5638 342.792C55.0573 342.709 55.5397 342.621 56.0103 342.529L56.0575 342.77ZM57.5036 342.466C58.0006 342.354 58.4799 342.238 58.9397 342.119L58.8779 341.881C58.4207 342 57.9441 342.115 57.4497 342.226L57.5036 342.466ZM60.3645 341.721L60.296 341.486L60.6566 341.381L61.7101 341.073L61.7793 341.309C61.5499 341.376 61.3172 341.444 61.0814 341.513L60.3645 341.721ZM63.1227 340.656L63.1926 340.891L64.1047 340.619C64.2775 340.567 64.4445 340.517 64.6048 340.469L64.5339 340.234L63.6807 340.49C63.5002 340.544 63.314 340.599 63.1227 340.656ZM65.981 340.153L66.0001 339.908C66.3311 339.934 66.6959 339.959 67.0788 339.982L67.4673 340.004L67.4541 340.249C67.0592 340.228 66.6774 340.204 66.3241 340.179L65.981 340.153ZM68.9292 340.314C69.4313 340.33 69.9259 340.341 70.4055 340.345L70.4076 340.099C69.9301 340.095 69.4375 340.085 68.9373 340.068L68.9292 340.314ZM73.3612 340.266C72.9101 340.3 72.4156 340.323 71.883 340.335L71.8772 340.09C72.4057 340.077 72.8962 340.055 73.3428 340.021L73.3612 340.266ZM74.7959 339.846L74.8353 340.089L75.2447 340.021C75.6371 339.954 75.9802 339.891 76.2906 339.829L76.2423 339.588C75.8318 339.671 75.3625 339.754 74.7959 339.846Z" fill="#67513B"/>
<path d="M61.0163 306.362C62.2184 306.362 69.236 310.034 72.8711 307.18C73.2692 306.868 74.0776 307.124 74.0784 307.63C74.0848 312.514 74.1572 321.016 74.892 324.388C75.6698 327.959 76.3267 327.448 77.1047 330.764C77.6433 333.06 79.3879 338.416 77.1047 338.416H66.6915C64.2278 338.416 60.9001 341.267 52.696 342.068C39.0771 343.399 35.7491 341.577 33.0298 340.717C26.8426 338.762 29.9825 334.288 33.0298 332.858C37.4939 330.764 43.8918 329.192 47.146 327.456C49.6802 326.105 50.5503 325.685 51.8514 324.263C53.9968 321.92 55.8814 309.589 56.1719 306.372C56.1921 306.149 56.5062 306.033 56.6972 306.151C57.9662 306.932 59.8247 306.362 61.0163 306.362Z" fill="#2D2B30"/>
<path d="M33.7822 336.743C33.9191 336.289 34.3986 336.031 34.8531 336.168L35.2084 336.274C36.7123 336.717 37.7737 336.954 39.1225 337.098C41.0976 337.31 43.1914 337.212 45.5141 336.727C45.9788 336.63 46.4342 336.928 46.5313 337.393C46.6284 337.857 46.3304 338.313 45.8657 338.41C43.3655 338.932 41.0913 339.038 38.9393 338.808C37.3585 338.638 36.1484 338.354 34.3574 337.814C33.9028 337.677 33.6453 337.198 33.7822 336.743Z" fill="#59555F"/>
<path d="M50.4194 332.026C52.8325 329.815 61.6325 324.877 61.0163 306.362C62.062 306.362 64.5898 307.713 68.4096 307.959C72.4215 307.838 72.3554 307.477 73.4178 306.878C73.4465 306.861 73.4797 306.836 73.5069 306.819C75.1732 305.702 74.4239 323.556 75.6197 326.719C76.5848 329.273 78.3945 333.104 78.3945 337.77C77.55 339.243 69.2252 338.507 66.5707 338.507C65.3293 331.903 55.5949 336.937 53.5 336.323C51.6613 335.786 50.4194 334.727 50.4194 332.026Z" fill="#1D1D20"/>
<path d="M53.3767 324.069C56.1368 321.908 57.1965 311.397 57.3197 306.362C56.8269 306.24 56.7036 305.896 56.334 306.019C55.9644 306.141 55.9644 307.615 55.8411 308.843C55.7063 310.189 54.732 314.368 54.2391 317.193C53.7463 320.017 53.2534 321.736 51.4051 324.069C49.9265 325.935 44.1351 327.851 42.2869 329.447C42.4922 329.405 43.0262 329.128 43.519 329.226C44.1351 329.349 44.0118 329.472 44.7513 329.472C45.4905 329.472 49.9265 326.77 53.3767 324.069Z" fill="#1D1D20"/>
<path d="M56.121 307.151C56.2234 306.843 56.5469 306.67 56.8569 306.75L56.8972 306.762L62.0726 308.481C62.6317 308.667 62.6289 309.448 62.0897 309.641L62.0472 309.654L58.3698 310.701L61.2964 312.201C61.805 312.462 61.7095 313.207 61.1696 313.342L61.1283 313.351L57.9346 313.943L61.2414 315.246C61.7648 315.452 61.754 316.187 61.2448 316.387L61.2024 316.402L56.8953 317.772L60.6636 319.56C61.2073 319.818 61.0905 320.614 60.5143 320.718L60.4733 320.725L55.8366 321.279L59.0428 323.675C59.505 324.021 59.2767 324.747 58.7149 324.78L58.6752 324.781L53.7838 324.781L57.1309 328.024C57.5653 328.445 57.1933 329.165 56.6112 329.072L56.5729 329.065L50.2523 327.687L52.7658 331.176C53.1316 331.683 52.5942 332.34 52.0326 332.102L51.9982 332.086L45.714 329.016C45.4093 328.868 45.283 328.5 45.4318 328.195C45.5745 327.903 45.918 327.775 46.2146 327.896L46.253 327.913L50.3403 329.91L48.3194 327.105C47.9978 326.658 48.3801 326.054 48.911 326.139L48.9483 326.146L54.7278 327.405L51.8405 324.608C51.4539 324.233 51.7032 323.586 52.2278 323.554L52.2677 323.553L56.8281 323.553L53.8717 321.343C53.4388 321.02 53.607 320.343 54.1258 320.248L54.1663 320.242L58.2156 319.758L54.9618 318.214C54.472 317.981 54.5056 317.282 54.9969 317.089L55.0389 317.074L59.1843 315.755L55.4929 314.301C54.9323 314.08 54.9961 313.277 55.5645 313.135L55.606 313.126L59.1331 312.472L56.4237 311.084C55.9412 310.836 55.9962 310.138 56.4931 309.96L56.5356 309.947L59.7956 309.018L56.5101 307.927C56.2018 307.825 56.0289 307.501 56.1091 307.191L56.121 307.151Z" fill="black"/>
<path d="M87.5352 316.063H106.691V323.185H88.4544L87.5352 316.063Z" fill="#1D1F23"/>
<path d="M74.2736 316.063H55.1182V323.185H73.3544L74.2736 316.063Z" fill="#1D1F23"/>
<path d="M33.1388 113.058C34.3877 97.2512 39.1554 72.9048 39.1554 72.9048H123.513C123.513 72.9048 145.657 135.078 133.705 152.228C121.753 169.378 57.8197 158.859 33.1387 158.859C14.0663 158.859 31.7298 130.889 33.1388 113.058Z" fill="#17100F"/>
<path d="M41.2997 144.59C43.7551 140.213 49.2935 138.655 53.6702 141.111C58.0469 143.566 59.6044 149.105 57.149 153.481C52.6525 161.496 47.9469 176.373 44.8239 192.012L44.6736 192.771C43.2864 199.847 42.3344 206.562 41.9386 212.059L41.9038 212.56C41.7325 215.128 41.6916 217.352 41.7779 219.14L41.7949 219.46C41.8377 220.189 41.9018 220.816 41.9821 221.326L42.0049 221.465C42.0614 221.797 42.1134 222.008 42.1379 222.076C43.8446 226.795 41.4025 232.004 36.6832 233.711C31.964 235.418 26.7547 232.976 25.048 228.256C22.3993 220.932 23.4613 206.185 27.0026 188.453C30.4665 171.108 35.6932 154.583 41.2997 144.59Z" fill="#EBBAAA"/>
<path d="M108.139 141.111C112.516 138.655 118.054 140.213 120.509 144.59C126.116 154.583 131.343 171.108 134.807 188.453C138.348 206.185 139.41 220.932 136.761 228.256C135.055 232.976 129.845 235.418 125.126 233.711C120.454 232.022 118.014 226.899 119.621 222.218L119.671 222.076C119.699 221.999 119.762 221.738 119.827 221.326C119.919 220.743 119.99 220.008 120.031 219.14C120.123 217.237 120.071 214.839 119.871 212.059C119.461 206.366 118.454 199.366 116.985 192.012C113.862 176.373 109.157 161.496 104.66 153.481C102.205 149.105 103.762 143.566 108.139 141.111Z" fill="#EBBAAA"/>
<path d="M80.9045 170.892C94.4677 170.892 105.463 159.897 105.463 146.334C105.463 132.771 94.4677 121.776 80.9045 121.776C67.3413 121.776 56.3462 132.771 56.3462 146.334C56.3462 159.897 67.3413 170.892 80.9045 170.892Z" fill="#C4C4C4"/>
<path d="M128.548 135.283C121.225 120.716 89.0088 119.074 89.0088 119.074V221.237H138.125L141.809 204.569C141.809 204.569 136.323 150.751 128.548 135.283Z" fill="#E2C9BD"/>
<path d="M117.988 184.066L132.629 175.59L135.968 182.525L117.988 184.066Z" fill="#CCA999"/>
<path d="M122.757 184.911L136.711 186.552L134.494 190.886L122.757 188.112V184.911Z" fill="#CCA999"/>
<path d="M33.2614 135.283C40.584 120.716 72.8003 119.074 72.8003 119.074V221.237H23.6837L20 204.569C20 204.569 25.4858 150.751 33.2614 135.283Z" fill="#D8B9AA"/>
<path d="M43.6739 184.066L29.0327 175.59L25.6935 182.525L43.6739 184.066Z" fill="#CCA999"/>
<path d="M38.9045 184.911L24.9507 186.552L27.1679 190.886L38.9045 188.112V184.911Z" fill="#CCA999"/>
<path d="M36.6996 232.288L46.6452 117.478L70.5896 116.373L102.515 172.612L77.2208 244.567L36.6996 232.288Z" fill="#E2C9BD"/>
<path d="M43.0847 164.293L49.5922 110.387L67.1519 118.123L72.0635 160.118L74.7649 182.957L43.0847 164.293Z" fill="#E9D5CB"/>
<path d="M88.4269 187.673L89.5907 188.065L72.891 237.672L71.7273 237.281L88.4269 187.673Z" fill="#CCA999"/>
<path fill-rule="evenodd" clip-rule="evenodd" d="M84.4756 188.401L81.1932 197.66L78.8785 196.839L82.161 187.581L84.4756 188.401ZM74.6284 216.177L77.9108 206.919L75.5961 206.098L72.3137 215.357L74.6284 216.177ZM68.0636 234.695L71.346 225.436L69.0313 224.615L65.7489 233.874L68.0636 234.695Z" fill="black"/>
<path d="M79.0627 131.876L71.9408 108.545L56.9602 117.018V147.225L79.0627 131.876Z" fill="#E2C9BD"/>
<path d="M125.109 232.288L115.163 117.478L90.7278 111.738L71.0812 133.841L84.5878 244.567L125.109 232.288Z" fill="#F4E4DC"/>
<path d="M125.109 232.288L97.9725 235.143L82.7464 127.578L71.0812 133.84L84.5878 244.567L125.109 232.288Z" fill="#E9D5CB"/>
<path d="M71.0812 133.841L89.4999 108.054L100.551 116.65L89.4999 148.576L71.0812 133.841Z" fill="#F4E4DC"/>
<path d="M71.0812 133.84L88.5176 143.295L100.551 116.65L89.4999 148.575L71.0812 133.84Z" fill="#E2C9BD"/>
<path d="M93.4293 192.289L120.443 188.36L127.32 223.233L101.288 230.6L93.4293 192.289Z" fill="#E9D5CB"/>
<path d="M100.306 206.288L95.6395 198.92L99.8144 208.252L122.654 202.604L100.306 206.288Z" fill="#CCA999"/>
<path d="M115.746 194.264L116.054 196.7L103.406 198.296L103.099 195.86L115.746 194.264Z" fill="black"/>
<path d="M93.4293 192.289L102.27 228.636L127.32 223.233L99.3233 232.074L93.4293 192.289Z" fill="#CCAA99"/>
<path d="M68.3798 192.289L41.3657 188.36L34.4894 223.233L60.5212 230.6L68.3798 192.289Z" fill="#E9D5CB"/>
<path d="M61.5035 206.288L66.1695 198.92L61.9946 208.252L39.1554 202.604L61.5035 206.288Z" fill="#CCA999"/>
<path d="M46.0626 194.264L58.7102 195.86L58.4027 198.296L45.7551 196.7L46.0626 194.264Z" fill="black"/>
<path d="M68.3798 192.289L59.5389 228.636L34.4894 223.233L62.4858 232.074L68.3798 192.289Z" fill="#CCAA99"/>
<rect x="72.3091" y="99.1819" width="17.1908" height="28.4876" rx="8.59541" fill="#EBBAAA"/>
<path d="M114.058 82.9733C119.484 82.9733 123.882 78.5752 123.882 73.15C123.882 67.7248 119.484 63.3267 114.058 63.3267C108.633 63.3267 104.235 67.7248 104.235 73.15C104.235 78.5752 108.633 82.9733 114.058 82.9733Z" fill="#E4C1C1"/>
<path d="M47.7508 82.9733C42.3257 82.9733 37.9276 78.5752 37.9276 73.15C37.9276 67.7248 42.3257 63.3267 47.7508 63.3267C53.1762 63.3267 57.5741 67.7248 57.5741 73.15C57.5741 78.5752 53.1762 82.9733 47.7508 82.9733Z" fill="#E4C1C1"/>
<path d="M46.5229 51.7842C46.5229 32.7957 61.9163 17.4026 80.9046 17.4026C99.8931 17.4026 115.286 32.7957 115.286 51.7842V66.9168C115.286 70.8893 114.735 74.8427 113.648 78.6638L109.142 94.5007C105.584 107.008 94.1597 115.636 81.1563 115.636C68.3806 115.636 57.0992 107.302 53.3448 95.0906L48.4191 79.0707C47.1622 74.9827 46.5229 70.7302 46.5229 66.4534V51.7842Z" fill="#F4D5CC"/>
<path fill-rule="evenodd" clip-rule="evenodd" d="M90.7006 86.6572C90.7187 86.9004 90.7278 87.1462 90.7278 87.394V92.3056C90.7278 97.7308 86.3297 102.129 80.9045 102.129C75.4793 102.129 71.0812 97.7308 71.0812 92.3056V87.394C71.0812 87.1462 71.0903 86.9004 71.1084 86.6572H90.7006Z" fill="#393939"/>
<mask id="mask0_1_542" style="mask-type:luminance" maskUnits="userSpaceOnUse" x="71" y="77" width="20" height="26">
<rect width="19.6466" height="24.5583" rx="9.82332" transform="matrix(-1 0 0 1 90.7277 77.5703)" fill="white"/>
</mask>
<g mask="url(#mask0_1_542)">
<path d="M80.9044 109.496C77.5136 109.496 74.7648 106.747 74.7648 103.357C74.7648 99.9658 77.5136 97.217 80.9044 97.217C84.2952 97.217 87.0439 99.9658 87.0439 103.357C87.0439 106.747 84.2952 109.496 80.9044 109.496Z" fill="#FF6C6C"/>
</g>
<rect width="19.6466" height="4.91166" transform="matrix(-1 0 0 1 90.7279 86.6572)" fill="white"/>
<path d="M60.7668 86.6569C64.8357 86.6569 68.1343 83.3583 68.1343 79.2894C68.1343 75.2204 64.8357 71.9219 60.7668 71.9219C56.6978 71.9219 53.3993 75.2204 53.3993 79.2894C53.3993 83.3583 56.6978 86.6569 60.7668 86.6569Z" fill="#F2CACA"/>
<path d="M93.1898 60.6256C93.2555 59.969 93.8269 59.4852 94.4793 59.5217L94.5338 59.526L101.901 60.263C102.576 60.3305 103.068 60.9322 103.001 61.607C102.935 62.2636 102.364 62.7474 101.711 62.7108L101.657 62.7066L94.2894 61.9696C93.6146 61.9021 93.1223 61.3004 93.1898 60.6256Z" fill="black"/>
<path d="M67.2753 59.526C67.9501 59.4585 68.5518 59.9508 68.6193 60.6256C68.685 61.2821 68.2207 61.8695 67.574 61.963L67.5197 61.9696L60.1522 62.7066C59.4774 62.7741 58.8757 62.2818 58.8082 61.607C58.7425 60.9504 59.2068 60.363 59.8535 60.2696L59.9078 60.263L67.2753 59.526Z" fill="black"/>
<path d="M95.6395 58.6606C97.242 58.6606 98.5458 59.9398 98.5856 61.5327L98.5865 61.6076V68.9751C98.5865 70.6027 97.2671 71.9221 95.6395 71.9221C94.037 71.9221 92.7332 70.643 92.6934 69.05L92.6925 68.9751V61.6076C92.6925 59.9801 94.0119 58.6606 95.6395 58.6606Z" fill="black"/>
<path d="M66.1705 58.6606C67.773 58.6606 69.0768 59.9398 69.1166 61.5327L69.1175 61.6076V68.9751C69.1175 70.6027 67.7981 71.9221 66.1705 71.9221C64.568 71.9221 63.2642 70.643 63.2244 69.05L63.2235 68.9751V61.6076C63.2235 59.9801 64.5429 58.6606 66.1705 58.6606Z" fill="black"/>
<path d="M78.4812 69.4265L82.617 69.9969L82.5849 70.2206C82.4941 70.8272 82.3864 71.3049 82.053 72.6443L81.7926 73.6915C81.7542 73.8487 81.7201 73.9909 81.6872 74.1317C81.2993 75.7894 81.1865 76.8556 81.3326 77.462L81.3503 77.5303C81.3782 77.6296 81.3987 77.6599 81.4185 77.6742C81.4477 77.6953 81.5033 77.721 81.6002 77.747C81.7446 77.7858 81.9351 77.8106 82.1738 77.8152L82.2552 77.8159V81.9908C79.6122 81.9908 77.8173 80.6947 77.2739 78.4402C76.9349 77.0335 77.0839 75.52 77.5865 73.334L77.6898 72.8952C77.7287 72.7331 77.7707 72.562 77.8194 72.3663L78.1492 71.0377C78.3443 70.2374 78.4137 69.8986 78.4714 69.4962L78.4812 69.4265Z" fill="#EBBAAA"/>
<path d="M101.042 86.6569C105.111 86.6569 108.41 83.3583 108.41 79.2894C108.41 75.2204 105.111 71.9219 101.042 71.9219C96.9733 71.9219 93.6748 75.2204 93.6748 79.2894C93.6748 83.3583 96.9733 86.6569 101.042 86.6569Z" fill="#F2CACA"/>
<path d="M87.6565 49.4928C91.1437 47.8886 96.3502 47.4836 100.068 48.1563C101.27 48.3739 102.366 48.7862 103.351 49.3367C103.88 49.6326 104.346 49.951 104.746 50.2729L104.866 50.3712C105.057 50.5299 105.199 50.6622 105.292 50.7574C105.859 51.341 105.845 52.2739 105.262 52.8411C104.694 53.3933 103.794 53.3951 103.224 52.8561L103.148 52.7826L103.134 52.7696C103.071 52.7117 102.993 52.6444 102.9 52.5698C102.623 52.3472 102.293 52.1212 101.913 51.9089C101.201 51.5108 100.408 51.2128 99.543 51.0562C96.3797 50.4838 91.7752 50.842 88.8881 52.1701C88.1488 52.5102 87.2738 52.1866 86.9337 51.4473C86.5936 50.708 86.9172 49.8329 87.6565 49.4928Z" fill="#62360D"/>
<path d="M61.7419 48.1563C65.4595 47.4836 70.666 47.8886 74.1532 49.4928C74.8925 49.8329 75.2161 50.708 74.876 51.4473C74.5359 52.1866 73.6608 52.5102 72.9215 52.1701C70.0345 50.842 65.4299 50.4838 62.2668 51.0562C61.4015 51.2128 60.609 51.5108 59.8968 51.909C59.5172 52.1212 59.1868 52.3473 58.9099 52.5698C58.8357 52.6295 58.7708 52.6845 58.7156 52.7337L58.6314 52.8112C58.0643 53.3948 57.1314 53.4082 56.5478 52.8411C55.9642 52.2739 55.9508 51.3411 56.518 50.7574L56.5794 50.6959C56.6918 50.5863 56.8535 50.4418 57.0635 50.2729C57.464 49.951 57.9295 49.6326 58.4587 49.3367C59.4432 48.7862 60.5401 48.3739 61.7419 48.1563Z" fill="#62360D"/>
<path fill-rule="evenodd" clip-rule="evenodd" d="M59.9607 39.4165C64.5754 33.9857 72.0907 30.8625 77.2426 28.7214C78.9853 27.9972 80.4575 27.3854 81.4556 26.8347C82.2164 27.2881 83.6108 27.7624 85.3682 28.3602C89.6967 29.8326 96.2276 32.0541 100.92 36.5587C105.951 41.3891 115.286 55.2088 115.286 63.4501C128.425 65.4147 125.232 85.0614 112.094 82.7284C111.931 84.0609 111.426 86.3983 110.864 88.998C110.58 90.3113 110.282 91.6914 110.006 93.0428C107.71 104.293 103.278 115.839 99.1073 126.705C91.7258 145.936 85.1608 163.04 92.6926 172.612C98.095 179.477 108.191 179.017 115.041 173.594C120.227 169.489 119.565 165.522 118.522 159.266C118.045 156.41 117.489 153.077 117.374 149.036C117.035 137.165 118.962 125.568 120.882 114.012C122.927 101.709 124.964 89.4515 124.25 76.9574C123.327 60.8022 119.434 48.0002 115.041 36.5587C109.147 21.2098 91.3422 11.7551 84.5884 14.0881C83.2829 14.539 82.3295 15.3139 81.6533 16.2829C81.3151 15.5691 80.8992 14.9754 80.3971 14.578C76.3799 11.3986 62.1368 17.6353 55.8064 23.6273C49.4762 29.6193 42.2169 42.0892 39.3636 60.0684C38.0327 68.454 38.0329 94.9571 38.0329 104.647V104.825C38.0329 107.864 38.1441 111.188 38.2603 114.659C38.5086 122.084 38.7795 130.182 38.0329 137.598C37.2854 145.023 36.2083 158.505 36.2085 176.726C36.2085 180.887 47.8372 182.145 48.5023 178.805C48.9908 176.351 49.0201 168.172 49.051 159.534C49.0817 150.955 49.1141 141.924 49.5995 137.598C49.7319 136.418 49.8742 135.281 50.0195 134.179C50.4212 137.879 50.7825 140.689 51.0663 142.037C52.0517 146.717 52.203 151.83 52.3415 156.508C52.4791 161.157 52.604 165.376 53.5221 168.314C54.3166 170.856 56.9285 170.788 60.7161 170.689C61.5028 170.669 62.3402 170.647 63.2226 170.647C65.4329 170.647 66.4152 141.423 65.4329 132.09C64.647 124.625 61.6674 112.362 60.2756 106.918C54.5209 101.016 51.3634 90.6623 49.5928 82.851C49.2199 82.9442 48.7201 82.9309 48.1989 82.8652C48.4272 79.2166 48.4294 74.8884 48.4314 70.807V70.8069V70.8069C48.4328 68.0861 48.4341 65.475 48.5023 63.2479C48.7456 55.2994 53.3103 47.2433 59.9607 39.4165Z" fill="#311E1C"/>
<path fill-rule="evenodd" clip-rule="evenodd" d="M79.947 25.8022C48.5707 26.8012 38.8792 66.305 38.8792 66.305C33.6788 66.305 31.6002 59.991 31.8011 51.8273L31.5514 51.5764L31.8357 50.8464C31.8729 50.0351 31.9315 49.2077 32.0108 48.3686L30.6151 46.9722L32.4019 45.1849C32.4491 44.871 32.4988 44.5563 32.5512 44.2408L29.9109 41.5995L32.912 38.5983L31.2554 35.6078L33.9231 32.9403L33.1835 29.0328L36.6495 26.9967L36.0533 24.7331L38.8877 21.8986L37.2791 20.2901L42.7225 18.0639L42.1143 15.455L45.3902 15.3963L45.4489 12.1204L50.2253 10.5611L50.6175 6.95178L54.3936 6.39288L55.8941 4.89232L58.9914 4.65487L58.2283 2.55811L64.1012 2.76214L65.2203 0.21318L71.1232 1.28085L72.5102 -1L79.0706 2.47734C79.5259 2.46533 79.9836 2.45785 80.4436 2.45486L80.9045 2.45336C81.5193 2.45336 82.1299 2.46131 82.7362 2.47728L89.2963 -1L90.6836 1.28085L96.5864 0.21318L97.7056 2.76214L103.578 2.55811L102.815 4.65487L105.912 4.89232L107.413 6.39288L111.189 6.95178L111.581 10.5611L116.358 12.1204L116.417 15.3963L119.692 15.455L119.084 18.0639L124.527 20.2901L122.919 21.8986L125.753 24.7331L125.157 26.9967L128.623 29.0328L127.884 32.9403L130.551 35.6078L128.895 38.5983L131.896 41.5995L129.257 44.2386C129.31 44.5558 129.36 44.8723 129.407 45.1879L131.192 46.9722L129.798 48.3663C129.877 49.2087 129.936 50.0391 129.973 50.8534L130.255 51.5764L130.008 51.8248C130.209 59.9897 128.131 66.305 122.93 66.305L122.881 66.1166C122.103 63.1446 111.756 25.9905 80.9045 25.7838L79.947 25.8022Z" fill="#8A8080"/>
</g>
<defs>
<clipPath id="clip0_1_542">
<rect width="162.74" height="346.1" fill="white"/>
</clipPath>
</defs>
</svg>
