<svg width="163" height="347" viewBox="0 0 163 347" fill="none" xmlns="http://www.w3.org/2000/svg">
<path d="M47.6245 116.139C46.1549 105.889 53.2748 96.4354 63.5273 95.0231L101.059 89.8531C112.269 88.3088 122.549 96.4403 123.631 107.707C124.686 118.697 116.561 128.384 105.554 129.258L67.7752 132.257C57.8732 133.043 49.0346 125.974 47.6245 116.139Z" fill="#2F200F"/>
<path d="M96.3688 44.1925C109.456 44.1925 109.021 58.822 114.757 64.266C116.521 74.676 108.4 95.3135 113.67 108.294C120.526 117.194 118.229 120.967 117.362 121.916C117.255 122.005 117.165 122.089 117.094 122.168C117.094 122.168 117.205 122.089 117.362 121.916C119.169 120.418 125.914 117.386 127.563 110.108C129.408 101.959 134.565 106.966 134.305 97.2298C133.958 84.2674 127.409 56.5521 123.619 47.2356C120.392 39.3036 111.069 29.1177 96.3688 29.1177C88.8407 30.6983 94.0905 44.1925 96.3688 44.1925Z" fill="#3D2C18"/>
<rect x="69.4072" y="107.019" width="22.744" height="29.1832" rx="11.372" fill="#F1D3CB"/>
<path d="M39.1475 46.561C39.1475 26.2607 56.9062 9.80402 78.813 9.80402C100.72 9.80402 118.478 26.2607 118.478 46.561L115.932 83.1203C112.733 106.835 96.0867 119.877 78.813 119.877C61.5393 119.877 44.0395 104.068 41.6937 83.1203L39.1475 46.561Z" fill="#F6DDD6"/>
<path fill-rule="evenodd" clip-rule="evenodd" d="M68.8987 93.368C68.8982 93.4096 68.8979 93.4511 68.8979 93.4929V96.5815C68.8979 101.941 73.2405 106.286 78.5974 106.286C83.9541 106.286 88.2967 101.941 88.2967 96.5815V93.4929C88.2967 93.4511 88.2964 93.4096 88.2959 93.368H68.8987Z" fill="#393939"/>
<mask id="mask0_1_1689" style="mask-type:luminance" maskUnits="userSpaceOnUse" x="68" y="91" width="21" height="16">
<path fill-rule="evenodd" clip-rule="evenodd" d="M69.0556 91.7413C68.9522 92.3094 68.8979 92.8946 68.8979 93.4928V96.5814C68.8979 101.941 73.2405 106.286 78.5974 106.286C83.9541 106.286 88.2967 101.941 88.2967 96.5814V93.4928C88.2967 92.8946 88.2427 92.3094 88.1391 91.7413H69.0556Z" fill="white"/>
</mask>
<g mask="url(#mask0_1_1689)">
<path d="M78.597 109.334C81.8274 109.334 84.4462 107.937 84.4462 106.213C84.4462 104.49 81.8274 103.093 78.597 103.093C75.3666 103.093 72.7478 104.49 72.7478 106.213C72.7478 107.937 75.3666 109.334 78.597 109.334Z" fill="#FF6C6C"/>
<rect x="68.8979" y="93.368" width="19.3986" height="3.91891" fill="white"/>
</g>
<path d="M61.3828 56.4141C63.575 56.2248 65.7293 56.3121 67.7105 56.5725C68.0895 56.6224 68.436 56.6755 68.7466 56.7294L69.01 56.7768C69.1543 56.8037 69.2622 56.8257 69.3311 56.8409C70.1551 57.0226 70.6758 57.8382 70.4942 58.6626C70.3167 59.4683 69.5342 59.9842 68.7296 59.8376L68.5688 59.8048C68.51 59.7932 68.4323 59.7784 68.3368 59.7613C68.0399 59.7079 67.6966 59.654 67.3124 59.6035C65.5356 59.3699 63.5963 59.2913 61.6456 59.4598C60.1838 59.5861 58.695 59.8551 57.2381 60.2244C56.5061 60.4099 55.8307 60.6085 55.2298 60.8064L55.03 60.8731C54.9662 60.8947 54.9053 60.9157 54.8474 60.9359L54.6131 61.0195L54.5094 61.0581C53.7225 61.3628 52.8378 60.9715 52.5333 60.1842C52.2288 59.3969 52.6199 58.5117 53.4068 58.2071L53.5674 58.1467C53.7235 58.0895 53.9343 58.0155 54.1949 57.9289L54.2746 57.9026C54.9406 57.6833 55.6837 57.4648 56.4877 57.261C58.0951 56.8535 59.7433 56.5557 61.3828 56.4141Z" fill="#46413D"/>
<path d="M89.0416 56.1973C91.1572 56.0253 93.5015 56.0555 95.826 56.4303C97.2045 56.6526 98.5569 56.9976 99.8597 57.4319C100.691 57.7091 101.454 58.0065 102.134 58.3051L102.369 58.41C102.665 58.5437 102.885 58.6514 103.023 58.7235C103.771 59.1143 104.061 60.0377 103.67 60.786C103.289 61.5164 102.4 61.81 101.663 61.4601L101.48 61.3691L101.445 61.352C101.292 61.2781 101.111 61.1947 100.905 61.1041C100.308 60.8418 99.6322 60.5784 98.8937 60.3322C97.7399 59.9475 96.5456 59.6428 95.3398 59.4483C93.2896 59.1178 91.1793 59.0907 89.289 59.2443L89.0661 59.2635C88.9948 59.27 88.9266 59.2766 88.8615 59.2832L88.5653 59.3159L88.4807 59.3267C87.6451 59.4436 86.873 58.8606 86.7561 58.0246C86.6393 57.1885 87.222 56.416 88.0576 56.2991L88.2418 56.2755C88.4379 56.252 88.7074 56.2245 89.0416 56.1973Z" fill="#46413D"/>
<path d="M65.0341 66.1774C65.729 66.0698 66.3794 66.5461 66.487 67.2413C66.5917 67.9182 66.1432 68.553 65.4781 68.6853L65.4237 68.6949L58.5652 69.7573C57.8704 69.8649 57.2199 69.3886 57.1123 68.6934C57.0076 68.0165 57.4562 67.3816 58.1213 67.2493L58.1757 67.2397L65.0341 66.1774Z" fill="black"/>
<path d="M90.0772 66.5907C90.1819 65.9138 90.8013 65.4444 91.4753 65.5195L91.53 65.5268L98.3885 66.5888C99.0833 66.6964 99.5594 67.3472 99.4519 68.0424C99.3471 68.7193 98.7277 69.1888 98.0538 69.1137L97.999 69.1064L91.1406 68.0443C90.4457 67.9367 89.9696 67.2859 90.0772 66.5907Z" fill="black"/>
<path d="M60.8795 67.2629C60.9749 65.5773 62.4181 64.2882 64.1029 64.3838C65.7617 64.4778 67.0363 65.8791 66.984 67.5313L66.9806 67.6089L66.7145 72.3063C66.619 73.9919 65.1758 75.281 63.491 75.1854C61.8322 75.0914 60.5576 73.6901 60.61 72.0379L60.6134 71.9603L60.8795 67.2629Z" fill="black"/>
<path d="M89.8621 66.6123C89.9576 64.9267 91.4008 63.6376 93.0855 63.7331C94.7444 63.8272 96.019 65.2285 95.9666 66.8806L95.9632 66.9582L95.6971 71.6559C95.6017 73.3415 94.1585 74.6306 92.4737 74.5351C90.8149 74.441 89.5403 73.0397 89.5926 71.3876L89.596 71.3099L89.8621 66.6123Z" fill="black"/>
<path d="M77.8048 63.0281L82.0915 63.6291L82.0719 63.7586C81.9719 64.3715 81.7545 65.1169 81.3673 66.2532L79.9792 70.2045C79.9344 70.3339 79.895 70.4483 79.8629 70.5426C79.3672 71.9985 78.9745 73.2603 78.6573 74.4507L78.5698 74.7851C77.8603 77.5468 77.6438 79.7006 77.9698 81.1175C78.2624 82.3889 78.9218 82.9239 80.6198 82.9423L80.7118 82.9428V87.2736C76.9428 87.2736 74.5051 85.3632 73.7517 82.0893C73.2152 79.7584 73.5288 76.8854 74.4748 73.3351C74.7799 72.1904 75.143 71.0044 75.5846 69.6825L75.8828 68.8051C76.2798 67.6591 77.088 65.3842 77.1476 65.2122L77.2558 64.8977C77.5653 63.9898 77.7393 63.4029 77.7945 63.0925L77.8048 63.0281Z" fill="#EBBAAA"/>
<path d="M106.267 84.6384C106.157 86.3122 104.027 88.7858 101.673 87.6708C99.3185 86.5557 97.6316 82.2743 97.7414 80.6003C97.8514 78.9266 100.07 75.1058 102.424 76.2209C104.779 77.3359 106.377 82.9645 106.267 84.6384Z" fill="#F2CACA"/>
<path d="M51.2343 86.6899C51.3441 88.3639 53.4745 90.8376 55.8287 89.7225C58.1829 88.6075 59.8698 84.3261 59.7598 82.6521C59.6501 80.9781 57.4313 77.1576 55.0771 78.2727C52.7229 79.3877 51.1244 85.0162 51.2343 86.6899Z" fill="#F2CACA"/>
<path d="M51.3291 57.8188C57.6946 51.1468 59.2223 25.4556 77.8096 25.4556C81.0458 25.4556 87.3579 8.36959 77.8096 6C56.9308 6 43.436 20.467 38.8529 31.7326C29.4262 54.9039 14.3018 76.6027 20.4127 103.582C22.8933 114.534 44.9382 131.129 38.8529 138.634C32.7678 146.139 49.6802 130.619 59.6104 121.391C51.3291 98.0175 44.9636 64.4907 51.3291 57.8188Z" fill="#3D2C18"/>
<path d="M74.4266 8.73305C75.1209 8.62232 75.7735 9.09573 75.8842 9.79044C75.9949 10.4851 75.5217 11.1381 74.8274 11.2488L72.7586 11.5824C72.1775 11.6784 71.7964 11.7456 71.3755 11.8244C70.3522 12.0159 69.5888 12.1972 68.8593 12.4262L68.738 12.4648C67.6092 12.8289 66.4565 13.3361 64.373 14.3738C63.7435 14.6873 62.9793 14.4309 62.6659 13.8012C62.3526 13.1714 62.6088 12.4068 63.2382 12.0932L63.6638 11.8823C65.5938 10.9303 66.7637 10.425 67.9566 10.0402C68.7906 9.77108 69.6349 9.56371 70.7236 9.35507L71.4855 9.21494C72.1125 9.10412 72.8642 8.9822 74.4266 8.73305Z" fill="#6E5232"/>
<path d="M75.0502 13.3345C75.7517 13.2872 76.3588 13.8177 76.4062 14.5196C76.4536 15.2215 75.9233 15.8289 75.2218 15.8763L74.9105 15.8986C72.0113 16.1197 70.7207 16.6048 67.9027 18.3137C67.3014 18.6784 66.5185 18.4863 66.154 17.8847C65.7896 17.2831 65.9816 16.4998 66.5829 16.1352L66.8968 15.9461C69.9362 14.1303 71.6026 13.5675 75.0502 13.3345Z" fill="#6E5232"/>
<path d="M49.6089 126.693C52.9526 126.853 57.6341 122.983 59.5569 121.028C59.0383 127.631 54.3484 130.062 52.3003 131.228C49.5735 132.781 48.2635 138.264 46.4751 140.572C46.0081 139.405 41.2703 134.537 42.1902 130.917C43.34 126.392 45.4296 126.492 49.6089 126.693Z" fill="#3D2C18"/>
<path d="M50.4379 113.879C47.7644 108.729 48.269 99.3914 47.5098 94.2983C53.0763 101.627 53.7734 108.978 56.6677 112.507C64.442 121.985 56.9381 128.865 58.0765 134.082C55.14 130.216 54.3845 127.722 54.3845 122.359C54.3845 115.195 53.709 120.18 50.4379 113.879Z" fill="#3D2C18"/>
<path d="M43.5957 120.884C46.9392 121.045 51.6209 117.175 53.5438 115.22C53.0251 121.822 53.5125 136.9 49.4347 133.373C45.3572 129.847 38.2169 130.828 36.4285 133.136C35.9614 131.969 35.257 128.729 36.1769 125.109C37.3267 120.584 39.4164 120.684 43.5957 120.884Z" fill="#3D2C18"/>
<path d="M82.5182 27.4106C101.105 27.4106 94.9327 36.5021 114.476 46.3827C118.073 52.6891 117.952 65.8496 115.661 86.2298C114.213 99.1066 111.993 112.343 116.998 118.84C121.414 124.573 123.062 127.534 123.416 129.005C122.681 129.304 121.992 129.028 121.22 129.892C121.22 129.892 123.984 131.366 123.416 129.005C124.377 128.613 125.416 127.236 126.822 121.029C129.443 109.456 136.768 116.567 136.398 102.738C135.906 84.3284 126.604 44.9647 121.22 31.7326C116.637 20.467 103.397 6 82.5182 6C71.8259 8.24487 79.282 27.4106 82.5182 27.4106Z" fill="#3D2C18"/>
<path fill-rule="evenodd" clip-rule="evenodd" d="M115.515 85.7527C121.317 85.5797 125.912 81.0904 125.797 75.6833C125.695 70.9171 121.968 67.0194 117.11 66.2136L115.932 83.1203C115.812 84.013 115.673 84.8903 115.515 85.7527Z" fill="#EBBAAA"/>
<path d="M119.431 85.8471C120.898 85.8471 122.087 84.682 122.087 83.2448C122.087 81.8076 120.898 80.6426 119.431 80.6426C117.963 80.6426 116.774 81.8076 116.774 83.2448C116.774 84.682 117.963 85.8471 119.431 85.8471Z" fill="white"/>
<path d="M122.62 111.736C123.42 106.136 120.245 94.987 118.558 90.1128C125.386 96.3339 127.05 106.335 127.887 110.787C129 116.714 132.034 128.985 134.118 133.914C132.805 133.772 129.273 132.362 125.649 127.862C121.119 122.237 121.619 118.737 122.62 111.736Z" fill="#3D2C18"/>
<path d="M123.917 110.324C120.336 105.733 119.107 96.4599 117.419 91.5857C124.248 97.8068 128.984 104.047 132.482 107.004C141.879 114.948 133.078 123.91 135.162 128.839C131.559 125.558 130.355 123.238 129.365 117.964C128.041 110.918 128.298 115.941 123.917 110.324Z" fill="#3D2C18"/>
<path d="M115.313 117.365C116.113 111.764 117 107.658 115.313 102.784C122.141 109.005 133.989 113.304 129.519 117.444C125.048 121.584 124.727 134.614 126.811 139.543C125.498 139.4 121.966 137.991 118.342 133.491C113.812 127.866 114.312 124.366 115.313 117.365Z" fill="#3D2C18"/>
<path d="M111.724 41.3156C114.191 46.4282 123.089 54.0436 127.229 57.2119C118.036 55.6804 113.844 62.0268 99.8028 48.8838C85.761 35.7409 85.8381 29.7309 81.3357 26.7294C82.5133 26.1427 94.6113 27.6455 100.161 29.4605C107.098 31.7293 108.64 34.9246 111.724 41.3156Z" fill="#3D2C18"/>
<path d="M102.248 233.833C103.968 241.542 104.755 258.418 105.017 284.175L105.051 287.97C105.111 295.379 105.126 302.205 105.117 312.523L105.1 326.605L105.1 327.22H89.8231L89.8418 309.573C89.846 300.419 89.8264 294.055 89.7656 287L89.7491 285.192C89.5099 260.584 88.7542 243.789 87.3801 237.359L87.3374 237.163L102.248 233.833Z" fill="#F6DDD6"/>
<path d="M60.0508 232.4L74.9609 235.73C73.6431 241.637 72.6319 258.967 72.5059 277.865L72.5023 278.439C72.3877 298.495 73.2773 315.904 74.8961 323.128L74.9454 323.344L60.0663 326.811C58.0722 318.244 57.1218 300.182 57.222 278.994L57.2254 278.351C57.3397 258.329 58.3788 240.165 60.0014 232.625L60.0508 232.4Z" fill="#F6DDD6"/>
<path d="M126.469 304.501L113.738 201.818H99.4795C95.4056 234.634 98.7666 308.524 104.063 309.795C109.359 311.064 124.772 307.324 126.469 304.501Z" fill="#C8CEE7"/>
<path opacity="0.44" d="M95.6926 236.328C95.3227 238.2 96.5691 240.023 98.4765 240.4C100.384 240.778 102.23 239.566 102.6 237.695C102.97 235.824 101.723 234.001 99.816 233.623C97.9086 233.246 96.0625 234.457 95.6926 236.328Z" fill="white"/>
<path opacity="0.44" d="M97.7712 251.88C97.4013 253.752 98.6477 255.575 100.555 255.952C102.462 256.33 104.309 255.119 104.678 253.247C105.048 251.376 103.802 249.553 101.895 249.175C99.9872 248.798 98.1411 250.009 97.7712 251.88Z" fill="white"/>
<path d="M33.2512 298.596L51.3783 180.865L100.417 201.819C104.491 232.748 99.2505 311.731 93.8253 312.057C60.5594 314.057 60.7305 314.816 45.9822 310.162C33.5816 306.249 34.0266 299.812 33.2512 298.596Z" fill="#BCC5E9"/>
<path d="M83.44 215.509L37.8244 201.11C37.1854 200.908 36.8121 200.246 36.9704 199.594L37.9622 195.514L85.0961 210.045V214.294C85.0961 215.154 84.2604 215.767 83.44 215.509Z" fill="white"/>
<path d="M81.6958 232.217L84.0156 208.885C84.076 208.278 84.5638 207.804 85.1767 207.757L88.0575 207.537L87.2684 232.923L83.1922 233.606C82.3583 233.746 81.6128 233.054 81.6958 232.217Z" fill="white"/>
<path d="M95.8112 229.465L88.4083 211.655C88.1733 211.09 87.5699 210.773 86.9713 210.899L84.7629 211.364L91.6076 231.596L94.7838 231.22C95.6233 231.121 96.1355 230.246 95.8112 229.465Z" fill="white"/>
<path d="M90.0529 215.6L119.675 204.341C120.213 204.136 120.546 203.597 120.489 203.024L120.077 198.881L86.7217 208.983L88.377 214.76C88.5824 215.477 89.3565 215.865 90.0529 215.6Z" fill="white"/>
<path d="M87.3811 322.168C88.1862 320.38 89.3134 318.592 90.7087 316.857C90.8699 316.648 91.1383 316.594 91.3529 316.752C99.9942 324.324 102.383 326.588 112.292 331.182C112.346 331.128 112.453 331.128 112.56 331.182C115.566 332.285 121.202 333.757 123.509 335.334C123.939 335.703 124.368 338.113 123.509 338.536C120.289 340.271 106.427 341.749 102.24 339.752C99.235 338.333 96.452 336.218 93.8755 333.643C92.5336 332.328 90.8699 330.856 90.7087 333.696V339.331C90.7087 339.543 90.4941 339.752 90.2795 339.752H88.5618C88.2934 339.752 88.1325 339.543 88.1325 339.331V335.334C86.6565 334.2 84.6437 328.479 87.3811 322.168Z" fill="#414141"/>
<path d="M77.2451 322.168C76.44 320.38 75.3127 318.592 73.9174 316.857C73.7563 316.648 73.4879 316.594 73.2732 316.752C64.6319 324.324 62.2431 326.588 52.3343 331.182C52.2806 331.128 52.1734 331.128 52.0659 331.182C49.0601 332.285 43.4246 333.757 41.1167 335.334C40.6873 335.703 40.2579 338.113 41.1167 338.536C44.337 340.271 58.1992 341.749 62.3857 339.752C65.3912 338.333 68.1745 336.218 70.7507 333.643C72.0926 332.328 73.7563 330.856 73.9174 333.696V339.331C73.9174 339.543 74.1321 339.752 74.3467 339.752H76.0644C76.3328 339.752 76.4937 339.543 76.4937 339.331V335.334C77.9697 334.2 79.9825 328.479 77.2451 322.168Z" fill="#414141"/>
<g opacity="0.5">
<path d="M92.7736 221.498C92.4744 223.382 93.7889 225.156 95.7096 225.462C97.6303 225.767 99.4299 224.488 99.7291 222.604C100.028 220.721 98.7139 218.946 96.7932 218.641C94.8724 218.336 93.0728 219.615 92.7736 221.498Z" fill="white"/>
<path d="M104.569 218.757C104.27 220.641 105.584 222.415 107.505 222.721C109.425 223.026 111.225 221.747 111.524 219.864C111.824 217.98 110.509 216.206 108.588 215.9C106.668 215.595 104.868 216.874 104.569 218.757Z" fill="white"/>
<path d="M107.233 234.224C106.934 236.107 108.248 237.882 110.169 238.187C112.09 238.493 113.889 237.214 114.189 235.33C114.488 233.447 113.173 231.672 111.253 231.367C109.332 231.061 107.532 232.34 107.233 234.224Z" fill="white"/>
<path d="M109.898 249.69C109.599 251.574 110.913 253.348 112.834 253.654C114.755 253.959 116.554 252.68 116.853 250.796C117.153 248.913 115.838 247.138 113.917 246.833C111.997 246.528 110.197 247.807 109.898 249.69Z" fill="white"/>
<path d="M112.547 265.251C112.248 267.135 113.562 268.909 115.483 269.215C117.404 269.52 119.203 268.241 119.502 266.357C119.802 264.474 118.487 262.7 116.566 262.394C114.646 262.089 112.846 263.368 112.547 265.251Z" fill="white"/>
<path d="M115.206 280.748C114.907 282.631 116.222 284.406 118.142 284.711C120.063 285.017 121.863 283.737 122.162 281.854C122.461 279.971 121.147 278.196 119.226 277.891C117.305 277.585 115.506 278.864 115.206 280.748Z" fill="white"/>
<path d="M117.891 296.089C117.592 297.973 118.906 299.747 120.827 300.053C122.748 300.358 124.547 299.079 124.847 297.195C125.146 295.312 123.831 293.537 121.911 293.232C119.99 292.927 118.19 294.206 117.891 296.089Z" fill="white"/>
<path d="M100.583 268.479C100.213 270.35 101.46 272.173 103.367 272.551C105.275 272.928 107.121 271.717 107.49 269.845C107.86 267.974 106.614 266.151 104.706 265.774C102.799 265.396 100.953 266.608 100.583 268.479Z" fill="white"/>
<path d="M102.663 284.032C102.293 285.903 103.539 287.726 105.447 288.103C107.354 288.48 109.2 287.269 109.57 285.398C109.94 283.526 108.693 281.703 106.786 281.326C104.879 280.949 103.033 282.16 102.663 284.032Z" fill="white"/>
<path d="M104.742 299.584C104.372 301.456 105.619 303.279 107.526 303.656C109.434 304.033 111.28 302.822 111.649 300.951C112.019 299.079 110.773 297.256 108.865 296.879C106.958 296.502 105.112 297.713 104.742 299.584Z" fill="white"/>
<path d="M90.194 237.719C89.8948 239.603 91.2093 241.377 93.13 241.683C95.0507 241.988 96.8503 240.709 97.1496 238.826C97.4488 236.942 96.1343 235.168 94.2136 234.862C92.2928 234.557 90.4932 235.836 90.194 237.719Z" fill="white"/>
<path d="M87.6005 254.018C87.3013 255.902 88.6158 257.676 90.5365 257.982C92.4572 258.287 94.2568 257.008 94.556 255.124C94.8553 253.241 93.5408 251.466 91.6201 251.161C89.6993 250.856 87.8997 252.135 87.6005 254.018Z" fill="white"/>
<path d="M85.0153 270.273C84.7161 272.156 86.0306 273.93 87.9513 274.236C89.872 274.541 91.6716 273.262 91.9708 271.379C92.2701 269.495 90.9556 267.721 89.0349 267.415C87.1141 267.11 85.3145 268.389 85.0153 270.273Z" fill="white"/>
<path d="M82.4555 286.383C82.1563 288.267 83.4708 290.041 85.3915 290.346C87.3122 290.652 89.1118 289.373 89.411 287.489C89.7102 285.606 88.3958 283.831 86.475 283.526C84.5543 283.22 82.7547 284.5 82.4555 286.383Z" fill="white"/>
<path d="M78.8508 219.373C78.5515 221.257 79.866 223.031 81.7867 223.337C83.7075 223.642 85.5071 222.363 85.8063 220.479C86.1055 218.596 84.791 216.822 82.8703 216.516C80.9496 216.211 79.15 217.49 78.8508 219.373Z" fill="white"/>
<path d="M76.2712 235.595C75.972 237.478 77.2864 239.252 79.2072 239.558C81.1279 239.863 82.9275 238.584 83.2267 236.701C83.5259 234.817 82.2114 233.043 80.2907 232.737C78.37 232.432 76.5704 233.711 76.2712 235.595Z" fill="white"/>
<path d="M73.6767 251.893C73.3775 253.777 74.692 255.551 76.6127 255.857C78.5334 256.162 80.333 254.883 80.6322 253C80.9314 251.116 79.6169 249.342 77.6962 249.036C75.7755 248.731 73.9759 250.01 73.6767 251.893Z" fill="white"/>
<path d="M71.092 268.148C70.7928 270.031 72.1072 271.806 74.028 272.111C75.9487 272.417 77.7483 271.137 78.0475 269.254C78.3467 267.371 77.0322 265.596 75.1115 265.291C73.1908 264.985 71.3912 266.264 71.092 268.148Z" fill="white"/>
<path d="M68.5326 284.258C68.2334 286.142 69.5479 287.916 71.4686 288.222C73.3894 288.527 75.189 287.248 75.4882 285.365C75.7874 283.481 74.4729 281.707 72.5522 281.401C70.6315 281.096 68.8319 282.375 68.5326 284.258Z" fill="white"/>
<path d="M64.9277 217.249C64.6285 219.132 65.9429 220.907 67.8637 221.212C69.7844 221.518 71.584 220.238 71.8832 218.355C72.1824 216.471 70.8679 214.697 68.9472 214.392C67.0265 214.086 65.2269 215.365 64.9277 217.249Z" fill="white"/>
<path d="M62.3483 233.47C62.0491 235.353 63.3636 237.128 65.2843 237.433C67.205 237.738 69.0046 236.459 69.3039 234.576C69.6031 232.692 68.2886 230.918 66.3679 230.612C64.4471 230.307 62.6475 231.586 62.3483 233.47Z" fill="white"/>
<path d="M59.7531 249.768C59.4539 251.652 60.7684 253.426 62.6891 253.732C64.6098 254.037 66.4094 252.758 66.7086 250.875C67.0079 248.991 65.6934 247.217 63.7726 246.911C61.8519 246.606 60.0523 247.885 59.7531 249.768Z" fill="white"/>
<path d="M57.1681 266.023C56.8689 267.907 58.1834 269.681 60.1041 269.987C62.0248 270.292 63.8245 269.013 64.1237 267.129C64.4229 265.246 63.1084 263.471 61.1877 263.166C59.267 262.861 57.4674 264.14 57.1681 266.023Z" fill="white"/>
<path d="M54.6098 282.131C54.3106 284.015 55.6251 285.789 57.5458 286.095C59.4665 286.4 61.2661 285.121 61.5653 283.237C61.8645 281.354 60.5501 279.58 58.6293 279.274C56.7086 278.969 54.909 280.248 54.6098 282.131Z" fill="white"/>
<path d="M51.0048 215.124C50.7056 217.007 52.0201 218.782 53.9408 219.087C55.8615 219.393 57.6611 218.113 57.9603 216.23C58.2596 214.347 56.9451 212.572 55.0244 212.267C53.1036 211.961 51.304 213.24 51.0048 215.124Z" fill="white"/>
<path d="M48.4252 231.345C48.126 233.228 49.4405 235.003 51.3612 235.308C53.2819 235.614 55.0815 234.335 55.3808 232.451C55.68 230.568 54.3655 228.793 52.4448 228.488C50.524 228.182 48.7244 229.462 48.4252 231.345Z" fill="white"/>
<path d="M45.8295 247.644C45.5303 249.527 46.8448 251.302 48.7655 251.607C50.6862 251.912 52.4858 250.633 52.7851 248.75C53.0843 246.866 51.7698 245.092 49.8491 244.786C47.9283 244.481 46.1287 245.76 45.8295 247.644Z" fill="white"/>
<path d="M43.2446 263.899C42.9453 265.782 44.2598 267.557 46.1805 267.862C48.1013 268.167 49.9009 266.888 50.2001 265.005C50.4993 263.121 49.1848 261.347 47.2641 261.041C45.3434 260.736 43.5438 262.015 43.2446 263.899Z" fill="white"/>
<path d="M40.6869 280.009C40.3877 281.893 41.7022 283.667 43.6229 283.972C45.5436 284.278 47.3433 282.999 47.6425 281.115C47.9417 279.232 46.6272 277.457 44.7065 277.152C42.7858 276.846 40.9862 278.126 40.6869 280.009Z" fill="white"/>
<path d="M79.5175 302.603C79.2183 304.487 80.5328 306.261 82.4535 306.567C84.3742 306.872 86.1738 305.593 86.473 303.709C86.7723 301.826 85.4578 300.051 83.5371 299.746C81.6163 299.441 79.8167 300.72 79.5175 302.603Z" fill="white"/>
<path d="M65.5947 300.479C65.2954 302.362 66.6099 304.136 68.5306 304.442C70.4514 304.747 72.251 303.468 72.5502 301.585C72.8494 299.701 71.5349 297.927 69.6142 297.621C67.6935 297.316 65.8939 298.595 65.5947 300.479Z" fill="white"/>
<path d="M51.6718 298.354C51.3726 300.237 52.6871 302.012 54.6078 302.317C56.5285 302.623 58.3281 301.344 58.6273 299.46C58.9266 297.577 57.6121 295.802 55.6913 295.497C53.7706 295.191 51.971 296.47 51.6718 298.354Z" fill="white"/>
<path d="M37.749 296.229C37.4497 298.113 38.7642 299.887 40.6849 300.193C42.6057 300.498 44.4053 299.219 44.7045 297.335C45.0037 295.452 43.6892 293.678 41.7685 293.372C39.8478 293.067 38.0482 294.346 37.749 296.229Z" fill="white"/>
</g>
<path d="M105.634 129.92L119.568 187.601C119.568 187.601 119.568 190.22 117.912 191.592C116.257 192.964 114.73 201.111 114.73 201.111L92.0128 207.282C92.0128 207.282 72.3858 204.08 70.5497 203.76C70.0893 203.68 67.5601 201.819 67.5601 201.819L55.5358 200.199C55.5358 200.199 47.892 195.209 46.3642 193.088C44.8365 190.968 45.4731 186.977 45.4731 186.977L47.2282 156.613L57.6388 129.92L76.5367 132.414L105.634 129.92Z" fill="#BCC5E8"/>
<path d="M56.8274 147.316L55.8692 148.908C55.3594 149.758 54.774 150.741 54.4567 151.294C53.3346 153.248 52.3114 155.195 51.3495 157.265C49.0838 162.142 47.4234 167.14 46.5398 172.257L46.4893 172.555L66.8573 142.331C69.737 138.058 75.5045 136.898 79.8054 139.699L79.9353 139.785C84.2062 142.667 85.3655 148.437 82.5659 152.74L82.4798 152.87L47.6828 204.506L31.067 202.59C27.2605 192.585 26.2214 182.377 27.503 172.195C28.5125 164.175 30.8898 156.58 34.2636 149.318C35.3953 146.883 36.5836 144.603 37.8628 142.351L38.1837 141.791C38.5906 141.086 39.2348 140.004 39.7555 139.136L40.6682 137.622C43.3151 133.284 48.931 131.828 53.3505 134.334L53.4854 134.412C57.9697 137.052 59.466 142.83 56.8274 147.316Z" fill="#F6DDD6"/>
<path d="M49.7512 125.671C60.1043 123.747 69.5754 122.605 74.6184 122.946L54.0163 159.918C42.0174 162.643 31.1664 162.416 25.8489 159.918C25.3396 151.735 39.398 127.595 49.7512 125.671Z" fill="#BCC5E8"/>
<path d="M116.401 125.671C110.47 125.671 97.0557 122.563 92.0127 122.904L112.919 159.918C124.918 162.643 142.42 171.112 142.929 162.93C143.438 154.747 126.835 125.671 116.401 125.671Z" fill="#BCC5E8"/>
<path d="M73.2051 132.487L90.2422 130.61L84.4947 158.024L73.2051 139.327V132.487Z" fill="#F1D3CB"/>
<path d="M85.5762 153.132C87.6131 142.756 90.5397 125.79 92.1446 122.97C93.3831 122.97 98.1325 122.765 98.6988 123.809C99.265 124.854 100.119 123.001 96.7178 130.672C93.3169 138.342 87.9525 155.089 85.0669 162.239L70.5928 144.171L62.2005 125.052C62.0307 124.054 67.0192 121.415 73.1301 123.809C75.5696 130.214 83.03 166.103 85.5762 153.132Z" fill="white"/>
<path d="M67.5601 115.634H79.17L77.3876 147.601H70.1063L67.5601 115.634Z" fill="#0A0A08"/>
<path d="M73.3652 122.424C76.9157 122.424 79.794 119.605 79.794 116.127C79.794 112.649 76.9157 109.829 73.3652 109.829C69.8148 109.829 66.9365 112.649 66.9365 116.127C66.9365 119.605 69.8148 122.424 73.3652 122.424Z" fill="#878787"/>
<path fill-rule="evenodd" clip-rule="evenodd" d="M107.11 140.23C112.209 139.195 117.182 142.491 118.217 147.592L99.752 151.343C98.7167 146.241 102.011 141.266 107.11 140.23ZM99.7522 151.343L108.922 196.539L108.922 196.539L127.059 197.741L127.059 197.742C127.059 197.742 127.059 197.742 127.059 197.741C128.175 194.512 129.644 190.771 131.266 186.642C132.554 183.363 133.938 179.839 135.318 176.13C136.778 172.205 138.171 168.214 139.151 164.683C140 161.625 141.019 157.347 140.542 153.608L121.852 155.995C121.83 155.827 121.829 155.834 121.795 156.063C121.734 156.47 121.568 157.577 120.996 159.639C120.934 159.864 120.869 160.093 120.801 160.327L118.217 147.592L99.7522 151.343ZM120.801 160.327C120.041 162.943 118.949 166.088 117.66 169.553C116.574 172.471 115.284 175.768 114.003 179.042C112.201 183.646 110.419 188.202 109.25 191.586L127.059 197.741L127.059 197.741L118.155 194.664L127.387 192.789L120.801 160.327Z" fill="#F6DDD6"/>
<path d="M117.589 125.921C111.657 125.921 128.936 141.934 123.893 142.275L122.567 148.052C134.566 150.778 142.42 170.53 142.929 162.348C143.438 154.166 129.741 129.485 117.589 125.921Z" fill="#BCC5E8"/>
<path d="M64.3111 142.331C67.2198 138.015 73.075 136.875 77.3891 139.785C81.66 142.667 82.8192 148.437 80.0197 152.74L79.9336 152.87L62.5352 178.688C59.6264 183.004 53.7712 184.144 49.4572 181.234C45.1863 178.353 44.027 172.582 46.8266 168.279L46.9126 168.149L64.3111 142.331Z" fill="#F6DDD6"/>
</svg>
