<svg width="163" height="347" viewBox="0 0 163 347" fill="none" xmlns="http://www.w3.org/2000/svg">
<path d="M71.875 246V323.75H54.875V246H71.875Z" fill="#F6DDD6"/>
<path d="M105.125 256.5V319.5H88.125V256.5H105.125Z" fill="#F6DDD6"/>
<path d="M76.9917 298.605C75.8494 296.75 73.2797 297.195 72.1377 297.65L72.4232 298.74C72.8989 298.832 74.1077 299.015 74.5647 299.56C75.1357 300.242 74.7074 301.605 75.1357 301.877C75.5639 302.152 76.7062 301.877 77.2772 301.877C77.8482 301.877 78.4192 300.925 76.9917 298.605Z" fill="black"/>
<path fill-rule="evenodd" clip-rule="evenodd" d="M74.0744 297.96C74.0967 297.894 74.1687 297.86 74.2327 297.882L74.2537 297.891L74.4887 298.021L74.5416 297.973L74.6042 297.912C74.6417 297.874 74.6981 297.865 74.745 297.887L74.7644 297.898L76.0144 298.773C76.0709 298.812 76.0847 298.89 76.0451 298.947C76.0099 298.997 75.9444 299.013 75.8906 298.989L75.871 298.977L75.4347 298.672L75.4244 298.713C75.3685 298.924 75.2958 299.129 75.2194 299.255L75.2089 299.27C75.2449 299.3 75.2975 299.336 75.3645 299.377L75.4517 299.429L75.5624 299.49L75.6929 299.558L75.6929 299.25C75.6929 299.156 75.792 299.098 75.8724 299.137L75.8906 299.148L76.7656 299.773C76.8584 299.84 76.8202 299.981 76.7149 299.998L76.6929 300L76.2065 300C76.2889 300.009 76.3466 300.102 76.3045 300.182L76.2929 300.2L76.1024 300.454L76.2394 300.509C76.2963 300.532 76.3273 300.592 76.3155 300.65L76.309 300.671C76.2862 300.728 76.2262 300.759 76.1681 300.748L76.1465 300.741L75.9469 300.661L75.9179 300.7C75.8504 300.79 75.7117 300.751 75.6947 300.647L75.6929 300.625L75.6929 300.56L75.5215 300.491C75.4242 300.452 75.4173 300.322 75.5007 300.27L75.5215 300.259L75.6929 300.19V299.837L75.606 299.794C75.5392 299.76 75.4747 299.727 75.4146 299.694L75.328 299.646C75.2065 299.577 75.1124 299.515 75.0489 299.462C74.9325 299.364 74.8768 299.264 74.9796 299.162C75.0272 299.114 75.0996 298.932 75.157 298.739L75.1719 298.687L74.5219 298.326L74.4886 298.353C74.3845 298.433 74.2915 298.487 74.2191 298.498L74.1929 298.5C74.0387 298.5 74.0008 298.379 74.0153 298.223C74.0228 298.143 74.0461 298.045 74.0744 297.96ZM75.943 299.956V300.09L76.1466 300.009C76.1535 300.006 76.1603 300.004 76.1671 300.003L76.1837 300H76.068L76.017 299.989L75.943 299.956ZM75.943 299.68V299.493L76.3032 299.75H76.095L76.0321 299.722L75.943 299.68Z" fill="#EACE56" fill-opacity="0.78"/>
<path d="M26.3895 332.25C26.0854 331.5 26.1378 329.875 28.0127 329.125C29.8876 328.375 52.0125 332.25 52.0125 332.25C57.7083 331.785 73.0055 324.32 78.6378 327.75C80.4195 328.835 79.8155 332.273 79.1578 335.49C78.1053 336.563 67.4578 337.5 64.0055 336.695C64.0055 334.82 63.7368 333.613 63.7368 333.613C63.7368 333.613 61.6453 334.963 59.3878 335.49C54.783 336.563 53.7753 337.75 39.5128 337.75C28.0736 336.678 27.2509 334.375 26.3895 332.25Z" fill="#383129"/>
<path fill-rule="evenodd" clip-rule="evenodd" d="M78.1391 330.107C77.7569 330.38 77.3141 330.595 76.7578 330.781L76.6786 330.544C77.2126 330.366 77.6334 330.161 77.994 329.904L78.1391 330.107ZM28.4229 331.858C27.9441 331.497 27.5576 331.144 27.2922 330.831L27.4831 330.669C27.7354 330.967 28.1086 331.308 28.5736 331.659L28.4229 331.858ZM31.0091 333.418C30.5418 333.189 30.0969 332.948 29.6807 332.7L29.8089 332.485C30.2192 332.73 30.6579 332.968 31.119 333.194L31.0091 333.418ZM32.3882 334.029C32.8506 334.214 33.325 334.384 33.8087 334.538L33.8845 334.3C33.4065 334.148 32.9379 333.98 32.481 333.797L32.3882 334.029ZM36.7467 335.243C36.2493 335.162 35.7556 335.062 35.2671 334.945L35.3254 334.702C35.808 334.817 36.2956 334.916 36.787 334.996L36.7467 335.243ZM38.2493 335.43C38.751 335.473 39.2539 335.496 39.7574 335.5L39.7591 335.25C39.2623 335.246 38.7658 335.223 38.2706 335.181L38.2493 335.43ZM42.7574 335.455C42.2608 335.471 41.7602 335.483 41.2558 335.49L41.2521 335.24C41.7551 335.233 42.2543 335.221 42.7496 335.205L42.7574 335.455ZM44.26 335.395C44.7645 335.371 45.2643 335.342 45.7592 335.309L45.7426 335.059C45.2492 335.092 44.7509 335.121 44.2478 335.146L44.26 335.395ZM48.7528 335.053C48.2604 335.105 47.7618 335.152 47.2571 335.195L47.2358 334.946C47.7389 334.903 48.236 334.856 48.7268 334.805L48.7528 335.053ZM50.2472 334.882C50.7516 334.818 51.2481 334.751 51.736 334.679L51.6995 334.431C51.2134 334.503 50.7187 334.571 50.2161 334.634L50.2472 334.882ZM54.6973 334.17C54.2166 334.265 53.7237 334.356 53.2193 334.442L53.177 334.196C53.6793 334.11 54.1702 334.019 54.6488 333.924L54.6973 334.17ZM56.1695 333.857C56.6755 333.741 57.1631 333.622 57.6304 333.499L57.5667 333.257C57.1021 333.379 56.6173 333.498 56.1139 333.613L56.1695 333.857ZM60.5186 332.669L59.0787 333.091L59.0088 332.851L60.448 332.429L60.5186 332.669ZM61.8855 332.003L61.957 332.242L63.394 331.81L63.3214 331.571L62.2276 331.9L61.8855 332.003ZM64.7997 331.534L64.8186 331.284C65.1603 331.31 65.5322 331.335 65.9201 331.357L66.3128 331.379L66.2998 331.629C65.9013 331.608 65.5141 331.584 65.1524 331.559L64.7997 331.534ZM67.8008 331.692C68.3132 331.707 68.8165 331.717 69.3035 331.72L69.305 331.47C68.8202 331.467 68.3189 331.457 67.8085 331.442L67.8008 331.692ZM72.3132 331.626C71.8564 331.664 71.3529 331.69 70.8083 331.706L70.8014 331.456C71.3416 331.441 71.8406 331.415 72.2925 331.377L72.3132 331.626ZM73.7705 331.186L73.8114 331.433L74.0931 331.385C74.5494 331.308 74.9416 331.235 75.2917 331.162L75.2408 330.917L74.9164 330.982C74.5794 331.048 74.2028 331.115 73.7705 331.186Z" fill="#67513B"/>
<path d="M59.6378 297.125C60.8565 297.125 67.9673 300.858 71.6568 297.963C72.0623 297.645 72.8875 297.905 72.8883 298.42C72.895 303.395 72.9685 312.045 73.7135 315.475C74.5028 319.11 75.1693 318.59 75.9583 321.965C76.5048 324.303 78.2745 329.755 75.9583 329.755H65.3948C62.8955 329.755 59.52 332.658 51.1973 333.473C37.3816 334.828 34.0055 332.973 31.247 332.098C24.9704 330.108 28.1557 325.553 31.247 324.098C35.7755 321.965 42.2658 320.365 45.567 318.598C48.1378 317.223 49.0205 316.795 50.3403 315.348C52.5163 312.963 54.4278 300.415 54.7233 297.138C54.7438 296.91 55.064 296.793 55.2588 296.913C56.546 297.705 58.4295 297.125 59.6378 297.125Z" fill="#2D2B30"/>
<path d="M32.0076 328.052C32.1474 327.589 32.6358 327.328 33.0984 327.467L33.4587 327.575C34.9841 328.026 36.0605 328.267 37.4283 328.414C39.4313 328.63 41.5547 328.53 43.9104 328.036C44.3834 327.937 44.8472 328.24 44.9464 328.713C45.0455 329.186 44.7425 329.65 44.2695 329.749C41.7326 330.281 39.4249 330.389 37.2412 330.154C35.6371 329.982 34.4093 329.692 32.592 329.143C32.1295 329.003 31.8678 328.514 32.0076 328.052Z" fill="#59555F"/>
<path d="M48.8877 323.25C51.3354 321 60.2627 315.972 59.6377 297.125C60.6984 297.125 63.2627 298.5 67.1377 298.75C71.2069 298.628 71.1402 298.26 72.2179 297.65C72.2472 297.632 72.2809 297.608 72.3087 297.59C73.9989 296.452 73.2387 314.628 74.4517 317.847C75.4309 320.448 77.2667 324.347 77.2667 329.097C76.4099 330.597 67.9649 329.847 65.2722 329.847C64.0127 323.125 54.1377 328.25 52.0127 327.625C50.1474 327.077 48.8877 326 48.8877 323.25Z" fill="#1D1D20"/>
<path d="M51.8877 315.15C54.6877 312.95 55.7627 302.25 55.8877 297.125C55.3877 297 55.2627 296.65 54.8877 296.775C54.5127 296.9 54.5127 298.4 54.3877 299.65C54.2509 301.02 53.2627 305.275 52.7627 308.15C52.2627 311.025 51.7627 312.775 49.8877 315.15C48.3877 317.05 42.5127 319 40.6377 320.625C40.8459 320.582 41.3877 320.3 41.8877 320.4C42.5127 320.525 42.3877 320.65 43.1377 320.65C43.8877 320.65 48.3877 317.9 51.8877 315.15Z" fill="#1D1D20"/>
<path d="M54.6698 297.927C54.7746 297.613 55.105 297.437 55.421 297.52L55.4604 297.532L60.7104 299.282C61.2791 299.472 61.2758 300.267 60.7266 300.462L60.6844 300.476L56.9537 301.542L59.9236 303.069C60.4407 303.335 60.3429 304.093 59.7931 304.231L59.752 304.24L56.5117 304.842L59.8675 306.169C60.3998 306.379 60.3884 307.127 59.8697 307.331L59.8277 307.345L55.458 308.74L59.2814 310.561C59.834 310.824 59.7148 311.633 59.1288 311.739L59.0872 311.746L54.3842 312.31L57.6377 314.75C58.1073 315.102 57.8746 315.841 57.3031 315.874L57.2627 315.875H52.3022L55.6984 319.177C56.1398 319.606 55.76 320.339 55.1673 320.243L55.1292 320.236L48.7202 318.834L51.2704 322.386C51.6418 322.903 51.0939 323.57 50.5226 323.327L50.4876 323.311L44.1126 320.186C43.8027 320.034 43.6746 319.66 43.8265 319.35C43.9721 319.053 44.3221 318.923 44.6238 319.046L44.6628 319.064L48.8042 321.094L46.755 318.24C46.4285 317.785 46.8182 317.171 47.3584 317.257L47.3963 317.264L53.2565 318.546L50.327 315.698C49.9343 315.316 50.1888 314.657 50.7231 314.626L50.7627 314.625H55.3877L52.3877 312.375C51.9481 312.045 52.1195 311.357 52.647 311.261L52.6882 311.254L56.7955 310.762L53.494 309.189C52.9963 308.952 53.0307 308.242 53.53 308.045L53.5727 308.03L57.779 306.687L54.0329 305.206C53.4631 304.981 53.5282 304.165 54.1062 304.02L54.1484 304.011L57.7262 303.345L54.9769 301.931C54.4863 301.679 54.5428 300.968 55.049 300.788L55.091 300.774L58.3987 299.829L55.0651 298.718C54.7507 298.613 54.575 298.283 54.6581 297.967L54.6698 297.927Z" fill="black"/>
<path d="M83.087 298.618C84.2355 296.75 86.8195 297.2 87.968 297.658L87.681 298.753C87.2025 298.845 85.987 299.028 85.5275 299.578C84.9533 300.263 85.384 301.635 84.9533 301.91C84.5225 302.183 83.374 301.91 82.7998 301.91C82.2255 301.91 81.6513 300.948 83.087 298.618Z" fill="black"/>
<path fill-rule="evenodd" clip-rule="evenodd" d="M85.8404 297.898C85.909 297.86 85.9954 297.894 86.0199 297.968C86.0485 298.055 86.0717 298.153 86.0792 298.232C86.0938 298.389 86.0557 298.51 85.9012 298.51C85.8252 298.51 85.7188 298.451 85.6001 298.359L85.5699 298.335L84.9157 298.699L84.9172 298.704C84.9724 298.9 85.0454 299.093 85.0972 299.162L85.1096 299.176C85.2129 299.279 85.1571 299.379 85.0403 299.478C84.9765 299.531 84.8817 299.593 84.7598 299.663C84.6757 299.711 84.579 299.763 84.4776 299.814L84.3922 299.856V300.212L84.565 300.282C84.6623 300.321 84.669 300.451 84.5855 300.503L84.5647 300.514L84.3922 300.582L84.3922 300.648C84.3922 300.76 84.2579 300.812 84.1816 300.739L84.1672 300.723L84.1377 300.683L83.9362 300.764C83.8791 300.786 83.8154 300.764 83.784 300.714L83.7738 300.694C83.7511 300.637 83.7733 300.573 83.8236 300.542L83.8438 300.531L83.9822 300.476L83.79 300.22C83.7274 300.137 83.7877 300.029 83.8765 300.02L83.3872 300.02C83.2733 300.02 83.2222 299.883 83.2976 299.808L83.3144 299.793L84.1944 299.163C84.2712 299.108 84.3759 299.155 84.3905 299.244L84.3922 299.265L84.3922 299.577L84.4598 299.542C84.4912 299.526 84.5217 299.509 84.5511 299.493L84.6357 299.446L84.7233 299.394C84.7772 299.361 84.8218 299.331 84.8558 299.305L84.8799 299.285L84.87 299.27C84.7933 299.144 84.7205 298.94 84.6638 298.726L84.6524 298.682L84.2131 298.99C84.1629 299.025 84.0957 299.018 84.0536 298.976L84.0391 298.959C84.0039 298.909 84.0108 298.842 84.0525 298.8L84.0698 298.785L85.3268 297.905C85.3767 297.87 85.4446 297.876 85.4874 297.92C85.5169 297.95 85.5487 297.98 85.5812 298.01L85.6032 298.03L85.8404 297.898ZM84.1422 299.975L84.0664 300.009L84.0157 300.02L83.8974 300.02L83.916 300.023L83.9365 300.029L84.1422 300.112V299.975ZM83.7767 299.77L84.1422 299.508V299.7L84.0631 299.737L83.9892 299.77H83.7767Z" fill="#EACE56" fill-opacity="0.78"/>
<path d="M133.972 332.45C134.278 331.695 134.225 330.063 132.34 329.308C130.454 328.553 108.206 332.45 108.206 332.45C102.478 331.983 87.0952 324.475 81.4317 327.925C79.64 329.015 80.2472 332.473 80.9087 335.708C81.967 336.785 92.674 337.73 96.1457 336.92C96.1457 335.033 96.416 333.82 96.416 333.82C96.416 333.82 98.519 335.178 100.789 335.708C105.42 336.785 106.433 337.98 120.775 337.98C132.278 336.903 133.106 334.588 133.972 332.45Z" fill="#383129"/>
<path fill-rule="evenodd" clip-rule="evenodd" d="M82.3204 330.251C82.6894 330.474 83.1241 330.657 83.6733 330.821L83.6019 331.061C83.0336 330.891 82.5795 330.7 82.1908 330.464L82.3204 330.251ZM131.782 331.852C132.247 331.5 132.62 331.16 132.873 330.862L133.063 331.024C132.798 331.337 132.412 331.689 131.933 332.051L131.782 331.852ZM129.238 333.389C129.699 333.163 130.137 332.924 130.547 332.679L130.676 332.893C130.26 333.142 129.815 333.384 129.348 333.613L129.238 333.389ZM127.877 333.995C127.42 334.178 126.952 334.347 126.474 334.5L126.55 334.738C127.034 334.583 127.508 334.412 127.97 334.227L127.877 333.995ZM123.573 335.203C124.064 335.121 124.552 335.021 125.034 334.905L125.093 335.148C124.605 335.266 124.111 335.367 123.614 335.449L123.573 335.203ZM122.09 335.392C121.595 335.436 121.099 335.461 120.602 335.467L120.604 335.717C121.108 335.711 121.611 335.686 122.112 335.641L122.09 335.392ZM117.616 335.426C118.111 335.441 118.61 335.452 119.113 335.459L119.11 335.709C118.605 335.702 118.105 335.691 117.608 335.676L117.616 335.426ZM116.118 335.368C115.614 335.344 115.116 335.316 114.622 335.283L114.606 335.533C115.101 335.565 115.601 335.593 116.106 335.617L116.118 335.368ZM111.638 335.033C112.129 335.084 112.627 335.13 113.13 335.172L113.109 335.421C112.604 335.379 112.105 335.332 111.613 335.282L111.638 335.033ZM110.149 334.864C109.646 334.802 109.151 334.736 108.665 334.665L108.629 334.912C109.117 334.983 109.614 335.05 110.118 335.113L110.149 334.864ZM105.714 334.166C106.193 334.259 106.684 334.348 107.187 334.433L107.145 334.68C106.641 334.594 106.148 334.505 105.666 334.411L105.714 334.166ZM104.249 333.859C103.745 333.746 103.26 333.629 102.794 333.509L102.732 333.751C103.2 333.872 103.688 333.989 104.194 334.103L104.249 333.859ZM101.351 333.108L101.281 333.348L100.986 333.262L99.8407 332.926L99.9112 332.686L100.193 332.769L101.351 333.108ZM98.4732 332.261L97.037 331.83L96.9646 332.069L98.4019 332.501L98.4732 332.261ZM95.5484 331.462L95.5684 331.712C95.2209 331.739 94.833 331.767 94.424 331.791L94.0687 331.812L94.0548 331.562C94.4131 331.542 94.7598 331.521 95.083 331.498L95.5484 331.462ZM92.559 331.63C92.0507 331.647 91.5494 331.659 91.0625 331.664L91.0652 331.914C91.5541 331.909 92.0574 331.897 92.5677 331.88L92.559 331.63ZM88.0731 331.593C88.5296 331.625 89.029 331.647 89.5656 331.658L89.5604 331.908C89.0199 331.897 88.5164 331.875 88.0555 331.843L88.0731 331.593ZM86.5543 331.672L86.5942 331.425L86.3139 331.379C85.8598 331.304 85.4697 331.234 85.1208 331.166L85.0726 331.411L85.4006 331.473C85.7409 331.536 86.1198 331.601 86.5543 331.672Z" fill="#67513B"/>
<path d="M100.538 297.128C99.3115 297.128 92.151 300.888 88.4433 297.963C88.0385 297.645 87.214 297.905 87.2133 298.42C87.2068 303.423 87.133 312.13 86.3833 315.583C85.5898 319.238 84.9198 318.715 84.126 322.108C83.5765 324.458 81.797 329.94 84.126 329.94H94.7488C97.262 329.94 100.657 332.86 109.026 333.68C122.919 335.04 126.314 333.178 129.088 332.298C135.399 330.295 132.196 325.715 129.088 324.253C124.534 322.108 118.007 320.498 114.687 318.723C112.102 317.34 111.215 316.91 109.887 315.453C107.699 313.053 105.776 300.428 105.48 297.138C105.459 296.91 105.139 296.793 104.945 296.913C103.65 297.713 101.754 297.128 100.538 297.128Z" fill="#2D2B30"/>
<path d="M127.227 327.645C127.689 327.505 128.178 327.766 128.318 328.229C128.458 328.692 128.196 329.18 127.734 329.32L127.352 329.434C125.732 329.913 124.557 330.177 123.059 330.338C120.864 330.574 118.544 330.466 115.993 329.931C115.52 329.832 115.217 329.369 115.316 328.896C115.415 328.423 115.879 328.12 116.352 328.219C118.722 328.715 120.858 328.815 122.872 328.598C124.354 328.438 125.499 328.168 127.227 327.645Z" fill="#59555F"/>
<path d="M111.348 323.4C108.887 321.137 99.9096 316.082 100.538 297.127C99.4713 297.127 96.8928 298.51 92.9961 298.762C88.9036 298.637 88.9711 298.27 87.8873 297.657C87.8581 297.64 87.8241 297.615 87.7963 297.595C86.0966 296.45 86.8611 314.727 85.6411 317.967C84.6566 320.582 82.8103 324.505 82.8103 329.28C83.6718 330.79 92.1643 330.035 94.8718 330.035C96.1386 323.275 106.069 328.427 108.206 327.8C110.081 327.247 111.348 326.165 111.348 323.4Z" fill="#1D1D20"/>
<path d="M108.331 315.255C105.516 313.043 104.434 302.283 104.309 297.128C104.812 297.003 104.937 296.653 105.314 296.778C105.691 296.903 105.691 298.41 105.817 299.668C105.955 301.045 106.948 305.325 107.451 308.215C107.954 311.108 108.457 312.868 110.342 315.255C111.851 317.165 117.759 319.125 119.644 320.76C119.435 320.718 118.89 320.433 118.387 320.535C117.759 320.66 117.884 320.785 117.13 320.785C116.376 320.785 111.851 318.02 108.331 315.255Z" fill="#1D1D20"/>
<path d="M104.74 297.542C105.067 297.433 105.421 297.61 105.53 297.937C105.635 298.252 105.476 298.59 105.174 298.714L105.135 298.728L101.772 299.849L105.109 300.801C105.64 300.953 105.723 301.66 105.262 301.937L105.223 301.958L102.449 303.385L106.057 304.055C106.66 304.167 106.752 304.981 106.212 305.234L106.173 305.251L102.396 306.744L106.636 308.097C107.161 308.265 107.223 308.973 106.755 309.236L106.715 309.257L103.383 310.843L107.526 311.339C108.071 311.405 108.268 312.086 107.859 312.434L107.827 312.46L104.8 314.73H109.462C110.01 314.73 110.287 315.38 109.926 315.775L109.898 315.803L106.943 318.676L112.849 317.384C113.396 317.265 113.805 317.866 113.512 318.327L113.49 318.359L111.421 321.241L115.598 319.194C115.895 319.048 116.251 319.16 116.414 319.442L116.434 319.48C116.58 319.777 116.468 320.133 116.186 320.296L116.148 320.316L109.738 323.459C109.166 323.739 108.599 323.088 108.933 322.565L108.955 322.533L111.524 318.954L105.071 320.365C104.47 320.497 104.068 319.776 104.475 319.335L104.502 319.307L107.923 315.98H102.926C102.339 315.98 102.082 315.25 102.52 314.88L102.551 314.855L105.83 312.395L101.092 311.828C100.484 311.755 100.339 310.95 100.86 310.662L100.898 310.643L104.751 308.807L100.348 307.403C99.8027 307.229 99.7635 306.482 100.267 306.244L100.308 306.226L103.694 304.887L100.424 304.279C99.8519 304.173 99.7281 303.419 100.215 303.129L100.252 303.109L103.246 301.569L99.4864 300.496C98.9099 300.331 98.8785 299.536 99.4187 299.317L99.4603 299.302L104.74 297.542Z" fill="black"/>
<path d="M41.875 291L44.875 202.125L64.331 199.481L64.5 195H73.9965L73.875 192.75L98.5 198.625L98.5288 200.117L105.25 202.125L121.125 291L100.334 294L100.375 296.125L83.4035 294.812L83.625 297.75H60.625L60.7693 293.923L41.875 291Z" fill="black"/>
<path d="M120.625 91.125C120.625 88.748 120.875 78.6667 120.625 74.25L114.75 75L100.374 87.125C97.708 93.2917 85.325 115.35 86.125 118.75C87.125 123 103.264 126.435 108.5 130.125C129.25 144.75 125.125 118.25 124.25 113C123.375 107.75 120.625 98.125 120.625 91.125Z" fill="#17100F"/>
<path fill-rule="evenodd" clip-rule="evenodd" d="M34.25 66.259C34.25 66.259 30.6551 106.813 27.7503 115.781C24.8455 124.75 18.1732 143.428 19.5729 154.823C20.9727 166.219 21.2506 167.373 27.7503 163.749C34.25 160.125 110.499 107.348 110.499 107.348L34.25 66.259Z" fill="#17100F"/>
<rect x="66.75" y="96.75" width="20.25" height="29" rx="10.125" fill="#EBBAAA"/>
<path d="M60.5 205.5V190.75H94.5V205.5H60.5Z" fill="#E5CECB"/>
<path d="M60.5 193.458V124.75H94.5V193.458C94.5 193.458 82.5812 195.5 77.5 195.5C72.4187 195.5 60.5 193.458 60.5 193.458Z" fill="#E7D6D3"/>
<path d="M76.25 120.25C68.95 120.25 64.375 116.75 63 115L59 123.375C61.625 126.208 68.75 131.875 76.25 131.875C83.75 131.875 91.0417 128.125 93.75 126.25L91 115C89.125 116.75 83.55 120.25 76.25 120.25Z" fill="#E6CECB"/>
<rect x="30.3569" y="114.708" width="43.244" height="89.4248" rx="21.622" transform="rotate(8.5 30.3569 114.708)" fill="#67513B"/>
<rect x="14" y="187.624" width="26.5347" height="52.0257" rx="13.2674" transform="rotate(-45 14 187.624)" fill="#67513B"/>
<path d="M32.7207 248.786L43.4578 115.432L66.625 113.75L74.75 161.125C72.6025 189.471 69.656 253.296 69.656 256.732C69.656 260.168 43.4578 252.365 32.7207 248.786Z" fill="#67513B"/>
<path d="M74.875 160.875L66.5 113.125C60.5 112.25 52.875 112.583 49.25 113.125L70.625 160.125L73.375 180.875L74.875 160.875Z" fill="#82684B"/>
<path d="M122.053 247.283L111.375 115.375L87 114.375L80.125 161.75C82.2725 190.096 85.1172 251.792 85.1172 255.229C85.1172 258.664 111.316 250.862 122.053 247.283Z" fill="#67513B"/>
<path d="M80.125 162L87 114C92.875 112.75 100.458 112.75 103.375 112.75L86 164.125L82.5 202.5L80.125 162Z" fill="#82684B"/>
<rect x="88.1567" y="183.538" width="56.6915" height="39.727" rx="5" transform="rotate(-4.5 88.1567 183.538)" fill="#363030"/>
<rect width="22.6357" height="63.002" rx="11.3179" transform="matrix(-0.981627 0.190809 0.190809 0.981627 124.517 114)" fill="#67513B"/>
<path fill-rule="evenodd" clip-rule="evenodd" d="M110.58 202.007L115.33 166.007L133.671 168.427L128.921 204.427H128.921C128.252 209.491 123.605 213.055 118.54 212.387C113.475 211.719 109.911 207.071 110.58 202.007H110.58Z" fill="#F6DDD6"/>
<rect width="22.6357" height="44.5975" rx="11.3179" transform="matrix(-0.998135 -0.0610485 -0.0610485 0.998135 135.741 158.882)" fill="#67513B"/>
<path d="M67.1868 168.688C68.5507 168.688 69.6563 167.582 69.6563 166.219C69.6563 164.855 68.5507 163.749 67.1868 163.749C65.8229 163.749 64.7173 164.855 64.7173 166.219C64.7173 167.582 65.8229 168.688 67.1868 168.688Z" fill="#C3996F"/>
<path d="M65.6835 202.188C67.0474 202.188 68.153 201.082 68.153 199.718C68.153 198.354 67.0474 197.249 65.6835 197.249C64.3196 197.249 63.214 198.354 63.214 199.718C63.214 201.082 64.3196 202.188 65.6835 202.188Z" fill="#C3996F"/>
<path d="M66.757 185.438C68.1209 185.438 69.2265 184.332 69.2265 182.968C69.2265 181.604 68.1209 180.499 66.757 180.499C65.3931 180.499 64.2875 181.604 64.2875 182.968C64.2875 184.332 65.3931 185.438 66.757 185.438Z" fill="#C3996F"/>
<path d="M63.7508 218.293C65.1146 218.293 66.2203 217.187 66.2203 215.824C66.2203 214.46 65.1146 213.354 63.7508 213.354C62.3869 213.354 61.2812 214.46 61.2812 215.824C61.2812 217.187 62.3869 218.293 63.7508 218.293Z" fill="#C3996F"/>
<path d="M62.2477 232.251C63.6116 232.251 64.7172 231.146 64.7172 229.782C64.7172 228.418 63.6116 227.312 62.2477 227.312C60.8838 227.312 59.7782 228.418 59.7782 229.782C59.7782 231.146 60.8838 232.251 62.2477 232.251Z" fill="#C3996F"/>
<path d="M109.75 82.5C115.273 82.5 119.75 77.5192 119.75 71.375C119.75 65.2308 115.273 60.25 109.75 60.25C104.227 60.25 99.75 65.2308 99.75 71.375C99.75 77.5192 104.227 82.5 109.75 82.5Z" fill="#E4C1C1"/>
<path d="M44.25 82.5C38.7271 82.5 34.25 77.5192 34.25 71.375C34.25 65.2308 38.7271 60.25 44.25 60.25C49.7727 60.25 54.25 65.2308 54.25 71.375C54.25 77.5192 49.7727 82.5 44.25 82.5Z" fill="#E4C1C1"/>
<path d="M42.7035 46.466C41.9668 26.9948 57.5023 10.75 76.9875 10.75C96.6695 10.75 112.211 27.3069 111.467 46.975C111.233 53.1522 111.106 58.337 111.21 60.6893C111.394 64.8382 109.382 77.0807 107.372 88.0563C105.16 100.13 95.7825 109.546 83.7818 112.123C79.5538 113.031 75.1773 113.042 70.9445 112.157C58.5855 109.574 48.9788 99.7675 46.8883 87.3158C45.069 76.4788 43.2303 64.6318 43.17 60.6893C43.134 58.3335 42.9475 52.9095 42.7035 46.466Z" fill="#F6DDD6"/>
<path fill-rule="evenodd" clip-rule="evenodd" d="M63.583 81.005V85.955C63.583 93.575 69.7403 99.75 77.3328 99.75C84.9275 99.75 91.0823 93.575 91.0823 85.955V81.005H63.583Z" fill="#393939"/>
<mask id="mask0_1_1506" style="mask-type:luminance" maskUnits="userSpaceOnUse" x="63" y="81" width="29" height="19">
<path fill-rule="evenodd" clip-rule="evenodd" d="M63.6055 81C63.5905 81.2553 63.583 81.5128 63.583 81.7703V86.5918C63.583 93.86 69.7403 99.75 77.3328 99.75C84.9275 99.75 91.0823 93.86 91.0823 86.5918V81.7703C91.0823 81.5128 91.0748 81.2553 91.0598 81H63.6055Z" fill="white"/>
</mask>
<g mask="url(#mask0_1_1506)">
<path d="M77.3325 104.173C81.9123 104.173 85.6245 102.146 85.6245 99.6449C85.6245 97.1439 81.9123 95.1167 77.3325 95.1167C72.753 95.1167 69.0405 97.1439 69.0405 99.6449C69.0405 102.146 72.753 104.173 77.3325 104.173Z" fill="#FF6C6C"/>
</g>
<rect x="63.583" y="81.005" width="27.5" height="5.68665" fill="white"/>
<path d="M56.6283 45.2707C60.4599 44.632 64.6923 44.9846 68.8742 46.4605C69.6554 46.7362 70.0651 47.593 69.7894 48.3742C69.5137 49.1554 68.6569 49.5652 67.8757 49.2895C64.176 47.9837 60.4569 47.6739 57.1215 48.2299C56.1363 48.394 55.3233 48.6585 54.6644 48.9903C54.2909 49.1783 53.9976 49.3723 53.7768 49.557C53.7228 49.6021 53.6789 49.642 53.6446 49.6757L53.6147 49.7055C53.6149 49.7049 53.6197 49.6989 53.6291 49.6872C53.1115 50.3341 52.1675 50.4388 51.5207 49.9212C50.8739 49.4035 50.7692 48.4596 51.2868 47.8128C51.4028 47.6679 51.5888 47.476 51.8521 47.2558C52.2474 46.9251 52.7334 46.6037 53.3153 46.3107C54.245 45.8426 55.3467 45.4842 56.6283 45.2707Z" fill="#62360D"/>
<path d="M84.1479 46.3399C87.6381 44.8104 92.848 44.4243 96.5663 45.0656C97.7673 45.2726 98.8647 45.6656 99.8506 46.1908C100.381 46.4735 100.849 46.7782 101.251 47.0863L101.372 47.1807C101.565 47.3332 101.708 47.4606 101.802 47.5527C102.394 48.1327 102.403 49.0824 101.823 49.6739C101.258 50.2503 100.342 50.274 99.7481 49.7383L99.688 49.6825L99.6594 49.6571C99.597 49.6025 99.5193 49.5388 99.427 49.4681C99.1506 49.2563 98.8203 49.041 98.4401 48.8386C97.725 48.4576 96.928 48.1722 96.0566 48.022C92.8781 47.4738 88.2525 47.8166 85.3521 49.0876C84.5933 49.4202 83.7087 49.0746 83.3762 48.3159C83.0436 47.5571 83.3892 46.6725 84.1479 46.3399Z" fill="#62360D"/>
<path d="M75.4824 63.5713L79.0186 65.9288C77.8167 67.7315 76.8755 70.4376 76.8755 72.4063C76.8755 74.3045 77.561 75.1025 79.6597 75.1246L79.7505 75.125V79.375C75.1147 79.375 72.6255 76.5747 72.6255 72.4063C72.6255 69.5825 73.8002 66.1547 75.395 63.704L75.4824 63.5713Z" fill="#EBBAAA"/>
<path d="M86.7562 58.1659C90.0999 56.5957 94.8767 56.6475 99.0712 58.0958C99.9848 58.4112 100.47 59.4076 100.154 60.3211C99.8388 61.2347 98.8424 61.7196 97.9289 61.4041C94.5341 60.2319 90.6797 60.1902 88.2439 61.334C87.3691 61.7448 86.3268 61.3687 85.916 60.4938C85.5052 59.619 85.8813 58.5767 86.7562 58.1659Z" fill="black"/>
<path d="M53.5062 58.1659C56.8499 56.5957 61.6267 56.6475 65.8212 58.0958C66.7348 58.4112 67.2197 59.4076 66.9042 60.3211C66.5888 61.2347 65.5924 61.7196 64.6789 61.4041C61.2841 60.2319 57.4297 60.1902 54.9939 61.334C54.1191 61.7448 53.0768 61.3687 52.666 60.4938C52.2552 59.619 52.6313 58.5767 53.5062 58.1659Z" fill="black"/>
<path d="M71.8101 57.8752C75.1378 56.2907 78.3449 56.1357 81.4669 57.8346L81.5885 57.9018L80.7334 59.4286C78.1557 57.9851 75.5357 58.0738 72.6899 59.3952L72.5624 59.4552L71.8101 57.8752Z" fill="black"/>
<path d="M81.6282 64.1914L81.2087 58.8037C81.2087 58.8037 83.8217 52.9322 94.3225 51.6932C104.823 50.4539 109.466 56.9112 109.466 56.9112L108.629 64.6879C108.099 69.6107 103.877 73.3012 98.9282 73.1679L90.844 72.9504C85.9832 72.8197 82.0057 69.0394 81.6282 64.1914Z" fill="white" fill-opacity="0.4"/>
<path d="M93.9687 50.4647C97.3313 50.0298 100.489 50.2715 103.407 51.0461C105.574 51.6217 107.44 52.442 108.977 53.3646C109.993 53.9748 110.535 55.1105 110.457 56.3085L110.45 56.3922L110.192 59.2677L108.2 59.0888L108.458 56.2132C108.502 55.7215 108.304 55.2936 107.947 55.0793C106.565 54.249 104.87 53.5039 102.893 52.9791C100.22 52.2693 97.3227 52.0476 94.2253 52.4482C88.7038 53.1623 84.8702 54.879 82.4615 56.9052C82.2289 57.1009 82.1132 57.4275 82.1532 57.8106L82.1613 57.875L82.62 60.984L80.6415 61.2759L80.1827 58.167C80.0254 57.1015 80.3688 56.0521 81.174 55.3747C83.8723 53.1049 88.0624 51.2286 93.9687 50.4647Z" fill="black"/>
<path d="M72.4508 63.9919L72.809 58.8594C72.809 58.8594 70.1985 53.1177 59.8833 51.9839C49.5678 50.8504 45.0623 57.2239 45.0623 57.2239L45.926 64.6879C46.495 69.6062 50.7463 73.2629 55.6945 73.0902L63.3053 72.8244C68.165 72.6547 72.112 68.8427 72.4508 63.9919Z" fill="white" fill-opacity="0.4"/>
<path d="M50.9795 51.3963C53.8333 50.6171 56.9257 50.3572 60.2232 50.757C65.9642 51.4527 70.0735 53.2331 72.7569 55.4209C73.5913 56.1012 73.947 57.1746 73.7786 58.2571L73.7642 58.3426L73.2557 61.1513L71.2877 60.7951L71.7962 57.9863C71.8736 57.5589 71.7551 57.1847 71.493 56.971C69.0993 55.0193 65.3437 53.3921 59.9826 52.7424C56.9498 52.3748 54.117 52.6128 51.5064 53.3257C49.5737 53.8534 47.9169 54.5953 46.5649 55.4196C46.2259 55.6262 46.0333 56.0271 46.0593 56.4918L46.0639 56.5527L46.3434 59.4675L44.3525 59.6584L44.073 56.7436C43.9555 55.5173 44.4901 54.3419 45.5239 53.7119C47.0288 52.7944 48.856 51.9762 50.9795 51.3963Z" fill="black"/>
<path d="M92.713 23.878C80.813 17.278 75.713 16.7529 61.713 26.878C47.588 23.2531 60.213 14.0029 65.713 11.2529C71.213 8.50295 83.588 7.50295 93.963 12.7529C104.338 18.0029 107.588 32.128 92.713 23.878Z" fill="#311E1C"/>
<path d="M54.889 36.0178C61.6232 28.1281 74.3732 25.0031 77.6232 22.7531C78.8735 22.1477 78.8732 12.9917 75.8732 10.6281C71.7482 7.37809 57.1232 13.7532 50.6232 19.8782C44.1232 26.0032 37.6782 38.75 34.7483 57.1283C33.3733 65.7533 32.3734 93.1283 32.3734 102.878C32.3734 112.628 33.4984 125.253 32.3734 136.378C31.6058 143.969 30.4998 157.75 30.5 176.375C30.5 180.628 42.4405 181.915 43.1233 178.5C44.1233 173.5 43.2498 145.253 44.25 136.378C45.3525 126.597 47.1232 119.753 45.7483 110.628C44.3735 101.503 40.2483 92.3783 41.8733 87.0033C43.4983 81.6283 42.8733 68.5033 43.1233 60.3783C43.3733 52.2533 48.0602 44.0182 54.889 36.0178Z" fill="#311E1C"/>
<path d="M45.625 140.375C44.025 132.775 40.9168 98 40.375 81.75C40.625 81.8333 42.9 82.4 43.5 82.5C44.1 82.6 44.5833 82.5418 44.75 82.5C45.4583 85.625 45.7685 90.287 48.125 95C50 98.75 53.375 102.458 55 104.125C56.4167 109.667 59.45 122.65 60.25 130.25C61.25 139.75 60.25 169.5 58 169.5C52.7768 169.5 49.1015 170.25 48.125 167.125C46.25 161.125 47.625 149.875 45.625 140.375Z" fill="#311E1C"/>
<path d="M98.8753 33.0001C91.4881 25.9084 79.6248 24.3751 78.4998 22.6251C77.3331 18.6251 77.1033 11.903 82.2501 10.1252C89.1253 7.75025 107.25 17.375 113.25 33.0001C117.722 44.6472 120.75 72 120.625 74.5C120.5 77 116.25 117.25 115.625 123.5C115 129.75 115.25 134.375 115.625 147.5C116 160.625 116 171.744 113.25 172.5C108.25 173.875 92.6251 171.875 90.5001 171.5C88.3751 171.125 89.7501 162.45 89.7501 157.625C89.7501 151 94.2501 128.625 96.6251 120C98.4503 113.372 107.5 92.25 108.125 90.5C108.625 89.1 109.375 84.4167 109.625 82.375L109.632 82.377C109.921 82.4597 110.217 82.5443 112.5 81.75C115.375 80.75 118.5 77.375 119.25 74.125C120 70.875 119.375 67.625 117.625 64.625C116.225 62.225 112.25 60.6668 111.125 60.375C111.125 57.625 111 54.25 110.625 52.375C109.679 47.6435 105.125 39 98.8753 33.0001Z" fill="#311E1C"/>
</svg>
