<svg width="163" height="347" viewBox="0 0 163 347" fill="none" xmlns="http://www.w3.org/2000/svg">
<g clip-path="url(#clip0_1_2255)">
<path d="M86.6063 222.777C90.6626 221.938 94.6309 224.547 95.4697 228.603C97.0126 236.065 97.7673 254.077 97.7133 276.029L97.7114 276.695C97.644 297.785 96.8263 317.617 95.5497 326.558C94.9643 330.658 91.1655 333.508 87.0649 332.922C82.9644 332.337 80.1149 328.538 80.7003 324.437C83.2462 306.607 83.4651 245.875 80.8602 232.045L80.7804 231.64C79.9416 227.584 82.55 223.616 86.6063 222.777Z" fill="#F6DDD6"/>
<path d="M49.5612 227.401C50.3999 223.345 54.3682 220.737 58.4245 221.576C62.4403 222.406 65.0369 226.304 64.2745 230.317L64.2504 230.439C61.5615 243.443 61.759 305.427 64.3305 323.437C64.916 327.538 62.0664 331.337 57.9659 331.922C53.8653 332.508 50.0666 329.658 49.4811 325.558C48.2173 316.707 47.4032 297.136 47.3217 276.228L47.3194 275.594C47.2483 253.283 48.0027 234.938 49.5612 227.401Z" fill="#F6DDD6"/>
<path d="M94.2665 244.103L49.757 239.042L40.147 214.75L100.336 217.28L94.2665 244.103Z" fill="#556681"/>
<path d="M69.875 220.695L106.264 218.122L99.875 312.872L78.25 311.872L76.25 274.25L69.875 220.695Z" fill="#556681"/>
<path d="M37.25 215.872L69.9888 221.329L67.9422 269.512L67 312.747L45.625 311.872L37.25 215.872Z" fill="#556681"/>
<path d="M44.4402 310.623H67.7065L66.9477 321.503H46.337L44.4402 310.623Z" fill="#6D7F9A"/>
<path d="M77.0637 310.623H101.594L99.3185 321.503H77.5695L77.0637 310.623Z" fill="#6D7F9A"/>
<path d="M22.5658 345.505C22.5158 339.768 23.2975 336.278 28.2848 333.933C33.2723 331.59 37.97 327.083 46.5985 323.218C46.5985 323.218 47.7343 323.003 49.583 324.003C51.1605 324.855 53.187 326.948 56.2405 326.923C59.556 326.893 62.5108 326.19 64.3465 325.228C65.1395 323.055 66.899 323.04 66.899 323.04C66.899 323.04 69.3763 327.755 69.4178 332.493C69.459 337.228 69.4548 345.095 69.4548 345.095L22.5658 345.505Z" fill="#161616"/>
<path d="M44.7988 323.564C45.1403 323.412 45.5403 323.566 45.6921 323.908C45.8853 324.342 46.0247 324.819 46.1202 325.338C46.2608 326.102 46.2917 326.728 46.2917 327.835C46.2917 328.31 45.8183 328.632 45.3814 328.47L45.3418 328.454L42.045 326.999L42.7486 329.55C42.8881 330.056 42.4257 330.515 41.928 330.386L41.8886 330.374L38.577 329.306L38.5772 332.302C38.5772 332.801 38.059 333.124 37.6159 332.917L37.5781 332.897L35.3287 331.678L35.3289 333.927C35.3289 334.287 35.048 334.582 34.6935 334.603L34.6522 334.604C34.2923 334.604 33.9981 334.323 33.9768 333.969L33.9755 333.927V330.542C33.9755 330.044 34.4937 329.721 34.9368 329.928L34.9746 329.948L37.2237 331.166L37.2238 328.377C37.2238 327.933 37.6436 327.613 38.0671 327.722L38.1081 327.733L41.1102 328.701L40.3611 325.985C40.2129 325.448 40.7392 324.978 41.2502 325.171L41.2866 325.186L44.9205 326.789C44.9023 326.37 44.867 326.027 44.8032 325.661L44.7891 325.582C44.7119 325.163 44.602 324.787 44.4554 324.457C44.3036 324.116 44.4573 323.716 44.7988 323.564Z" fill="white"/>
<path d="M24.4527 334.372C25.983 333.817 27.6035 333.397 30.7102 332.695L29.39 336.495L29.4277 340.825L20.5847 340.902C20.2238 340.905 19.5789 340.425 19.8868 338.472C20.2715 336.032 22.2785 335.16 24.4527 334.372Z" fill="#161616"/>
<path d="M69.603 344.358L69.3462 339.8L29.6947 340.418L19.8082 339.693L19.5062 343.185C19.4019 344.393 20.3066 345.45 21.5142 345.533L29.7445 346.103L68.5387 345.5C69.154 345.49 69.6375 344.97 69.603 344.358Z" fill="#808080"/>
<path d="M123.228 345.505C123.278 339.768 122.496 336.278 117.509 333.933C112.522 331.59 107.824 327.083 99.1955 323.218C99.1955 323.218 98.0597 323.003 96.211 324.003C94.6332 324.855 92.607 326.948 89.5535 326.923C86.2377 326.893 83.2832 326.19 81.4475 325.228C80.6542 323.055 78.895 323.04 78.895 323.04C78.895 323.04 76.4175 327.755 76.3762 332.493C76.335 337.228 76.3392 345.095 76.3392 345.095L123.228 345.505Z" fill="#161616"/>
<path d="M100.102 323.908C100.254 323.566 100.654 323.412 100.995 323.564C101.337 323.716 101.49 324.116 101.339 324.457C101.192 324.787 101.082 325.163 101.005 325.582C100.94 325.934 100.902 326.259 100.881 326.641L100.873 326.789L104.507 325.186C105.017 324.961 105.559 325.413 105.442 325.947L105.433 325.985L104.684 328.701L107.686 327.733C108.109 327.597 108.542 327.899 108.569 328.335L108.57 328.377L108.57 331.166L110.819 329.948C111.257 329.71 111.788 330.012 111.817 330.5L111.818 330.542V333.927C111.818 334.301 111.515 334.604 111.142 334.604C110.782 334.604 110.487 334.323 110.466 333.969L110.465 333.927L110.465 331.678L108.216 332.897C107.778 333.135 107.247 332.833 107.218 332.345L107.217 332.302L107.217 329.306L103.905 330.374C103.406 330.535 102.927 330.093 103.036 329.59L103.045 329.55L103.749 326.999L100.452 328.454C100.018 328.646 99.5318 328.343 99.5036 327.878L99.5023 327.835L99.503 327.578C99.508 326.627 99.5445 326.041 99.6739 325.338C99.7693 324.819 99.9087 324.342 100.102 323.908Z" fill="white"/>
<path d="M121.341 334.372C119.811 333.817 118.19 333.397 115.083 332.695L116.404 336.495L116.366 340.825L125.209 340.902C125.57 340.905 126.215 340.425 125.907 338.472C125.522 336.032 123.515 335.16 121.341 334.372Z" fill="#161616"/>
<path d="M76.191 344.358L76.4477 339.8L116.099 340.418L125.986 339.693L126.288 343.185C126.392 344.393 125.487 345.45 124.28 345.533L116.049 346.103L77.2552 345.5C76.64 345.49 76.1562 344.97 76.191 344.358Z" fill="#808080"/>
<path d="M30.0596 131.597C35.2348 125.128 44.6742 124.079 51.1431 129.254C57.5473 134.378 58.6391 143.681 53.6388 150.143L53.4854 150.338C52.7989 151.196 48.1015 156.971 46.7632 158.673L46.6856 158.772C43.2949 163.106 41.0767 166.513 38.8416 171.027C37.6085 173.518 36.3868 176.335 35.1358 179.607C32.1772 187.345 23.5059 191.219 15.768 188.261C8.03002 185.302 4.15562 176.631 7.11424 168.893C8.69203 164.767 10.2882 161.086 11.9564 157.716C15.1198 151.327 18.3715 146.306 22.8216 140.589L23.2456 140.047C24.8847 137.97 29.539 132.248 30.0596 131.597Z" fill="#E0C1A1"/>
<path d="M113.042 138.229C109.549 130.454 100.704 126.625 92.6447 129.4C84.6652 132.148 80.0512 140.48 81.9562 148.701L95.6835 207.939C98.4667 219.949 110.921 227.016 122.658 223.245C133.798 219.666 139.89 207.697 136.226 196.584L127.875 171.25L113.042 138.229Z" fill="#E0C1A1"/>
<path d="M113.75 206C106.959 207.698 110.292 212.583 110.375 215.75C123.375 215.75 130.792 218.292 132.625 218.875C133.125 217.625 133.923 215.75 134.625 214.25C138.486 206 122.75 203.75 113.75 206Z" fill="#DBB793"/>
<path d="M30.4115 149.493C30.4257 135.029 42.1652 123.334 56.6292 123.334H84.9885C98.6387 123.334 110.02 133.791 110.862 147.416C111.525 158.13 112.125 170.361 112.125 179.5C112.125 191.159 111.148 207.777 110.312 219.872C109.702 228.688 102.343 235.45 93.5057 235.45H49.1357C40.3492 235.45 33.0137 228.76 32.3515 219.998C31.506 208.812 30.5382 193.82 30.465 183C30.4055 174.193 30.3997 161.144 30.4115 149.493Z" fill="#E3C7AB"/>
<path d="M71.5122 145.179C80.5241 145.179 87.8296 137.755 87.8296 128.598C87.8296 119.441 80.5241 112.018 71.5122 112.018C62.5004 112.018 55.1949 119.441 55.1949 128.598C55.1949 137.755 62.5004 145.179 71.5122 145.179Z" fill="#DBB793"/>
<rect x="61.4605" y="106.758" width="20.2274" height="30.341" rx="10.1137" fill="#EED1C9"/>
<rect x="46.7725" y="154.916" width="23.6865" height="23.6865" rx="6.5" fill="#FF6C75"/>
<path fill-rule="evenodd" clip-rule="evenodd" d="M72.038 166.76C72.038 160.219 77.3404 154.916 83.8812 154.916C90.4221 154.916 95.7245 160.219 95.7245 166.76C95.7245 173.3 90.4221 178.603 83.8812 178.603C77.3404 178.603 72.038 173.3 72.038 166.76ZM92.7245 166.76C92.7245 161.876 88.7652 157.916 83.8812 157.916C78.9973 157.916 75.038 161.876 75.038 166.76C75.038 171.644 78.9973 175.603 83.8812 175.603C88.7652 175.603 92.7245 171.644 92.7245 166.76Z" fill="#FF6C75"/>
<path fill-rule="evenodd" clip-rule="evenodd" d="M53.2725 179.919H63.959C67.5489 179.919 70.459 182.829 70.459 186.419V197.105C70.459 200.695 67.5489 203.605 63.959 203.605H53.2725C49.6827 203.605 46.7725 200.695 46.7725 197.105V186.419C46.7725 182.829 49.6827 179.919 53.2725 179.919ZM63.959 182.919H53.2725C51.3395 182.919 49.7725 184.486 49.7725 186.419V197.105C49.7725 199.038 51.3395 200.605 53.2725 200.605H63.959C65.892 200.605 67.459 199.038 67.459 197.105V186.419C67.459 184.486 65.892 182.919 63.959 182.919Z" fill="#FF6C75"/>
<path fill-rule="evenodd" clip-rule="evenodd" d="M78.538 179.919H89.2245C92.8143 179.919 95.7245 182.829 95.7245 186.419V197.105C95.7245 200.695 92.8143 203.605 89.2245 203.605H78.538C74.9481 203.605 72.038 200.695 72.038 197.105V186.419C72.038 182.829 74.9481 179.919 78.538 179.919ZM89.2245 182.919H78.538C76.605 182.919 75.038 184.486 75.038 186.419V197.105C75.038 199.038 76.605 200.605 78.538 200.605H89.2245C91.1575 200.605 92.7245 199.038 92.7245 197.105V186.419C92.7245 184.486 91.1575 182.919 89.2245 182.919Z" fill="#FF6C75"/>
<path d="M48.0885 133.862C51.668 139.546 58.353 143.863 67.3013 143.863C67.3013 137.108 62.5638 130.177 57.037 122.282C54.743 119.004 52.826 115.439 48.0885 115.439C46.5973 119.211 44.5093 128.177 48.0885 133.862Z" fill="#C09F7B"/>
<path d="M93.8825 133.862C90.3032 139.546 83.6182 143.863 74.67 143.863C74.67 137.108 79.4072 130.177 84.9342 122.282C87.2282 119.004 89.1452 115.439 93.8825 115.439C95.374 119.211 97.4617 128.177 93.8825 133.862Z" fill="#C09F7B"/>
<path d="M61.5107 138.165C62.4571 138.165 63.228 138.916 63.2597 139.855L63.2607 139.915V176.648C63.2607 177.614 62.4772 178.398 61.5107 178.398C60.5644 178.398 59.7935 177.646 59.7618 176.708L59.7607 176.648V139.915C59.7607 138.948 60.5442 138.165 61.5107 138.165Z" fill="#FFF0E0"/>
<path d="M79.934 137.639C80.8803 137.639 81.6512 138.39 81.6829 139.328L81.684 139.389V186.762C81.684 187.728 80.9005 188.512 79.934 188.512C78.9876 188.512 78.2167 187.76 78.185 186.822L78.184 186.762V139.389C78.184 138.422 78.9675 137.639 79.934 137.639Z" fill="#FFF0E0"/>
<path d="M11.8352 172.015C15.5546 167.566 22.1765 166.975 26.6256 170.694C31.0302 174.376 31.654 180.903 28.0571 185.35L27.9468 185.485C26.4427 187.284 24.9166 191.042 24.3544 195.598C23.5986 201.725 24.5918 208.572 27.7472 215.798C30.0681 221.112 27.6414 227.302 22.327 229.622C17.0127 231.943 10.8232 229.517 8.50237 224.202C3.83917 213.524 2.29615 202.885 3.51247 193.027C4.55028 184.615 7.61873 177.059 11.8352 172.015Z" fill="#F6DDD6"/>
<path d="M6.76145 169.469C9.95415 162.503 18.1895 159.444 25.1557 162.637C32.1219 165.829 35.1809 174.065 31.9882 181.031C31.2917 182.55 30.6952 184.126 30.1896 185.769C29.1324 189.205 28.4715 192.925 28.1155 197.175L28.088 197.512C27.8161 200.935 27.7528 203.765 27.7501 209.761L27.75 210.185C27.75 217.848 21.538 224.06 13.875 224.06C6.21205 224.06 0 217.848 0 210.185L0.00304336 207.929C0.0194716 202.462 0.108453 199.351 0.413287 195.465L0.425273 195.314C0.925206 189.023 1.93506 183.236 3.66697 177.608C4.52387 174.823 5.55029 172.112 6.76145 169.469Z" fill="#E0C1A1"/>
<path d="M3.38176 221.875C1.3216 219.479 0.109619 211.969 0.109619 211.969C9.67652 218.431 24.18 212.613 27.7429 207.492L28.6236 217.52C26.5286 223.275 22.3125 225.269 16.182 226.762C10.6858 228.101 5.44192 224.271 3.38176 221.875Z" fill="#DBB793"/>
<path d="M113.497 214.092C104.462 215.871 104.642 224.058 106.182 227.805C112.983 233.241 128.383 227.187 130.18 224.593C132.613 221.08 124.79 211.869 113.497 214.092Z" fill="#F2CCC1"/>
<path d="M119.739 219.615C123.872 219.553 128.076 220.91 132.125 223.299C135.132 225.072 137.919 227.362 139.772 229.402L139.892 229.535L136.722 232.366C135.159 230.616 132.656 228.546 129.966 226.959C126.537 224.937 123.064 223.815 119.802 223.864C116.629 223.912 113.399 225.306 110.317 227.744C107.933 229.63 105.785 232.054 104.468 234.117L104.377 234.26L100.772 232.009C102.332 229.512 104.849 226.651 107.68 224.411C111.437 221.439 115.517 219.678 119.739 219.615Z" fill="#CF8388"/>
<rect x="87.0052" y="231.194" width="70.5" height="50.25" rx="5.75" transform="rotate(-6.5 87.0052 231.194)" fill="#CF8388"/>
<rect x="83.776" y="231.562" width="70.5" height="50.25" rx="5.75" transform="rotate(-6.5 83.776 231.562)" fill="#FCA9AE"/>
<path d="M114.922 256.583L85.214 244.183L84.4835 237.772C84.077 234.205 86.639 230.984 90.2058 230.578L147.336 224.068C150.903 223.662 154.124 226.224 154.53 229.791L155.034 234.211L130.147 254.39C125.861 257.865 120.014 258.708 114.922 256.583Z" fill="#F1C3C6"/>
<path d="M121.895 253.637C123.61 253.442 124.842 251.894 124.646 250.179C124.451 248.464 122.903 247.232 121.188 247.428C119.473 247.623 118.241 249.171 118.437 250.886C118.632 252.601 120.18 253.833 121.895 253.637Z" fill="#E29398"/>
<path d="M118.747 211.842C109.712 213.621 109.892 221.808 111.432 225.555C118.233 230.991 133.633 224.937 135.43 222.343C137.863 218.83 130.04 209.619 118.747 211.842Z" fill="#F6DDD6"/>
<path d="M30.3387 47.6625C30.3387 26.372 48.4847 9.11255 70.869 9.11255C93.2532 9.11255 111.399 26.372 111.399 47.6625V86.0052C108.131 110.876 88.5192 124.555 70.869 124.555C53.2187 124.555 32.7357 107.975 30.3387 86.0052V47.6625Z" fill="#F6DDD6"/>
<path fill-rule="evenodd" clip-rule="evenodd" d="M59.9728 95.3105C59.9458 95.626 59.932 95.9453 59.932 96.2675V97.8768C59.932 103.988 64.8855 108.941 70.9963 108.941C77.107 108.941 82.0605 103.988 82.0605 97.8768V96.2675C82.0605 95.9453 82.0468 95.626 82.0198 95.3105H59.9728Z" fill="#393939"/>
<mask id="mask0_1_2255" style="mask-type:luminance" maskUnits="userSpaceOnUse" x="59" y="93" width="24" height="16">
<path fill-rule="evenodd" clip-rule="evenodd" d="M60.2568 93.5947C60.0445 94.4505 59.932 95.3455 59.932 96.267V97.8762C59.932 103.987 64.8855 108.94 70.9963 108.94C77.107 108.94 82.0605 103.987 82.0605 97.8762V96.267C82.0605 95.3455 81.948 94.4505 81.7358 93.5947H60.2568Z" fill="white"/>
</mask>
<g mask="url(#mask0_1_2255)">
<path d="M70.996 112.157C74.681 112.157 77.6684 110.683 77.6684 108.864C77.6684 107.046 74.681 105.572 70.996 105.572C67.3109 105.572 64.3236 107.046 64.3236 108.864C64.3236 110.683 67.3109 112.157 70.996 112.157Z" fill="#FF6C6C"/>
<rect x="59.932" y="95.3108" width="22.1287" height="4.135" fill="white"/>
</g>
<path d="M48.2189 57.7837C52.1181 56.5948 56.4891 56.4388 60.9879 57.9822C61.9021 58.2959 62.3889 59.2912 62.0753 60.2054C61.7617 61.1196 60.7663 61.6065 59.8521 61.2928C56.1204 60.0126 52.484 60.1423 49.2398 61.1315C48.7011 61.2958 48.2244 61.4705 47.817 61.643L47.6275 61.7251C47.5034 61.7804 47.4203 61.8206 47.3805 61.8414C46.525 62.291 45.4669 61.9619 45.0174 61.1063C44.5678 60.2507 44.8969 59.1927 45.7525 58.7431L45.8243 58.7062C45.9682 58.6338 46.1789 58.5357 46.4524 58.4199C46.9691 58.2012 47.56 57.9846 48.2189 57.7837Z" fill="#583311"/>
<path d="M81.2104 57.9703C85.7091 56.4269 90.0801 56.5828 93.9793 57.7717C94.6382 57.9727 95.2292 58.1892 95.7459 58.408L95.9556 58.4986C96.1728 58.5946 96.3372 58.6741 96.4458 58.7312C97.3013 59.1807 97.6305 60.2387 97.1809 61.0943C96.7411 61.9313 95.719 62.2645 94.8738 61.8577L94.7848 61.8127C94.7129 61.777 94.5769 61.7138 94.3813 61.631C93.9739 61.4585 93.4972 61.2838 92.9585 61.1196C89.7143 60.1303 86.0779 60.0006 82.3461 61.2809C81.4319 61.5945 80.4366 61.1076 80.1229 60.1934C79.8093 59.2792 80.2962 58.2839 81.2104 57.9703Z" fill="#583311"/>
<path d="M40.7197 100.437C46.0977 100.437 50.4575 96.0772 50.4575 90.6992C50.4575 85.3212 46.0977 80.9614 40.7197 80.9614C35.3417 80.9614 30.9819 85.3212 30.9819 90.6992C30.9819 96.0772 35.3417 100.437 40.7197 100.437Z" fill="#F2CACA"/>
<path d="M89.9116 65.6694C90.4358 65.2202 91.2249 65.281 91.6741 65.8051C92.1233 66.3293 92.0626 67.1185 91.5384 67.5677C91.4162 67.6724 91.2176 67.8137 90.9362 67.9771C90.5103 68.2244 89.9884 68.4652 89.3646 68.6854C88.8624 68.8626 88.3102 69.0203 87.7061 69.1546C87.0321 69.3043 86.3644 68.8793 86.2147 68.2054C86.065 67.5315 86.4899 66.8638 87.1639 66.7141C87.6704 66.6015 88.1258 66.4714 88.5327 66.3278C88.9731 66.1724 89.3309 66.011 89.6123 65.8541L89.681 65.815C89.8298 65.7287 89.9042 65.6757 89.9116 65.6694Z" fill="black"/>
<path d="M85.8584 65.8127C87.4897 65.8128 88.8169 67.115 88.8573 68.7366L88.8582 68.8129L88.858 74.0906C88.8579 75.7475 87.5147 77.0906 85.8578 77.0905C84.2265 77.0904 82.8993 75.7882 82.8589 74.1666L82.858 74.0904L82.8582 68.8126C82.8583 67.1557 84.2015 65.8127 85.8584 65.8127Z" fill="black"/>
<path d="M50.5412 65.7623C50.8594 65.1714 51.5848 64.94 52.1834 65.2284L52.2622 65.2679L52.3414 65.3045C52.3708 65.3176 52.4031 65.3317 52.4383 65.3465C52.6525 65.4364 52.9101 65.5284 53.209 65.6156C54.0857 65.8713 55.1034 66.0262 56.2475 66.0262C56.9378 66.0262 57.4975 66.5859 57.4975 67.2762C57.4975 67.9666 56.9378 68.5262 56.2475 68.5262C54.8584 68.5262 53.6062 68.3357 52.5089 68.0156C52.117 67.9013 51.7701 67.7774 51.4702 67.6514L51.3497 67.5996C51.2181 67.5416 51.1176 67.4924 51.0491 67.4555C50.4412 67.1282 50.2138 66.3701 50.5412 65.7623Z" fill="black"/>
<path d="M56.212 65.4645C57.8433 65.4645 59.1706 66.7666 59.211 68.3882L59.212 68.4645V74.1052C59.212 75.7621 57.8688 77.1052 56.212 77.1052C54.5806 77.1052 53.2534 75.8031 53.2129 74.1815L53.212 74.1052V68.4645C53.212 66.8076 54.5551 65.4645 56.212 65.4645Z" fill="black"/>
<path d="M67.7672 76.8127L71.9782 77.3872L71.9523 77.5719C71.8523 78.2608 71.7387 78.7677 71.3533 80.3304L71.1069 81.3319C71.0729 81.4725 71.0422 81.6019 71.0126 81.7286L70.9376 82.0564C70.5685 83.7085 70.4659 84.7891 70.6194 85.4328L70.6348 85.4934C70.7218 85.812 70.8578 85.8876 71.6108 85.8918L71.681 85.892V90.142C68.9138 90.142 67.0486 88.7806 66.4853 86.4187C66.14 84.9705 66.2819 83.4031 66.7824 81.1627L66.8545 80.8456C66.9051 80.6273 66.9571 80.4094 67.0192 80.1549L67.4218 78.515C67.6067 77.7469 67.6831 77.3799 67.7416 76.992L67.7672 76.8127Z" fill="#EBBAAA"/>
<path d="M99.4245 99.9107C104.73 99.9107 109.031 95.551 109.031 90.173C109.031 84.7949 104.73 80.4352 99.4245 80.4352C94.1191 80.4352 89.8183 84.7949 89.8183 90.173C89.8183 95.551 94.1191 99.9107 99.4245 99.9107Z" fill="#F2CACA"/>
<path d="M103.752 107.412C106.12 97.4108 107.042 75.698 107.042 67.276C107.042 60.1435 103.762 33.1402 89.6713 28.325C79.2748 24.772 56.3785 28.1932 54.273 25.1667C47.0355 39.905 49.6603 45.8577 42.5615 49.7745C34.9293 53.9852 35.4555 93.9893 37.4275 103.595C37.64 103.941 37.86 104.292 38.0873 104.648C42.1548 111.024 49.2728 117.676 53.8785 119.649C53.6153 122.325 51.0098 126.104 51.625 134C52.0198 137.75 54.273 143.5 54.273 148.75C49.9568 148.961 39.625 144 35.875 138.25C35.875 142.5 38.6015 151.121 33.125 147.25C27.63 143.366 22.1433 130.77 22.8198 112.726C21.5201 101.262 20.9348 54.9847 20.9805 49.7745C21.101 36.0412 34.7615 5.16687 62.8265 0.164243C67.5638 -0.680295 71.1168 1.95897 72.1695 2.9279C72.959 1.95879 75.854 0.321822 78.3543 0.642645C96.9048 3.02297 109.566 14.5463 116.516 40.9577C119.735 53.1905 116.622 94.768 114.937 103.595C109.937 100.832 101.383 117.413 103.752 107.412Z" fill="#4D2909"/>
<path d="M48.8785 47.099C48.8782 38.9405 50.7207 27.6235 54.6685 20.7806C57.3002 19.5524 63.8797 17.833 61.7745 20.7806C59.669 23.7283 59.055 39.5542 59.9322 47.099C57.3005 48.5025 52.5627 48.6782 48.8785 47.099Z" fill="#4D2909"/>
<path d="M95.7245 47.0365C95.7245 34.378 92.3037 25.6508 89.9347 18.3238C78.7617 17.1005 55.7982 11.698 58.0895 20.8227C60.4582 30.2553 60.4582 37.6243 62.9487 47.0365C74.1217 48.4348 80.0837 48.6095 95.7245 47.0365Z" fill="#4D2909"/>
<path d="M87.5471 18.682C88.2215 18.0898 89.2482 18.1566 89.8403 18.831C91.6311 20.8706 94.1232 25.1521 96.2579 29.9315L96.342 30.1204C98.8881 35.8618 100.686 41.7161 101.287 46.8212C101.391 47.7125 100.754 48.52 99.8626 48.6249C98.9713 48.7298 98.1637 48.0922 98.0589 47.2009C97.501 42.4586 95.7952 36.9043 93.371 31.4379L93.2161 31.0909C91.2196 26.6508 88.9177 22.706 87.3981 20.9752C86.806 20.3008 86.8727 19.2741 87.5471 18.682Z" fill="#4D2909"/>
<path d="M118.557 125.439C119.45 116.354 116.408 102.806 115.75 89.9097C115.75 89.9097 112.963 89.6465 112.372 89.9097C111.78 90.173 110.858 90.5677 110.858 90.5677C109.411 94.647 109.345 98.9895 103.029 107.938C99.0673 113.55 92.896 117.675 89.6063 119.518C88.8168 128.905 93.8748 137.5 91.6248 145.5C93.7303 146.553 99.875 142.5 103.029 139.25C103.029 143.25 99.5673 148.5 103.029 148.5C109.74 148.5 117.125 140 118.557 125.439Z" fill="#4D2909"/>
</g>
<defs>
<clipPath id="clip0_1_2255">
<rect width="162.74" height="346.1" fill="white"/>
</clipPath>
</defs>
</svg>
