<svg width="163" height="347" viewBox="0 0 163 347" fill="none" xmlns="http://www.w3.org/2000/svg">
<g clip-path="url(#clip0_1_85)">
<path d="M97.1952 241.115C101.054 240.342 104.808 242.843 105.581 246.702C107.092 254.242 107.689 267.802 107.742 287.795L107.745 291.553C107.743 295.732 107.72 299.92 107.675 305.236L107.519 322.044C107.505 323.903 107.501 325.043 107.5 326.424L107.5 327.126C107.5 331.061 104.31 334.251 100.375 334.251C96.44 334.251 93.25 331.061 93.25 327.126L93.2535 324.696C93.2597 322.907 93.2764 320.851 93.3194 316.346L93.43 304.603C93.4765 299.045 93.4973 294.729 93.4953 290.305L93.4931 288.491C93.4535 269.363 92.8934 256.128 91.6473 249.698L91.6086 249.501C90.8356 245.642 93.3368 241.888 97.1952 241.115Z" fill="#EBBAAA"/>
<path d="M61.2727 267.305C61.4998 263.377 64.8686 260.376 68.797 260.603C72.7255 260.83 75.7261 264.199 75.499 268.127C75.2409 272.592 74.9494 276.863 74.6041 281.358L74.4936 282.779C74.1858 286.668 73.3687 296.416 73.3457 296.698L73.1945 298.591C72.8738 302.681 72.6695 305.83 72.5349 308.906C72.3183 313.856 72.3011 318.444 72.5046 323.314C72.669 327.245 69.615 330.566 65.6834 330.73C61.7518 330.894 58.4314 327.84 58.2671 323.909C58.0552 318.84 58.0636 314.044 58.2705 308.949L58.2986 308.283C58.4502 304.817 58.6822 301.311 59.0513 296.679L60.1121 283.839C60.1976 282.789 60.2711 281.875 60.3224 281.217C60.6936 276.455 61.002 271.988 61.2727 267.305Z" fill="#EBBAAA"/>
<path d="M57.75 314.626V326.876L73 327.501L72.625 316.001L57.75 314.626Z" fill="#F2EFEF"/>
<path d="M93 315.501V326.876L108.25 327.501V315.501H93Z" fill="#F2EFEF"/>
<path d="M77.3901 242.522C93.3361 242.522 106.263 236.198 106.263 228.398C106.263 220.597 93.3361 214.274 77.3901 214.274C61.4443 214.274 48.5176 220.597 48.5176 228.398C48.5176 236.198 61.4443 242.522 77.3901 242.522Z" fill="#2E2E2D"/>
<path d="M46.3535 212.594H80.1035L76.75 308.876L76 317.784L56.875 316.749L50.6815 308.876L46.3535 212.594Z" fill="#2E2E2D"/>
<path d="M79.75 214.25H113.614V311.501L109.571 317.181L89.9462 318.859L88.8212 311.501L79.75 214.25Z" fill="#2E2E2D"/>
<path d="M59.0082 324.109C59.9615 321.249 58.0812 318.944 57.022 318.149C56.4922 318.891 55.8302 322.651 54.6385 325.566L51.5267 329.339L46.826 334.966L41 337.746L44.0455 341.321C46.1198 339.734 58.0547 326.969 59.0082 324.109Z" fill="#3B3937"/>
<path d="M77.17 343.769C77.17 343.769 77.3395 337.554 76.0168 334.111C74.6943 330.669 73.3315 321.789 73.3315 321.789C73.3315 321.789 70.985 324.304 66.6155 324.304C62.2458 324.304 57.6113 323.251 57.6113 323.251C57.6113 323.251 49.4955 333.971 47.3768 335.296C45.258 336.619 34.9299 339.401 34.9299 339.401C32.6629 339.401 30.8251 341.239 30.8251 343.504V345.594H55.7188L77.17 343.769Z" fill="#1C1B19"/>
<mask id="mask0_1_85" style="mask-type:luminance" maskUnits="userSpaceOnUse" x="30" y="321" width="48" height="25">
<path fill-rule="evenodd" clip-rule="evenodd" d="M77.17 343.769C77.17 343.769 77.3395 337.554 76.0167 334.111C74.6942 330.669 73.3315 321.789 73.3315 321.789C73.3315 321.789 70.985 324.304 66.6155 324.304C62.2457 324.304 57.6112 323.251 57.6112 323.251C57.6112 323.251 49.4955 333.971 47.3767 335.296C45.258 336.619 36.0814 339.194 34.9521 339.269C32.6119 339.426 30.6129 341.111 30.6495 343.456L30.6809 345.466L55.7187 345.594L77.17 343.769Z" fill="white"/>
</mask>
<g mask="url(#mask0_1_85)">
<path d="M34.3321 353.632C38.6084 353.816 42.2245 350.499 42.4091 346.223C42.5937 341.947 39.2767 338.331 35.0005 338.146C30.7243 337.962 27.1081 341.279 26.9235 345.555C26.739 349.831 30.0559 353.447 34.3321 353.632Z" fill="#D0CEC1"/>
</g>
<path d="M53.2387 325.799C53.3959 325.406 53.8315 325.208 54.2277 325.34L54.2715 325.356L55.5958 325.886C56.0032 326.049 56.2012 326.512 56.0382 326.919C55.881 327.312 55.4454 327.51 55.0492 327.377L55.0054 327.361L53.6811 326.831C53.2738 326.668 53.0757 326.206 53.2387 325.799Z" fill="#ECECEC"/>
<path d="M51.5169 328.184C51.6741 327.791 52.1097 327.593 52.5059 327.725L52.5497 327.741L53.874 328.271C54.2814 328.434 54.4794 328.897 54.3164 329.304C54.1592 329.697 53.7236 329.895 53.3274 329.762L53.2836 329.746L51.9593 329.216C51.552 329.053 51.3539 328.591 51.5169 328.184Z" fill="#ECECEC"/>
<path d="M49.6632 330.566C49.8204 330.173 50.256 329.975 50.6521 330.108L50.696 330.124L52.0202 330.654C52.4276 330.817 52.6257 331.279 52.4626 331.687C52.3054 332.079 51.8698 332.278 51.4737 332.145L51.4298 332.129L50.1056 331.599C49.6982 331.436 49.5001 330.974 49.6632 330.566Z" fill="#ECECEC"/>
<path d="M47.2791 332.952C47.4357 332.559 47.871 332.36 48.2674 332.492L48.3112 332.508L49.6355 333.036C50.0431 333.198 50.2419 333.66 50.0796 334.068C49.923 334.461 49.4877 334.66 49.0913 334.528L49.0475 334.512L47.7232 333.984C47.3156 333.822 47.1168 333.36 47.2791 332.952Z" fill="#ECECEC"/>
<path d="M45.1612 335.069C45.3184 334.676 45.754 334.478 46.1502 334.61L46.194 334.626L47.5183 335.156C47.9256 335.319 48.1237 335.782 47.9607 336.189C47.8035 336.582 47.3679 336.78 46.9717 336.647L46.9279 336.631L45.6036 336.101C45.1962 335.938 44.9982 335.476 45.1612 335.069Z" fill="#ECECEC"/>
<path d="M77.4137 343.706L53.9765 344.766L30.6716 343.706L30.3041 346.754C30.1926 347.679 30.8968 348.499 31.8277 348.531L53.4905 349.266L65.5845 349.399L77.6785 349.001L77.4137 343.706Z" fill="#D0CEC1"/>
<path d="M47.3558 349.004V346.619V345.691L30.5391 344.899L30.3002 347.046C30.2149 347.816 30.803 348.494 31.5756 348.516L47.3558 349.004Z" fill="#ECEADF"/>
<path d="M67.8796 338.013C65.2469 338.013 63.1127 335.879 63.1127 333.246C63.1127 330.613 65.2469 328.479 67.8796 328.479C70.5123 328.479 72.6465 330.613 72.6465 333.246C72.6465 335.879 70.5123 338.013 67.8796 338.013Z" fill="#DCE0E4"/>
<path d="M67.8908 329.739C67.7818 329.549 67.5015 329.566 67.4168 329.769L66.625 331.654C66.5913 331.734 66.5203 331.794 66.435 331.811L64.4325 332.229C64.2175 332.271 64.1473 332.544 64.3135 332.689L65.8628 334.024C65.9288 334.081 65.9625 334.166 65.953 334.254L65.731 336.286C65.707 336.504 65.9438 336.654 66.1315 336.541L67.8805 335.481C67.955 335.436 68.047 335.429 68.1265 335.466L69.9918 336.306C70.192 336.396 70.4085 336.216 70.3583 336.004L69.89 334.011C69.8703 333.926 69.8933 333.839 69.9518 333.774L71.3268 332.259C71.4743 332.096 71.3713 331.834 71.1525 331.816L69.1143 331.646C69.0273 331.639 68.9495 331.589 68.9063 331.514L67.8908 329.739Z" fill="#5B568E"/>
<path d="M107.344 324.109C106.386 321.249 108.275 318.944 109.34 318.151C109.872 318.891 110.537 322.651 111.735 325.566L114.861 329.339L119.585 334.966L125.439 337.746L122.379 341.324C120.294 339.734 108.302 326.969 107.344 324.109Z" fill="#3B3937"/>
<path d="M89.0945 343.769C89.0945 343.769 88.924 337.554 90.253 334.111C91.582 330.669 92.9513 321.789 92.9513 321.789C92.9513 321.789 95.309 324.304 99.6998 324.304C104.091 324.304 108.747 323.251 108.747 323.251C108.747 323.251 116.902 333.971 119.031 335.296C121.16 336.619 131.538 339.401 131.538 339.401C133.816 339.401 135.663 341.246 135.663 343.524V345.594H110.649L89.0945 343.769Z" fill="#1C1B19"/>
<mask id="mask1_1_85" style="mask-type:luminance" maskUnits="userSpaceOnUse" x="89" y="321" width="47" height="25">
<path fill-rule="evenodd" clip-rule="evenodd" d="M89.094 343.769C89.094 343.769 88.9235 337.554 90.2525 334.111C91.5815 330.669 92.9508 321.789 92.9508 321.789C92.9508 321.789 95.3085 324.304 99.6993 324.304C104.09 324.304 108.747 323.251 108.747 323.251C108.747 323.251 116.902 333.971 119.031 335.296C121.16 336.619 130.381 339.194 131.515 339.269C133.867 339.426 135.875 341.121 135.838 343.479L135.807 345.466L110.648 345.594L89.094 343.769Z" fill="white"/>
</mask>
<g mask="url(#mask1_1_85)">
<path d="M132.139 353.632C127.842 353.818 124.208 350.503 124.023 346.226C123.838 341.95 127.17 338.333 131.467 338.146C135.764 337.96 139.398 341.275 139.583 345.552C139.768 349.828 136.436 353.445 132.139 353.632Z" fill="#D0CEC1"/>
</g>
<path d="M112.106 325.356C112.513 325.193 112.975 325.392 113.138 325.8C113.294 326.193 113.115 326.637 112.736 326.813L112.693 326.832L111.363 327.362C110.955 327.524 110.493 327.325 110.331 326.918C110.174 326.525 110.353 326.081 110.732 325.904L110.775 325.886L112.106 325.356Z" fill="#ECECEC"/>
<path d="M113.835 327.741C114.243 327.578 114.705 327.777 114.867 328.185C115.024 328.578 114.845 329.022 114.466 329.198L114.423 329.217L113.092 329.747C112.685 329.909 112.223 329.71 112.06 329.303C111.904 328.91 112.083 328.466 112.462 328.289L112.505 328.271L113.835 327.741Z" fill="#ECECEC"/>
<path d="M115.699 330.123C116.107 329.961 116.569 330.16 116.731 330.567C116.888 330.96 116.708 331.404 116.33 331.581L116.287 331.599L114.956 332.129C114.549 332.292 114.087 332.093 113.924 331.685C113.768 331.292 113.947 330.849 114.325 330.672L114.368 330.653L115.699 330.123Z" fill="#ECECEC"/>
<path d="M118.094 332.508C118.502 332.346 118.964 332.546 119.125 332.954C119.281 333.347 119.101 333.79 118.723 333.966L118.68 333.985L117.349 334.512C116.941 334.674 116.479 334.475 116.318 334.067C116.162 333.673 116.342 333.23 116.721 333.054L116.763 333.035L118.094 332.508Z" fill="#ECECEC"/>
<path d="M120.223 334.626C120.631 334.463 121.093 334.662 121.255 335.07C121.412 335.463 121.233 335.907 120.854 336.083L120.811 336.102L119.481 336.632C119.073 336.794 118.611 336.595 118.448 336.188C118.292 335.795 118.471 335.351 118.85 335.174L118.893 335.156L120.223 334.626Z" fill="#ECECEC"/>
<path d="M88.849 343.706L112.399 344.766L135.817 343.706L136.186 346.751C136.298 347.676 135.593 348.499 134.662 348.531L112.888 349.266L100.735 349.399L88.583 349.001L88.849 343.706Z" fill="#D0CEC1"/>
<path d="M119.053 349.004V346.619V345.691L135.95 344.899L136.19 347.046C136.276 347.814 135.688 348.494 134.915 348.516L119.053 349.004Z" fill="#ECEADF"/>
<path d="M98.4293 338.013C101.075 338.013 103.219 335.879 103.219 333.246C103.219 330.613 101.075 328.479 98.4293 328.479C95.7839 328.479 93.6394 330.613 93.6394 333.246C93.6394 335.879 95.7839 338.013 98.4293 338.013Z" fill="#DCE0E4"/>
<path d="M98.419 329.736C98.5283 329.546 98.8075 329.564 98.8928 329.764L99.6895 331.654C99.7233 331.734 99.7943 331.794 99.8795 331.811L101.893 332.229C102.108 332.271 102.179 332.544 102.012 332.689L100.456 334.024C100.389 334.081 100.355 334.166 100.365 334.254L100.588 336.286C100.612 336.504 100.376 336.656 100.188 336.544L98.4268 335.479C98.3525 335.436 98.261 335.429 98.1818 335.466L96.3038 336.306C96.1035 336.396 95.8875 336.216 95.9378 336.004L96.4085 334.011C96.4285 333.926 96.4053 333.839 96.3465 333.774L94.9655 332.259C94.8175 332.096 94.9205 331.834 95.1395 331.816L97.189 331.646C97.2758 331.639 97.3535 331.591 97.397 331.514L98.419 329.736Z" fill="#5B568E"/>
<path d="M79.75 120.25C95.6283 120.25 111 114.374 111 107.125C111 71.5 95.6283 71.5 79.75 71.5C63.8717 71.5 48.5 71.5 48.5 107.125C48.5 114.374 63.8717 120.25 79.75 120.25Z" fill="#2D2427"/>
<path d="M30.6886 145.617C33.0124 141.067 38.5843 139.263 43.1339 141.587C47.6834 143.91 49.4877 149.482 47.1639 154.032C43.9097 160.403 40.4723 173.31 38.7113 185.733L38.631 186.307C37.8297 192.127 37.4773 197.323 37.6243 201.13C37.6761 202.473 37.7886 203.566 37.9318 204.339L37.9631 204.501L37.971 204.51C40.5978 207.517 41.0512 211.997 38.8242 215.526L38.7415 215.655C35.9459 219.931 30.2133 221.131 25.9375 218.335C22.8819 216.337 21.2115 213.417 20.2304 209.853C19.5967 207.55 19.2557 204.891 19.1381 201.844C18.9382 196.666 19.3932 190.199 20.3944 183.136C22.4179 168.862 26.3425 154.125 30.6886 145.617Z" fill="#EBBAAA"/>
<path d="M113.136 135.583C117.585 133.073 123.227 134.646 125.737 139.095C131.661 149.597 136.034 164.436 138.292 179.944C140.441 194.713 140.397 208.068 137.693 215.504C135.947 220.305 130.64 222.782 125.839 221.036C121.086 219.307 118.611 214.088 120.256 209.326L120.307 209.182C121.69 205.378 121.726 194.572 119.985 182.609C118.029 169.173 114.272 156.424 109.624 148.185C107.114 143.735 108.686 138.093 113.136 135.583Z" fill="#EBBAAA"/>
<path d="M123.625 121C121.325 118.7 113.75 116.375 110.25 115.5C112.458 145 117.075 204.75 117.875 207.75C118.875 211.5 140.75 213 142.75 211.5C144.75 210 147 195.875 146.5 188.125C146 180.375 126.5 123.875 123.625 121Z" fill="#F2EEE2"/>
<path d="M37.4796 120.746C39.6326 118.447 46.7236 116.124 50.0001 115.25C47.9328 144.727 43.6111 204.431 42.8621 207.428C41.9261 211.176 21.4487 212.674 19.5765 211.176C17.7043 209.677 15.5981 195.563 16.0661 187.819C16.5342 180.075 34.7883 123.618 37.4796 120.746Z" fill="#F2EEE2"/>
<mask id="mask2_1_85" style="mask-type:luminance" maskUnits="userSpaceOnUse" x="16" y="115" width="34" height="97">
<path fill-rule="evenodd" clip-rule="evenodd" d="M37.4796 120.746C39.6326 118.447 46.7236 116.124 50.0001 115.25C47.9328 144.727 43.6111 204.431 42.8621 207.428C41.9261 211.176 21.4487 212.674 19.5765 211.176C17.7043 209.677 15.5981 195.563 16.0661 187.819C16.5342 180.075 34.7883 123.618 37.4796 120.746Z" fill="white"/>
</mask>
<g mask="url(#mask2_1_85)">
<path d="M20.5826 152.028L24.6671 146.972L24.7138 147.008C24.8383 147.101 25.0705 147.253 25.3775 147.436L25.4445 147.476C25.9119 147.751 26.4892 148.062 27.1386 148.386C28.6434 149.135 30.3983 149.885 32.2134 150.535C36.6336 152.116 40.8637 152.926 44.2322 152.678L44.4028 152.665L44.954 159.141C40.5485 159.516 35.4828 158.58 30.2754 156.744L30.0233 156.655C26.084 155.245 22.2556 153.346 20.6492 152.081L20.5826 152.028Z" fill="black"/>
<path d="M21.7674 163.168C21.761 163.152 21.7761 163.178 21.821 163.237C21.9078 163.351 22.0372 163.491 22.2085 163.649C22.6236 164.031 23.2184 164.459 23.966 164.904C25.5502 165.846 27.694 166.789 30.1162 167.605C35.1221 169.292 40.5615 170.202 44.2416 169.928L44.4028 169.915L44.954 176.391C40.2726 176.79 33.8976 175.739 28.0403 173.765L27.6598 173.635C21.5421 171.527 17.1129 168.861 15.7728 165.681L15.7323 165.582L21.7674 163.168Z" fill="black"/>
<path d="M16.3587 178.937C17.3318 180.247 22.071 182.561 27.9807 184.398L28.1601 184.454C34.411 186.38 40.7286 187.452 44.4061 187.175L44.5277 187.165L45.079 193.641C40.4267 194.037 33.2936 192.837 26.2463 190.666L25.8096 190.53C18.7804 188.325 13.3153 185.644 11.2051 182.898L11.1409 182.813L16.3587 178.937Z" fill="black"/>
<path d="M13.5792 193.737C16.1091 196.072 21.4132 198.322 27.9296 199.884C33.9078 201.317 40.1996 201.991 44.2442 201.678L44.4027 201.665L44.954 208.141C40.1482 208.55 33.0981 207.807 26.4144 206.205L25.9472 206.091C18.7307 204.315 12.7562 201.76 9.28162 198.615L9.17041 198.513L13.5792 193.737Z" fill="black"/>
<path d="M28.0421 131.472C28.97 132.221 31.2707 133.401 33.8406 134.264C37.2214 135.399 40.7622 135.937 44.1754 135.683L44.4028 135.665L44.954 142.141C40.5172 142.519 36.021 141.853 31.7711 140.425C28.5751 139.352 25.6472 137.861 24.0438 136.597L23.9576 136.528L28.0421 131.472Z" fill="black"/>
</g>
<mask id="mask3_1_85" style="mask-type:luminance" maskUnits="userSpaceOnUse" x="110" y="115" width="37" height="98">
<path fill-rule="evenodd" clip-rule="evenodd" d="M123.625 121C121.325 118.7 113.75 116.375 110.25 115.5C112.458 145 117.075 204.75 117.875 207.75C118.875 211.5 140.75 213 142.75 211.5C144.75 210 147 195.875 146.5 188.125C146 180.375 126.5 123.875 123.625 121Z" fill="white"/>
</mask>
<g mask="url(#mask3_1_85)">
<path d="M135.708 146.722L139.792 151.778C138.235 153.036 134.103 155.039 129.865 156.535C124.376 158.471 119.117 159.491 114.682 159.158L114.475 159.141L115.026 152.665C118.417 152.954 122.92 152.092 127.702 150.405C129.638 149.722 131.518 148.936 133.12 148.16L133.413 148.016C133.988 147.731 134.501 147.46 134.922 147.218L135.052 147.142C135.365 146.959 135.591 146.812 135.69 146.736L135.708 146.722Z" fill="black"/>
<path d="M140.835 161.016L146.165 164.735C141.76 171.049 124.766 177.116 114.775 176.415L114.475 176.392L115.026 169.915C122.774 170.574 137.573 165.367 140.742 161.143L140.835 161.016Z" fill="black"/>
<path d="M146.133 177.63L151.617 181.12C149.81 183.959 143.63 186.992 135.385 189.721L135.135 189.804C127.104 192.443 119.286 194.006 114.615 193.653L114.475 193.642L115.026 187.165C118.582 187.468 125.765 186.041 133.106 183.629C136.571 182.49 139.784 181.223 142.246 180.022L142.557 179.869C143.632 179.333 144.523 178.827 145.193 178.373C145.495 178.169 145.74 177.982 145.924 177.822L145.977 177.775C146.083 177.68 146.135 177.623 146.135 177.627L146.133 177.63Z" fill="black"/>
<path d="M147.728 194.528L147.829 194.438C147.856 194.413 147.869 194.401 147.867 194.406L147.865 194.409L153.385 197.841C151.385 201.059 144.931 203.579 135.623 205.698L135.141 205.806C127.338 207.547 119.225 208.512 114.616 208.153L114.475 208.142L115.026 201.665C118.899 201.995 126.748 201.051 134.18 199.36C137.937 198.505 141.308 197.522 143.859 196.526C145.141 196.025 146.183 195.534 146.941 195.077C147.278 194.874 147.542 194.688 147.728 194.528Z" fill="black"/>
<path d="M131.195 131.482L135.305 136.518C133.734 137.8 130.781 139.33 127.554 140.426C123.415 141.83 119.04 142.5 114.716 142.166L114.471 142.146L115.028 135.67C118.469 135.966 122.048 135.43 125.464 134.271C127.958 133.424 130.196 132.273 131.143 131.523L131.195 131.482Z" fill="black"/>
</g>
<path fill-rule="evenodd" clip-rule="evenodd" d="M79.5247 123.91C77.8355 117.982 75.0345 110.752 72.5 112.094C71.7545 112.488 71.3342 117.023 71.1332 124.091L70 124.469V111.5C62.5 111.5 55.125 113.219 49.5 115.719C44.1877 118.08 43.9177 124.849 43.5397 134.328C43.4402 136.822 43.3333 139.505 43.125 142.344L41.75 216.968L60.25 219.843L72.4998 219.967C72.4998 219.968 72.4998 219.968 72.4998 219.968H72.625H109.125L118.625 217.343L116.875 139.469C116.875 139.469 114.625 117.594 110.875 115.594C107.125 113.594 87.25 111.25 87.25 111.25L88.2497 122.594L79.9997 123.594L79.5247 123.91Z" fill="#FDF9EF"/>
<mask id="mask4_1_85" style="mask-type:luminance" maskUnits="userSpaceOnUse" x="41" y="111" width="78" height="109">
<path fill-rule="evenodd" clip-rule="evenodd" d="M79.5247 123.91C77.8355 117.982 75.0345 110.752 72.5 112.094C71.7545 112.488 71.3342 117.023 71.1332 124.091L70 124.469V111.5C62.5 111.5 55.125 113.219 49.5 115.719C44.1877 118.08 43.9177 124.849 43.5397 134.328C43.4402 136.822 43.3333 139.505 43.125 142.344L41.75 216.968L60.25 219.843L72.4998 219.967C72.4998 219.968 72.4998 219.968 72.4998 219.968H72.625H109.125L118.625 217.343L116.875 139.469C116.875 139.469 114.625 117.594 110.875 115.594C107.125 113.594 87.25 111.25 87.25 111.25L88.2497 122.594L79.9997 123.594L79.5247 123.91Z" fill="white"/>
</mask>
<g mask="url(#mask4_1_85)">
<path d="M81.288 132.782C98.1931 132.603 113.886 133.159 119.247 134.215L119.41 134.248L118.09 140.613C113.468 139.655 97.6099 139.095 80.8302 139.288L80.3214 139.294C62.0441 139.521 47.166 140.573 42.4468 142.115L42.3069 142.162L40.1929 136.016C45.6409 134.142 60.6338 133.056 79.663 132.802L81.288 132.782Z" fill="black"/>
<path d="M81.288 148.282C98.1931 148.103 113.886 148.659 119.247 149.715L119.41 149.748L118.09 156.113C113.468 155.155 97.6099 154.595 80.8302 154.788L80.3214 154.794C62.0441 155.021 47.166 156.073 42.4468 157.615L42.3069 157.662L40.1929 151.516C45.6409 149.642 60.6338 148.556 79.663 148.302L81.288 148.282Z" fill="black"/>
<path d="M81.288 166.032C98.1931 165.853 113.886 166.409 119.247 167.465L119.41 167.498L118.09 173.863C113.468 172.905 97.6099 172.345 80.8302 172.538L80.3214 172.544C62.0441 172.771 47.166 173.823 42.4468 175.365L42.3069 175.412L40.1929 169.266C45.6409 167.392 60.6338 166.306 79.663 166.052L81.288 166.032Z" fill="black"/>
<path d="M118.01 181.968L118.99 188.394L118.627 188.447C112.564 189.318 96.8535 190.374 81.5528 190.908L81.0797 190.924C62.2335 191.569 47.3969 191.358 40.5752 190.067L40.371 190.027L41.6289 183.65C47.5561 184.819 61.7799 185.051 79.7526 184.465L80.8576 184.428C96.0709 183.908 111.851 182.852 117.667 182.019L118.01 181.968Z" fill="black"/>
<path d="M118.01 197.787L118.99 204.213L118.627 204.266C112.501 205.147 96.5291 206.216 81.0797 206.744L79.9424 206.782C61.6375 207.379 47.2591 207.152 40.5752 205.886L40.371 205.847L41.6288 199.47C47.5561 200.639 61.7801 200.871 79.7526 200.285L80.8576 200.248C96.0714 199.727 111.851 198.671 117.666 197.838L118.01 197.787Z" fill="black"/>
<path d="M81.288 117.282C98.1931 117.103 113.886 117.659 119.247 118.715L119.41 118.748L118.09 125.113C113.468 124.155 97.6099 123.595 80.8302 123.788L80.3214 123.794C62.0441 124.021 47.166 125.073 42.4468 126.615L42.3069 126.662L40.1929 120.516C45.6409 118.642 60.6338 117.556 79.663 117.302L81.288 117.282Z" fill="black"/>
</g>
<path d="M65.75 116.406C65.75 113.834 67.8345 111.75 70.4057 111.75H89.1845C91.7557 111.75 93.8403 113.834 93.8403 116.406C93.8403 123.188 88.3417 128.687 81.5592 128.687H78.031C71.2483 128.687 65.75 123.188 65.75 116.406Z" fill="#EBBAAA" stroke="#E2DBD0" stroke-width="5"/>
<path d="M65.75 116.406C65.75 113.834 67.8345 111.75 70.4057 111.75H89.1845C91.7557 111.75 93.8403 113.834 93.8403 116.406C93.8403 123.188 88.3417 128.687 81.5592 128.687H78.031C71.2483 128.687 65.75 123.188 65.75 116.406Z" fill="#EBBAAA"/>
<path d="M65.875 116.406C65.875 113.834 67.9595 111.75 70.5307 111.75H89.3095C91.8807 111.75 93.9653 113.834 93.9653 116.406C93.9653 123.188 88.4667 128.687 81.6842 128.687H78.156C71.3733 128.687 65.875 123.188 65.875 116.406Z" fill="#EBBAAA" stroke="#E2DBD0" stroke-width="5"/>
<path d="M80.3565 83C85.591 83 89.8342 87.2432 89.8342 92.4777V111.71L89.8337 111.779C92.1582 112.04 93.9653 114.012 93.9653 116.406C93.9653 123.188 88.4667 128.687 81.6842 128.687H78.156C71.3733 128.687 65.875 123.188 65.875 116.406C65.875 114.012 67.682 112.04 70.0063 111.779L70.0058 111.71V92.4777C70.0058 87.2432 74.2492 83 79.4835 83H80.3565Z" fill="#EBBAAA"/>
<path d="M69.8809 92.4777C69.8809 87.2432 74.1244 83 79.3586 83H80.2316C85.4661 83 89.7094 87.2432 89.7094 92.4777V111.71C89.7094 117.186 85.2706 121.624 79.7951 121.624C74.3196 121.624 69.8809 117.186 69.8809 111.71V92.4777Z" fill="#EBBAAA"/>
<path d="M67.2501 84.75C68.5799 86.4212 72.3564 89.75 79.4841 89.75C86.6119 89.75 91.1861 86.4212 92.2501 84.75" stroke="#C99584" stroke-width="2.5" stroke-linecap="round"/>
<path d="M56.0001 81.5C60.1423 81.5 63.5001 78.1421 63.5001 74C63.5001 69.8579 60.1423 66.5 56.0001 66.5C51.858 66.5 48.5001 69.8579 48.5001 74C48.5001 78.1421 51.858 81.5 56.0001 81.5Z" fill="#F2CACA"/>
<path d="M57.2501 56.5H64.7501" stroke="black" stroke-width="2.5" stroke-linecap="round"/>
<path d="M94.7501 56.5H102.25" stroke="black" stroke-width="2.5" stroke-linecap="round"/>
<path d="M94.7501 56.25V63.75" stroke="black" stroke-width="6" stroke-linecap="round"/>
<path d="M64.7511 56.25V63.75" stroke="black" stroke-width="6" stroke-linecap="round"/>
<path d="M90.5001 45.5L104.75 46.25" stroke="#271E1E" stroke-width="3" stroke-linecap="round"/>
<path d="M69.0001 45.5L54.7501 46.25" stroke="#271E1E" stroke-width="3" stroke-linecap="round"/>
<path d="M103.5 81.5C107.642 81.5 111 78.1421 111 74C111 69.8579 107.642 66.5 103.5 66.5C99.358 66.5 96.0001 69.8579 96.0001 74C96.0001 78.1421 99.358 81.5 103.5 81.5Z" fill="#F2CACA"/>
<path d="M79.7501 62.5C77.2501 66.25 74.7501 75 82.2501 75" stroke="#EBBAAA" stroke-width="4.25"/>
<path d="M104.588 47.118C99.5981 43.8208 90.2004 30.2573 86.1251 23.8878C109.703 17.7681 119.558 35.253 121.554 47.118C123.55 58.9828 123.751 61.3535 123.875 63.25C124.25 69 124.798 72.375 124.798 76.7198C125.214 93.7885 129.82 125.075 124.798 127.549C118.206 130.796 99.4931 131.046 102.612 122.304C105.731 113.561 114.942 58.1085 113.944 55.236C112.946 52.3635 110.826 51.2395 104.588 47.118Z" fill="#2D2427"/>
<path fill-rule="evenodd" clip-rule="evenodd" d="M79.7218 -1.49998C79.7038 -1.50003 79.7396 -1.49998 79.7218 -1.49998C90.9228 -1.49998 110.196 4.17107 117.275 18.7501C121.01 26.4432 120.413 31.8855 119.778 41.25C112.008 31.3685 90.8933 24.75 79.7215 24.75C65.614 24.75 50.7186 32.71 39.6653 41.25C39.1591 31.8407 38.4335 26.4432 42.1688 18.7501C49.2476 4.17107 68.2288 -1.50013 79.7218 -1.49998Z" fill="#614D4E"/>
<path fill-rule="evenodd" clip-rule="evenodd" d="M79.7469 -4C79.7449 -4 79.7489 -4 79.7469 -4C80.9914 -4 83.1329 -3.36988 83.9194 -1.74999C84.3344 -0.895179 84.2681 -0.290504 84.1976 0.749996C83.3344 -0.347954 80.9881 -1.08333 79.7469 -1.08333C78.1794 -1.08333 76.5244 -0.198879 75.2961 0.749996C75.2399 -0.295479 75.1594 -0.895179 75.5744 -1.74999C76.3609 -3.36988 78.4699 -4.00001 79.7469 -4Z" fill="#272727"/>
<path d="M54.9118 47.868C59.9018 44.5708 69.2998 31.0073 73.3751 24.6378C49.7971 18.5181 39.9418 36.003 37.9458 47.868C35.9498 59.7328 36 60.375 35.375 66C35.2071 67.511 34.8386 71.875 34.7023 77.4698C34.2864 94.5385 29.6804 125.825 34.7023 128.299C41.2943 131.546 60.0068 131.796 56.8881 123.054C53.7693 114.311 44.5576 58.8585 45.5556 55.986C46.5536 53.1135 48.6743 51.9895 54.9118 47.868Z" fill="#2D2427"/>
<path fill-rule="evenodd" clip-rule="evenodd" d="M79.7328 18.5C79.716 18.5 79.7495 18.5 79.7328 18.5C94.8283 18.5 119.073 24.8227 117.141 46.25C109.885 39.308 90.166 35.1852 79.7328 35.1852C66.5578 35.1852 52.647 40.2505 42.3243 46.25C40.7545 24.296 64.3758 18.4999 79.7328 18.5Z" fill="#413F3F"/>
<path d="M42.3751 47.25C42.3751 26.5392 59.1644 9.75 79.8751 9.75C100.586 9.75 117.375 26.5392 117.375 47.25V64.3435L116.659 74.2462C115.517 90.0225 104.305 103.37 89.0066 107.39C83.4521 108.849 77.5751 108.975 71.9691 107.729C57.4451 104.502 46.3956 92.6837 44.1506 77.976L42.8756 69.6235C42.5424 67.441 42.3751 65.2362 42.3751 63.0285V47.25Z" fill="#F4D5CC"/>
<path d="M88.0816 87.1523C88.5499 86.645 89.3407 86.6133 89.848 87.0816C90.3552 87.5499 90.3869 88.3407 89.9186 88.848C88.2174 90.6909 83.7409 92.1251 80.3751 92.1251C76.8121 92.1251 74.1922 91.2617 71.0276 89.0201C70.4642 88.6211 70.331 87.8409 70.7301 87.2776C71.1291 86.7142 71.9093 86.581 72.4726 86.9801C75.2218 88.9274 77.339 89.6251 80.3751 89.6251C83.0703 89.6251 86.8246 88.4341 88.0327 87.2035L88.0816 87.1523Z" fill="#C99584"/>
<path d="M57.3751 56.5H64.8751" stroke="black" stroke-width="2.5" stroke-linecap="round"/>
<path d="M94.8751 56.5H102.375" stroke="black" stroke-width="2.5" stroke-linecap="round"/>
<path d="M94.8751 56.25V63.75" stroke="black" stroke-width="6" stroke-linecap="round"/>
<path d="M64.8761 56.25V63.75" stroke="black" stroke-width="6" stroke-linecap="round"/>
<path d="M90.7501 47.5H104.875" stroke="#271E1E" stroke-width="3" stroke-linecap="round"/>
<path d="M69.0001 47.5H54.7506" stroke="#271E1E" stroke-width="3" stroke-linecap="round"/>
<path d="M78.107 61.3213L81.6432 63.6788C80.4414 65.4815 79.5001 68.1876 79.5001 70.1563C79.5001 72.0545 80.1856 72.8525 82.2843 72.8746L82.3751 72.875V77.125C77.7393 77.125 75.2501 74.3247 75.2501 70.1563C75.2501 67.3325 76.4249 63.9047 78.0196 61.454L78.107 61.3213Z" fill="#EBBAAA"/>
<path d="M102.713 47.868C97.7231 44.5708 88.3254 31.0073 84.2501 24.6378C107.828 18.5181 117.683 36.003 119.679 47.868C121.675 59.7328 121.876 62.1035 122 64C122.375 69.75 122.923 73.125 122.923 77.4698C123.339 94.5385 127.945 125.825 122.923 128.299C116.331 131.546 90.4461 132.399 98.2501 123.875C102.713 119 105.852 108.081 108.125 95.125C111.205 77.5718 112.644 57.6388 112.069 55.986C111.071 53.1135 108.951 51.9895 102.713 47.868Z" fill="#2D2427"/>
<path d="M58.7868 47.868C63.7768 44.5708 73.1748 31.0073 77.2501 24.6378C53.6721 18.5181 43.8168 36.003 41.8208 47.868C39.8248 59.7328 39.875 60.375 39.25 66C39.0821 67.511 38.7136 71.875 38.5773 77.4698C38.1614 94.5385 33.5554 125.825 38.5773 128.299C45.1693 131.546 69.2421 131.193 63.3751 124C58.7868 118.375 55.4371 108.836 53.0001 94.625C50.1703 78.125 48.8943 57.5293 49.4306 55.986C50.4286 53.1135 52.5493 51.9895 58.7868 47.868Z" fill="#2D2427"/>
<path fill-rule="evenodd" clip-rule="evenodd" d="M79.8719 -4C79.8699 -4 79.8739 -4 79.8719 -4C81.1164 -4 83.2579 -3.36988 84.0444 -1.74999C84.4594 -0.895179 84.3931 -0.290504 84.3226 0.749996C83.4594 -0.347954 81.1131 -1.08333 79.8719 -1.08333C78.3044 -1.08333 76.6494 -0.198879 75.4211 0.749996C75.3649 -0.295479 75.2844 -0.895179 75.6994 -1.74999C76.4859 -3.36988 78.5949 -4.00001 79.8719 -4Z" fill="#272727"/>
<path fill-rule="evenodd" clip-rule="evenodd" d="M79.9718 -1.49998C79.9538 -1.50003 79.9896 -1.49998 79.9718 -1.49998C91.1728 -1.49998 110.446 4.17107 117.525 18.7501C121.26 26.4432 120.663 31.8855 120.028 41.25C112.258 31.3685 91.1433 24.75 79.9715 24.75C65.864 24.75 50.9686 32.71 39.9153 41.25C39.4091 31.8407 38.6835 26.4432 42.4188 18.7501C49.4976 4.17107 68.4788 -1.50013 79.9718 -1.49998Z" fill="#614D4E"/>
<path fill-rule="evenodd" clip-rule="evenodd" d="M79.9828 18.5C79.966 18.5 79.9995 18.5 79.9828 18.5C95.0783 18.5 119.323 24.8227 117.391 46.25C110.135 39.308 90.416 35.1852 79.9828 35.1852C66.8078 35.1852 52.897 40.2505 42.5743 46.25C41.0045 24.296 64.6258 18.4999 79.9828 18.5Z" fill="#715E5F"/>
<path d="M67.0403 5.91211H65.5356L64.8744 9.31871H62.2639L62.9251 5.91211H61.4204L59.7903 14.1621H61.295L61.9904 10.6628H64.6008L63.9055 14.1621H65.4102L67.0403 5.91211Z" fill="white"/>
<path fill-rule="evenodd" clip-rule="evenodd" d="M72.3112 5.91211L73.5403 14.1621H71.9717L71.7961 12.6558H68.9751L68.1908 14.1621H66.5403L71.0821 5.91211H72.3112ZM69.6073 11.4044H71.6792L71.2812 8.22949L69.6073 11.4044Z" fill="white"/>
<path fill-rule="evenodd" clip-rule="evenodd" d="M78.8439 5.91211C80.2353 5.91211 81.0403 6.80431 81.0403 8.09048C81.0403 9.56204 79.9824 10.9641 78.016 10.9641H76.4406L75.8082 14.1621H74.2903L75.9347 5.91211H78.8439ZM78.0736 9.60841C79.0625 9.60841 79.511 8.84367 79.511 8.21796C79.511 7.69654 79.2695 7.26782 78.591 7.26782H77.1881L76.7167 9.60841H78.0736Z" fill="white"/>
<path fill-rule="evenodd" clip-rule="evenodd" d="M85.8439 5.91211C87.2353 5.91211 88.0403 6.80431 88.0403 8.09048C88.0403 9.56204 86.9824 10.9641 85.016 10.9641H83.4406L82.8082 14.1621H81.2903L82.9347 5.91211H85.8439ZM85.0736 9.60841C86.0625 9.60841 86.511 8.84367 86.511 8.21796C86.511 7.69654 86.2695 7.26782 85.591 7.26782H84.1881L83.7167 9.60841H85.0736Z" fill="white"/>
<path d="M95.0403 5.91211H93.369L91.2628 9.3303L90.3928 5.91211H88.7903L90.2669 10.7787L89.5916 14.1621H91.1026L91.7665 10.8366L95.0403 5.91211Z" fill="white"/>
<path fill-rule="evenodd" clip-rule="evenodd" d="M96.4757 5.91211H98.2905L96.796 11.566H95.6929L96.4757 5.91211ZM95.9183 12.4314C96.4046 12.4314 96.8079 12.8352 96.8079 13.3083C96.8079 13.7814 96.4046 14.1622 95.9183 14.1622C95.432 14.1622 95.0405 13.7814 95.0405 13.3083C95.0405 12.8352 95.432 12.4314 95.9183 12.4314Z" fill="white"/>
<path fill-rule="evenodd" clip-rule="evenodd" d="M69.1012 4.42075C69.5295 3.79351 70.2389 3.41211 71.004 3.41211H72.217C73.0061 3.41211 73.7132 3.81403 74.1314 4.43791C74.5508 3.81219 75.2592 3.41211 76.0457 3.41211H78.9686C79.8086 3.41211 80.6407 3.60644 81.3685 4.03384C81.7841 3.64521 82.339 3.41211 82.9394 3.41211H85.8624C86.4874 3.41211 87.1087 3.51984 87.6854 3.75128C88.0424 3.53232 88.4566 3.41211 88.8855 3.41211H90.5029C91.069 3.41211 91.5967 3.61988 92.0048 3.9719C92.4176 3.61553 92.9484 3.41211 93.5067 3.41211H95.1935C95.411 3.41211 95.6238 3.44295 95.8272 3.50148C96.0294 3.44321 96.2425 3.41211 96.462 3.41211H98.2296C98.9439 3.41211 99.618 3.74547 100.056 4.31508C100.493 4.88472 100.645 5.6266 100.467 6.32469L99.0118 12.0377C98.9933 12.11 98.9716 12.1807 98.9471 12.2498C99.0441 12.5575 99.0961 12.8831 99.0961 13.2175C99.0961 15.0239 97.6283 16.4121 95.919 16.4121C94.8377 16.4121 93.8837 15.8663 93.3129 15.0325C92.9401 15.838 92.1322 16.3771 91.2192 16.3771H89.6942C89.001 16.3771 88.3448 16.0632 87.9058 15.5219C87.4671 14.9806 87.2921 14.269 87.4292 13.5835L87.6372 12.5448C86.9544 12.9011 86.1792 13.1096 85.3448 13.1514L85.0782 14.501C84.863 15.5917 83.9142 16.3771 82.8124 16.3771H81.2873C80.5947 16.3771 79.9385 16.0636 79.4998 15.523C79.0608 14.9823 78.8855 14.2714 79.0218 13.5862L79.1226 13.0799C78.9037 13.116 78.6798 13.1399 78.4514 13.1514L78.1848 14.501C77.9696 15.5917 77.0208 16.3771 75.9186 16.3771H74.3936C74.2304 16.3771 74.069 16.3597 73.9119 16.3259C73.7547 16.3597 73.5933 16.3771 73.4301 16.3771H71.882C71.1209 16.3771 70.4387 16.004 70.0159 15.421C69.5852 16.0161 68.8947 16.3771 68.1504 16.3771H66.5214C66.3556 16.3771 66.1927 16.3593 66.0344 16.3248C65.8767 16.3591 65.7132 16.3771 65.5466 16.3771H64.0216C63.5433 16.3771 63.0826 16.2277 62.6987 15.9572C62.3212 16.2233 61.8635 16.3771 61.3759 16.3771H59.8509C59.1583 16.3771 58.5024 16.0636 58.0634 15.523C57.6246 14.9823 57.449 14.2714 57.5856 13.5862L59.2377 5.28481C59.4544 4.19572 60.4023 3.41211 61.503 3.41211H63.028C63.506 3.41211 63.967 3.56155 64.3508 3.83204C64.728 3.56598 65.1858 3.41211 65.6737 3.41211H67.1987C67.8913 3.41211 68.5472 3.72563 68.9862 4.26632C69.0267 4.3164 69.0651 4.36793 69.1012 4.42075ZM96.5673 13.7887C96.6733 13.67 96.7469 13.522 96.7741 13.3582C96.7816 13.3124 96.7856 13.2654 96.7856 13.2174C96.7856 13.1694 96.7816 13.1222 96.7741 13.076C96.7059 12.6616 96.3452 12.3313 95.9191 12.3313C95.8432 12.3313 95.7695 12.3418 95.6996 12.3614C95.3331 12.464 95.0642 12.816 95.0642 13.2174C95.0642 13.4151 95.0642 13.7887 95.6996 14.0802C96.2445 14.0802 96.5673 13.7887 96.5673 13.7887ZM95.6996 11.4569H96.774L98.2297 5.7439H96.4621L95.6996 11.4569ZM72.2171 5.7439H71.0041L66.5215 14.0452H68.1505L68.9245 12.5295H71.7088L71.8821 14.0452H73.4302L72.2171 5.7439ZM71.2004 8.07568L69.5483 11.2703H71.5932L71.2004 8.07568ZM74.3938 14.0452H75.9188L76.5542 10.8273H78.137C78.1563 10.8273 78.1757 10.8272 78.1948 10.8269C78.7502 10.8191 79.2322 10.6988 79.6369 10.4967C80.6039 10.0138 81.1313 9.06391 81.1729 8.06408C81.1746 8.02143 81.1755 7.97867 81.1755 7.93582C81.1755 7.22633 80.9325 6.63597 80.4826 6.24737C80.1117 5.92715 79.6005 5.7439 78.9688 5.7439H76.0459L74.3938 14.0452ZM79.2804 9.01012C79.5236 8.73764 79.6388 8.383 79.6388 8.06421C79.6388 8.02078 79.6374 7.97796 79.6339 7.93596C79.6244 7.81966 79.6013 7.70971 79.562 7.61026C79.5562 7.59548 79.5499 7.58093 79.5435 7.56662C79.4441 7.3495 79.2619 7.18872 78.9687 7.13124C78.8919 7.11614 78.8073 7.10815 78.7146 7.10815H77.3051L76.8314 9.46331H78.1947C78.2966 9.46331 78.3931 9.45524 78.4835 9.43999C78.5095 9.43568 78.5349 9.43075 78.5598 9.42527C78.6135 9.41347 78.6652 9.39907 78.7146 9.38231C78.9494 9.303 79.1371 9.17087 79.2804 9.01012ZM81.2875 14.0452H82.8125L83.4479 10.8273H85.0307C85.05 10.8273 85.0691 10.8272 85.0884 10.8269C86.2833 10.8101 87.138 10.2725 87.6174 9.51906C87.8929 9.08606 88.0449 8.58177 88.0662 8.06408C88.0683 8.02143 88.0691 7.97867 88.0691 7.93582C88.0691 7.21033 87.815 6.60939 87.3453 6.22137C87.1322 6.04534 86.8748 5.91313 86.5768 5.833C86.3596 5.77468 86.121 5.7439 85.8625 5.7439H82.9396L81.2875 14.0452ZM86.1739 9.01012C86.4171 8.73764 86.5326 8.383 86.5326 8.06421C86.5326 8.02078 86.5309 7.97796 86.5274 7.93596C86.5179 7.81966 86.4948 7.70971 86.4555 7.61026C86.4497 7.59548 86.4437 7.58093 86.437 7.56662C86.3379 7.3495 86.1554 7.18872 85.8625 7.13124C85.7854 7.11614 85.7011 7.10815 85.6084 7.10815H84.1989L83.7252 9.46331H85.0885C85.1904 9.46331 85.2866 9.45524 85.377 9.43999C85.403 9.43568 85.4284 9.43075 85.4533 9.42527C85.507 9.41347 85.5587 9.39907 85.6084 9.38231C85.8429 9.303 86.0306 9.17087 86.1739 9.01012ZM89.6943 14.0452H91.2193L91.8894 10.6991L95.1936 5.7439H93.5068L91.3811 9.18336L90.5031 5.7439H88.8856L90.376 10.6408L89.6943 14.0452ZM64.0217 14.0452L64.7265 10.5242H62.0808L61.3761 14.0452H59.8511L61.5032 5.7439H63.0282L62.3581 9.1717H65.0037L65.6738 5.7439H67.1988L65.5467 14.0452H64.0217Z" fill="#3F3334"/>
<path d="M76.0433 59.2896C77.3875 53.0403 73.5878 46.9793 67.3968 45.4981L62.4448 44.3131C61.6793 44.1301 60.8955 44.0226 60.1045 43.9928L56.7003 43.8638C49.93 43.6076 44.1228 48.9466 43.8573 55.6713L43.624 61.5851C43.442 66.1933 45.9488 70.4193 50.0655 72.4453L51.677 73.2386C54.5965 74.6753 58.0163 74.8471 61.1398 73.7136L67.4503 71.4236C71.4743 69.9636 74.485 66.5326 75.3755 62.3928L76.0433 59.2896Z" fill="#302F35" fill-opacity="0.98" stroke="#C9A38D"/>
<path d="M83.6026 60.0637C82.3711 53.8114 86.2296 47.5424 92.3848 45.7944L97.2236 44.4202C97.9888 44.2029 98.7716 44.0622 99.5601 44.0002L102.856 43.7404C109.565 43.2119 115.231 48.3622 115.392 55.1349L115.534 61.1167C115.645 65.7577 113.1 70.1244 108.995 72.3407L107.466 73.1662C104.538 74.7464 101.129 75.0584 98.0391 74.0289L91.9078 71.9857C87.9533 70.6679 85.0338 67.3294 84.2191 63.1937L83.6026 60.0637Z" fill="#302F35" fill-opacity="0.98" stroke="#C9A38D"/>
<path d="M74.4351 50.8261C77.9034 49.092 81.5746 49.0758 85.2585 50.7448L85.402 50.8107L84.3481 53.0777C81.3404 51.6794 78.4601 51.6535 75.6813 52.9991L75.5531 53.0622L74.4351 50.8261Z" fill="#C9A38D"/>
<path d="M61.1359 41.6207C61.2313 41.4368 61.4576 41.365 61.6414 41.4604L62.3899 41.8467C70.3427 45.9312 74.6583 47.4856 79.4187 47.6839C84.899 47.9123 90.7673 46.0831 99.3473 41.4631C99.5296 41.3649 99.7571 41.4332 99.8553 41.6155C99.9534 41.7979 99.8852 42.0253 99.7029 42.1235C91.015 46.8016 85.0263 48.6682 79.3875 48.4333C74.3386 48.2229 69.8229 46.5473 61.2962 42.1262C61.1124 42.0309 61.0406 41.8045 61.1359 41.6207Z" fill="#C9A38D"/>
</g>
<defs>
<clipPath id="clip0_1_85">
<rect width="162.74" height="346.1" fill="white"/>
</clipPath>
</defs>
</svg>
