<svg width="163" height="347" viewBox="0 0 163 347" fill="none" xmlns="http://www.w3.org/2000/svg">
<path d="M77.8855 225.107C79.096 230.962 79.2426 248.536 78.384 270.766C77.6176 290.61 76.1597 311.122 74.9292 319.74C74.3438 323.84 77.1933 327.639 81.2938 328.225C85.3944 328.81 89.1932 325.961 89.7786 321.86C91.0994 312.61 92.588 291.666 93.3728 271.345C94.2864 247.69 94.1358 229.619 92.5747 222.07C91.7359 218.014 87.7677 215.405 83.7114 216.244C79.655 217.083 77.0467 221.051 77.8855 225.107Z" fill="#F6DDD6"/>
<path d="M46.5942 220.552C44.9907 228.307 43.7927 248.044 43.4968 269.45C43.177 292.578 43.9569 312.057 45.9098 321.111C46.7832 325.16 50.7735 327.735 54.8226 326.861C58.8716 325.988 61.446 321.998 60.5726 317.949C58.943 310.393 58.1916 291.626 58.4953 269.657C58.778 249.208 59.9381 230.095 61.2835 223.59C62.1222 219.533 59.5139 215.565 55.4576 214.726C51.4013 213.887 47.433 216.496 46.5942 220.552Z" fill="#F6DDD6"/>
<path d="M24.8061 286.75L37.3061 189.75H51.3061C55.3061 220.75 52.0061 290.55 46.8061 291.75C41.6061 292.95 26.4728 289.418 24.8061 286.75Z" fill="#BF7E68"/>
<path d="M116.332 286.75L103.832 189.75H89.8324C85.8324 220.75 89.1324 290.55 94.3324 291.75C99.5324 292.95 114.666 289.418 116.332 286.75Z" fill="#BF7E68"/>
<path d="M41.1404 297.25C44.3904 299.75 69.9121 302.418 71.5789 299.75V247.75L67.3904 196H46.6051C42.6051 227 37.8904 294.75 41.1404 297.25Z" fill="#C99584"/>
<path d="M68.1056 296.907C74.4936 298.905 82.6701 298.655 100.556 296.907C100.556 296.907 97.2111 271.692 95.7014 243.235C94.1914 214.777 92.3796 190.063 92.3796 190.063L65.8061 193.558C68.1056 228.007 69.6389 247.229 68.1056 296.907Z" fill="#D79D8A"/>
<mask id="mask0_1_2068" style="mask-type:luminance" maskUnits="userSpaceOnUse" x="25" y="189" width="92" height="112">
<path fill-rule="evenodd" clip-rule="evenodd" d="M37.5561 189.75L25.0561 286.75C26.2285 288.625 34.0641 290.93 40.4186 291.715C40.5711 294.887 40.8841 296.86 41.3904 297.25C44.6404 299.75 70.1621 302.418 71.8289 299.75V297.738C77.8236 298.775 85.9784 298.355 100.806 296.908C100.806 296.908 100.563 295.07 100.177 291.83C106.684 291.188 115.345 288.73 116.582 286.75L104.082 189.75H90.0824C90.0544 189.968 90.0266 190.187 89.9991 190.409L66.0561 193.558C66.1111 194.38 66.1656 195.194 66.2196 196H52.2226C52.0281 193.782 51.8064 191.69 51.5561 189.75H37.5561Z" fill="white"/>
</mask>
<g mask="url(#mask0_1_2068)">
<path fill-rule="evenodd" clip-rule="evenodd" d="M47.2837 177.908L41.8204 303.038L45.2122 303.188L50.6754 178.056L47.2837 177.908ZM53.3887 178.098L47.9254 303.23L53.0939 303.455L58.5572 178.324L53.3887 178.098Z" fill="#C57B5C"/>
<rect x="28.9959" y="303.043" width="125.25" height="3.46318" transform="rotate(-84 28.9959 303.043)" fill="#AC6C57"/>
<path fill-rule="evenodd" clip-rule="evenodd" d="M60.9857 179.51L62.0787 304.755L63.8569 304.74L62.7639 179.495L60.9857 179.51ZM67.1999 304.733L66.1069 179.488L69.5019 179.458L70.5949 304.703L67.1999 304.733ZM73.9379 304.695L72.8449 179.449L78.0179 179.404L79.1109 304.65L73.9379 304.695Z" fill="#C57B5C"/>
<path fill-rule="evenodd" clip-rule="evenodd" d="M81.4989 178.922L90.2359 303.868L92.0099 303.743L83.2729 178.798L81.4989 178.922ZM86.8269 178.695L95.5639 303.64L98.9507 303.403L90.2137 178.458L86.8269 178.695Z" fill="#C57B5C"/>
<rect x="107.226" y="303.3" width="125.25" height="3.395" transform="rotate(-96 107.226 303.3)" fill="#AC6C57"/>
</g>
<path d="M117.847 334.25C117.847 326.575 112.916 325.638 104.878 323.008C100.942 321.72 96.9238 320.598 92.8473 319.923C90.2856 319.498 89.5974 321.75 85.0974 321.75C81.0844 321.75 76.0778 319.763 75.0413 319.333C74.9111 319.278 74.7571 319.23 74.6536 319.325C74.6286 319.348 74.6073 319.378 74.5918 319.408C74.1126 320.393 71.5973 325.763 71.5973 330.06C71.5973 333.348 71.3158 336.58 72.2223 338.25C72.6313 339.003 75.1851 339.415 76.0429 339.415H116.457C117.225 339.415 117.847 335.018 117.847 334.25Z" fill="#D0D4DB"/>
<mask id="mask1_1_2068" style="mask-type:luminance" maskUnits="userSpaceOnUse" x="71" y="319" width="47" height="21">
<path d="M117.847 334.25C117.847 326.575 112.916 325.638 104.878 323.008C100.942 321.72 96.9238 320.598 92.8473 319.923C90.2856 319.498 89.5974 321.75 85.0974 321.75C81.0844 321.75 76.0778 319.763 75.0413 319.333C74.9111 319.278 74.7571 319.23 74.6536 319.325C74.6286 319.348 74.6073 319.378 74.5918 319.408C74.1126 320.393 71.5973 325.763 71.5973 330.06C71.5973 333.348 71.3158 336.58 72.2223 338.25C72.6313 339.003 75.1851 339.415 76.0429 339.415H116.457C117.225 339.415 117.847 335.018 117.847 334.25Z" fill="white"/>
</mask>
<g mask="url(#mask1_1_2068)">
<path d="M92.9396 324.76C92.8931 324.145 92.1694 323.847 91.7031 324.247L89.0549 326.52C88.8691 326.68 88.6169 326.74 88.3794 326.677L84.9629 325.8C84.3556 325.642 83.8359 326.257 84.0906 326.83L85.4926 329.985C85.5946 330.215 85.5749 330.482 85.4399 330.692L83.5981 333.587C83.2654 334.11 83.6741 334.787 84.2916 334.737L87.8306 334.45C88.0714 334.43 88.3066 334.527 88.4629 334.712L90.7624 337.417C91.1634 337.89 91.9316 337.7 92.0659 337.095L92.8099 333.745C92.8644 333.5 93.0381 333.3 93.2726 333.207L96.4959 331.967C97.0811 331.742 97.1479 330.942 96.6079 330.622L93.5704 328.827C93.3594 328.705 93.2224 328.485 93.2039 328.24L92.9396 324.76Z" fill="#E4E9F1"/>
<path d="M80.9724 320.75C77.9724 320.55 75.4724 318.918 74.4724 318C73.4724 319 70.9974 321.75 71.5974 322.75C72.3474 324 78.0974 325 80.5974 325C83.0974 325 84.7224 321 80.9724 320.75Z" fill="#AEB5C0"/>
<path d="M112.811 325.755C116.048 323.925 114.779 327.55 117.688 329.09L123.847 340.897H74.8264C73.6286 339.185 67.9416 334.625 71.5974 334.625C79.5974 334.625 90.8474 335.875 95.7224 336.125C100.343 336.362 114.374 336.73 113.597 332.625C112.699 327.877 109.86 327.422 112.811 325.755Z" fill="#AEB5C0"/>
</g>
<path d="M94.4118 324.102C93.9611 324.69 94.5207 325.513 95.2337 325.311L100.684 323.761L99.4816 324.953C99.1797 325.253 99.1778 325.74 99.4773 326.042C99.7768 326.344 100.264 326.346 100.566 326.047L103.89 322.749C104.454 322.189 103.902 321.244 103.137 321.462L97.0468 323.194L98.5409 321.243C98.9796 320.67 98.4601 319.863 97.7569 320.025L92.2963 321.281C92.3752 321.23 92.4581 321.178 92.5449 321.125C92.7849 320.979 93.6274 320.501 93.7805 320.408C94.1438 320.187 94.2592 319.713 94.0382 319.35C93.8172 318.987 93.3435 318.871 92.9802 319.092C92.8536 319.169 92.0109 319.648 91.7444 319.81C90.3407 320.664 89.5774 321.439 89.5774 322.52C89.5774 323.015 90.0377 323.381 90.52 323.27L96.0177 322.005L94.4118 324.102Z" fill="#AEB5C0"/>
<path fill-rule="evenodd" clip-rule="evenodd" d="M91.2895 317.471C91.2956 317.142 91.2981 316.947 91.2981 316.728C91.2981 314.447 92.7898 312.75 94.7629 312.75C95.7241 312.75 96.5069 313.151 97.047 313.889C97.5656 314.596 97.8428 315.588 97.8428 316.728C97.8428 317.78 97.2171 318.727 96.1489 319.438C95.2023 320.069 93.9865 320.448 92.9664 320.448C92.4772 320.448 92.1178 320.36 91.864 320.182C91.6288 320.017 91.4767 319.776 91.388 319.438C91.3108 319.143 91.2811 318.784 91.2796 318.265C91.279 318.079 91.2808 317.948 91.2881 317.563L91.2883 317.538L91.2895 317.471ZM92.8279 317.577C92.8207 317.964 92.819 318.09 92.8196 318.261C92.8204 318.549 92.8313 318.758 92.851 318.905C92.8853 318.907 92.9237 318.908 92.9664 318.908C93.6782 318.908 94.598 318.621 95.2954 318.157C95.9699 317.708 96.3029 317.204 96.3029 316.728C96.3029 315.896 96.1145 315.222 95.805 314.8C95.5528 314.455 95.2307 314.29 94.7629 314.29C93.6875 314.29 92.8381 315.256 92.8381 316.728C92.8381 316.959 92.8354 317.162 92.8292 317.5L92.8281 317.553L92.8279 317.577Z" fill="#AEB5C0"/>
<path fill-rule="evenodd" clip-rule="evenodd" d="M91.7047 320.242L91.7028 320.241C91.7668 320.135 91.7707 320.128 91.7901 320.072C91.8094 320.035 91.8137 320.013 91.8179 319.978C91.8196 319.971 91.8207 319.965 91.8224 319.956L91.8299 319.912C91.8442 319.81 91.8416 319.699 91.8219 319.576C91.7855 319.353 91.6983 319.103 91.5456 318.757C91.5152 318.688 91.4826 318.616 91.4395 318.523L91.3265 318.279L91.3275 318.282C91.1623 317.928 91.1416 317.884 91.0745 317.732L91.0742 317.732C90.3923 316.201 88.8723 315.517 87.5355 316.112C86.8832 316.403 86.4719 316.909 86.3247 317.567C86.1833 318.195 86.2912 318.943 86.6317 319.71C86.9457 320.414 87.6525 320.859 88.5903 321.012C89.4198 321.149 90.3583 321.036 91.0508 320.729C91.376 320.584 91.5835 320.424 91.7047 320.242ZM87.8272 317.904C87.8688 317.718 87.9571 317.61 88.1624 317.518C88.6835 317.286 89.3167 317.571 89.6674 318.358C89.74 318.521 89.7621 318.569 89.9266 318.921C89.9432 318.957 89.9777 319.031 90.0051 319.09C90.022 319.127 90.0362 319.157 90.0419 319.17C90.0813 319.255 90.1103 319.319 90.1364 319.378L90.1541 319.418C89.763 319.529 89.2707 319.564 88.84 319.493C88.3701 319.416 88.115 319.255 88.0385 319.084C87.8246 318.602 87.7643 318.184 87.8272 317.904Z" fill="#AEB5C0"/>
<path d="M18.2648 334.25C18.2648 326.575 23.1963 325.638 31.2338 323.008C35.1706 321.72 39.1883 320.598 43.2648 319.923C45.8266 319.498 46.5148 321.75 51.0148 321.75C55.0278 321.75 60.0343 319.763 61.0708 319.333C61.2011 319.278 61.3551 319.23 61.4586 319.325C61.4836 319.348 61.5048 319.378 61.5203 319.408C61.9996 320.393 64.5148 325.763 64.5148 330.06C64.5148 333.348 64.7963 336.58 63.8898 338.25C63.4808 339.003 60.9271 339.415 60.0693 339.415H19.6553C18.8873 339.415 18.2648 335.018 18.2648 334.25Z" fill="#D0D4DB"/>
<mask id="mask2_1_2068" style="mask-type:luminance" maskUnits="userSpaceOnUse" x="18" y="319" width="47" height="21">
<path d="M18.2648 334.25C18.2648 326.575 23.1963 325.638 31.2338 323.008C35.1706 321.72 39.1883 320.598 43.2648 319.923C45.8266 319.498 46.5148 321.75 51.0148 321.75C55.0278 321.75 60.0343 319.763 61.0708 319.333C61.2011 319.278 61.3551 319.23 61.4586 319.325C61.4836 319.348 61.5048 319.378 61.5203 319.408C61.9996 320.393 64.5148 325.763 64.5148 330.06C64.5148 333.348 64.7963 336.58 63.8898 338.25C63.4808 339.003 60.9271 339.415 60.0693 339.415H19.6553C18.8873 339.415 18.2648 335.018 18.2648 334.25Z" fill="white"/>
</mask>
<g mask="url(#mask2_1_2068)">
<path d="M43.1725 324.76C43.219 324.145 43.9428 323.847 44.409 324.247L47.0573 326.52C47.243 326.68 47.4953 326.74 47.7328 326.677L51.1493 325.8C51.7565 325.642 52.2763 326.257 52.0215 326.83L50.6195 329.985C50.5175 330.215 50.5373 330.482 50.6723 330.692L52.514 333.587C52.8468 334.11 52.438 334.787 51.8205 334.737L48.2815 334.45C48.0408 334.43 47.8055 334.527 47.6493 334.712L45.3498 337.417C44.9488 337.89 44.1805 337.7 44.0463 337.095L43.3023 333.745C43.2478 333.5 43.074 333.3 42.8395 333.207L39.6163 331.967C39.031 331.742 38.9643 330.942 39.5043 330.622L42.5418 328.827C42.7528 328.705 42.8898 328.485 42.9083 328.24L43.1725 324.76Z" fill="#E4E9F1"/>
<path d="M55.1398 320.75C58.1398 320.55 60.6398 318.918 61.6398 318C62.6398 319 65.1148 321.75 64.5148 322.75C63.7648 324 58.0148 325 55.5148 325C53.0148 325 51.3898 321 55.1398 320.75Z" fill="#AEB5C0"/>
<path d="M23.3008 325.755C20.0638 323.925 21.3333 327.55 18.4245 329.09L12.2648 340.897H61.2858C62.4835 339.185 68.1705 334.625 64.5148 334.625C56.5148 334.625 45.2648 335.875 40.3898 336.125C35.769 336.362 21.738 336.73 22.5148 332.625C23.413 327.877 26.2525 327.422 23.3008 325.755Z" fill="#AEB5C0"/>
</g>
<path d="M41.7003 324.102C42.151 324.69 41.5914 325.513 40.8784 325.311L35.4283 323.761L36.6306 324.953C36.9325 325.253 36.9344 325.74 36.6349 326.042C36.3354 326.344 35.8479 326.346 35.546 326.047L32.2225 322.749C31.6577 322.189 32.2102 321.244 32.9754 321.462L39.0653 323.194L37.5713 321.243C37.1325 320.67 37.652 319.863 38.3552 320.025L43.8158 321.281C43.737 321.23 43.6541 321.178 43.5672 321.125C43.3273 320.979 42.4847 320.501 42.3316 320.408C41.9683 320.187 41.853 319.713 42.074 319.35C42.295 318.987 42.7687 318.871 43.132 319.092C43.2586 319.169 44.1013 319.648 44.3677 319.81C45.7715 320.664 46.5348 321.439 46.5348 322.52C46.5348 323.015 46.0745 323.381 45.5921 323.27L40.0945 322.005L41.7003 324.102Z" fill="#AEB5C0"/>
<path fill-rule="evenodd" clip-rule="evenodd" d="M44.8226 317.471C44.8166 317.142 44.814 316.947 44.814 316.728C44.814 314.447 43.3224 312.75 41.3493 312.75C40.3881 312.75 39.6053 313.151 39.0651 313.889C38.5465 314.596 38.2694 315.588 38.2694 316.728C38.2694 317.78 38.8951 318.727 39.9633 319.438C40.9099 320.069 42.1257 320.448 43.1458 320.448C43.635 320.448 43.9944 320.36 44.2481 320.182C44.4833 320.017 44.6355 319.776 44.7242 319.438C44.8013 319.143 44.8311 318.784 44.8325 318.265C44.8332 318.079 44.8313 317.948 44.824 317.563L44.8239 317.538L44.8226 317.471ZM43.2842 317.577C43.2914 317.964 43.2932 318.09 43.2926 318.261C43.2918 318.549 43.2809 318.758 43.2612 318.905C43.2269 318.907 43.1885 318.908 43.1458 318.908C42.434 318.908 41.5142 318.621 40.8168 318.157C40.1422 317.708 39.8093 317.204 39.8093 316.728C39.8093 315.896 39.9977 315.222 40.3072 314.8C40.5594 314.455 40.8815 314.29 41.3493 314.29C42.4246 314.29 43.2741 315.256 43.2741 316.728C43.2741 316.959 43.2767 317.162 43.283 317.5L43.2841 317.553L43.2842 317.577Z" fill="#AEB5C0"/>
<path fill-rule="evenodd" clip-rule="evenodd" d="M44.4074 320.242L44.4094 320.241C44.3453 320.135 44.3415 320.128 44.322 320.072C44.3027 320.035 44.2985 320.013 44.2943 319.978C44.2925 319.971 44.2915 319.965 44.2898 319.956L44.2823 319.912C44.268 319.81 44.2706 319.699 44.2903 319.576C44.3267 319.353 44.4139 319.103 44.5666 318.757C44.5969 318.688 44.6295 318.616 44.6726 318.523L44.7857 318.279L44.7847 318.282C44.9499 317.928 44.9705 317.884 45.0377 317.732L45.038 317.732C45.7198 316.201 47.2398 315.517 48.5767 316.112C49.2289 316.403 49.6403 316.909 49.7874 317.567C49.9288 318.195 49.8209 318.943 49.4805 319.71C49.1665 320.414 48.4597 320.859 47.5219 321.012C46.6923 321.149 45.7539 321.036 45.0613 320.729C44.7361 320.584 44.5287 320.424 44.4074 320.242ZM48.2849 317.904C48.2434 317.718 48.155 317.61 47.9498 317.518C47.4286 317.286 46.7955 317.571 46.4448 318.358C46.3722 318.521 46.35 318.569 46.1855 318.921C46.169 318.957 46.1345 319.031 46.107 319.09C46.0901 319.127 46.0759 319.157 46.0703 319.17C46.0308 319.255 46.0018 319.319 45.9757 319.378L45.958 319.418C46.3492 319.529 46.8415 319.564 47.2722 319.493C47.7421 319.416 47.9971 319.255 48.0737 319.084C48.2875 318.602 48.3478 318.184 48.2849 317.904Z" fill="#AEB5C0"/>
<rect x="36.3052" y="102.769" width="76.0302" height="36.5145" rx="18.2572" transform="rotate(-7.99571 36.3052 102.769)" fill="#61401B"/>
<path d="M82.5561 139.937L101.806 124.187" stroke="#9DB7C9" stroke-width="2.75"/>
<path d="M19.5561 140C19.5561 143.292 19.6235 141.917 18.7659 157.733C17.9797 172.232 17.7253 182.235 18.1295 192.763C18.7104 207.89 20.7067 220.682 24.6385 231.231C26.4227 236.018 31.7497 238.452 36.5366 236.668C41.3236 234.883 43.7578 229.556 41.9736 224.769C38.8418 216.367 37.1278 205.385 36.6159 192.053C36.2389 182.233 36.4812 172.706 37.2388 158.735C37.2829 157.922 37.3279 157.104 37.3881 156.019C37.4052 155.71 37.4701 154.542 37.4615 154.696C37.4909 154.168 37.5125 153.778 37.5334 153.398C37.6476 151.329 37.7258 149.859 37.7938 148.472C37.969 144.9 38.0561 142.245 38.0561 140C38.0561 134.891 33.9147 130.75 28.8061 130.75C23.6975 130.75 19.5561 134.891 19.5561 140Z" fill="#F6DDD6"/>
<path d="M89.1811 138.5C89.1811 146.076 93.3441 152.764 99.8904 157.523C105.521 161.616 112.728 164.112 119.894 164.411C128.111 164.754 135.884 162.233 141.717 156.692C148.115 150.613 151.431 141.641 151.431 130.5C151.431 125.046 147.01 120.625 141.556 120.625C136.102 120.625 131.681 125.046 131.681 130.5C131.681 136.545 130.291 140.304 128.114 142.373C126.416 143.986 123.875 144.81 120.718 144.679C117.428 144.541 113.977 143.346 111.503 141.547C110.461 140.79 109.702 140.003 109.266 139.302C109.114 139.059 109.019 138.853 108.968 138.688C108.94 138.598 108.931 138.541 108.931 138.5C108.931 133.046 104.51 128.625 99.0561 128.625C93.6022 128.625 89.1811 133.046 89.1811 138.5Z" fill="#F6DDD6"/>
<path d="M36.806 174.875L50.056 135.937L56.056 117.687L67.306 120.187L88.306 117.687L112.556 179C112.556 179 112.556 181.625 110.931 183C109.306 184.375 103.556 194.25 103.556 194.25C103.556 194.25 76.556 198.25 70.306 198.25C64.056 198.25 57.806 197 57.806 197L45.306 192.437C45.306 192.437 39.181 183.125 37.681 181C36.181 178.875 36.806 174.875 36.806 174.875Z" fill="#0A0A08"/>
<rect x="60.306" y="108.25" width="20.75" height="29.25" rx="10.375" fill="#DBC0B8"/>
<path d="M55.0561 151.937L34.3061 195C34.3061 195 15.0561 191.5 8.05606 185C8.05606 185 13.4442 165.5 16.0561 146.937C18.668 128.375 34.3061 122.5 34.3061 122.5L50.5561 119.437L55.0561 151.937Z" fill="#657792"/>
<path d="M8.21803 187.148C6.93886 182.251 11.5007 177.836 16.3536 179.273L29.2429 183.093C31.1998 183.672 32.836 185.025 33.7738 186.838L39.2271 197.381C39.6103 198.122 39.8673 198.922 39.9873 199.748L42.9718 220.284C43.3436 222.842 41.7043 225.261 39.191 225.865L24.3281 229.433C21.6806 230.069 19.0113 228.469 18.3232 225.835L8.21803 187.148Z" fill="#657692"/>
<path d="M30.2644 213.563L18.3893 217.673C16.2537 218.412 15.0919 220.715 15.766 222.872C16.4713 225.129 18.9064 226.352 21.1384 225.571L32.9993 221.42C35.2181 220.643 36.3576 218.196 35.5088 216.003C34.7006 213.915 32.3803 212.83 30.2644 213.563Z" fill="#8A9BB6"/>
<path d="M31.9311 219.5C33.2427 219.5 34.3061 218.437 34.3061 217.125C34.3061 215.813 33.2427 214.75 31.9311 214.75C30.6194 214.75 29.5561 215.813 29.5561 217.125C29.5561 218.437 30.6194 219.5 31.9311 219.5Z" fill="#2E3A4D"/>
<path d="M35.8061 180L21.5561 171.75L18.3061 178.5L35.8061 180Z" fill="#576985"/>
<path d="M32.306 180.25L15.9586 182.171L18.5562 187.25L32.306 184V180.25Z" fill="#576985"/>
<path d="M30.054 141.954C29.5103 129.994 39.0601 120 51.0323 120H55.4778C57.6686 120 59.6688 121.245 60.6366 123.21L67.056 136.25C67.056 136.25 64.806 155.25 64.806 169.5C64.806 180.87 62.8168 203.22 62.0126 211.791C61.8526 213.496 60.0625 214.514 58.5033 213.805L30.3361 201.002C29.3494 200.554 28.7641 199.52 28.8867 198.443L31.5561 175L30.054 141.954Z" fill="#7B899F"/>
<path d="M36.8061 164.5V151L59.5561 148.5C58.3061 154.5 58.3061 163 58.3061 167.25C41.5561 174 43.0561 172 36.8061 164.5Z" fill="#576985"/>
<path d="M59.3061 148.5L35.8061 146.75L34.3061 152.25L43.8061 158L56.5561 153.5L59.3061 148.5Z" fill="#8A9BB6"/>
<path d="M60.0901 214.437L29.0384 200.996C28.53 200.776 28.2271 200.248 28.2942 199.698L29.4311 190.375L62.8061 202.25L61.8321 213.398C61.7578 214.248 60.8731 214.775 60.0901 214.437Z" fill="#576985"/>
<path d="M68.306 138L58.181 115.25L47.681 118.375L48.806 144L68.306 138Z" fill="#576985"/>
<path d="M86.3446 152.187C86.3446 152.187 84.0561 195 110.056 195C136.056 195 133.056 183.5 136.056 176C136.056 176 135.766 159.813 125.055 144.5C114.345 129.187 107.095 122.75 107.095 122.75L90.8446 119.687L86.3446 152.187Z" fill="#546277"/>
<path d="M110.634 142.836C111.557 130.648 101.917 120.25 89.6935 120.25H85.9228C83.732 120.25 81.7318 121.495 80.764 123.46L74.3445 136.5C74.3445 136.5 74.8445 154.25 74.3445 169.75C73.9415 182.247 77.5758 203.518 78.9993 211.293C79.2815 212.835 80.9025 213.709 82.357 213.125L108.41 202.661C109.396 202.265 110.024 201.289 109.976 200.228L108.595 169.75L110.634 142.836Z" fill="#7B899F"/>
<path d="M104.844 164.5V151L82.0943 148.5C83.3443 154.5 83.3443 163 83.3443 167.25C100.094 174 98.5943 172 104.844 164.5Z" fill="#576985"/>
<path d="M82.3443 148.5L105.844 146.75L107.344 152.25L97.8443 158L85.0943 153.5L82.3443 148.5Z" fill="#8A9BB6"/>
<path d="M80.7408 214.443L109.715 203.201C110.217 203.007 110.538 202.512 110.511 201.974L110.056 192.75L77.3058 202.875L79.0553 213.481C79.1846 214.264 80.0011 214.73 80.7408 214.443Z" fill="#576985"/>
<path d="M73.0941 138.25L83.2191 115.5L93.7191 118.625L92.5941 144.25L73.0941 138.25Z" fill="#576985"/>
<path d="M122.552 193.589C118.903 194.141 116.276 190.498 114.245 187.415C110.676 181.997 109.142 177.715 109.306 172.358C109.53 165.081 113.352 158.497 117.499 152.514L117.951 151.862L131.724 134.69C133.341 132.673 136.228 132.222 138.384 133.649L151.829 142.548C153.803 143.854 154.59 146.366 153.715 148.566L150.001 157.898C149.804 158.395 149.554 158.869 149.255 159.312L139.247 177.5C136.889 181.005 129.381 192.558 122.552 193.589Z" fill="#657692"/>
<path d="M126.644 144.684L137.135 151.603C139.021 152.847 141.555 152.368 142.856 150.52C144.217 148.586 143.706 145.909 141.727 144.614L131.213 137.731C129.246 136.444 126.611 137.03 125.388 139.038C124.224 140.95 124.775 143.452 126.644 144.684Z" fill="#8A9BB6"/>
<path d="M78.9311 159C80.2427 159 81.3061 157.937 81.3061 156.625C81.3061 155.313 80.2427 154.25 78.9311 154.25C77.6194 154.25 76.5561 155.313 76.5561 156.625C76.5561 157.937 77.6194 159 78.9311 159Z" fill="#2E3A4D"/>
<path d="M78.9311 176.5C80.2427 176.5 81.3061 175.437 81.3061 174.125C81.3061 172.813 80.2427 171.75 78.9311 171.75C77.6194 171.75 76.5561 172.813 76.5561 174.125C76.5561 175.437 77.6194 176.5 78.9311 176.5Z" fill="#2E3A4D"/>
<path d="M80.9311 192.5C82.2427 192.5 83.3061 191.437 83.3061 190.125C83.3061 188.813 82.2427 187.75 80.9311 187.75C79.6194 187.75 78.5561 188.813 78.5561 190.125C78.5561 191.437 79.6194 192.5 80.9311 192.5Z" fill="#2E3A4D"/>
<path d="M83.6811 209.25C84.9927 209.25 86.0561 208.187 86.0561 206.875C86.0561 205.563 84.9927 204.5 83.6811 204.5C82.3694 204.5 81.3061 205.563 81.3061 206.875C81.3061 208.187 82.3694 209.25 83.6811 209.25Z" fill="#2E3A4D"/>
<path d="M30.6823 47.7235C30.6823 27.3768 48.1188 10.8825 69.6281 10.8825C91.1373 10.8825 108.574 27.3768 108.574 47.7235L106.074 84.3663C102.933 108.135 86.5883 121.207 69.6281 121.207C52.6678 121.207 35.4856 105.362 33.1823 84.3663L30.6823 47.7235Z" fill="#F6DDD6"/>
<path fill-rule="evenodd" clip-rule="evenodd" d="M59.8061 94.5677V97.9917C59.8061 103.251 64.0698 107.515 69.3293 107.515C74.5891 107.515 78.8528 103.251 78.8528 97.9917V94.5677H59.8061Z" fill="#393939"/>
<mask id="mask3_1_2068" style="mask-type:luminance" maskUnits="userSpaceOnUse" x="59" y="92" width="20" height="16">
<path fill-rule="evenodd" clip-rule="evenodd" d="M59.9318 92.9373C59.8491 93.4425 59.8061 93.961 59.8061 94.4895V97.9918C59.8061 103.251 64.0698 107.515 69.3293 107.515C74.5891 107.515 78.8528 103.251 78.8528 97.9918V94.4895C78.8528 93.961 78.8096 93.4425 78.7268 92.9373H59.9318Z" fill="white"/>
</mask>
<g mask="url(#mask3_1_2068)">
<path d="M69.3293 109.755C72.5011 109.755 75.0724 108.355 75.0724 106.628C75.0724 104.9 72.5011 103.5 69.3293 103.5C66.1575 103.5 63.5862 104.9 63.5862 106.628C63.5862 108.355 66.1575 109.755 69.3293 109.755Z" fill="#FF6C6C"/>
<rect x="59.8061" y="94" width="19.0466" height="4.5" fill="white"/>
</g>
<path d="M49.8917 61.4721C49.9437 61.4505 50.0645 61.404 50.2454 61.3407C50.559 61.2311 50.9161 61.1205 51.3077 61.0169C52.4215 60.7222 53.5742 60.546 54.6896 60.546C55.8005 60.546 56.9151 60.7208 57.9705 61.0125C58.3399 61.1147 58.6737 61.2235 58.9641 61.3312C59.13 61.3927 59.2386 61.4373 59.2824 61.4569C60.0387 61.795 60.9259 61.456 61.264 60.6996C61.602 59.9433 61.263 59.0562 60.5067 58.7181C60.4049 58.6726 60.2362 58.6033 60.007 58.5183C59.6391 58.3819 59.2246 58.2467 58.7699 58.121C57.4706 57.7618 56.0942 57.546 54.6896 57.546C53.2893 57.546 51.8874 57.7604 50.5405 58.1166C50.0707 58.2409 49.6398 58.3744 49.2553 58.5088C49.0172 58.5921 48.8422 58.6595 48.7379 58.7029C47.9732 59.0215 47.6116 59.8997 47.9302 60.6644C48.2488 61.4291 49.127 61.7908 49.8917 61.4721Z" fill="#46413D"/>
<path d="M79.3917 61.4721C79.4437 61.4505 79.5645 61.404 79.7454 61.3407C80.059 61.2311 80.4161 61.1205 80.8077 61.0169C81.9215 60.7222 83.0742 60.546 84.1896 60.546C85.3005 60.546 86.4151 60.7208 87.4705 61.0125C87.8399 61.1147 88.1737 61.2235 88.4641 61.3312C88.63 61.3927 88.7386 61.4373 88.7824 61.4569C89.5387 61.795 90.4259 61.456 90.764 60.6996C91.102 59.9433 90.763 59.0562 90.0067 58.7181C89.9049 58.6726 89.7362 58.6033 89.507 58.5183C89.1391 58.3819 88.7246 58.2467 88.2699 58.121C86.9706 57.7618 85.5942 57.546 84.1896 57.546C82.7893 57.546 81.3874 57.7604 80.0405 58.1166C79.5707 58.2409 79.1398 58.3744 78.7553 58.5088C78.5172 58.5921 78.3422 58.6595 78.2379 58.7029C77.4732 59.0215 77.1116 59.8997 77.4302 60.6644C77.7488 61.4291 78.627 61.7908 79.3917 61.4721Z" fill="#46413D"/>
<path d="M49.6645 70.8756L56.3985 69.8111C57.0804 69.7034 57.5458 69.0632 57.438 68.3813C57.3302 67.6994 56.69 67.234 56.0081 67.3418L49.2741 68.4063C48.5923 68.5141 48.1269 69.1543 48.2346 69.8362C48.3424 70.518 48.9826 70.9834 49.6645 70.8756Z" fill="black"/>
<path d="M81.6409 69.1589L88.3749 70.2234C89.0568 70.3312 89.6969 69.8658 89.8047 69.1839C89.9125 68.502 89.4471 67.8619 88.7652 67.7541L82.0312 66.6896C81.3493 66.5818 80.7092 67.0472 80.6014 67.7291C80.4936 68.411 80.959 69.0511 81.6409 69.1589Z" fill="black"/>
<path d="M51.9281 68.5762V75.7707C51.9281 77.4276 53.2712 78.7707 54.9281 78.7707C56.5849 78.7707 57.9281 77.4276 57.9281 75.7707V68.5762C57.9281 66.9194 56.5849 65.5762 54.9281 65.5762C53.2712 65.5762 51.9281 66.9194 51.9281 68.5762Z" fill="black"/>
<path d="M80.3846 67.924V75.1188C80.3846 76.7756 81.7277 78.1188 83.3846 78.1188C85.0414 78.1188 86.3846 76.7756 86.3846 75.1188V67.924C86.3846 66.2672 85.0414 64.924 83.3846 64.924C81.7277 64.924 80.3846 66.2672 80.3846 67.924Z" fill="black"/>
<path d="M66.8125 75.5673C66.7298 76.1701 66.6365 76.5764 66.1936 78.355C66.0864 78.7857 66.0103 79.0982 65.9373 79.4117C65.3973 81.7314 65.2304 83.3167 65.5827 84.7858C66.1347 87.0875 67.9618 88.4137 70.6556 88.4137V84.1637C70.3741 84.1637 70.1535 84.1374 69.9908 84.0935C69.8928 84.0671 69.8366 84.0409 69.807 84.0194C69.7996 84.0141 69.7972 84.0115 69.7892 83.9984C69.7656 83.9598 69.7394 83.8939 69.7156 83.7947C69.5657 83.1696 69.6808 82.0756 70.0766 80.3754C70.1437 80.0872 70.2153 79.7932 70.3177 79.3818C70.8093 77.4074 70.9101 76.969 71.0231 76.1447L66.8125 75.5673Z" fill="#EBBAAA"/>
<path d="M96.0023 84.9297C95.8943 85.8065 93.8028 87.1025 91.4913 86.5185C89.1798 85.9341 87.5236 83.6911 87.6316 82.8143C87.7393 81.9372 89.9178 79.9357 92.2293 80.5197C94.5408 81.1038 96.1103 84.0526 96.0023 84.9297Z" fill="#F2CACA"/>
<path d="M41.9686 85.9297C42.0763 86.8065 44.1678 88.1025 46.4796 87.5185C48.7911 86.9341 50.4473 84.6911 50.3393 83.8143C50.2313 82.9372 48.0531 80.9357 45.7416 81.5197C43.4298 82.1038 41.8606 85.0526 41.9686 85.9297Z" fill="#F2CACA"/>
<path fill-rule="evenodd" clip-rule="evenodd" d="M42.556 58.9372C44.5002 56.8571 45.9847 52.9324 47.6568 48.512C51.36 38.7218 55.9829 26.5 68.556 26.5C71.7335 26.5 77.931 9.375 68.556 7C48.056 7 34.806 21.5 30.306 32.7913C21.0504 56.0158 18.8061 95.25 24.8061 122.291C25.9027 127.233 26.772 130.897 27.5561 133.614C27.5559 135.847 28.1586 138.104 29.6727 140.971C32.3558 146.051 35.5108 148.068 36.7528 148.441C36.188 145.799 36.5912 141.227 37.7822 136.926C40.441 141.855 43.5277 143.823 44.7528 144.191C44.1963 141.587 43.7423 137.148 43.4268 132.601C43.8914 135.025 44.8583 136.925 46.6811 139.375C46.3054 137.618 46.8879 135.673 47.5375 133.503L47.5647 133.412C47.5947 133.312 47.6248 133.211 47.655 133.11C48.0804 133.831 48.585 134.574 49.1811 135.375C48.8054 133.618 49.3879 131.673 50.0375 129.503C51.3209 125.217 52.866 120.058 47.7978 113.75C46.5826 112.238 45.7619 110.025 44.7931 107.412C44.5884 106.861 44.3772 106.291 44.1542 105.707C40.3807 86.0447 38.0351 63.7745 42.556 58.9372Z" fill="#82521A"/>
<path d="M65.2302 9.76625C63.2117 10.0949 62.571 10.2027 61.7742 10.3549C60.6162 10.5762 59.7396 10.7922 58.8743 11.0772C57.6185 11.4908 56.389 12.0429 54.2395 13.1358C53.6242 13.4486 53.3789 14.2012 53.6918 14.8165C54.0047 15.4319 54.7572 15.6771 55.3726 15.3643C57.4177 14.3244 58.5491 13.8164 59.6563 13.4517C60.4084 13.204 61.1837 13.013 62.2434 12.8105C63.0084 12.6643 63.6396 12.5581 65.6319 12.2338C66.3133 12.1228 66.7758 11.4805 66.6648 10.7992C66.5539 10.1178 65.9116 9.65532 65.2302 9.76625Z" fill="#AD6C21"/>
<path d="M65.8451 14.378C62.3412 14.6196 60.7083 15.2154 57.5231 17.1872C56.9361 17.5505 56.7549 18.3209 57.1182 18.9079C57.4816 19.4949 58.252 19.6762 58.839 19.3128C61.7013 17.5409 62.956 17.0831 66.0171 16.872C66.7058 16.8245 67.2256 16.2277 67.1781 15.539C67.1306 14.8503 66.5338 14.3305 65.8451 14.378Z" fill="#AD6C21"/>
<path fill-rule="evenodd" clip-rule="evenodd" d="M91.2932 45.0725C92.9298 49.9088 94.4914 54.5233 97.3061 57.25C102.509 66.5638 99.7418 93.9015 95.422 114.551C94.7187 115.64 94.0602 116.592 93.4311 117.375C88.4911 123.523 90.9881 128.737 93.0623 133.069C94.1933 135.431 95.1986 137.53 94.8041 139.375C96.6269 136.925 97.5937 135.025 98.0583 132.601C97.7428 137.148 97.2888 141.588 96.7323 144.191C97.9653 143.82 101.083 141.83 103.754 136.832C104.965 141.16 105.378 145.779 104.809 148.441C106.051 148.068 109.206 146.051 111.889 140.971C113.462 137.993 114.051 135.673 114.003 133.355C114.768 130.665 115.617 127.078 116.679 122.291C122.679 95.25 120.435 56.0158 111.179 32.7913C106.679 21.5 93.6791 7 73.1791 7C62.6811 9.25 70.0018 26.5 73.1791 26.5C85.0081 26.5 88.278 36.1627 91.2932 45.0725Z" fill="#82521A"/>
</svg>
