<svg width="163" height="347" viewBox="0 0 163 347" fill="none" xmlns="http://www.w3.org/2000/svg">
<path fill-rule="evenodd" clip-rule="evenodd" d="M74.1844 276.526C73.8741 271.772 69.7692 268.171 65.0159 268.481C60.2626 268.791 56.6607 272.896 56.971 277.649C57.6535 288.104 58.3337 300.393 58.7455 310.342L58.8119 311.985C59.03 317.522 59.1543 322.147 59.1717 325.635L59.1737 326.353C59.1749 328.05 59.1476 329.411 59.0948 330.384L59.0789 330.652C59.0734 330.738 59.0678 330.817 59.0623 330.89L59.0498 331.044L59.0227 331.136C57.9578 334.862 59.5189 338.971 63.0321 340.984C67.1654 343.352 72.4356 341.921 74.8034 337.787C75.5636 336.46 75.8539 335.362 76.0676 333.968C76.1739 333.275 76.2474 332.512 76.3012 331.635C76.3805 330.342 76.4194 328.735 76.4234 326.802L76.4235 326.145C76.4169 322.479 76.2949 317.679 76.0729 311.931L76.0031 310.173C75.6093 300.513 74.9605 288.626 74.2954 278.242L74.1844 276.526ZM59.1778 330.635C59.2946 330.26 59.4865 329.823 59.8357 329.213L59.7658 329.337C59.5366 329.753 59.3453 330.18 59.1908 330.613L59.1462 330.741L59.1778 330.635Z" fill="#694536"/>
<path d="M100.102 256.591C104.855 256.28 108.96 259.882 109.27 264.636L109.374 266.248C110.12 278.048 110.815 293.091 111.066 305.067L111.091 306.355C111.23 313.795 111.193 319.921 110.951 324.483L110.925 324.947C110.772 327.622 110.542 329.78 110.198 331.506C109.924 332.874 109.572 334.058 109.004 335.212C108.485 336.265 107.815 337.24 106.848 338.137C105.239 339.629 103.102 340.58 100.663 340.58C95.8999 340.58 92.0384 336.718 92.0384 331.955C92.0384 330.292 92.509 328.739 93.3242 327.422L93.4172 327.275L93.4206 327.251C93.5333 326.384 93.6368 325.186 93.7173 323.716L93.7425 323.233C93.9555 318.938 93.9749 312.865 93.8193 305.428L93.7954 304.339C93.5196 292.264 92.8031 277.194 92.0567 265.759C91.7464 261.006 95.3483 256.901 100.102 256.591Z" fill="#694536"/>
<path d="M46.9111 217.749L80.0079 220.273L78.0751 316.653H50.1726L46.9111 217.749Z" fill="#748B9B"/>
<path d="M48.9936 231.518L51.8926 315.815L50.1436 315.875L47.2446 231.578L48.9936 231.518Z" fill="#DF4949"/>
<path d="M50.6848 230.981L53.5838 315.28L51.8348 315.34L48.9358 231.042L50.6848 230.981Z" fill="#D8E2EB"/>
<path d="M50.6559 318.932L49.9312 315.04H78.4377V316.92L76.9882 318.932L73.8477 317.322L72.3982 319.605L69.8614 317.322L67.6872 319.605L64.7882 317.725L61.8894 318.932L60.8022 317.725L59.4734 319.605L56.6954 318.53L55.0042 319.605L53.5547 317.725L50.6559 318.932Z" fill="#DCEAF5"/>
<path d="M82.8213 243.498C99.0787 243.498 112.258 235.955 112.258 226.65C112.258 217.346 99.0787 209.803 82.8213 209.803C66.5638 209.803 53.3845 217.346 53.3845 226.65C53.3845 235.955 66.5638 243.498 82.8213 243.498Z" fill="#748B9B"/>
<path d="M83.2451 221.119H117.336L116.124 315.847H90.9999L83.2451 221.119Z" fill="#748B9B"/>
<path d="M117.786 231.25L119.535 231.31L116.636 315.607L114.887 315.547L117.786 231.25Z" fill="#DF4949"/>
<path d="M116.095 230.713L117.844 230.773L114.945 315.07L113.196 315.01L116.095 230.713Z" fill="#D8E2EB"/>
<path d="M108.131 276.157L108.54 278.133L102.687 280.663L108.319 281.705L108.52 283.671L101.055 286.714L100.277 284.806L104.486 283.091L98.9855 282.073L98.7642 280.115L103.152 278.217L99.1729 278.218V276.157H108.131Z" fill="#506A7E"/>
<path d="M66.4993 274.01V276.07L62.5222 276.07L66.9078 277.964L66.687 279.923L61.1839 280.942L65.3951 282.658L64.6176 284.566L57.1523 281.524L57.3534 279.557L62.9842 278.513L57.1326 275.985L57.5411 274.01H66.4993Z" fill="#506A7E"/>
<path d="M116.053 318.665L116.728 314.772H90.6375V317.457L91.9887 318.665L94.188 317.457L95.7845 319.337L98.149 317.055L100.176 319.337L102.878 317.457L105.581 318.665L106.594 317.457L107.833 319.337L110.422 318.262L111.999 319.337L113.35 317.457L116.053 318.665Z" fill="#DCEAF5"/>
<path d="M33.5473 345.06C33.4981 339.29 34.2671 335.78 39.1743 333.422C44.0816 331.065 48.7038 326.532 57.1938 322.645C57.1938 322.645 58.3111 322.43 60.1303 323.435C61.6826 324.295 63.6766 326.397 66.6808 326.372C69.9431 326.342 72.8503 325.635 74.6566 324.667C75.4368 322.482 77.1681 322.467 77.1681 322.467C77.1681 322.467 79.6056 327.21 79.6463 331.972C79.6871 336.735 79.6828 344.647 79.6828 344.647L33.5473 345.06Z" fill="#161616"/>
<path d="M62.4232 329.732C63.4989 329.229 64.7059 329.081 65.867 329.313C69.0338 329.943 71.2294 330.496 74.4455 331.447L74.7501 331.537L74.0722 333.817L73.4982 333.648C70.496 332.766 68.4033 332.244 65.4021 331.646C64.7392 331.514 64.0484 331.599 63.4315 331.887L62.1391 332.496L55.666 335.57C55.4905 335.652 55.3189 335.732 55.1357 335.817C52.5022 337.037 48.6672 336.502 47.3756 335.059L47.3315 335.008L49.1522 333.477C49.277 333.625 50.0198 333.929 50.9008 334.056C52.0356 334.219 53.1909 334.096 54.1353 333.658L55.303 333.112L61.2184 330.3C61.6584 330.091 62.046 329.909 62.4232 329.732Z" fill="#ECEFF5"/>
<path d="M55.3608 322.851C55.7825 322.668 56.273 322.861 56.4564 323.283C56.6513 323.731 56.7915 324.221 56.8873 324.753C57.0275 325.532 57.0583 326.169 57.0583 327.29C57.0583 327.88 56.4647 328.278 55.924 328.066L55.8836 328.049L52.9602 326.732L53.567 328.98C53.736 329.607 53.1577 330.171 52.5431 330.001L52.5021 329.988L49.4677 328.986L49.4678 331.782C49.4678 332.402 48.818 332.799 48.2706 332.531L48.2317 332.511L46.2717 331.425L46.2718 333.415C46.2718 333.859 45.9234 334.223 45.4848 334.246L45.4391 334.248C44.9946 334.248 44.6314 333.899 44.6077 333.461L44.6064 333.415V330.012C44.6064 329.393 45.2562 328.995 45.8036 329.264L45.8425 329.284L47.8022 330.369L47.8024 327.835C47.8024 327.283 48.3278 326.888 48.8524 327.031L48.8961 327.044L51.5567 327.922L50.894 325.467C50.7146 324.802 51.3713 324.226 52.0006 324.474L52.0399 324.491L55.3619 325.987C55.3421 325.682 55.3105 325.41 55.2619 325.126L55.2483 325.048C55.1741 324.636 55.0688 324.268 54.9293 323.947C54.7459 323.525 54.9391 323.035 55.3608 322.851Z" fill="white"/>
<path d="M35.4037 333.865C36.9093 333.305 38.5038 332.882 41.5607 332.175L40.2617 335.997L40.2987 340.352L31.5978 340.43C31.2427 340.435 30.6082 339.95 30.9111 337.987C31.2897 335.535 33.2644 334.657 35.4037 333.865Z" fill="#161616"/>
<path d="M79.8767 344.007L79.8135 339.322L40.5615 339.942L30.8336 339.212L30.5258 342.852C30.4289 343.997 31.287 345 32.4331 345.08L40.6102 345.657L78.8625 345.052C79.4307 345.042 79.8845 344.575 79.8767 344.007Z" fill="#E1E6F0"/>
<rect x="77.5034" y="340.42" width="2.61693" height="3.40398" rx="0.237903" fill="#F03131"/>
<path d="M136.276 345.06C136.325 339.29 135.556 335.78 130.649 333.422C125.742 331.065 121.12 326.532 112.63 322.645C112.63 322.645 111.512 322.43 109.693 323.435C108.141 324.295 106.147 326.397 103.143 326.372C99.8803 326.342 96.973 325.635 95.1668 324.667C94.3865 322.482 92.6553 322.467 92.6553 322.467C92.6553 322.467 90.2178 327.21 90.177 331.972C90.1363 336.735 90.1405 344.647 90.1405 344.647L136.276 345.06Z" fill="#161616"/>
<path d="M103.955 329.313C105.117 329.081 106.324 329.229 107.4 329.732L108.7 330.345L114.66 333.178C115.034 333.354 115.339 333.497 115.688 333.658C116.632 334.096 117.787 334.219 118.922 334.056C119.776 333.933 120.5 333.644 120.657 333.491L120.671 333.477L122.492 335.008C121.26 336.473 117.441 337.038 114.779 335.858L113.911 335.455L106.882 332.117C106.715 332.038 106.552 331.962 106.392 331.887C105.775 331.599 105.084 331.514 104.42 331.646C101.419 332.244 99.3261 332.766 96.3248 333.648L95.7509 333.817L95.073 331.537L95.676 331.359C98.7308 330.462 100.888 329.924 103.955 329.313Z" fill="#ECEFF5"/>
<path d="M113.367 323.283C113.55 322.861 114.041 322.668 114.462 322.851C114.884 323.035 115.077 323.525 114.894 323.947C114.754 324.268 114.649 324.636 114.575 325.048C114.528 325.309 114.495 325.556 114.473 325.824L114.461 325.987L117.783 324.491C118.411 324.208 119.084 324.765 118.939 325.425L118.929 325.467L118.266 327.922L120.927 327.044C121.451 326.871 121.991 327.246 122.02 327.789L122.021 327.835L122.021 330.369L123.981 329.284C124.523 328.984 125.185 329.36 125.216 329.968L125.217 330.012V333.415C125.217 333.875 124.844 334.248 124.384 334.248C123.94 334.248 123.576 333.899 123.553 333.461L123.551 333.415L123.551 331.425L121.591 332.511C121.049 332.811 120.387 332.435 120.356 331.826L120.355 331.782L120.355 328.986L117.321 329.988C116.705 330.191 116.11 329.645 116.246 329.022L116.256 328.98L116.863 326.732L113.94 328.049C113.402 328.291 112.795 327.914 112.766 327.334L112.765 327.29L112.766 326.906C112.774 326.014 112.812 325.439 112.936 324.753C113.032 324.221 113.172 323.731 113.367 323.283Z" fill="white"/>
<path d="M134.42 333.865C132.914 333.305 131.319 332.882 128.263 332.175L129.562 335.997L129.524 340.352L138.225 340.43C138.581 340.435 139.215 339.95 138.912 337.987C138.534 335.535 136.559 334.657 134.42 333.865Z" fill="#161616"/>
<path d="M89.9466 344.007L90.0099 339.322L129.262 339.942L138.99 339.212L139.298 342.852C139.394 343.997 138.536 345 137.39 345.08L129.213 345.657L90.9609 345.052C90.3926 345.042 89.9389 344.575 89.9466 344.007Z" fill="#E1E6F0"/>
<rect width="2.61694" height="3.40398" rx="0.237903" transform="matrix(-1 0 0 1 92.3198 340.42)" fill="#F03131"/>
<rect x="36.1709" y="95.0259" width="82.1133" height="38.733" rx="19.3665" fill="#23180D"/>
<path d="M39.2853 140.823C39.3001 126.358 51.0398 114.661 65.5043 114.661H93.8183C107.487 114.661 118.875 125.144 119.706 138.788C120.381 149.852 120.999 162.585 120.999 172.064C120.999 184.081 120.005 201.253 119.164 213.639C118.564 222.468 111.2 229.246 102.351 229.246H58.0395C49.2403 229.246 41.8985 222.533 41.2473 213.758C40.3965 202.294 39.4121 186.797 39.3383 175.641C39.2778 166.495 39.2729 152.873 39.2853 140.823Z" fill="#26282C"/>
<path d="M80.3857 136.986C89.3975 136.986 96.7031 129.399 96.7031 120.041C96.7031 110.682 89.3975 103.095 80.3857 103.095C71.3739 103.095 64.0684 110.682 64.0684 120.041C64.0684 129.399 71.3739 136.986 80.3857 136.986Z" fill="#26282C"/>
<rect x="70.334" y="97.7197" width="20.2274" height="31.0093" rx="10.1137" fill="#EED1C9"/>
<path d="M56.9623 125.42C60.5415 131.23 67.2265 136.153 76.1748 136.153C76.1748 129.249 71.4373 121.655 65.9105 113.585C63.6165 110.236 61.6995 106.592 56.9623 106.592C55.4708 110.447 53.3828 119.61 56.9623 125.42Z" fill="#5F646C"/>
<path d="M102.756 125.42C99.1767 131.23 92.4917 136.408 83.5435 136.408C83.5435 129.504 88.281 121.655 93.8077 113.585C96.1017 110.236 98.0187 106.592 102.756 106.592C104.247 110.447 106.335 119.61 102.756 125.42Z" fill="#5F646C"/>
<path d="M48.79 124.788C51.8897 119.644 58.5728 117.986 63.7173 121.086C68.8617 124.186 70.5193 130.869 67.4197 136.013L66.9672 136.761C66.2615 137.923 65.4952 139.164 64.5968 140.601L63.0272 143.101C62.0454 144.657 59.9681 147.948 59.2847 149.037L58.2496 150.69C57.9676 151.142 57.696 151.579 57.4313 152.006L56.6744 153.233C54.2575 157.164 52.383 160.375 50.8866 163.186L50.6389 163.654L50.4758 164.096C44.45 180.569 42.3969 203.511 44.6107 224.32L44.6805 224.963C45.3423 230.933 41.0395 236.309 35.0699 236.97C29.1004 237.632 23.7247 233.329 23.063 227.36C20.3605 202.981 22.7605 176.092 30.3054 155.933L30.5356 155.324L31.0355 154.208L31.2473 153.801C33.205 150.052 35.6042 145.947 38.7693 140.831L39.5043 139.646C39.7904 139.187 40.0854 138.714 40.3929 138.223L45.0665 130.806C46.6277 128.324 47.7771 126.469 48.79 124.788Z" fill="#EBBAAA"/>
<path d="M31.114 139.563C33.487 127.528 45.1104 119.981 57.0689 122.711C69.0214 125.44 76.7812 137.401 74.4007 149.428L62.9304 207.381C60.8314 217.985 50.0449 224.151 39.7967 220.605L38.3441 220.102C36.4198 219.436 34.374 219.265 32.3938 219.603C23.9703 221.044 16.5669 213.337 18.2373 204.866L31.114 139.563Z" fill="#C8C0A8"/>
<path d="M19.2519 212.716C19.2863 211.451 20.4499 210.565 21.6678 210.878L44.636 216.776C45.7872 217.072 46.4612 218.309 46.083 219.432L44.6727 223.619C44.352 224.572 43.376 225.112 42.3957 224.879L20.7038 219.722C19.7602 219.498 19.0914 218.622 19.118 217.645L19.2519 212.716Z" fill="#B8B09B"/>
<path d="M41.792 136.494C41.792 124.896 51.1942 115.494 62.792 115.494H64.6785C65.5317 115.494 66.3397 115.877 66.8797 116.537C73.6305 124.795 77.3182 135.134 77.3182 145.8V171.809V231.758C77.3182 233.23 76.0535 234.383 74.5882 234.247L44.062 231.425C42.776 231.306 41.792 230.227 41.792 228.936V166.071V136.494Z" fill="#D9D1BA"/>
<path d="M53.9875 123.452C63.3988 130.274 72.4565 139.623 77.162 158.194C77.162 156.023 77.1623 146.066 77.162 141.645C77.162 134.696 70.8098 116.125 65.163 116.125C62.5753 118.525 59.046 120.799 53.9875 123.452Z" fill="#C2BAA1"/>
<path d="M70.4954 192.954C70.4954 192.441 70.1079 192.011 69.5979 191.959L47.0869 189.636C46.5077 189.576 46.0002 190.022 45.9847 190.604L45.1114 223.679C45.0972 224.218 45.5132 224.671 46.0514 224.703L69.4357 226.098C70.0104 226.133 70.4954 225.676 70.4954 225.1V192.954Z" fill="#C2BAA1"/>
<path d="M99.6045 121.086C104.749 117.986 111.432 119.644 114.532 124.788L115.036 125.622C115.669 126.662 116.366 127.789 117.185 129.1L122.458 137.472L123.232 138.708C123.432 139.028 123.627 139.34 123.818 139.646L124.379 140.551C127.688 145.891 130.168 150.133 132.181 154.005L132.286 154.208L132.786 155.324C140.512 175.549 142.989 202.734 140.259 227.36C139.597 233.329 134.221 237.632 128.252 236.97C122.282 236.309 117.979 230.933 118.641 224.963C120.967 203.985 118.934 180.739 112.846 164.096L112.682 163.653L112.617 163.529C111.061 160.579 109.087 157.195 106.499 152.991L105.89 152.006C105.582 151.508 105.263 150.997 104.93 150.463L102.894 147.222C101.732 145.379 100.197 142.948 99.8445 142.386L98.725 140.601C97.6314 138.851 96.7334 137.393 95.9021 136.013C92.8025 130.869 94.4601 124.186 99.6045 121.086Z" fill="#EBBAAA"/>
<path d="M132.208 139.563C129.835 127.528 118.211 119.981 106.253 122.711C94.3005 125.44 86.5407 137.401 88.9212 149.428L100.391 207.381C102.49 217.985 113.277 224.151 123.525 220.605L124.978 220.102C126.902 219.436 128.948 219.265 130.928 219.603C139.351 221.044 146.755 213.337 145.084 204.866L132.208 139.563Z" fill="#C8C0A8"/>
<path d="M144.07 212.716C144.036 211.451 142.872 210.565 141.654 210.878L118.686 216.776C117.535 217.072 116.861 218.309 117.239 219.432L118.649 223.619C118.97 224.572 119.946 225.112 120.926 224.879L142.618 219.722C143.562 219.498 144.23 218.622 144.204 217.645L144.07 212.716Z" fill="#B8B09B"/>
<path d="M121.53 136.494C121.53 124.896 112.128 115.494 100.53 115.494H98.6434C97.7902 115.494 96.9822 115.877 96.4422 116.537C89.6914 124.795 86.0037 135.134 86.0037 145.8V171.809V231.758C86.0037 233.23 87.2684 234.383 88.7337 234.247L119.26 231.425C120.546 231.306 121.53 230.227 121.53 228.936V166.071V136.494Z" fill="#D9D1BA"/>
<path d="M109.335 123.452C99.9235 130.274 90.8655 139.623 86.16 158.194C86.16 156.023 86.1598 146.066 86.16 141.645C86.16 134.696 92.5123 116.125 98.159 116.125C100.747 118.525 104.276 120.799 109.335 123.452Z" fill="#C2BAA1"/>
<path d="M92.8264 192.954C92.8264 192.441 93.2139 192.011 93.7239 191.959L116.235 189.636C116.814 189.576 117.322 190.022 117.337 190.604L118.21 223.679C118.225 224.218 117.809 224.671 117.27 224.703L93.8862 226.098C93.3114 226.133 92.8264 225.676 92.8264 225.1V192.954Z" fill="#C2BAA1"/>
<path d="M114.199 53.1145C109.775 34.2535 90.7004 24.5623 83.3061 22.2461C79.9306 15.7936 80.4129 2.42346 85.7174 1.39975C93.4331 -0.0892874 114.163 9.34122 123.325 27.706C134.844 50.7945 132.691 112.149 129.911 132.5C117.535 127.125 119.661 122.25 105.788 116.745C111.604 90.4388 114.199 69.4938 114.199 69.4938C114.199 69.4938 116.643 63.5378 114.199 53.1145Z" fill="#342B22"/>
<path d="M41.8459 44.5827C41.8459 24.625 58.5807 8.44604 79.2242 8.44604C99.8677 8.44604 116.602 24.625 116.602 44.5827V80.5252C113.588 103.839 95.5019 116.662 79.2242 116.662C62.9464 116.662 44.0564 101.119 41.8459 80.5252V44.5827Z" fill="#F6DDD6"/>
<path fill-rule="evenodd" clip-rule="evenodd" d="M69.2727 88.7375V92.9083C69.2727 98.822 74.0667 103.616 79.9807 103.616C85.8945 103.616 90.6887 98.822 90.6887 92.9083V88.7375H69.2727Z" fill="#393939"/>
<mask id="mask0_1_295" style="mask-type:luminance" maskUnits="userSpaceOnUse" x="69" y="88" width="22" height="16">
<path fill-rule="evenodd" clip-rule="evenodd" d="M69.2802 88.0132C69.2754 88.1454 69.2729 88.2784 69.2729 88.4119V92.9082C69.2729 98.8222 74.0669 103.616 79.9809 103.616C85.8947 103.616 90.6889 98.8222 90.6889 92.9082V88.4119C90.6889 88.2784 90.6864 88.1454 90.6814 88.0132H69.2802Z" fill="white"/>
</mask>
<g mask="url(#mask0_1_295)">
<path d="M79.9804 107.127C83.5468 107.127 86.4379 105.518 86.4379 103.533C86.4379 101.547 83.5468 99.9382 79.9804 99.9382C76.4141 99.9382 73.5229 101.547 73.5229 103.533C73.5229 105.518 76.4141 107.127 79.9804 107.127Z" fill="#FF6C6C"/>
<rect x="69.2727" y="88.7378" width="21.416" height="4.51375" fill="white"/>
</g>
<path d="M81.0068 1.88757C89.7273 -2.21315 112.271 8.1017 122.473 28.5637C122.473 28.5637 128.002 40.9085 129.358 49.4405C130.694 57.8582 126.311 62.116 126.311 62.116L116.825 70.1525C116.825 70.1525 109.321 45.1607 100.098 37.266C90.8743 29.3715 83.0113 27.0962 80.6016 25.3565C78.1921 23.6167 77.9086 8.59802 81.0068 1.88757Z" fill="#342B22"/>
<path d="M62.2877 51.9168C64.7529 51.7939 66.7861 52.054 68.407 52.5744C68.8987 52.7322 69.3213 52.905 69.6764 53.0825C69.9122 53.2004 70.0848 53.303 70.1961 53.3802C70.8496 53.8331 71.0122 54.73 70.5593 55.3835C70.1181 56.0202 69.2553 56.1909 68.6068 55.7803L68.5561 55.7467C68.4477 55.6716 68.1115 55.5035 67.5269 55.3158C66.2393 54.9025 64.5529 54.6867 62.431 54.7925C60.5784 54.8849 59.0887 55.1786 57.9261 55.6025C57.4545 55.7745 57.0785 55.9531 56.7906 56.1244C56.7367 56.1566 56.6898 56.1861 56.6496 56.2128L56.5642 56.2721C56.565 56.2712 56.5684 56.2682 56.5744 56.2629C55.9748 56.785 55.0655 56.7222 54.5434 56.1225C54.0213 55.5229 54.0841 54.6135 54.6838 54.0914C54.8147 53.9774 55.0241 53.8253 55.3178 53.6504C55.7601 53.3871 56.2989 53.1311 56.9397 52.8975C58.3779 52.373 60.1518 52.0233 62.2877 51.9168Z" fill="#23180D"/>
<path d="M54.1065 53.4455C57.09 40.0308 71.954 27.1955 78.992 24.877C81.8945 23.9208 83.8363 1 78.992 1C66.729 1 47.278 13.6072 40.3365 24.877C28.9376 43.3838 24.9064 64.1323 30.974 110.831C32.4588 122.258 33.8069 139.896 37.6459 149.359C44.844 142.002 59.3605 139.896 59.3605 139.896C59.3605 139.896 63.7523 134.316 60.762 123.252C55.3618 103.271 51.123 66.8605 54.1065 53.4455Z" fill="#342B22"/>
<path d="M37.9826 127.132C41.106 119.868 39.2841 104.266 37.9826 97.3721C47.5268 107.292 64.4023 128.241 55.5523 132.68C46.7025 137.119 48.3943 152.352 50.3465 159.413C48.1775 158.909 42.6678 156.185 37.9826 149.325C32.1261 140.751 34.0782 136.211 37.9826 127.132Z" fill="#342B22"/>
<path d="M54.038 124.905C46.402 121.381 43.6923 119.115 39.5049 112.821C38.6838 116.681 39.0122 129.034 40.9828 135.479C42.9535 141.923 46.7605 153.528 56.1208 153.528C56.1208 153.528 53.6575 148.018 56.1208 142.983C58.584 137.948 59.1985 127.287 54.038 124.905Z" fill="#342B22"/>
<path d="M43.5568 25.5953C43.9551 25.0658 44.7072 24.9594 45.2367 25.3577C45.7662 25.756 45.8725 26.5081 45.4742 27.0376C42.9487 30.395 39.883 36.6818 37.5206 43.6415C34.7204 51.8906 33.094 60.3793 33.094 68.0137C33.094 68.6763 32.5568 69.2134 31.8943 69.2134C31.2317 69.2134 30.6946 68.6763 30.6946 68.0137C30.6946 60.0934 32.3695 51.3517 35.2485 42.8703L35.4085 42.4028C37.8242 35.4065 40.9184 29.1027 43.5568 25.5953Z" fill="#65513D"/>
<path d="M44.1175 37.3209C44.3456 36.6988 45.0348 36.3795 45.6569 36.6076C46.2789 36.8357 46.5983 37.5249 46.3702 38.147L45.4681 40.6147C42.9699 47.477 42.2599 49.7335 41.0665 54.4117C40.9028 55.0537 40.2496 55.4414 39.6075 55.2777C38.9655 55.1139 38.5778 54.4607 38.7416 53.8187L38.9789 52.8961C40.1915 48.227 41.0397 45.7139 44.1175 37.3209Z" fill="#65513D"/>
<path d="M66.1485 63.8529C66.8026 63.7473 67.4185 64.1918 67.5242 64.8459C67.627 65.4823 67.2089 66.0826 66.5838 66.2119L66.5312 66.2216L60.0682 67.2659C59.4141 67.3715 58.7982 66.927 58.6925 66.2729C58.5897 65.6365 59.0078 65.0362 59.6329 64.9069L59.6855 64.8972L66.1485 63.8529Z" fill="black"/>
<path d="M90.0065 64.9563C90.1093 64.3199 90.6952 63.8818 91.3293 63.9559L91.3822 63.9633L97.8452 65.0075C98.4993 65.1132 98.9439 65.7291 98.8382 66.3832C98.7353 67.0196 98.1495 67.4577 97.5154 67.3836L97.4625 67.3762L90.9995 66.332C90.3454 66.2263 89.9008 65.6104 90.0065 64.9563Z" fill="black"/>
<path d="M65.1159 62.158C66.6817 62.158 67.9554 63.4078 67.9942 64.9641L67.9951 65.0373L67.9949 72.0943C67.9948 73.6845 66.7057 74.9735 65.1155 74.9735C63.5498 74.9734 62.276 73.7237 62.2372 72.1673L62.2363 72.0941L62.2366 65.0371C62.2366 63.4469 63.5258 62.1579 65.1159 62.158Z" fill="black"/>
<path d="M92.6775 62.2683C94.2432 62.2684 95.5169 63.5181 95.5557 65.0745L95.5566 65.1477L95.5564 72.2047C95.5563 73.7948 94.2672 75.0839 92.677 75.0838C91.1113 75.0838 89.8375 73.834 89.7988 72.2776L89.7979 72.2045L89.7981 65.1475C89.7982 63.5573 91.0873 62.2683 92.6775 62.2683Z" fill="black"/>
<path d="M100.923 56.1579L100.885 56.136C100.803 56.0897 100.695 56.0344 100.559 55.9719C100.14 55.7781 99.5949 55.5783 98.9147 55.3878C97.7962 55.0744 96.4467 54.8242 94.8481 54.6648C92.6093 54.4416 90.8739 54.6032 89.5942 54.9936C89.3104 55.0802 89.0803 55.1696 88.9017 55.2544L88.8298 55.2898L88.7728 55.3202L88.7885 55.3099C88.1244 55.747 87.2316 55.5629 86.7946 54.8987C86.3575 54.2345 86.5416 53.3418 87.2058 52.9047C87.3074 52.8378 87.4605 52.7514 87.6665 52.6535C87.9722 52.5084 88.3343 52.3677 88.754 52.2397C90.4032 51.7365 92.5212 51.5393 95.1338 51.7998C96.8956 51.9755 98.4095 52.256 99.6916 52.6153C100.518 52.8468 101.206 53.0993 101.766 53.3577L101.916 53.4287C102.204 53.5674 102.411 53.6869 102.543 53.7773C103.2 54.2255 103.369 55.1212 102.92 55.7779C102.484 56.4178 101.622 56.5946 100.971 56.1886L100.923 56.1579Z" fill="#23180D"/>
<path d="M76.0412 71.9065L80.0839 72.4492L80.0528 72.6724C79.9729 73.2199 79.8793 73.6637 79.6215 74.737L79.2991 76.0682C79.2535 76.259 79.2144 76.4262 79.1768 76.5915C78.7941 78.2715 78.6825 79.3549 78.8304 79.9851L78.8448 80.0431C78.9152 80.3088 79.01 80.3651 79.6009 80.3712L79.7303 80.3719V84.4508C77.1354 84.4508 75.3837 83.1514 74.8594 80.917C74.533 79.5262 74.6771 78.0201 75.1643 75.8422L75.2582 75.432C75.285 75.3173 75.3131 75.1985 75.3439 75.07L75.7315 73.4644C75.9105 72.7068 75.9763 72.3732 76.0316 71.9771L76.0412 71.9065Z" fill="#EBBAAA"/>
<path d="M74.4881 71.4527C74.4881 78.217 69.1296 83.6555 62.5744 83.6555C56.0191 83.6555 50.6606 78.217 50.6606 71.4527C50.6606 64.6887 56.0191 59.2502 62.5744 59.2502C69.1296 59.2502 74.4881 64.6887 74.4881 71.4527Z" fill="white" fill-opacity="0.2"/>
<path d="M106.988 71.4527C106.988 78.2167 101.63 83.6552 95.0746 83.6552C88.5191 83.6552 83.1606 78.2167 83.1606 71.4527C83.1606 64.6887 88.5191 59.2502 95.0746 59.2502C101.63 59.2502 106.988 64.6887 106.988 71.4527Z" fill="white" fill-opacity="0.2"/>
<path fill-rule="evenodd" clip-rule="evenodd" d="M49.4028 70.8036C49.4028 63.3998 55.2759 57.4014 62.5163 57.4014C69.7567 57.4014 75.6297 63.3998 75.6297 70.8036C75.6297 78.2075 69.7567 84.206 62.5163 84.206C55.2758 84.206 49.4028 78.2075 49.4028 70.8036ZM73.2299 70.8033C73.2299 64.7135 68.4196 59.8005 62.5158 59.8005C56.612 59.8005 51.8018 64.7135 51.8018 70.8033C51.8018 76.8934 56.612 81.8064 62.5158 81.8064C68.4196 81.8064 73.2299 76.8934 73.2299 70.8033Z" fill="#A8AEB9"/>
<path fill-rule="evenodd" clip-rule="evenodd" d="M81.9609 71.4527C81.9609 64.0489 87.834 58.0505 95.0746 58.0505C102.315 58.0505 108.188 64.049 108.188 71.4527C108.188 78.8565 102.315 84.8549 95.0746 84.8549C87.834 84.8549 81.9609 78.8565 81.9609 71.4527ZM105.789 71.4525C105.789 65.3627 100.978 60.4497 95.0747 60.4497C89.1707 60.4497 84.3604 65.3626 84.3604 71.4525C84.3604 77.5424 89.1707 82.4553 95.0747 82.4553C100.978 82.4553 105.789 77.5424 105.789 71.4525Z" fill="#A8AEB9"/>
<path d="M74.4108 69.5649L83.2213 69.6434C83.8839 69.6493 84.4162 70.1912 84.4103 70.8538C84.4045 71.4984 83.8914 72.0198 83.2534 72.042L83.1999 72.0427L74.3894 71.9642C73.7269 71.9583 73.1946 71.4164 73.2005 70.7539C73.2062 70.1093 73.7194 69.5879 74.3574 69.5656L74.4108 69.5649Z" fill="#A8AEB9"/>
</svg>
