<svg width="163" height="347" viewBox="0 0 163 347" fill="none" xmlns="http://www.w3.org/2000/svg">
<path d="M81.5775 259.437C96.7848 259.437 109.113 246.572 109.113 230.705C109.113 214.836 96.7848 201.972 81.5775 201.972C66.3702 201.972 54.0423 214.836 54.0423 230.705C54.0423 246.572 66.3702 259.437 81.5775 259.437Z" fill="#C88497"/>
<path d="M63.8592 274.042C67.3939 274.042 70.266 276.879 70.3231 280.4L70.324 280.507V335.099C70.324 338.669 67.4296 341.564 63.8592 341.564C60.3245 341.564 57.4524 338.727 57.3953 335.206L57.3944 335.099V280.507C57.3944 276.937 60.2888 274.042 63.8592 274.042Z" fill="#EBBAAA"/>
<path d="M98.3381 274.761C101.873 274.761 104.745 277.598 104.802 281.119L104.803 281.226V335.817C104.803 339.388 101.908 342.282 98.3381 342.282C94.8034 342.282 91.9312 339.445 91.8742 335.924L91.8733 335.817V281.226C91.8733 277.655 94.7677 274.761 98.3381 274.761Z" fill="#EBBAAA"/>
<path d="M81.5775 206.521H117.493V231.662C117.493 265.183 105.521 316.662 105.521 316.662C105.521 316.662 97.6384 321.13 91.155 319.057C87.9439 318.03 83.9719 316.662 83.9719 316.662L82.7747 261.592L81.5775 206.521Z" fill="#E0A1B2"/>
<path d="M81.5775 206.521H45.662V231.662C45.662 265.183 57.6339 316.662 57.6339 316.662C57.6339 316.662 65.5166 321.13 72.0001 319.057C75.2112 318.03 79.1832 316.662 79.1832 316.662L80.3804 261.592L81.5775 206.521Z" fill="#E0A1B2"/>
<path d="M131.899 337.972C131.899 330.621 127.176 329.726 119.478 327.207C115.707 325.972 111.86 324.896 107.955 324.25C105.502 323.843 104.843 326 100.533 326C96.6893 326 91.8944 324.097 90.9014 323.685C90.7769 323.632 90.6292 323.587 90.53 323.678C90.5061 323.702 90.486 323.728 90.4709 323.759C90.0119 324.7 87.6032 329.846 87.6032 333.962C87.6032 337.108 87.3336 340.204 88.2018 341.803C88.5935 342.526 91.0393 342.919 91.8606 342.919H130.567C131.303 342.919 131.899 338.707 131.899 337.972Z" fill="#D0D4DB"/>
<mask id="mask0_1_2181" style="mask-type:luminance" maskUnits="userSpaceOnUse" x="87" y="322" width="45" height="21">
<path fill-rule="evenodd" clip-rule="evenodd" d="M131.899 337.972C131.899 334.196 130.653 332.123 128.397 330.66C117.663 323.69 103.744 323.362 90.9555 322.888C90.8508 322.888 90.5168 323.663 90.4711 323.759C90.0121 324.7 87.6034 329.846 87.6034 333.962C87.6034 337.108 87.3337 340.204 88.2019 341.803C88.5937 342.526 91.0395 342.919 91.8608 342.919H130.567C131.303 342.919 131.899 338.707 131.899 337.972Z" fill="white"/>
</mask>
<g mask="url(#mask0_1_2181)">
<path d="M108.043 328.883C107.999 328.297 107.306 328.009 106.859 328.392L104.323 330.571C104.145 330.722 103.903 330.78 103.676 330.722L100.404 329.879C99.8221 329.728 99.3244 330.317 99.5683 330.866L100.911 333.89C101.009 334.108 100.99 334.364 100.861 334.565L99.0966 337.338C98.778 337.838 99.1694 338.487 99.7608 338.439L103.15 338.164C103.381 338.145 103.606 338.238 103.756 338.415L105.958 341.006C106.342 341.458 107.078 341.276 107.207 340.697L107.919 337.491C107.971 337.254 108.138 337.062 108.362 336.976L111.449 335.786C112.01 335.571 112.074 334.804 111.557 334.498L108.648 332.781C108.445 332.661 108.314 332.451 108.297 332.216L108.043 328.883Z" fill="#E4E9F1"/>
<path d="M96.5818 325.042C93.7086 324.851 91.3142 323.287 90.3565 322.409C89.3987 323.366 87.0283 326 87.6029 326.958C88.3212 328.155 93.8283 329.113 96.2227 329.113C98.617 329.113 100.173 325.282 96.5818 325.042Z" fill="#AEB5C0"/>
<path d="M127.076 329.836C130.176 328.083 128.96 331.555 131.746 333.03L137.645 344.339H90.6958C89.5486 342.698 84.1019 338.331 87.6032 338.331C95.2652 338.331 106.04 339.528 110.709 339.768C115.134 339.995 128.572 340.347 127.829 336.416C126.968 331.869 124.249 331.433 127.076 329.836Z" fill="#AEB5C0"/>
</g>
<path d="M108.082 323.455C108.43 323.243 108.884 323.354 109.096 323.702C109.307 324.05 109.197 324.503 108.849 324.715L107.771 325.339C107.729 325.364 107.693 325.385 107.666 325.402C107.61 325.436 107.556 325.469 107.504 325.502L107.427 325.552L112.657 324.348C113.317 324.196 113.808 324.936 113.432 325.482L113.408 325.515L111.977 327.384L117.81 325.727C118.53 325.522 119.053 326.391 118.559 326.93L118.531 326.96L115.347 330.116C115.058 330.402 114.591 330.4 114.305 330.111C114.029 329.833 114.02 329.392 114.276 329.104L114.309 329.068L115.459 327.928L110.241 329.411C109.571 329.601 109.043 328.846 109.43 328.286L109.454 328.253L110.991 326.245L105.726 327.457C105.279 327.56 104.851 327.233 104.825 326.782L104.823 326.738C104.823 325.726 105.522 324.994 106.808 324.198L106.899 324.142C106.958 324.106 107.046 324.054 107.148 323.995L108.082 323.455Z" fill="#AEB5C0"/>
<path fill-rule="evenodd" clip-rule="evenodd" d="M106.472 321.103C106.509 318.962 107.925 317.381 109.79 317.381C110.708 317.381 111.458 317.766 111.977 318.472C112.474 319.148 112.739 320.099 112.739 321.19C112.739 322.198 112.14 323.105 111.117 323.786C110.21 324.39 109.046 324.753 108.069 324.753C107.6 324.753 107.256 324.669 107.013 324.498C106.788 324.341 106.642 324.11 106.557 323.786C106.483 323.503 106.455 323.16 106.454 322.665L106.453 322.568L106.468 321.624L106.472 321.103ZM110.789 319.345C110.546 319.014 110.236 318.855 109.79 318.855C108.76 318.855 107.946 319.781 107.946 321.19L107.945 321.489L107.929 322.451L107.929 322.743C107.931 322.902 107.936 323.035 107.945 323.142L107.954 323.242L107.959 323.275L107.982 323.276L108.069 323.278C108.751 323.278 109.632 323.003 110.3 322.559C110.946 322.128 111.265 321.646 111.265 321.19C111.265 320.393 111.084 319.747 110.789 319.345Z" fill="#AEB5C0"/>
<path fill-rule="evenodd" clip-rule="evenodd" d="M101.708 321.994C101.849 321.363 102.245 320.877 102.866 320.603C104.147 320.03 105.603 320.685 106.257 322.152C106.282 322.208 106.307 322.265 106.334 322.323L106.449 322.572L106.451 322.575L106.652 323.007L106.744 323.215C106.869 323.506 106.941 323.723 106.973 323.918C106.992 324.036 106.994 324.142 106.981 324.235C106.978 324.262 106.976 324.275 106.97 324.298L106.945 324.388L106.932 324.421L106.796 324.513L106.861 324.556C106.754 324.717 106.576 324.859 106.305 324.99L106.235 325.022C105.573 325.316 104.675 325.425 103.878 325.296C102.981 325.149 102.303 324.721 102.002 324.047C101.676 323.315 101.573 322.599 101.708 321.994ZM105.042 323.045L104.91 322.752C104.574 321.998 103.968 321.726 103.465 321.951C103.27 322.037 103.187 322.14 103.147 322.316C103.087 322.587 103.145 322.987 103.349 323.447C103.423 323.613 103.669 323.768 104.115 323.841C104.517 323.906 104.974 323.875 105.343 323.776L105.375 323.767L105.359 323.728L105.29 323.575L105.207 323.397L105.205 323.395L105.042 323.045Z" fill="#AEB5C0"/>
<path d="M30.5775 337.493C30.5775 330.143 35.3006 329.247 42.9985 326.728C46.7689 325.493 50.6169 324.418 54.5212 323.771C56.9747 323.364 57.6339 325.522 61.9437 325.522C65.7871 325.522 70.5821 323.618 71.5751 323.206C71.6996 323.153 71.8471 323.108 71.9462 323.199C71.9701 323.223 71.9905 323.249 72.0053 323.28C72.4643 324.221 74.8733 329.367 74.8733 333.483C74.8733 336.629 75.1429 339.725 74.2747 341.324C73.883 342.047 71.4371 342.44 70.6156 342.44H31.9093C31.1737 342.44 30.5775 338.228 30.5775 337.493Z" fill="#D0D4DB"/>
<mask id="mask1_1_2181" style="mask-type:luminance" maskUnits="userSpaceOnUse" x="30" y="322" width="45" height="21">
<path fill-rule="evenodd" clip-rule="evenodd" d="M30.5775 337.493C30.5775 333.717 31.824 331.644 34.08 330.181C44.8139 323.211 58.7319 322.883 71.5212 322.409C71.6256 322.409 71.9596 323.184 72.0053 323.28C72.4643 324.221 74.8733 329.367 74.8733 333.483C74.8733 336.629 75.1429 339.725 74.2747 341.324C73.883 342.047 71.4371 342.44 70.6156 342.44H31.9093C31.1737 342.44 30.5775 338.228 30.5775 337.493Z" fill="white"/>
</mask>
<g mask="url(#mask1_1_2181)">
<path d="M54.4331 328.405C54.4776 327.818 55.1708 327.531 55.6174 327.914L58.1535 330.093C58.3316 330.244 58.5732 330.301 58.8007 330.244L62.0726 329.401C62.6544 329.25 63.152 329.839 62.9082 330.387L61.5652 333.411C61.4675 333.629 61.4867 333.885 61.6157 334.086L63.3799 336.859C63.6983 337.36 63.3071 338.008 62.7157 337.961L59.326 337.685C59.0957 337.666 58.8701 337.759 58.7205 337.937L56.5184 340.527C56.1341 340.98 55.3985 340.798 55.2697 340.218L54.5574 337.012C54.5052 336.775 54.3388 336.584 54.1139 336.498L51.0271 335.308C50.4664 335.092 50.4024 334.326 50.9196 334.019L53.829 332.303C54.0311 332.183 54.1621 331.972 54.18 331.738L54.4331 328.405Z" fill="#E4E9F1"/>
<path d="M65.8944 324.564C68.7677 324.372 71.162 322.809 72.1198 321.93C73.0775 322.888 75.448 325.522 74.8733 326.479C74.155 327.677 68.648 328.634 66.2536 328.634C63.8592 328.634 62.3029 324.803 65.8944 324.564Z" fill="#AEB5C0"/>
<path d="M35.401 329.357C32.3005 327.605 33.5164 331.077 30.7305 332.551L24.8311 343.86H71.7807C72.9279 342.22 78.3746 337.853 74.8733 337.853C67.2113 337.853 56.4367 339.05 51.7677 339.289C47.3422 339.517 33.904 339.869 34.648 335.937C35.5083 331.39 38.2278 330.954 35.401 329.357Z" fill="#AEB5C0"/>
</g>
<path d="M53.3807 323.223C53.5845 322.888 54.0127 322.773 54.3549 322.954L55.425 323.573C55.4859 323.608 55.5382 323.639 55.5775 323.663L55.757 323.774C56.9869 324.549 57.653 325.27 57.653 326.259C57.653 326.718 57.2392 327.062 56.7934 326.986L56.7501 326.978L51.4848 325.766L53.0228 327.774C53.4461 328.327 52.9389 329.095 52.275 328.942L52.2358 328.932L47.0168 327.449L48.1671 328.589C48.4447 328.865 48.4577 329.306 48.2046 329.597L48.1716 329.632C47.8963 329.91 47.455 329.923 47.1642 329.67L47.1287 329.637L43.9456 326.481C43.4143 325.954 43.9145 325.072 44.6266 325.238L44.6664 325.248L50.4995 326.905L49.0682 325.036C48.6564 324.498 49.126 323.745 49.7789 323.861L49.819 323.869L55.049 325.073C54.9985 325.04 54.9464 325.007 54.8927 324.974L54.7452 324.884C54.4561 324.712 53.7623 324.318 53.6274 324.236C53.2795 324.024 53.169 323.571 53.3807 323.223Z" fill="#AEB5C0"/>
<path fill-rule="evenodd" clip-rule="evenodd" d="M50.4994 317.993C51.0181 317.287 51.7676 316.902 52.6866 316.902C54.5765 316.902 56.0051 318.527 56.0051 320.711L56.0059 320.916L56.0211 321.885L56.0229 322.186C56.0212 322.682 55.9926 323.025 55.9189 323.307C55.834 323.631 55.6887 323.861 55.4638 324.019C55.219 324.19 54.8756 324.274 54.4074 324.274C53.4305 324.274 52.266 323.911 51.3591 323.308C50.3361 322.626 49.737 321.72 49.737 320.711C49.737 319.619 50.0024 318.669 50.4994 317.993ZM54.5302 320.711C54.5302 319.302 53.7166 318.377 52.6865 318.377C52.2402 318.377 51.9305 318.536 51.6879 318.866C51.3921 319.269 51.2118 319.914 51.2118 320.711C51.2118 321.168 51.5306 321.65 52.1764 322.08C52.8446 322.525 53.7256 322.799 54.4073 322.799C54.4387 322.799 54.4677 322.799 54.4944 322.798L54.5174 322.796L54.5217 322.764C54.5364 322.64 54.5452 322.474 54.5475 322.257L54.548 322.182C54.5481 322.111 54.5478 322.043 54.547 321.962L54.5318 321.017L54.5302 320.711Z" fill="#AEB5C0"/>
<path fill-rule="evenodd" clip-rule="evenodd" d="M55.6155 324.077L55.6051 324.061L55.5694 323.995C55.5461 323.951 55.5366 323.927 55.5237 323.883L55.5056 323.817C55.4982 323.779 55.4982 323.779 55.4956 323.761L55.4894 323.701C55.4836 323.62 55.4883 323.533 55.5037 323.437C55.5324 323.261 55.5952 323.065 55.6999 322.813L55.7677 322.655C55.7795 322.629 55.7915 322.602 55.8043 322.573L56.0245 322.096L56.0277 322.092L56.1104 321.914L56.2525 321.601C56.9214 320.185 58.3512 319.561 59.6064 320.123C60.2319 320.398 60.627 320.884 60.7682 321.515C60.9035 322.12 60.8002 322.837 60.4737 323.569C60.1734 324.242 59.4957 324.671 58.5969 324.818C57.8014 324.946 56.9035 324.837 56.2407 324.543C55.9304 324.404 55.7316 324.251 55.6155 324.077ZM59.3289 321.837C59.2894 321.661 59.2058 321.558 59.0077 321.471C58.5083 321.247 57.9024 321.52 57.5666 322.273C57.5339 322.347 57.5021 322.417 57.4675 322.493L57.2708 322.917L57.2692 322.918L57.1865 323.097L57.1007 323.288L57.1328 323.297C57.476 323.39 57.8944 323.422 58.2734 323.375L58.3602 323.362C58.8078 323.289 59.0528 323.134 59.1267 322.968C59.3317 322.508 59.3894 322.108 59.3289 321.837Z" fill="#AEB5C0"/>
<path d="M81.5775 119.606C96.7848 119.606 111.507 113.978 111.507 107.035C111.507 72.9155 96.7848 72.9155 81.5775 72.9155C66.3701 72.9155 51.6479 72.9155 51.6479 107.035C51.6479 113.978 66.3701 119.606 81.5775 119.606Z" fill="#2D2427"/>
<path fill-rule="evenodd" clip-rule="evenodd" d="M51.6254 143.112C50.8869 144.442 50.3207 146.653 49.4829 151.499L48.9679 154.491C48.7528 155.726 48.6523 156.253 48.4557 157.245C47.7231 160.938 46.8926 163.993 45.7249 166.906C44.2196 170.661 42.2203 173.944 39.5592 176.756C33.4738 183.184 24.6267 186.408 12.8592 186.408C7.96638 186.408 4 182.442 4 177.549C4 172.657 7.96638 168.69 12.8592 168.69C20.0681 168.69 24.2331 167.172 26.6913 164.575C28.6583 162.497 29.9397 159.367 30.9998 154.176L31.1797 153.27C31.2901 152.703 31.3782 152.222 31.5355 151.318L32.0889 148.102C32.5826 145.257 32.9253 143.54 33.4041 141.68C34.1529 138.771 35.0858 136.292 36.3974 134.05C39.109 129.415 43.1892 126.373 48.3908 125.19C49.2396 120.528 52.8315 116.608 57.7817 115.598L81.5774 110.747L105.373 115.598C110.323 116.608 113.915 120.528 114.764 125.19C119.966 126.373 124.046 129.415 126.758 134.05C128.029 136.224 128.945 138.621 129.682 141.417L129.751 141.68C130.23 143.54 130.572 145.257 131.066 148.102L131.7 151.778C131.842 152.584 131.926 153.024 132.059 153.695L132.155 154.176C133.215 159.367 134.497 162.497 136.464 164.575C138.922 167.172 143.087 168.69 150.296 168.69C155.189 168.69 159.155 172.657 159.155 177.549C159.155 182.442 155.189 186.408 150.296 186.408C138.528 186.408 129.681 183.184 123.596 176.756C120.935 173.944 118.935 170.661 117.43 166.906C116.296 164.077 115.48 161.112 114.762 157.56L114.571 156.595C114.441 155.926 114.34 155.374 114.161 154.34L113.616 151.177C112.809 146.554 112.251 144.412 111.53 143.112L105.521 168.342L116.711 204.028C117.131 205.368 116.323 206.775 114.946 207.054C108.791 208.302 92.7924 211.31 81.5774 211.31C70.3625 211.31 54.3636 208.302 48.2091 207.054C46.8323 206.775 46.0235 205.368 46.4437 204.028L57.6338 168.342L51.6254 143.112Z" fill="#F4D5CC"/>
<path d="M48.0017 156.103C46.708 149.637 50.8876 143.342 57.3493 142.024L81.5774 137.084L105.806 142.024C112.267 143.342 116.447 149.637 115.153 156.103L110.31 180.314C110.31 180.314 117.493 196.944 117.493 206.521C117.493 206.521 95.7274 211.31 81.5774 211.31C67.4274 211.31 45.6619 206.521 45.6619 206.521C45.6619 196.944 52.845 180.314 52.845 180.314L48.0017 156.103Z" fill="#E0A1B2"/>
<path d="M51.9579 179.772C52.7 178.707 54.1521 178.43 55.2316 179.136L55.3968 179.247C55.4654 179.292 55.561 179.353 55.6831 179.43L55.8914 179.558C56.2147 179.756 56.5871 179.972 57.0074 180.203C58.4973 181.023 60.2474 181.847 62.2401 182.62C67.9621 184.837 74.4514 186.169 81.5775 186.169C88.694 186.169 95.0132 184.841 100.462 182.633C102.272 181.899 103.855 181.119 105.201 180.342L105.383 180.236C105.859 179.956 106.266 179.7 106.603 179.473L106.832 179.316C106.89 179.276 106.929 179.247 106.95 179.231C108.005 178.433 109.507 178.642 110.304 179.697C111.102 180.752 110.893 182.253 109.838 183.051L109.702 183.151C109.594 183.229 109.452 183.328 109.276 183.446C108.859 183.727 108.368 184.036 107.807 184.366C106.226 185.293 104.374 186.215 102.26 187.071C96.2606 189.502 89.3359 190.958 81.5775 190.958C73.8285 190.958 66.7597 189.507 60.5099 187.085C58.3124 186.233 56.37 185.318 54.6986 184.398L54.3826 184.223C53.9711 183.991 53.5988 183.771 53.2667 183.566L53.0217 183.413C52.8078 183.277 52.6514 183.174 52.5539 183.106C51.4689 182.35 51.202 180.857 51.9579 179.772Z" fill="#B3818E"/>
<path d="M52.8543 197.259C54.0024 196.603 55.465 197.002 56.1211 198.15C56.7655 199.278 56.3922 200.709 55.291 201.381L55.2014 201.435L55.0923 201.504C55.0653 201.521 55.0363 201.54 55.0056 201.56C54.7714 201.716 54.5041 201.908 54.2121 202.137C53.3598 202.807 52.5015 203.629 51.7004 204.601C49.4173 207.374 48.0563 210.776 48.0563 214.902C48.0563 216.224 46.9843 217.296 45.6619 217.296C44.3396 217.296 43.2676 216.224 43.2676 214.902C43.2676 209.599 45.0492 205.145 48.0038 201.557C49.0358 200.304 50.1417 199.246 51.2535 198.372C51.6489 198.061 52.02 197.794 52.3587 197.57L52.483 197.488C52.6407 197.386 52.7659 197.31 52.8543 197.259Z" fill="#B3818E"/>
<path d="M55.9022 197.079C56.5685 195.937 58.0346 195.551 59.1768 196.217C60.2987 196.872 60.6909 198.297 60.0733 199.43L60.012 199.541L59.9458 199.668C59.9078 199.743 59.8663 199.828 59.822 199.922C59.6231 200.345 59.4209 200.84 59.2304 201.401C58.6451 203.123 58.31 205.027 58.3545 207.037C58.4121 209.633 59.1024 212.218 60.5681 214.757C61.2293 215.902 60.8369 217.366 59.6917 218.027C58.5465 218.689 57.0821 218.296 56.421 217.151C54.5427 213.898 53.642 210.525 53.567 207.143C53.5092 204.535 53.9406 202.084 54.6963 199.86C54.9464 199.124 55.2163 198.462 55.4894 197.882C55.5717 197.708 55.6502 197.549 55.7239 197.407L55.8135 197.238C55.8422 197.185 55.8671 197.14 55.8876 197.104L55.9022 197.079Z" fill="#B3818E"/>
<path d="M44.6788 140.034C46.0285 135.985 49.4314 132.961 53.6108 132.096L81.5774 126.31L109.544 132.096C113.723 132.961 117.126 135.985 118.476 140.034L123.479 155.042C123.479 155.042 119.254 158.214 116.296 159.831C104.287 166.397 81.5774 164.62 81.5774 164.62C81.5774 164.62 58.8681 166.397 46.8591 159.831C43.9011 158.214 39.676 155.042 39.676 155.042L44.6788 140.034Z" fill="#ECB3C3"/>
<rect x="73.1971" y="94.4648" width="16.7606" height="27.5352" rx="8.38028" fill="url(#paint0_linear_1_2181)"/>
<path fill-rule="evenodd" clip-rule="evenodd" d="M42.0704 190.359C42.0704 184.739 46.6263 180.183 52.2464 180.183C57.8665 180.183 62.4225 184.739 62.4225 190.359C62.4225 195.979 57.8665 200.535 52.2464 200.535C46.6263 200.535 42.0704 195.979 42.0704 190.359ZM57.6339 190.359C57.6339 187.384 55.2219 184.972 52.2466 184.972C49.2712 184.972 46.8593 187.384 46.8593 190.359C46.8593 193.335 49.2712 195.747 52.2466 195.747C55.2219 195.747 57.6339 193.335 57.6339 190.359Z" fill="#B3818E"/>
<path fill-rule="evenodd" clip-rule="evenodd" d="M55.2394 193.951C55.2394 188.331 59.7954 183.775 65.4155 183.775C71.0356 183.775 75.5916 188.331 75.5916 193.951C75.5916 199.571 71.0356 204.127 65.4155 204.127C59.7954 204.127 55.2394 199.571 55.2394 193.951ZM70.8027 193.951C70.8027 190.976 68.3907 188.564 65.4154 188.564C62.4401 188.564 60.0281 190.976 60.0281 193.951C60.0281 196.927 62.4401 199.339 65.4154 199.339C68.3907 199.339 70.8027 196.927 70.8027 193.951Z" fill="#B3818E"/>
<path fill-rule="evenodd" clip-rule="evenodd" d="M81.5503 3.00001C81.5673 3.00001 81.5331 2.99998 81.5503 3.00001C92.2781 3.00001 108.342 6.03709 115.122 20.0001C118.699 27.3682 120.522 32.5805 119.914 41.5493C112.473 32.0853 92.25 25.7465 81.5501 25.7465C68.0387 25.7465 53.7726 33.3701 43.1864 41.5493C42.7015 32.5376 44.401 27.3682 47.9784 20.0001C54.7581 6.03706 70.543 2.99988 81.5503 3.00001Z" fill="#B3818E"/>
<path d="M82.0563 71.7182C111.011 71.7182 136.648 72.476 136.648 59.2675C136.648 39.6062 111.011 18.8027 82.0563 18.8027C53.1017 18.8027 27.4647 39.6062 27.4647 59.2675C27.4647 72.476 53.1017 71.7182 82.0563 71.7182Z" fill="#ECB3C3"/>
<path d="M119.648 80.0985C124.937 80.0985 129.225 75.8105 129.225 70.5211C129.225 65.2317 124.937 60.9436 119.648 60.9436C114.358 60.9436 110.07 65.2317 110.07 70.5211C110.07 75.8105 114.358 80.0985 119.648 80.0985Z" fill="#EFC6BD"/>
<path d="M43.507 80.0985C38.2176 80.0985 33.9295 75.8105 33.9295 70.5211C33.9295 65.2317 38.2176 60.9436 43.507 60.9436C48.7964 60.9436 53.0844 65.2317 53.0844 70.5211C53.0844 75.8105 48.7964 80.0985 43.507 80.0985Z" fill="#EFC6BD"/>
<path d="M45.6619 49.6902C45.6619 29.8545 61.7418 13.7747 81.5774 13.7747C101.413 13.7747 117.493 29.8545 117.493 49.6902V66.0614L116.349 76.1292C114.341 93.8035 99.3865 107.155 81.5985 107.155C64.2037 107.155 49.4527 94.3712 46.9795 77.1531L46.0872 70.9382C45.8039 68.9674 45.6619 66.9789 45.6619 64.9878V49.6902Z" fill="#F4D5CC"/>
<path d="M92.5393 84.9627C92.8943 84.4049 93.6343 84.2406 94.1921 84.5956C94.7498 84.9506 94.9142 85.6906 94.5592 86.2484C93.8342 87.3874 92.1916 88.6902 90.1322 89.6793C87.6076 90.8919 84.6126 91.5915 81.3226 91.5915C78.0341 91.5915 75.2002 90.8955 72.8293 89.6622C71.0304 88.7264 69.6134 87.5382 68.6687 86.3509C68.2571 85.8335 68.3428 85.0804 68.8602 84.6687C69.3776 84.257 70.1307 84.3428 70.5424 84.8601C71.2823 85.79 72.4397 86.7606 73.9343 87.5381C75.9646 88.5942 78.4196 89.1971 81.3226 89.1971C84.249 89.1971 86.8904 88.5801 89.0955 87.521C90.7452 86.7286 92.0236 85.7265 92.5068 85.0121L92.5393 84.9627Z" fill="#C99584"/>
<path d="M58.8309 82.4929C62.798 82.4929 66.014 79.2769 66.014 75.3098C66.014 71.3427 62.798 68.1267 58.8309 68.1267C54.8638 68.1267 51.6478 71.3427 51.6478 75.3098C51.6478 79.2769 54.8638 82.4929 58.8309 82.4929Z" fill="#F2CACA"/>
<path d="M67.2112 57.3521C67.8724 57.3521 68.4084 57.888 68.4084 58.5492C68.4084 59.1926 67.901 59.7174 67.2645 59.7453L67.2112 59.7464H60.0281C59.3669 59.7464 58.8309 59.2104 58.8309 58.5492C58.8309 57.9059 59.3383 57.3811 59.9748 57.3532L60.0281 57.3521H67.2112Z" fill="black"/>
<path d="M103.127 57.3521C103.788 57.3521 104.324 57.888 104.324 58.5492C104.324 59.1926 103.816 59.7174 103.18 59.7453L103.127 59.7464H95.9436C95.2824 59.7464 94.7464 59.2104 94.7464 58.5492C94.7464 57.9059 95.2538 57.3811 95.8903 57.3532L95.9436 57.3521H103.127Z" fill="black"/>
<path d="M95.9436 55.4365C97.506 55.4365 98.7772 56.6836 98.8159 58.2367L98.8169 58.3098V65.4929C98.8169 67.0797 97.5305 68.3661 95.9436 68.3661C94.3812 68.3661 93.11 67.119 93.0713 65.5659L93.0704 65.4929V58.3098C93.0704 56.7229 94.3568 55.4365 95.9436 55.4365Z" fill="black"/>
<path d="M67.2122 55.4365C68.7746 55.4365 70.0458 56.6836 70.0845 58.2367L70.0854 58.3098V65.4929C70.0854 67.0797 68.799 68.3661 67.2122 68.3661C65.6497 68.3661 64.3786 67.119 64.3398 65.5659L64.3389 65.4929V58.3098C64.3389 56.7229 65.6253 55.4365 67.2122 55.4365Z" fill="black"/>
<path d="M91.9487 46.5794L105.597 47.2977C106.389 47.3394 106.997 48.0155 106.956 48.8079C106.915 49.5818 106.269 50.1803 105.501 50.1689L105.446 50.167L91.7977 49.4487C91.0053 49.407 90.3968 48.7309 90.4385 47.9385C90.4793 47.1646 91.1253 46.5661 91.8936 46.5776L91.9487 46.5794Z" fill="#271E1E"/>
<path d="M71.2061 46.5794C71.9984 46.5377 72.6746 47.1462 72.7163 47.9385C72.757 48.7124 72.1774 49.3755 71.4121 49.4448L71.3571 49.4487L57.7092 50.167C56.9169 50.2087 56.2408 49.6002 56.1991 48.8079C56.1584 48.034 56.738 47.3709 57.5033 47.3017L57.5582 47.2977L71.2061 46.5794Z" fill="#271E1E"/>
<path d="M104.324 82.4929C108.291 82.4929 111.507 79.2769 111.507 75.3098C111.507 71.3427 108.291 68.1267 104.324 68.1267C100.357 68.1267 97.1408 71.3427 97.1408 75.3098C97.1408 79.2769 100.357 82.4929 104.324 82.4929Z" fill="#F2CACA"/>
<path d="M79.884 63.1667L83.2708 65.4246C82.1197 67.1512 81.2182 69.743 81.2182 71.6284C81.2182 73.4457 81.8742 74.21 83.8823 74.2318L83.9718 74.2323V78.3027C79.5319 78.3027 77.1478 75.6207 77.1478 71.6284C77.1478 68.9249 78.2722 65.6432 79.7988 63.2962L79.884 63.1667Z" fill="#EBBAAA"/>
<path d="M105.366 50.2821C100.587 47.1242 91.5861 34.1338 87.683 28.0334C110.265 22.1723 119.704 38.9184 121.615 50.2821C123.527 61.6455 119.704 81.0243 121.376 80.3067C122.715 79.7326 124.085 79.1115 124.722 78.6331C125.12 94.9806 129.531 124.945 124.722 127.315C118.408 130.425 100.486 130.664 103.473 122.291C106.46 113.918 115.283 60.8082 114.327 58.0571C113.371 55.306 111.34 54.2294 105.366 50.2821Z" fill="#2D2427"/>
<path d="M57.7889 50.2821C62.568 47.1242 71.5687 34.1338 75.4718 28.0334C52.89 22.1723 43.4512 38.9184 41.5395 50.2821C39.6279 61.6455 43.4512 81.0243 41.7785 80.3067C40.4403 79.7326 39.0702 79.1115 38.4331 78.6331C38.0349 94.9806 33.6235 124.945 38.4331 127.315C44.7465 130.425 62.6686 130.664 59.6816 122.291C56.6947 113.918 47.8719 60.8082 48.8277 58.0571C49.7836 55.306 51.8147 54.2294 57.7889 50.2821Z" fill="#2D2427"/>
<path fill-rule="evenodd" clip-rule="evenodd" d="M81.5609 11.8591C81.5769 11.8591 81.5449 11.8591 81.5609 11.8591C96.0186 11.8591 119.239 17.9148 117.389 38.4366C110.439 31.7879 91.5533 27.8394 81.5609 27.8394C68.9426 27.8394 55.6196 32.6906 45.7333 38.4366C44.2296 17.4101 66.8528 11.859 81.5609 11.8591Z" fill="#ECB3C3"/>
<defs>
<linearGradient id="paint0_linear_1_2181" x1="79.7556" y1="106.916" x2="79.7556" y2="112.901" gradientUnits="userSpaceOnUse">
<stop stop-color="#EBBAAA"/>
<stop offset="1" stop-color="#F4D5CC"/>
</linearGradient>
</defs>
</svg>
