<svg width="163" height="347" viewBox="0 0 163 347" fill="none" xmlns="http://www.w3.org/2000/svg">
<path d="M94.876 291V328.5C94.876 332.228 97.8981 335.25 101.626 335.25C105.354 335.25 108.376 332.228 108.376 328.5V291C108.376 287.272 105.354 284.25 101.626 284.25C97.8981 284.25 94.876 287.272 94.876 291Z" fill="#EBBAAA"/>
<path d="M68.876 291V328.5C68.876 332.228 71.8981 335.25 75.626 335.25C79.3539 335.25 82.376 332.228 82.376 328.5V291C82.376 287.272 79.3539 284.25 75.626 284.25C71.8981 284.25 68.876 287.272 68.876 291Z" fill="#EBBAAA"/>
<path d="M43.126 304.625L55.554 197.5H69.4735C73.4505 228.536 70.1695 308.43 64.9995 309.63C59.8295 310.832 44.7833 307.295 43.126 304.625Z" fill="#482625"/>
<path d="M134.126 304.625L121.698 197.5H107.779C103.802 228.536 107.083 308.43 112.253 309.63C117.423 310.832 132.469 307.295 134.126 304.625Z" fill="#482625"/>
<path d="M59.3665 315.138C62.5977 317.64 87.9727 320.31 89.63 317.64V265.58L85.4655 203.757H64.7997C60.8227 234.794 56.1352 312.635 59.3665 315.138Z" fill="#653B3A"/>
<path d="M86.873 314.885C93.0873 316.888 101.041 316.638 118.441 314.885C118.441 314.885 115.187 289.607 113.718 261.072C112.249 232.54 110.487 197.75 110.487 197.75L84.636 201.254C86.873 235.794 88.3645 265.077 86.873 314.885Z" fill="#522F2E"/>
<path d="M39.5422 338.755C39.4927 333.083 40.2692 329.63 45.2222 327.313C50.1752 324.995 54.841 320.538 63.41 316.715C63.41 316.715 64.538 316.503 66.374 317.493C67.9407 318.335 69.953 320.405 72.9855 320.378C76.2782 320.35 79.2125 319.655 81.0355 318.703C81.8232 316.555 83.5705 316.54 83.5705 316.54C83.5705 316.54 86.0307 321.203 86.0715 325.885C86.1125 330.57 86.108 338.35 86.108 338.35L39.5422 338.755Z" fill="#DCE1E6"/>
<path d="M58.1357 318.655C57.6135 318.426 57.0591 318.906 57.2113 319.456L57.9516 322.129L54.9792 321.173C54.5424 321.033 54.0953 321.359 54.0953 321.817L54.0951 324.566L51.8673 323.364C51.4164 323.121 50.8693 323.448 50.8693 323.96V327.305C50.8693 327.679 51.1723 327.982 51.546 327.982C51.9197 327.982 52.2227 327.679 52.2227 327.305V325.094L54.4505 326.296C54.9013 326.539 55.4484 326.212 55.4485 325.7L55.4487 322.746L58.7313 323.802C59.2439 323.967 59.7344 323.496 59.5907 322.977L58.8959 320.468L62.1611 321.902C62.6083 322.099 63.11 321.771 63.11 321.283L63.1093 321.028L63.1068 320.755C63.0961 319.967 63.0549 319.434 62.9386 318.806C62.8438 318.295 62.7053 317.824 62.5138 317.394C62.3615 317.053 61.9614 316.9 61.6201 317.052C61.2788 317.204 61.1255 317.604 61.2777 317.946C61.4226 318.271 61.5314 318.64 61.6079 319.053C61.6719 319.399 61.7099 319.719 61.7314 320.095L61.7387 320.238L58.1357 318.655Z" fill="white"/>
<path d="M84.6108 319.007C83.6543 320.3 80.205 321.075 78.9073 321.262C77.6098 321.452 76.2193 321.287 76.7755 323.425C77.169 324.935 80.9503 324.325 82.4288 324.312C83.6308 324.3 85.3165 327.917 85.9443 326.69C85.9443 322.487 85.1483 320.212 84.6108 319.007Z" fill="#3F3232" fill-opacity="0.5"/>
<path d="M41.4165 327.747C42.9363 327.2 44.5455 326.782 47.631 326.087L46.3198 329.845L46.357 334.127L37.575 334.205C37.2165 334.207 36.576 333.732 36.8818 331.802C37.264 329.39 39.2573 328.527 41.4165 327.747Z" fill="#EAF4FB"/>
<path d="M52.1249 328.982L56.2159 336.747L60.0476 334.728L55.9566 326.963L52.1249 328.982Z" fill="#3F3232"/>
<path d="M57.76 326.037L62.6623 335.367L66.4962 333.353L61.594 324.023L57.76 326.037Z" fill="#3F3232"/>
<path d="M63.2728 322.777L70.0508 335.925L73.9003 333.94L67.1223 320.792L63.2728 322.777Z" fill="#3F3232"/>
<path d="M86.2543 337.605L86.0003 333.112L46.6223 333.725L36.8038 333.007L36.506 336.437C36.4013 337.642 37.3065 338.7 38.5148 338.785L46.6715 339.345L85.19 338.75C85.8055 338.74 86.289 338.22 86.2543 337.605Z" fill="#C7CBCF"/>
<path d="M137.71 338.82C137.759 333.145 136.983 329.695 132.03 327.375C127.077 325.058 122.411 320.6 113.842 316.778C113.842 316.778 112.714 316.568 110.878 317.555C109.311 318.4 107.299 320.468 104.267 320.443C100.974 320.413 98.0395 319.718 96.2165 318.765C95.4288 316.618 93.6815 316.603 93.6815 316.603C93.6815 316.603 91.2213 321.265 91.1805 325.95C91.1395 330.633 91.144 338.413 91.144 338.413L137.71 338.82Z" fill="#DCE1E6"/>
<path d="M117.661 323.039C117.518 323.558 118.008 324.029 118.52 323.864L121.803 322.81L121.804 325.763C121.804 326.275 122.351 326.601 122.802 326.358L125.029 325.156V327.37C125.029 327.744 125.332 328.047 125.706 328.047C126.08 328.047 126.383 327.744 126.383 327.37V324.023C126.383 323.51 125.836 323.184 125.385 323.427L123.157 324.629L123.157 321.882C123.157 321.424 122.71 321.098 122.273 321.238L119.3 322.193L120.041 319.521C120.193 318.971 119.639 318.491 119.116 318.72L115.513 320.303C115.533 319.864 115.572 319.508 115.643 319.12C115.72 318.705 115.829 318.334 115.974 318.008C116.127 317.667 115.973 317.267 115.632 317.115C115.291 316.962 114.891 317.116 114.738 317.457C114.546 317.888 114.407 318.36 114.313 318.874C114.173 319.631 114.142 320.251 114.142 321.348C114.142 321.836 114.644 322.164 115.091 321.967L118.356 320.533L117.661 323.039Z" fill="white"/>
<path d="M92.6413 319.07C93.5978 320.362 97.047 321.137 98.3448 321.327C99.6423 321.517 101.033 321.35 100.477 323.487C100.083 324.997 96.3018 324.387 94.8233 324.375C93.6213 324.365 91.9355 327.98 91.3078 326.752C91.3078 322.55 92.1038 320.275 92.6413 319.07Z" fill="#3F3232" fill-opacity="0.5"/>
<path d="M135.836 327.81C134.316 327.262 132.707 326.847 129.621 326.15L130.932 329.91L130.895 334.192L139.677 334.267C140.036 334.272 140.676 333.795 140.37 331.865C139.988 329.452 137.995 328.59 135.836 327.81Z" fill="#EAF4FB"/>
<path d="M121.295 327.025L117.204 334.79L121.036 336.809L125.127 329.044L121.295 327.025Z" fill="#3F3232"/>
<path d="M115.658 324.088L110.756 333.418L114.59 335.432L119.492 326.102L115.658 324.088Z" fill="#3F3232"/>
<path d="M110.13 320.855L103.352 334.005L107.201 335.99L113.979 322.84L110.13 320.855Z" fill="#3F3232"/>
<path d="M90.9978 337.67L91.2518 333.177L130.63 333.787L140.448 333.07L140.746 336.5C140.851 337.707 139.946 338.765 138.737 338.847L130.581 339.41L92.062 338.812C91.4465 338.802 90.963 338.282 90.9978 337.67Z" fill="#C7CBCF"/>
<path fill-rule="evenodd" clip-rule="evenodd" d="M130.126 89C130.126 89 120.628 118.844 130.126 145H47.126V89H130.126Z" fill="#3F3232"/>
<path d="M112 151.842C116.648 160.081 120.405 172.83 122.361 186.266C124.084 198.109 124.067 208.819 122.724 212.723L122.683 212.839C120.937 217.64 123.414 222.947 128.215 224.693C133.016 226.439 138.323 223.962 140.069 219.161C142.773 211.725 142.817 198.37 140.668 183.602C138.41 168.093 134.038 153.255 128.113 142.752C125.603 138.303 119.962 136.731 115.512 139.24C111.063 141.75 109.49 147.392 112 151.842Z" fill="#EBBAAA"/>
<path d="M107.876 159.75C99.376 182.25 47.876 192.75 26.876 150.75" stroke="#96CCE0" stroke-width="25" stroke-linecap="round" stroke-linejoin="bevel"/>
<path d="M21.2023 129.24L18.2381 121.746C17.4764 119.82 15.2977 118.876 13.3718 119.638C11.4459 120.4 10.5021 122.578 11.2639 124.504L17.8889 141.254L24.9063 141.14L30.9063 124.39C31.6048 122.44 30.5904 120.293 28.6406 119.595C26.6908 118.896 24.5441 119.911 23.8457 121.86L21.2023 129.24Z" fill="#F6DDD6"/>
<path d="M22.501 148.5C27.6787 148.5 31.876 145.142 31.876 141C31.876 136.858 27.6787 133.5 22.501 133.5C17.3233 133.5 13.126 136.858 13.126 141C13.126 145.142 17.3233 148.5 22.501 148.5Z" fill="#F6DDD6"/>
<rect x="89.126" y="136.5" width="42.5" height="80" rx="21.25" transform="rotate(-15 89.126 136.5)" fill="#96CCE0"/>
<path d="M134.001 171.25L115.876 176.75L135.626 174.875L134.001 171.25Z" fill="#7EBFD7"/>
<path d="M130.626 179.25L116.626 178.5L128.751 182.375L130.626 179.25Z" fill="#7EBFD7"/>
<rect x="47.376" y="125.5" width="42.5" height="58.75" rx="21.25" transform="rotate(15 47.376 125.5)" fill="#96CCE0"/>
<path d="M60.725 153.654L42.2357 149.541L60.3597 157.61L60.725 153.654Z" fill="#7EBFD7"/>
<path d="M53.8555 158.964L42.0295 151.433L50.6873 160.765L53.8555 158.964Z" fill="#7EBFD7"/>
<path d="M145.626 211.75C147.226 207.15 147.626 191 145.626 183.5L117.126 182.25C120.176 191.75 120.676 204.25 122.926 216.5L122.965 216.502C128.251 216.754 143.631 217.486 145.626 211.75Z" fill="#96CCE0"/>
<path d="M52.9182 142.507C51.9265 135.707 56.61 129.382 63.4032 128.346L88.626 124.5L113.849 128.346C120.642 129.382 125.326 135.707 124.334 142.507L121.126 164.5L125.14 198.624C125.665 203.082 122.181 207 117.692 207H59.56C55.0705 207 51.587 203.082 52.1115 198.624L56.126 164.5L52.9182 142.507Z" fill="#BEE1EE"/>
<path d="M79.376 125.978C79.376 120.743 83.6415 116.5 88.876 116.5C94.1105 116.5 98.376 120.743 98.376 125.978V144.044C98.376 145.969 97.79 147.848 96.696 149.432L88.876 160.75L81.056 149.432C79.962 147.848 79.376 145.969 79.376 144.044V125.978Z" fill="#EBBAAA"/>
<path d="M88.626 151.5C98.291 151.5 106.126 143.665 106.126 134C106.126 124.335 98.291 116.5 88.626 116.5C78.961 116.5 71.126 124.335 71.126 134C71.126 143.665 78.961 151.5 88.626 151.5Z" fill="#BEE1EE"/>
<rect x="78.876" y="95.5" width="19" height="48.5" rx="9.47775" fill="#EBBAAA"/>
<path d="M126.126 90.75C133.03 90.75 138.626 85.1535 138.626 78.25C138.626 71.3465 133.03 65.75 126.126 65.75C119.223 65.75 113.626 71.3465 113.626 78.25C113.626 85.1535 119.223 90.75 126.126 90.75Z" fill="#E4C1C1"/>
<rect x="49.876" y="15.25" width="77.5" height="110" rx="38.75" fill="#F6DDD6"/>
<path d="M90.9275 7.8993C99.91 3.7438 122.853 17.9202 131.137 34.9322C136.883 46.7323 141.427 60.7897 134.412 68.8797C134.412 68.8797 129.977 67.925 127.376 66.375C118.126 60.8625 120.09 51.7497 110.59 43.7497C101.09 35.7497 92.9925 33.4447 90.51 31.6823C88.0275 29.9173 87.735 14.6998 90.9275 7.8993Z" fill="#271E1E"/>
<path d="M63.626 96C67.7681 96 71.126 92.6421 71.126 88.5C71.126 84.3579 67.7681 81 63.626 81C59.4839 81 56.126 84.3579 56.126 88.5C56.126 92.6421 59.4839 96 63.626 96Z" fill="#F2CACA"/>
<path d="M63.2172 60.145C66.2922 46.5525 81.6022 33.545 88.8498 31.195C91.8398 30.2275 93.8398 7 88.8498 7C76.2197 7 56.1847 19.775 49.0347 31.195C37.2947 49.95 33.1424 70.975 39.3922 118.298C40.9197 129.878 37.1897 134.912 34.5899 137.68C41.7597 145.082 68.6297 147.75 68.6297 147.75C68.6297 147.75 73.1522 142.095 70.0747 130.882C64.5122 110.635 60.1447 73.74 63.2172 60.145Z" fill="#3F3232"/>
<path d="M51.6155 34.7685L51.5098 34.9566L51.3998 35.1578L51.3044 35.3354C51.2549 35.4282 51.2028 35.5269 51.1481 35.6315L51.0013 35.915L50.8504 36.2113C50.57 36.7665 50.2694 37.3866 49.9527 38.0697C48.7231 40.7221 47.495 43.7885 46.3497 47.2323C42.6466 58.3673 40.6386 70.7737 41.2158 84.0489C41.2428 84.6696 41.7679 85.1509 42.3886 85.1239C43.0094 85.0969 43.4907 84.5719 43.4637 83.9511C42.8992 70.9681 44.8636 58.8308 48.4848 47.9423C49.6025 44.5815 50.799 41.5936 51.994 39.0161L52.159 38.6627C52.513 37.9107 52.8429 37.2465 53.1424 36.6734L53.2888 36.3958L53.4193 36.1538L53.564 35.8935C53.8747 35.3554 53.6903 34.6674 53.1522 34.3567C52.6142 34.0461 51.9261 34.2304 51.6155 34.7685Z" fill="#615252"/>
<path d="M46.2844 67.0892L46.259 67.357L46.2136 67.8764L46.1938 68.1158C46.1311 68.886 46.0684 69.7667 46.0095 70.748L45.9969 70.9598C45.3884 81.3316 45.6366 92.7438 47.3622 103.518C47.5221 104.517 47.694 105.501 47.8782 106.471C47.9942 107.082 48.583 107.482 49.1934 107.366C49.8038 107.251 50.2047 106.662 50.0887 106.051C49.9086 105.103 49.7404 104.14 49.5839 103.163C47.8881 92.5747 47.6433 81.3143 48.243 71.0916L48.2805 70.4758L48.323 69.8244C48.3517 69.4018 48.3808 69.0029 48.41 68.6285L48.4556 68.0654L48.523 67.3153C48.5855 66.6971 48.1349 66.1453 47.5168 66.0829C46.8986 66.0205 46.3469 66.471 46.2844 67.0892Z" fill="#615252"/>
<path d="M67.376 72.25H74.876C75.5664 72.25 76.126 71.6904 76.126 71C76.126 70.3096 75.5664 69.75 74.876 69.75H67.376C66.6857 69.75 66.126 70.3096 66.126 71C66.126 71.6904 66.6857 72.25 67.376 72.25Z" fill="black"/>
<path d="M102.376 72.25H109.876C110.566 72.25 111.126 71.6904 111.126 71C111.126 70.3096 110.566 69.75 109.876 69.75H102.376C101.686 69.75 101.126 70.3096 101.126 71C101.126 71.6904 101.686 72.25 102.376 72.25Z" fill="black"/>
<path d="M100.376 70.75V78C100.376 79.6569 101.719 81 103.376 81C105.033 81 106.376 79.6569 106.376 78V70.75C106.376 69.0931 105.033 67.75 103.376 67.75C101.719 67.75 100.376 69.0931 100.376 70.75Z" fill="black"/>
<path d="M70.8767 70.75V78C70.8767 79.6569 72.2199 81 73.8767 81C75.5336 81 76.8767 79.6569 76.8767 78V70.75C76.8767 69.0931 75.5336 67.75 73.8767 67.75C72.2199 67.75 70.8767 69.0931 70.8767 70.75Z" fill="black"/>
<path d="M98.0471 61.498L112.297 62.248C113.124 62.2915 113.83 61.6562 113.874 60.8289C113.917 60.0016 113.282 59.2957 112.455 59.2521L98.2048 58.5021C97.3775 58.4586 96.6716 59.0939 96.6281 59.9212C96.5845 60.7485 97.2199 61.4544 98.0471 61.498Z" fill="#271E1E"/>
<path d="M79.0471 58.5021L64.7971 59.2521C63.9699 59.2957 63.3345 60.0016 63.3781 60.8289C63.4216 61.6562 64.1275 62.2915 64.9548 62.248L79.2048 61.498C80.0321 61.4544 80.6675 60.7485 80.6239 59.9212C80.5804 59.0939 79.8744 58.4586 79.0471 58.5021Z" fill="#271E1E"/>
<path d="M113.626 96C117.768 96 121.126 92.6421 121.126 88.5C121.126 84.3579 117.768 81 113.626 81C109.484 81 106.126 84.3579 106.126 88.5C106.126 92.6421 109.484 96 113.626 96Z" fill="#F2CACA"/>
<path d="M86.8579 75.8213C85.2188 78.2799 84.001 81.7812 84.001 84.6563C84.001 88.8247 86.4902 91.625 91.126 91.625V87.375C88.9562 87.375 88.251 86.5816 88.251 84.6563C88.251 82.6876 89.1923 79.9815 90.3941 78.1788L86.8579 75.8213Z" fill="#EBBAAA"/>
<path fill-rule="evenodd" clip-rule="evenodd" d="M74.876 94.0049V98.9549C74.876 106.575 81.0333 112.75 88.6258 112.75C96.2205 112.75 102.375 106.575 102.375 98.9549V94.0049H74.876Z" fill="#393939"/>
<mask id="mask0_1_227" style="mask-type:luminance" maskUnits="userSpaceOnUse" x="74" y="94" width="29" height="19">
<path fill-rule="evenodd" clip-rule="evenodd" d="M74.8985 94C74.8835 94.2553 74.876 94.5128 74.876 94.7703V99.5918C74.876 106.86 81.0333 112.75 88.6258 112.75C96.2205 112.75 102.375 106.86 102.375 99.5918V94.7703C102.375 94.5128 102.368 94.2553 102.353 94H74.8985Z" fill="white"/>
</mask>
<g mask="url(#mask0_1_227)">
<path d="M88.6255 117.173C93.205 117.173 96.9175 115.146 96.9175 112.645C96.9175 110.144 93.205 108.117 88.6255 108.117C84.046 108.117 80.3335 110.144 80.3335 112.645C80.3335 115.146 84.046 117.173 88.6255 117.173Z" fill="#FF6C6C"/>
</g>
<rect x="74.876" y="94.0049" width="27.5" height="5.68665" fill="white"/>
</svg>
