<svg width="163" height="347" viewBox="0 0 163 347" fill="none" xmlns="http://www.w3.org/2000/svg">
<rect x="66.7875" y="91.1684" width="56.1015" height="52.1965" fill="#503216"/>
<path d="M95.2191 225.913C98.2653 240.645 97.7576 295.253 95.2191 313.032" stroke="#F6DDD6" stroke-width="15.0567" stroke-linecap="round" stroke-linejoin="bevel"/>
<path d="M63.8093 224.389C60.7631 239.121 61.2707 293.73 63.8093 311.509" stroke="#F6DDD6" stroke-width="15.0567" stroke-linecap="round" stroke-linejoin="bevel"/>
<path d="M30.2328 171.304C30.2328 188.322 21.602 200.514 17.5402 211.689" stroke="#FBE8E3" stroke-width="18.5699" stroke-linecap="round" stroke-linejoin="bevel"/>
<path d="M24.787 224.305L33.6718 196.874H89.7733L132.674 210.082V227.861L92.0579 233.449H47.8875L24.787 224.305Z" fill="#CEAF9A"/>
<path d="M101.312 239.629L56.6337 234.549L46.9873 210.165L107.404 212.705L101.312 239.629Z" fill="#6A8AB9"/>
<path d="M76.6879 216.007H118.066L106.118 299.572H84.2991V259.636L76.6879 216.007Z" fill="#6A8AB9"/>
<path d="M39.8792 216.769H76.9418L72.8802 265.137V298.302L53.0798 295.077L39.8792 216.769Z" fill="#6A8AB9"/>
<path d="M18.6445 172.037C19.3554 170.232 21.3952 169.344 23.2006 170.055L38.1587 175.945C39.9641 176.656 40.8514 178.696 40.1405 180.501L37.7832 186.488C37.0723 188.293 35.0325 189.18 33.2271 188.47L18.269 182.58C16.4636 181.869 15.5763 179.829 16.2871 178.024L18.6445 172.037Z" fill="#E1C6B3"/>
<path d="M38.8639 194.164H119.589L118.32 217.29H39.3716L38.8639 194.164Z" fill="#5C7CAC"/>
<path d="M53.3618 198.395L55.1388 216.937C55.2313 217.903 56.0893 218.61 57.055 218.518C58.0207 218.425 58.7286 217.567 58.636 216.602L56.8591 198.06C56.7665 197.094 55.9086 196.387 54.9429 196.479C53.9771 196.572 53.2693 197.43 53.3618 198.395Z" fill="#51709D"/>
<path d="M101.058 198.228L99.2806 216.769" stroke="#51709D" stroke-width="3.51323" stroke-linecap="round"/>
<path d="M31.7162 129.744C35.2982 118.134 48.6056 112.71 59.2809 118.51C69.0167 123.799 72.291 136.197 66.4362 145.603L49.4109 172.955C45.4841 179.263 38.0062 182.407 30.7525 180.798C17.8288 177.931 12.6266 162.312 21.2504 152.269L24.0196 149.044C25.8129 146.955 27.1575 144.519 27.9693 141.888L31.7162 129.744Z" fill="#E1C6B3"/>
<rect x="46.9873" y="117.203" width="58.64" height="82.5483" rx="28.1058" fill="#EFD6C5"/>
<path d="M63.2339 199.443C52.0642 199.443 39.7643 220.495 24.787 224.559C21.7408 208.079 30.6707 194.299 33.2791 181.718C35.4543 171.226 38.3562 161.81 38.3562 151.184V129.341C44.787 126.123 57.9537 116.594 57.1414 124.315C56.1258 133.967 55.6181 151.184 77.9572 151.184C100.296 151.184 87.595 129.341 102.835 129.341C124.158 129.341 135.467 216.939 133.436 226.083C131.811 233.398 125.682 218.856 122.128 214.737L112.481 208.079L98.0116 199.443C88.5343 199.782 74.4033 199.443 63.2339 199.443Z" fill="#EFD4C5"/>
<path fill-rule="evenodd" clip-rule="evenodd" d="M57.6155 192.196C53.5964 184.006 51.1658 174.448 51.1658 165.095H54.6791C54.6791 173.884 56.9768 182.919 60.7695 190.648C62.5632 194.303 64.5985 197.394 66.4065 199.475H61.9327C60.438 197.417 58.9646 194.945 57.6155 192.196ZM100.074 199.475C100.885 198.374 101.603 197.147 102.219 195.816C104.158 191.628 104.866 186.793 104.054 183.111L100.623 183.869C101.259 186.75 100.664 190.813 99.031 194.341C98.058 196.442 96.8044 198.193 95.3552 199.475H100.074ZM81.4952 199.475C82.0801 198.135 82.329 196.794 82.3778 195.225C82.3887 194.876 82.3908 194.605 82.3908 193.999C82.3908 191.009 82.6617 189.586 84.0598 187.161L81.0162 185.407C80.0383 187.103 79.447 188.675 79.1465 190.254C78.9221 191.432 78.8775 192.279 78.8775 193.999C78.8775 194.569 78.8756 194.816 78.8663 195.115C78.8135 196.812 78.4847 197.999 77.4858 199.475H81.4952Z" fill="#DDC1AD"/>
<path d="M119.22 232.687C131.838 232.687 142.067 222.453 142.067 209.828C142.067 197.203 131.838 186.968 119.22 186.968C106.602 186.968 96.3734 197.203 96.3734 209.828C96.3734 222.453 106.602 232.687 119.22 232.687Z" fill="#6C4D4B"/>
<path fill-rule="evenodd" clip-rule="evenodd" d="M124.191 232.098C135.695 232.098 145.02 222.772 145.02 211.269C145.02 199.766 135.695 190.441 124.191 190.441C112.688 190.441 103.363 199.766 103.363 211.269C103.363 222.772 112.688 232.098 124.191 232.098Z" fill="#8F5B47"/>
<path fill-rule="evenodd" clip-rule="evenodd" d="M124.043 234.465C136.661 234.465 146.89 224.231 146.89 211.606C146.89 198.981 136.661 188.746 124.043 188.746C111.425 188.746 101.197 198.981 101.197 211.606C101.197 224.231 111.425 234.465 124.043 234.465ZM124.043 191.255C135.275 191.255 144.381 200.366 144.381 211.606C144.381 222.845 135.275 231.956 124.043 231.956C112.812 231.956 103.706 222.845 103.706 211.606C103.706 200.366 112.812 191.255 124.043 191.255Z" fill="#E3A490"/>
<path d="M77.2938 154.648C67.9222 151.962 62.5025 142.188 65.1884 132.816V132.816C67.8744 123.445 77.6489 118.025 87.0204 120.711L109.456 127.141C118.827 129.827 124.247 139.602 121.561 148.973V148.973C118.875 158.345 109.101 163.764 99.7293 161.079L77.2938 154.648Z" fill="#EFD6C5"/>
<path d="M101.802 204.911L99.2634 138.364C99.2132 137.049 98.1059 136.023 96.7902 136.073C95.4745 136.123 94.4486 137.23 94.4988 138.546L97.0374 205.093C97.0876 206.408 98.1949 207.434 99.5106 207.384C100.826 207.334 101.852 206.227 101.802 204.911Z" fill="#E3A490"/>
<path d="M96.3566 207.498L101.433 208.514L101.975 205.807L96.8982 204.791L96.3566 207.498Z" fill="#E3A490"/>
<path d="M114.004 145.397C125.174 165.208 133.297 203.816 129.235 214.991" stroke="#FBE8E3" stroke-width="18.5699" stroke-linecap="round" stroke-linejoin="bevel"/>
<path d="M95.5428 146.702C92.4554 138.742 95.7618 129.727 103.263 125.651C112.572 120.594 124.184 125.215 127.474 135.286L134.215 155.923C136.09 161.665 134.4 167.973 129.906 172.008C127.312 174.337 123.999 175.706 120.519 175.888L119.74 175.929C112.218 176.321 105.295 171.841 102.57 164.817L95.5428 146.702Z" fill="#E1C6B3"/>
<path d="M50.7949 291.697H74.1493L73.3877 302.621H52.6989L50.7949 291.697Z" fill="#5C7CAC"/>
<path d="M83.542 291.697H108.166L105.881 302.621H84.0497L83.542 291.697Z" fill="#5C7CAC"/>
<mask id="mask0_1_1788" style="mask-type:luminance" maskUnits="userSpaceOnUse" x="71" y="198" width="15" height="21">
<rect x="71.1031" y="198.99" width="14.7235" height="19.0496" rx="1.50567" fill="white"/>
</mask>
<g mask="url(#mask0_1_1788)">
<path fill-rule="evenodd" clip-rule="evenodd" d="M84.3209 195.476H72.6088C69.8369 195.476 67.5898 197.723 67.5898 200.495V216.534C67.5898 219.305 69.8369 221.552 72.6088 221.552H84.3209C87.0928 221.552 89.3398 219.305 89.3398 216.534V200.495C89.3398 197.723 87.0928 195.476 84.3209 195.476ZM74.6164 214.526V202.503H82.3133V214.526H74.6164Z" fill="#51709D"/>
</g>
<path d="M112.425 174.992C111.793 173.157 112.769 171.158 114.603 170.526L129.804 165.295C131.638 164.663 133.638 165.639 134.269 167.473L136.363 173.558C136.994 175.392 136.019 177.391 134.184 178.023L118.984 183.254C117.149 183.886 115.15 182.911 114.519 181.076L112.425 174.992Z" fill="#E1C6B3"/>
<path d="M87.8653 308.693L103.348 308.962L101.455 322.902L85.845 322.628L87.8653 308.693Z" fill="white"/>
<path d="M87.92 309.117C87.9609 308.872 88.1753 308.693 88.4237 308.698L103.048 308.952C103.344 308.959 103.572 309.218 103.538 309.514L103.359 311.047C103.329 311.303 103.109 311.494 102.851 311.489L88.1497 311.233C87.843 311.228 87.6129 310.952 87.6636 310.648L87.92 309.117Z" fill="#FFA970"/>
<path d="M87.5905 313.424C87.6317 313.18 87.846 313.002 88.0944 313.007L102.719 313.261C103.015 313.266 103.243 313.527 103.208 313.823L103.029 315.356C102.999 315.612 102.78 315.803 102.522 315.798L87.8204 315.542C87.5137 315.537 87.2836 315.261 87.3343 314.957L87.5905 313.424Z" fill="#FFA970"/>
<path fill-rule="evenodd" clip-rule="evenodd" d="M94.9736 318.46C100.106 318.551 102.717 315.996 102.771 312.944C102.771 312.944 102.771 312.944 102.771 312.942L105.42 313.057L115.433 322.139L122.867 325.278C124.477 327.07 125.465 329.334 125.683 331.735L125.777 332.762L83.1623 330.957L83.8474 320.807L86.1453 312.217L88.2078 311.772C88.1097 312.069 88.0548 312.375 88.0492 312.688C87.996 315.74 91.3188 318.397 94.9736 318.46Z" fill="#4CB4D4"/>
<path d="M95.659 320.377C88.0402 321.04 88.1627 315.885 85.4745 314.739C84.1701 316.749 83.3091 322.448 83.267 324.862C90.1826 328.666 101.172 324.538 121.008 329.966C122.202 329.394 122.014 327.64 120.726 327.334L112.456 325.371C110.437 324.658 103.277 319.715 95.659 320.377Z" fill="#FFC9C6"/>
<path d="M82.1389 332.267C82.766 330.285 84.6218 328.95 86.7011 328.985L99.8181 329.216C102.413 329.261 104.479 331.401 104.434 333.996C104.389 336.591 102.249 338.656 99.654 338.611L86.5373 338.383C83.3952 338.327 81.1914 335.263 82.1389 332.267Z" fill="#D7E3EE"/>
<path d="M97.8374 333.753C97.8643 332.211 99.1368 330.982 100.68 331.009L116.413 331.283C117.956 331.31 119.185 332.583 119.158 334.125V334.125C119.131 335.668 117.858 336.897 116.316 336.87L100.582 336.596C99.0393 336.569 97.8105 335.296 97.8374 333.753V333.753Z" fill="#D7E3EE"/>
<path d="M107.975 334.812C108.01 332.782 109.684 331.166 111.714 331.201L123.615 331.409C125.668 331.444 127.175 333.349 126.739 335.354C126.427 336.787 125.196 337.836 123.732 337.913L111.845 338.546C109.716 338.659 107.938 336.942 107.975 334.812Z" fill="#D7E3EE"/>
<path d="M87.9387 333.581C87.9558 332.599 88.7656 331.817 89.7474 331.834L98.8827 331.993C99.8645 332.011 100.647 332.82 100.629 333.802V333.802C100.612 334.784 99.8025 335.566 98.8207 335.549L89.6854 335.389C88.7036 335.372 87.9216 334.563 87.9387 333.581V333.581Z" fill="#B6C2D3"/>
<path d="M111.11 335.517C111.088 334.886 111.581 334.357 112.212 334.335L115.255 334.229C115.886 334.207 116.415 334.7 116.437 335.331V335.331C116.459 335.962 115.966 336.491 115.335 336.513L112.292 336.62C111.661 336.642 111.132 336.148 111.11 335.517V335.517Z" fill="#B6C2D3"/>
<path d="M117.674 335.266C117.652 334.636 118.146 334.106 118.777 334.084L119.854 334.047C120.485 334.025 121.014 334.518 121.036 335.149V335.149C121.058 335.78 120.565 336.309 119.934 336.331L118.856 336.369C118.226 336.391 117.696 335.897 117.674 335.266V335.266Z" fill="#B6C2D3"/>
<path d="M81.5935 333.47C81.6106 332.488 82.4204 331.706 83.4022 331.724L84.4155 331.741C85.3973 331.758 86.1793 332.568 86.1621 333.55V333.55C86.145 334.532 85.3352 335.314 84.3534 335.297L83.3402 335.279C82.3584 335.262 81.5764 334.452 81.5935 333.47V333.47Z" fill="#B6C2D3"/>
<path d="M71.083 308.42L55.6074 308.959L57.7437 322.864L73.346 322.32L71.083 308.42Z" fill="white"/>
<path d="M71.2898 308.841C71.2444 308.596 71.0271 308.422 70.7789 308.43L56.1612 308.942C55.8646 308.952 55.6417 309.215 55.6814 309.509L55.8872 311.04C55.9216 311.296 56.1441 311.484 56.4021 311.474L71.0968 310.962C71.4035 310.949 71.6288 310.668 71.5729 310.367L71.2898 308.841Z" fill="#FFA970"/>
<path d="M71.4398 313.138C71.3944 312.894 71.1771 312.719 70.9289 312.729L56.3112 313.238C56.0149 313.248 55.7918 313.514 55.8314 313.808L56.0372 315.336C56.0716 315.592 56.2942 315.78 56.5521 315.773L71.2468 315.258C71.5535 315.248 71.7788 314.967 71.7229 314.666L71.4398 313.138Z" fill="#FFA970"/>
<path fill-rule="evenodd" clip-rule="evenodd" d="M64.1458 318.302C59.016 318.48 56.3605 315.973 56.2541 312.924C56.2541 312.922 56.2541 312.922 56.2538 312.919L53.6071 313.082L43.7539 322.337L36.376 325.607C34.7968 327.426 33.8483 329.708 33.6721 332.109L33.5968 333.138L76.1732 330.588L75.3115 320.453L72.864 311.903L70.7939 311.496C70.8973 311.793 70.9575 312.096 70.9686 312.41C71.075 315.459 67.7991 318.174 64.1458 318.302Z" fill="#4CB4D4"/>
<path d="M63.4941 320.232C71.1231 320.761 70.9108 315.609 73.5784 314.415C74.9177 316.4 75.8783 322.086 75.9624 324.498C69.1141 328.423 58.0546 324.488 38.3163 330.26C37.1123 329.71 37.2696 327.951 38.5527 327.622L46.7871 325.517C48.7931 324.769 55.8651 319.702 63.4941 320.232Z" fill="#FFC9C6"/>
<path d="M77.2194 331.883C76.5579 329.911 74.679 328.608 72.6004 328.681L59.4897 329.138C56.8959 329.231 54.867 331.406 54.9574 333.999C55.048 336.593 57.2239 338.621 59.8175 338.531L72.9284 338.074C76.0688 337.964 78.2189 334.862 77.2194 331.883Z" fill="#D7E3EE"/>
<path d="M61.5491 333.642C61.4953 332.1 60.2015 330.893 58.6594 330.947L42.9332 331.496C41.3911 331.55 40.1846 332.844 40.2384 334.386V334.386C40.2923 335.928 41.586 337.134 43.1281 337.081L58.8543 336.532C60.3964 336.478 61.6029 335.184 61.5491 333.642V333.642Z" fill="#D7E3EE"/>
<path d="M51.4321 334.877C51.3613 332.849 49.6594 331.261 47.6307 331.334L35.7341 331.748C33.6823 331.82 32.2085 333.75 32.6801 335.748C33.0166 337.176 34.266 338.202 35.7313 338.252L47.6275 338.679C49.758 338.754 51.5064 337.008 51.4321 334.877Z" fill="#D7E3EE"/>
<path d="M71.4434 333.296C71.4091 332.315 70.5858 331.547 69.6045 331.582L60.4733 331.9C59.492 331.935 58.7242 332.758 58.7584 333.739V333.739C58.7927 334.721 59.616 335.488 60.5973 335.454L69.7285 335.135C70.7098 335.101 71.4776 334.278 71.4434 333.296V333.296Z" fill="#B6C2D3"/>
<path d="M48.3095 335.638C48.3205 335.007 47.8178 334.487 47.1866 334.476L44.1421 334.422C43.511 334.411 42.9904 334.914 42.9794 335.545V335.545C42.9684 336.176 43.4711 336.697 44.1022 336.708L47.1467 336.761C47.7779 336.772 48.2985 336.269 48.3095 335.638V335.638Z" fill="#B6C2D3"/>
<path d="M41.7417 335.5C41.7527 334.869 41.2499 334.349 40.6188 334.338L39.5411 334.319C38.9099 334.308 38.3893 334.81 38.3783 335.442V335.442C38.3673 336.073 38.87 336.593 39.5012 336.604L40.5789 336.623C41.2101 336.634 41.7306 336.131 41.7417 335.5V335.5Z" fill="#B6C2D3"/>
<path d="M77.7858 333.075C77.7516 332.094 76.9283 331.326 75.9469 331.361L74.9341 331.396C73.9528 331.43 73.185 332.254 73.2193 333.235V333.235C73.2535 334.216 74.0768 334.984 75.0582 334.95L76.071 334.914C77.0523 334.88 77.8201 334.057 77.7858 333.075V333.075Z" fill="#B6C2D3"/>
<path d="M76.5609 146.667C86.1645 146.667 93.9498 138.536 93.9498 128.506C93.9498 118.476 86.1645 110.345 76.5609 110.345C66.9573 110.345 59.172 118.476 59.172 128.506C59.172 138.536 66.9573 146.667 76.5609 146.667Z" fill="#DFC5B2"/>
<rect x="66.2801" y="111.361" width="19.6245" height="29.4531" rx="9.81216" fill="#EED1C9"/>
<path d="M23.2728 108.719C21.8649 98.6963 28.8488 89.4298 38.8718 88.022L78.1519 82.5045C88.1748 81.0967 97.4412 88.0806 98.8491 98.1035V98.1035C100.257 108.126 93.2731 117.393 83.2502 118.801L43.9701 124.318C33.9472 125.726 24.6807 118.742 23.2728 108.719V108.719Z" fill="#503216"/>
<path d="M36.424 92.3851C44.6129 92.3851 51.2513 86.0848 51.2513 78.313C51.2513 70.5412 44.6129 64.2409 36.424 64.2409C28.235 64.2409 21.5966 70.5412 21.5966 78.313C21.5966 86.0848 28.235 92.3851 36.424 92.3851Z" fill="#EBBAAA"/>
<path d="M111.118 60.3308C106.492 41.0296 86.5421 31.1122 78.8087 28.7419C75.2781 22.1388 75.7825 8.4566 81.3304 7.409C89.4001 5.88521 111.081 15.5358 120.664 34.3292C132.711 57.9566 131.056 116.902 128.148 137.729C124.394 129.726 120.664 122.382 108.621 123.587C114.705 96.667 111.118 77.0922 111.118 77.0922C111.118 77.0922 113.675 70.9972 111.118 60.3308Z" fill="#62360D"/>
<path d="M110.489 92.5316C118.678 92.5316 125.317 86.2313 125.317 78.4595C125.317 70.6877 118.678 64.3875 110.489 64.3875C102.3 64.3875 95.6618 70.6877 95.6618 78.4595C95.6618 86.2313 102.3 92.5316 110.489 92.5316Z" fill="#EBBAAA"/>
<path d="M35.4458 51.6002C35.4458 31.1765 52.9486 14.6199 74.5393 14.6199C96.1298 14.6199 113.633 31.1765 113.633 51.6002V88.3814C110.48 112.239 91.5638 125.362 74.5393 125.362C57.5148 125.362 37.7578 109.456 35.4458 88.3814V51.6002Z" fill="#F6DDD6"/>
<path fill-rule="evenodd" clip-rule="evenodd" d="M64.1313 96.7853V100.812C64.1313 106.997 69.1452 112.011 75.3305 112.011C81.5156 112.011 86.5298 106.997 86.5298 100.812V96.7853H64.1313Z" fill="#393939"/>
<mask id="mask1_1_1788" style="mask-type:luminance" maskUnits="userSpaceOnUse" x="64" y="96" width="23" height="17">
<path fill-rule="evenodd" clip-rule="evenodd" d="M64.1313 96.7853V100.812C64.1313 106.997 69.1452 112.011 75.3305 112.011C81.5156 112.011 86.5298 106.997 86.5298 100.812V96.7853H64.1313Z" fill="white"/>
</mask>
<g mask="url(#mask1_1_1788)">
<path d="M75.2567 115.408C79.5532 115.408 83.0361 113.498 83.0361 111.142C83.0361 108.786 79.5532 106.876 75.2567 106.876C70.9603 106.876 67.4774 108.786 67.4774 111.142C67.4774 113.498 70.9603 115.408 75.2567 115.408Z" fill="#FF6C6C"/>
<rect x="63.7132" y="96.3363" width="24.3419" height="5.0189" fill="white"/>
</g>
<path d="M76.4038 7.90829C85.5245 3.71184 109.103 14.2675 119.772 35.207C119.772 35.207 125.556 47.84 126.973 56.5711C128.371 65.1853 123.787 69.5422 123.787 69.5422L113.633 64.0573C113.633 64.0573 106.017 52.1914 96.3704 44.1125C86.724 36.0336 78.5002 33.7053 75.98 31.9249C73.46 30.1446 73.1634 14.7753 76.4038 7.90829Z" fill="#62360D"/>
<path d="M49.9274 63.4441L64.3049 62.816C65.1357 62.7797 65.7797 62.0768 65.7434 61.246C65.7072 60.4152 65.0043 59.7712 64.1735 59.8075L49.796 60.4356C48.9652 60.4719 48.3212 61.1748 48.3574 62.0056C48.3937 62.8363 49.0966 63.4804 49.9274 63.4441Z" fill="#62360D"/>
<path d="M49.3959 98.1599C53.8122 98.1599 57.3923 94.5778 57.3923 90.1591C57.3923 85.7404 53.8122 82.1583 49.3959 82.1583C44.9797 82.1583 41.3996 85.7404 41.3996 90.1591C41.3996 94.5778 44.9797 98.1599 49.3959 98.1599Z" fill="#F2CACA"/>
<path d="M48.2687 60.6696C51.3892 46.9416 66.9349 33.8069 74.2959 31.4342C77.3316 30.4557 79.3622 7 74.2959 7C61.4705 7 41.1267 19.9015 33.8668 31.4342C21.9448 50.3731 17.7289 71.6057 24.0749 119.394C25.6277 131.089 21.8397 136.173 19.1992 138.969C26.4799 146.444 53.7636 149.138 53.7636 149.138C53.7636 149.138 58.357 143.427 55.2297 132.106C49.5816 111.658 45.1484 74.3975 48.2687 60.6696Z" fill="#7D430D"/>
<path d="M37.7452 32.6447C34.9223 36.3166 31.6017 42.9794 29.0505 50.333C26.0378 59.0172 24.2849 67.9683 24.2849 76.0799C24.2849 76.7728 24.8467 77.3346 25.5396 77.3346C26.2326 77.3346 26.7944 76.7728 26.7944 76.0799C26.7944 68.2737 28.4944 59.5924 31.4214 51.1555C33.8909 44.0371 37.0955 37.6071 39.7347 34.1742C40.1571 33.6248 40.0541 32.8371 39.5047 32.4147C38.9553 31.9924 38.1676 32.0953 37.7452 32.6447Z" fill="#AD6817"/>
<path d="M38.3267 44.6529C34.9023 53.7897 34.1161 56.1193 32.7029 61.5403C32.5281 62.2108 32.9299 62.8961 33.6005 63.071C34.2711 63.2458 34.9564 62.8439 35.1312 62.1733C36.5176 56.8553 37.2801 54.5957 40.6765 45.5335C40.9197 44.8847 40.5908 44.1615 39.9419 43.9183C39.2931 43.6751 38.5699 44.004 38.3267 44.6529Z" fill="#AD6817"/>
<path d="M54.5002 74.8399L61.2597 73.7711C61.9441 73.6629 62.4113 73.0203 62.3031 72.3358C62.1948 71.6513 61.5522 71.1842 60.8678 71.2924L54.1082 72.3612C53.4238 72.4694 52.9566 73.112 53.0649 73.7965C53.1731 74.481 53.8157 74.9481 54.5002 74.8399Z" fill="black"/>
<path d="M86.5976 73.1164L93.3571 74.1851C94.0416 74.2934 94.6842 73.8262 94.7924 73.1418C94.9006 72.4573 94.4335 71.8147 93.749 71.7065L86.9895 70.6377C86.305 70.5295 85.6624 70.9966 85.5542 71.6811C85.446 72.3655 85.9131 73.0081 86.5976 73.1164Z" fill="black"/>
<path d="M59.7834 72.5317V79.7534" stroke="black" stroke-width="6.02268" stroke-linecap="round"/>
<path d="M88.3479 71.877V79.099" stroke="black" stroke-width="6.02268" stroke-linecap="round"/>
<path d="M83.623 62.3476L97.9874 63.2266C98.8174 63.2774 99.5315 62.6457 99.5823 61.8157C99.633 60.9857 99.0014 60.2717 98.1714 60.2209L83.8069 59.3419C82.9769 59.2911 82.2629 59.9227 82.2121 60.7527C82.1613 61.5827 82.7929 62.2968 83.623 62.3476Z" fill="#62360D"/>
<path d="M73.3242 79.8387C72.8156 83.5477 69.6172 90.3112 75.0686 90.3112" stroke="#EBBAAA" stroke-width="4.26606"/>
<path d="M116.626 95.5483C118.312 95.5483 119.678 94.1808 119.678 92.4939C119.678 90.807 118.312 89.4395 116.626 89.4395C114.94 89.4395 113.573 90.807 113.573 92.4939C113.573 94.1808 114.94 95.5483 116.626 95.5483Z" fill="#F6E7D6"/>
<path d="M115.731 100.869C116.922 100.869 117.888 99.9026 117.888 98.7103C117.888 97.5179 116.922 96.5513 115.731 96.5513C114.539 96.5513 113.573 97.5179 113.573 98.7103C113.573 99.9026 114.539 100.869 115.731 100.869Z" fill="#F6E7D6"/>
<path d="M99.6586 98.1599C104.075 98.1599 107.655 94.5778 107.655 90.1591C107.655 85.7404 104.075 82.1583 99.6586 82.1583C95.2423 82.1583 91.6623 85.7404 91.6623 90.1591C91.6623 94.5778 95.2423 98.1599 99.6586 98.1599Z" fill="#F2CACA"/>
</svg>
