<svg width="163" height="347" viewBox="0 0 163 347" fill="none" xmlns="http://www.w3.org/2000/svg">
<path d="M64.1252 249.468V327.218" stroke="#F6DDD6" stroke-width="17"/>
<path d="M97.375 259.968V322.968" stroke="#F6DDD6" stroke-width="17"/>
<path d="M85.0875 302.08C86.2362 300.217 88.821 300.665 89.9697 301.122L89.6827 302.215C89.204 302.307 87.9882 302.49 87.5287 303.037C86.9542 303.72 87.385 305.09 86.9542 305.362C86.5235 305.637 85.3747 305.362 84.8005 305.362C84.226 305.362 83.6515 304.405 85.0875 302.08Z" fill="black"/>
<path d="M135.985 335.827C136.291 335.075 136.238 333.445 134.352 332.692C132.466 331.94 110.212 335.827 110.212 335.827C104.484 335.36 89.0971 327.872 83.4321 331.312C81.6398 332.4 82.2473 335.85 82.9088 339.075C83.9676 340.15 94.6771 341.092 98.1496 340.285C98.1496 338.402 98.4198 337.192 98.4198 337.192C98.4198 337.192 100.523 338.547 102.794 339.075C107.426 340.15 108.439 341.342 122.785 341.342C134.291 340.267 135.118 337.957 135.985 335.827Z" fill="#383129"/>
<path fill-rule="evenodd" clip-rule="evenodd" d="M84.3881 333.526C84.7475 333.743 85.1729 333.922 85.7127 334.082L85.5702 334.561C84.9922 334.39 84.5284 334.195 84.1296 333.954L84.3881 333.526ZM133.719 335.13C134.177 334.784 134.544 334.451 134.79 334.161L135.171 334.484C134.899 334.805 134.505 335.163 134.02 335.529L133.719 335.13ZM131.193 336.651C131.651 336.427 132.087 336.191 132.494 335.948L132.75 336.377C132.331 336.627 131.883 336.87 131.413 337.1L131.193 336.651ZM129.839 337.251C129.385 337.433 128.919 337.6 128.444 337.752L128.596 338.228C129.082 338.073 129.56 337.902 130.025 337.716L129.839 337.251ZM125.56 338.448C126.048 338.367 126.533 338.269 127.012 338.153L127.13 338.639C126.638 338.757 126.142 338.859 125.642 338.941L125.56 338.448ZM124.086 338.635C123.594 338.679 123.101 338.704 122.607 338.709L122.612 339.209C123.119 339.204 123.625 339.178 124.13 339.133L124.086 338.635ZM119.625 338.668C120.12 338.683 120.618 338.694 121.121 338.701L121.114 339.201C120.609 339.194 120.107 339.183 119.61 339.168L119.625 338.668ZM118.13 338.61C117.628 338.586 117.13 338.559 116.637 338.526L116.605 339.025C117.101 339.058 117.601 339.086 118.107 339.11L118.13 338.61ZM113.657 338.278C114.147 338.328 114.644 338.374 115.146 338.416L115.105 338.914C114.599 338.872 114.1 338.826 113.606 338.775L113.657 338.278ZM112.171 338.11C111.669 338.048 111.175 337.982 110.69 337.912L110.618 338.407C111.107 338.477 111.605 338.544 112.11 338.606L112.171 338.11ZM107.744 337.415C108.222 337.508 108.712 337.597 109.214 337.681L109.131 338.174C108.625 338.089 108.131 337.999 107.649 337.906L107.744 337.415ZM106.281 337.11C105.779 336.998 105.295 336.882 104.831 336.762L104.706 337.246C105.176 337.367 105.665 337.485 106.172 337.598L106.281 337.11ZM101.952 335.943C102.419 336.08 102.899 336.22 103.391 336.363L103.252 336.843C102.759 336.7 102.279 336.56 101.811 336.423L101.952 335.943ZM100.514 335.518C99.9987 335.365 99.5177 335.221 99.0777 335.089L98.9333 335.567C99.374 335.7 99.8557 335.844 100.371 335.998L100.514 335.518ZM96.052 334.816C96.5877 334.786 97.098 334.752 97.5429 334.717L97.5823 335.216C97.1334 335.251 96.6191 335.285 96.0795 335.315L96.052 334.816ZM94.5587 334.883C94.0511 334.9 93.5507 334.912 93.0649 334.917L93.0704 335.417C93.5602 335.412 94.0644 335.4 94.5759 335.382L94.5587 334.883ZM90.0859 334.847C90.5402 334.879 91.0375 334.9 91.5721 334.911L91.5619 335.411C91.0194 335.4 90.514 335.379 90.051 335.346L90.0859 334.847ZM88.618 334.682C88.0428 334.589 87.5662 334.505 87.149 334.423L87.0527 334.914C87.4761 334.997 87.958 335.082 88.5383 335.175L88.618 334.682Z" fill="#67513B"/>
<path d="M102.543 300.595C101.316 300.595 94.1518 304.345 90.4435 301.427C90.0388 301.107 89.2158 301.37 89.215 301.885C89.2083 306.872 89.1348 315.557 88.3848 319.002C87.591 322.647 86.9208 322.125 86.127 325.512C85.5773 327.855 83.7973 333.322 86.127 333.322H96.752C99.266 333.322 102.661 336.235 111.033 337.052C124.929 338.41 128.324 336.552 131.099 335.675C137.412 333.677 134.208 329.11 131.099 327.65C126.544 325.512 120.016 323.905 116.695 322.132C114.11 320.755 113.222 320.325 111.894 318.872C109.705 316.48 107.782 303.887 107.486 300.605C107.465 300.377 107.145 300.26 106.951 300.38C105.656 301.177 103.759 300.595 102.543 300.595Z" fill="#2D2B30"/>
<path d="M129.238 331.03C127.514 331.552 126.366 331.822 124.882 331.982C122.867 332.198 120.731 332.099 118.36 331.603C117.887 331.505 117.423 331.808 117.325 332.281C117.226 332.754 117.529 333.218 118.002 333.316C120.554 333.849 122.874 333.958 125.069 333.722C126.684 333.548 127.925 333.256 129.745 332.705C130.207 332.565 130.469 332.076 130.329 331.614C130.189 331.151 129.7 330.89 129.238 331.03Z" fill="#59555F"/>
<path d="M113.355 326.8C110.893 324.542 101.914 319.5 102.543 300.595C101.476 300.595 98.8965 301.975 94.999 302.225C90.9055 302.102 90.973 301.732 89.889 301.122C89.8598 301.105 89.826 301.08 89.798 301.062C88.0978 299.917 88.8625 318.15 87.6423 321.38C86.6575 323.99 84.8108 327.9 84.8108 332.665C85.6725 334.17 94.167 333.417 96.8753 333.417C98.1423 326.675 108.075 331.815 110.212 331.187C112.088 330.637 113.355 329.557 113.355 326.8Z" fill="#1D1D20"/>
<path d="M110.338 318.675C107.521 316.467 106.44 305.735 106.314 300.595C106.817 300.47 106.943 300.12 107.32 300.245C107.697 300.37 107.697 301.875 107.823 303.127C107.961 304.5 108.955 308.77 109.458 311.655C109.961 314.537 110.463 316.292 112.349 318.675C113.858 320.58 119.767 322.537 121.653 324.167C121.444 324.125 120.899 323.84 120.396 323.94C119.767 324.067 119.893 324.192 119.139 324.192C118.384 324.192 113.858 321.432 110.338 318.675Z" fill="#1D1D20"/>
<path d="M102.258 306.559C101.727 306.831 101.843 307.621 102.429 307.729L105.694 308.335L102.314 309.669C101.767 309.884 101.793 310.667 102.353 310.846L106.753 312.245L102.903 314.073C102.337 314.342 102.475 315.184 103.097 315.258L107.833 315.825L104.557 318.274C104.076 318.634 104.331 319.4 104.932 319.4H109.927L106.508 322.714C106.057 323.152 106.462 323.907 107.077 323.773L113.53 322.366L110.962 325.932C110.583 326.46 111.16 327.144 111.744 326.859L118.156 323.724C118.466 323.572 118.595 323.198 118.443 322.888C118.291 322.578 117.917 322.449 117.607 322.601L113.431 324.643L115.497 321.773C115.832 321.308 115.417 320.675 114.857 320.797L108.954 322.084L111.905 319.224C112.308 318.833 112.031 318.15 111.47 318.15H106.811L109.832 315.89C110.284 315.553 110.092 314.836 109.532 314.769L105.394 314.274L108.72 312.695C109.233 312.451 109.182 311.706 108.642 311.534L104.406 310.187L108.178 308.699C108.762 308.469 108.68 307.617 108.063 307.503L104.459 306.835L107.229 305.414C107.733 305.155 107.66 304.412 107.115 304.256L103.782 303.307L107.14 302.191C107.468 302.082 107.645 301.728 107.536 301.4C107.428 301.073 107.074 300.895 106.746 301.004L101.465 302.759C100.882 302.953 100.9 303.785 101.491 303.954L105.249 305.024L102.258 306.559Z" fill="black"/>
<path d="M76.6625 302.08C75.5138 300.217 72.929 300.665 71.7803 301.122L72.0673 302.215C72.546 302.307 73.7618 302.49 74.2213 303.037C74.7958 303.72 74.365 305.09 74.7958 305.362C75.2265 305.637 76.3753 305.362 76.9495 305.362C77.524 305.362 78.0985 304.405 76.6625 302.08Z" fill="black"/>
<path d="M25.7652 335.827C25.4594 335.075 25.5119 333.445 27.3979 332.692C29.2837 331.94 51.5377 335.827 51.5377 335.827C57.2664 335.36 72.6529 327.872 78.3179 331.312C80.1102 332.4 79.5027 335.85 78.8412 339.075C77.7824 340.15 67.0729 341.092 63.6004 340.285C63.6004 338.402 63.3302 337.192 63.3302 337.192C63.3302 337.192 61.2267 338.547 58.9557 339.075C54.3242 340.15 53.3107 341.342 38.965 341.342C27.4592 340.267 26.6317 337.957 25.7652 335.827Z" fill="#383129"/>
<path fill-rule="evenodd" clip-rule="evenodd" d="M77.3619 333.526C77.0025 333.743 76.5771 333.922 76.0373 334.082L76.1798 334.561C76.7578 334.39 77.2216 334.195 77.6204 333.954L77.3619 333.526ZM28.0315 335.13C27.5732 334.784 27.2065 334.451 26.9603 334.161L26.579 334.484C26.8514 334.805 27.2446 335.163 27.7303 335.529L28.0315 335.13ZM30.5571 336.651C30.099 336.427 29.6632 336.191 29.2558 335.948L28.9996 336.377C29.4189 336.627 29.8669 336.87 30.3374 337.1L30.5571 336.651ZM31.911 337.251C32.3651 337.433 32.831 337.6 33.3062 337.752L33.1542 338.228C32.6676 338.073 32.1905 337.902 31.7253 337.716L31.911 337.251ZM36.1897 338.448C35.7016 338.367 35.2172 338.269 34.7378 338.153L34.6204 338.639C35.1115 338.757 35.6079 338.859 36.1081 338.941L36.1897 338.448ZM37.6643 338.635C38.1563 338.679 38.6494 338.704 39.1431 338.709L39.1377 339.209C38.631 339.204 38.1249 339.178 37.6202 339.133L37.6643 338.635ZM42.1247 338.668C41.6301 338.683 41.1315 338.694 40.6292 338.701L40.6361 339.201C41.1412 339.194 41.6425 339.183 42.1399 339.168L42.1247 338.668ZM43.6198 338.61C44.1222 338.586 44.6199 338.559 45.1128 338.526L45.1453 339.025C44.6494 339.058 44.1488 339.086 43.6434 339.11L43.6198 338.61ZM48.0927 338.278C47.6025 338.328 47.1061 338.374 46.6037 338.416L46.6453 338.914C47.1508 338.872 47.6504 338.826 48.1438 338.775L48.0927 338.278ZM49.5791 338.11C50.0809 338.048 50.5748 337.982 51.0604 337.912L51.1321 338.407C50.6429 338.477 50.1455 338.544 49.6402 338.606L49.5791 338.11ZM54.006 337.415C53.5277 337.508 53.0376 337.597 52.5363 337.681L52.6193 338.174C53.1247 338.089 53.6189 337.999 54.1013 337.906L54.006 337.415ZM55.4687 337.11C55.9706 336.998 56.4547 336.882 56.9194 336.762L57.0442 337.246C56.5743 337.367 56.0849 337.485 55.5778 337.598L55.4687 337.11ZM59.7982 335.943C59.3308 336.08 58.8507 336.22 58.3591 336.363L58.4984 336.843C58.9906 336.7 59.4711 336.56 59.939 336.423L59.7982 335.943ZM61.2363 335.518C61.7513 335.365 62.2323 335.221 62.6723 335.089L62.8167 335.567C62.376 335.7 61.8943 335.844 61.3787 335.998L61.2363 335.518ZM65.698 334.816C65.1623 334.786 64.652 334.752 64.2071 334.717L64.1677 335.216C64.6166 335.251 65.1309 335.285 65.6705 335.315L65.698 334.816ZM67.1913 334.883C67.6989 334.9 68.1993 334.912 68.6851 334.917L68.6796 335.417C68.1898 335.412 67.6856 335.4 67.1741 335.382L67.1913 334.883ZM71.6641 334.847C71.2098 334.879 70.7125 334.9 70.1779 334.911L70.1881 335.411C70.7306 335.4 71.236 335.379 71.699 335.346L71.6641 334.847ZM73.132 334.682C73.7072 334.589 74.1838 334.505 74.601 334.423L74.6973 334.914C74.2739 334.997 73.792 335.082 73.2117 335.175L73.132 334.682Z" fill="#67513B"/>
<path d="M59.2072 300.595C60.4342 300.595 67.5982 304.345 71.3065 301.427C71.7112 301.107 72.5342 301.37 72.535 301.885C72.5417 306.872 72.6152 315.557 73.3652 319.002C74.159 322.647 74.8292 322.125 75.623 325.512C76.1727 327.855 77.9527 333.322 75.623 333.322H64.998C62.484 333.322 59.0887 336.235 50.7175 337.052C36.8215 338.41 33.4257 336.552 30.651 335.675C24.338 333.677 27.5417 329.11 30.651 327.65C35.206 325.512 41.734 323.905 45.0547 322.132C47.6402 320.755 48.5282 320.325 49.8557 318.872C52.045 316.48 53.9682 303.887 54.2645 300.605C54.285 300.377 54.6047 300.26 54.799 300.38C56.094 301.177 57.991 300.595 59.2072 300.595Z" fill="#2D2B30"/>
<path d="M32.5121 331.03C34.2364 331.552 35.3844 331.822 36.8677 331.982C38.8826 332.198 41.0194 332.099 43.39 331.603C43.863 331.505 44.3266 331.808 44.4254 332.281C44.5243 332.754 44.2209 333.218 43.7479 333.316C41.1965 333.849 38.8758 333.958 36.6808 333.722C35.0664 333.548 33.825 333.256 32.0052 332.705C31.5427 332.565 31.2812 332.076 31.4212 331.614C31.5612 331.151 32.0496 330.89 32.5121 331.03Z" fill="#59555F"/>
<path d="M48.3947 326.8C50.8567 324.542 59.836 319.5 59.2072 300.595C60.2742 300.595 62.8535 301.975 66.751 302.225C70.8445 302.102 70.777 301.732 71.861 301.122C71.8902 301.105 71.924 301.08 71.952 301.062C73.6522 299.917 72.8875 318.15 74.1077 321.38C75.0925 323.99 76.9392 327.9 76.9392 332.665C76.0775 334.17 67.583 333.417 64.8747 333.417C63.6077 326.675 53.6752 331.815 51.5377 331.187C49.6617 330.637 48.3947 329.557 48.3947 326.8Z" fill="#1D1D20"/>
<path d="M51.412 318.675C54.2285 316.467 55.3098 305.735 55.4355 300.595C54.9325 300.47 54.8068 300.12 54.4295 300.245C54.0525 300.37 54.0525 301.875 53.9268 303.127C53.789 304.5 52.7953 308.77 52.2923 311.655C51.7893 314.537 51.2865 316.292 49.4005 318.675C47.8918 320.58 41.9825 322.537 40.0965 324.167C40.306 324.125 40.851 323.84 41.3538 323.94C41.9825 324.067 41.8568 324.192 42.6113 324.192C43.3655 324.192 47.8918 321.432 51.412 318.675Z" fill="#1D1D20"/>
<path d="M59.4924 306.559C60.0229 306.831 59.9074 307.621 59.3211 307.729L56.0557 308.335L59.4365 309.669C59.9835 309.884 59.9569 310.667 59.3966 310.846L54.9975 312.245L58.8467 314.073C59.4128 314.342 59.2752 315.184 58.6529 315.258L53.9173 315.825L57.1927 318.274C57.6741 318.634 57.4195 319.4 56.8184 319.4H51.8231L55.2417 322.714C55.6934 323.152 55.2881 323.907 54.6735 323.773L48.22 322.366L50.7876 325.932C51.1673 326.46 50.5897 327.144 50.0059 326.859L43.5939 323.724C43.2838 323.572 43.1553 323.198 43.3069 322.888C43.4585 322.578 43.8328 322.449 44.1429 322.601L48.3192 324.643L46.2529 321.773C45.9181 321.308 46.3335 320.675 46.8933 320.797L52.7965 322.084L49.8454 319.224C49.4422 318.833 49.7189 318.15 50.2804 318.15H54.9391L51.9178 315.89C51.4661 315.553 51.6577 314.836 52.2179 314.769L56.3562 314.274L53.0298 312.695C52.5175 312.451 52.568 311.706 53.1084 311.534L57.3439 310.187L53.5716 308.699C52.9876 308.469 53.0697 307.617 53.6869 307.503L57.2913 306.835L54.5214 305.414C54.0168 305.155 54.09 304.412 54.6353 304.256L57.9678 303.307L54.6095 302.191C54.282 302.082 54.1047 301.728 54.2135 301.4C54.3224 301.073 54.6762 300.895 55.0038 301.004L60.2845 302.759C60.8681 302.953 60.8501 303.785 60.2587 303.954L56.5013 305.024L59.4924 306.559Z" fill="black"/>
<path d="M40.0964 290.725L51.1316 205.236L68.706 202.692L68.875 198.382H78.3715L78.25 196.218L102.875 201.869L102.904 203.304L109.625 205.236L125.5 290.725L104.706 292.534L105.494 294.711L88 295.655V297.218H64.1673L64.1252 293.848L40.0964 290.725Z" fill="#2A1B16"/>
<path d="M33.125 114.343C34.3965 98.2525 39.2499 73.4683 39.2499 73.4683H125.125C125.125 73.4683 147.667 136.76 135.5 154.218C123.333 171.677 58.2499 160.968 33.125 160.968C13.7095 160.968 31.6907 132.495 33.125 114.343Z" fill="#17100F"/>
<path d="M41.4328 146.442C35.7255 156.615 30.4047 173.437 26.8786 191.094C23.2736 209.146 22.1925 224.158 24.8888 231.614C26.6262 236.418 31.9292 238.904 36.7333 237.167C41.5374 235.429 44.0235 230.126 42.2861 225.322C42.2579 225.244 42.1936 224.978 42.1275 224.559C42.034 223.966 41.9622 223.217 41.9196 222.334C41.8261 220.396 41.8794 217.955 42.0832 215.125C42.5005 209.33 43.5252 202.204 45.0204 194.717C48.1995 178.798 52.9898 163.653 57.5672 155.494C60.0667 151.038 58.4812 145.4 54.0258 142.901C49.5704 140.401 43.9323 141.987 41.4328 146.442Z" fill="#EBBAAA"/>
<path d="M105.933 155.494C110.51 163.653 115.3 178.798 118.48 194.717C119.975 202.204 121 209.33 121.417 215.125C121.621 217.955 121.674 220.396 121.581 222.334C121.538 223.217 121.466 223.966 121.373 224.559C121.306 224.978 121.242 225.244 121.214 225.322C119.477 230.126 121.963 235.429 126.767 237.167C131.571 238.904 136.874 236.418 138.611 231.614C141.308 224.158 140.226 209.146 136.621 191.094C133.095 173.437 127.775 156.615 122.067 146.442C119.568 141.987 113.929 140.401 109.474 142.901C105.019 145.4 103.433 151.039 105.933 155.494Z" fill="#EBBAAA"/>
<path d="M81.75 145.718C103.841 145.718 121.75 138.443 121.75 129.468C121.75 120.494 103.841 113.218 81.75 113.218C59.6586 113.218 41.75 120.494 41.75 129.468C41.75 138.443 59.6586 145.718 81.75 145.718Z" fill="#E1CAB3"/>
<path d="M123 129.468C123 138.443 105.091 145.718 83 145.718V113.218C105.091 113.218 123 120.494 123 129.468Z" fill="#D1B69B"/>
<rect x="73.0002" y="100.218" width="17.5" height="46.5" rx="8.75" fill="#EBBAAA"/>
<path d="M130.25 136.968C122.796 122.139 90 120.468 90 120.468V224.468H118.803C133.069 224.468 144.41 212.561 142.993 198.365C140.944 177.847 137.072 150.539 130.25 136.968Z" fill="#52383D"/>
<path d="M33.2501 136.968C40.7043 122.139 73.5001 120.468 73.5001 120.468V224.468H44.6971C30.4312 224.468 19.0905 212.561 20.5075 198.365C22.5558 177.847 26.4282 150.539 33.2501 136.968Z" fill="#52383D"/>
<path d="M113.5 205.968L145.5 203.468C145.5 203.468 145.564 220.493 138.25 226.468C129.694 233.458 113.5 226.468 113.5 226.468V205.968Z" fill="#E1CAB3"/>
<path d="M50 203.468H18C18 203.468 17.9356 220.493 25.2502 226.468C33.8063 233.458 50 226.468 50 226.468V203.468Z" fill="#E1CAB3"/>
<path d="M126.749 235.718L116.625 123.468L92.25 117.718L59.75 174.968L85.4995 248.218L126.749 235.718Z" fill="#413034"/>
<path d="M60 177.198L44.375 155.045C44.375 155.045 65.7373 151.624 78.375 138.742C88.875 128.039 90.25 115.593 90.25 115.593C90.25 115.593 122.5 115.593 130.5 135.879C130.5 135.879 127.898 157.733 103.5 170.726C83.0002 181.643 60 177.198 60 177.198Z" fill="#D1B69B"/>
<path d="M36.75 235.718L46.8745 124.358L71.2495 117.718L103.749 174.968L78 248.218L36.75 235.718Z" fill="#52383D"/>
<path d="M103.25 177.198L118.875 155.045C118.875 155.045 97.5127 151.624 84.875 138.742C74.375 128.039 73 115.593 73 115.593C73 115.593 40.75 115.593 32.75 135.879C32.75 135.879 35.3519 157.733 59.75 170.726C80.2498 181.643 103.25 177.198 103.25 177.198Z" fill="#E1CAB3"/>
<path d="M66.0521 203.221C67.3695 203.574 68.7237 202.793 69.0767 201.475C69.4296 200.158 68.6478 198.804 67.3304 198.451C66.013 198.098 64.6589 198.879 64.3059 200.197C63.9529 201.514 64.7347 202.868 66.0521 203.221Z" fill="#C4C4C4"/>
<path d="M71.4244 187.32C72.7418 187.673 74.096 186.891 74.449 185.574C74.802 184.257 74.0202 182.902 72.7028 182.549C71.3853 182.196 70.0312 182.978 69.6782 184.296C69.3252 185.613 70.107 186.967 71.4244 187.32Z" fill="#C4C4C4"/>
<path d="M60.0167 218.278C61.3341 218.631 62.6883 217.849 63.0413 216.532C63.3942 215.214 62.6124 213.86 61.295 213.507C59.9776 213.154 58.6235 213.936 58.2705 215.253C57.9175 216.571 58.6993 217.925 60.0167 218.278Z" fill="#C4C4C4"/>
<path d="M84.3094 208.373C85.6269 208.726 86.981 207.945 87.334 206.627C87.687 205.31 86.9052 203.956 85.5878 203.603C84.2704 203.25 82.9162 204.031 82.5632 205.349C82.2102 206.666 82.992 208.02 84.3094 208.373Z" fill="#C4C4C4"/>
<path d="M89.6815 192.472C90.9989 192.825 92.353 192.044 92.706 190.726C93.059 189.409 92.2772 188.055 90.9598 187.702C89.6424 187.349 88.2883 188.13 87.9353 189.448C87.5823 190.765 88.3641 192.119 89.6815 192.472Z" fill="#C4C4C4"/>
<path d="M78.2743 223.43C79.5917 223.783 80.9458 223.001 81.2988 221.684C81.6518 220.366 80.87 219.012 79.5526 218.659C78.2352 218.306 76.8811 219.088 76.5281 220.405C76.1751 221.723 76.9569 223.077 78.2743 223.43Z" fill="#C4C4C4"/>
<path d="M115.5 83.718C121.023 83.718 125.5 79.241 125.5 73.718C125.5 68.1953 121.023 63.718 115.5 63.718C109.977 63.718 105.5 68.1953 105.5 73.718C105.5 79.241 109.977 83.718 115.5 83.718Z" fill="#E4C1C1"/>
<path d="M48.0006 83.718C42.4776 83.718 38.0005 79.241 38.0005 73.718C38.0005 68.1953 42.4776 63.718 48.0006 63.718C53.5233 63.718 58.0006 68.1953 58.0006 73.718C58.0006 79.241 53.5233 83.718 48.0006 83.718Z" fill="#E4C1C1"/>
<path d="M46.7505 51.968C46.7505 32.638 62.4205 16.968 81.7505 16.968C101.08 16.968 116.75 32.638 116.75 51.968V67.3728C116.75 71.4168 116.189 75.4413 115.082 79.331L110.496 95.4528C106.874 108.185 95.2437 116.968 82.0065 116.968C69.001 116.968 57.517 108.484 53.6947 96.0533L48.6805 79.745C47.401 75.5838 46.7505 71.2548 46.7505 66.901V51.968Z" fill="#F4D5CC"/>
<path fill-rule="evenodd" clip-rule="evenodd" d="M91.7225 87.4683C91.741 87.7158 91.7502 87.9658 91.7502 88.2183V93.2183C91.7502 98.741 87.2732 103.218 81.7502 103.218C76.2275 103.218 71.7502 98.741 71.7502 93.2183V88.2183C71.7502 87.9658 71.7597 87.7158 71.778 87.4683H91.7225Z" fill="#393939"/>
<mask id="mask0_1_1963" style="mask-type:luminance" maskUnits="userSpaceOnUse" x="71" y="87" width="21" height="17">
<path fill-rule="evenodd" clip-rule="evenodd" d="M91.7225 87.4683C91.741 87.7158 91.7502 87.9658 91.7502 88.2183V93.2183C91.7502 98.741 87.2732 103.218 81.7502 103.218C76.2275 103.218 71.7502 98.741 71.7502 93.2183V88.2183C71.7502 87.9658 71.7597 87.7158 71.778 87.4683H91.7225Z" fill="white"/>
</mask>
<g mask="url(#mask0_1_1963)">
<path d="M82.2502 110.5C77.5558 110.5 73.7502 107.702 73.7502 104.25C73.7502 100.798 77.5558 98 82.2502 98C86.9447 98 90.7502 100.798 90.7502 104.25C90.7502 107.702 86.9447 110.5 82.2502 110.5Z" fill="#FF6C6C"/>
<rect width="22.75" height="5.75" transform="matrix(-1 0 0 1 93.5002 87.4683)" fill="white"/>
</g>
<path d="M61.2505 87.468C65.3926 87.468 68.7505 84.1102 68.7505 79.968C68.7505 75.8259 65.3926 72.468 61.2505 72.468C57.1084 72.468 53.7505 75.8259 53.7505 79.968C53.7505 84.1102 57.1084 87.468 61.2505 87.468Z" fill="#F2CACA"/>
<path d="M95.3762 62.3368L102.876 63.087C103.563 63.1557 104.176 62.6546 104.244 61.9677C104.313 61.2807 103.812 60.6682 103.125 60.5994L95.625 59.8492C94.9381 59.7805 94.3255 60.2816 94.2568 60.9686C94.1881 61.6555 94.6892 62.2681 95.3762 62.3368Z" fill="black"/>
<path d="M67.8762 59.8492L60.3762 60.5994C59.6892 60.6682 59.1881 61.2807 59.2568 61.9677C59.3255 62.6546 59.9381 63.1557 60.625 63.087L68.125 62.3368C68.8119 62.2681 69.3131 61.6555 69.2444 60.9686C69.1757 60.2816 68.5631 59.7805 67.8762 59.8492Z" fill="black"/>
<path d="M93.7505 61.9683V69.4683C93.7505 71.1251 95.0936 72.4683 96.7505 72.4683C98.4073 72.4683 99.7505 71.1251 99.7505 69.4683V61.9683C99.7505 60.3114 98.4073 58.9683 96.7505 58.9683C95.0936 58.9683 93.7505 60.3114 93.7505 61.9683Z" fill="black"/>
<path d="M63.7512 61.9683V69.4683C63.7512 71.1251 65.0944 72.4683 66.7512 72.4683C68.4081 72.4683 69.7512 71.1251 69.7512 69.4683V61.9683C69.7512 60.3114 68.4081 58.9683 66.7512 58.9683C65.0944 58.9683 63.7512 60.3114 63.7512 61.9683Z" fill="black"/>
<path d="M79.2834 69.9277C79.2009 70.526 79.1076 70.9297 78.6652 72.6975C78.558 73.126 78.4819 73.437 78.4088 73.7491C77.8683 76.059 77.7012 77.6382 78.0545 79.1036C78.6077 81.3986 80.4349 82.718 83.1255 82.718V78.468C82.8433 78.468 82.622 78.4417 82.4586 78.3978C82.3599 78.3713 82.3033 78.3452 82.2736 78.3237C82.2493 78.3062 82.2241 78.2652 82.1861 78.1076C82.0373 77.4903 82.1521 76.405 82.547 74.7175C82.6141 74.4308 82.6857 74.1385 82.7881 73.7293C83.2797 71.7648 83.3804 71.3291 83.4936 70.5083L79.2834 69.9277Z" fill="#EBBAAA"/>
<path d="M102.25 87.468C106.393 87.468 109.75 84.1102 109.75 79.968C109.75 75.8259 106.393 72.468 102.25 72.468C98.1084 72.468 94.7505 75.8259 94.7505 79.968C94.7505 84.1102 98.1084 87.468 102.25 87.468Z" fill="#F2CACA"/>
<path d="M89.8774 52.3607C92.8165 51.0089 97.5039 50.6443 100.724 51.227C101.605 51.3864 102.412 51.6897 103.137 52.0951C103.523 52.3111 103.86 52.5412 104.141 52.7677C104.236 52.8436 104.315 52.9121 104.38 52.971C104.411 53 104.426 53.0149 104.425 53.0134C105.002 53.6075 105.952 53.621 106.546 53.0436C107.14 52.4663 107.154 51.5166 106.576 50.9225C106.463 50.8062 106.278 50.6356 106.021 50.4294C105.613 50.1018 105.14 49.7777 104.601 49.4765C103.599 48.9161 102.482 48.4963 101.258 48.275C97.4739 47.5902 92.1737 48.0024 88.6238 49.6352C87.8712 49.9814 87.5417 50.8722 87.8879 51.6248C88.234 52.3774 89.1248 52.7069 89.8774 52.3607Z" fill="#62360D"/>
<path d="M74.8775 49.6352C71.3274 48.0024 66.0274 47.5902 62.2429 48.2749C61.0194 48.4963 59.9027 48.9161 58.9003 49.4765C58.3617 49.7777 57.8879 50.1018 57.4803 50.4294C57.2237 50.6357 57.038 50.8063 56.925 50.9226C56.3477 51.5167 56.3613 52.4664 56.9554 53.0437C57.5495 53.6211 58.4991 53.6075 59.0765 53.0133C59.075 53.0148 59.0903 52.9999 59.1218 52.971C59.1859 52.9121 59.2655 52.8435 59.3599 52.7677C59.6417 52.5411 59.9779 52.3111 60.3644 52.095C61.0894 51.6897 61.8962 51.3864 62.7771 51.227C65.9974 50.6443 70.6847 51.0089 73.6239 52.3607C74.3766 52.7069 75.2673 52.3774 75.6135 51.6248C75.9597 50.8721 75.6302 49.9814 74.8775 49.6352Z" fill="#62360D"/>
<path d="M60.4301 39.3777C67.1063 31.5205 79.7468 28.4084 82.9688 26.1677C84.2083 25.5648 84.2081 16.4465 81.2338 14.0926C77.1443 10.856 62.6451 17.2048 56.2008 23.3046C49.7568 29.4044 43.2515 37.2905 40.3468 55.593C40.0362 57.5498 38.8577 61.9682 38.1077 69.4682C36.9609 80.9371 38.1077 98.465 38.1077 105.963C38.1077 115.673 39.2231 128.246 38.1077 139.325C37.3468 146.884 36.2503 160.609 36.2505 179.157C36.2505 183.393 48.0883 184.674 48.7653 181.273C49.7566 176.294 48.8908 148.163 49.8823 139.325C50.9753 129.584 52.7308 122.768 51.3678 113.681C50.0046 104.593 51.7368 100.218 50.8678 92.4682C49.9988 84.7182 48.5176 71.7292 48.7653 63.6377C49.0133 55.5462 53.6598 47.3452 60.4301 39.3777Z" fill="#311E1C"/>
<path d="M51.3755 143.843C49.7755 136.243 45.7502 82.9683 45.7502 82.9683C45.7502 82.9683 48.5735 83.9188 49.8752 83.5933C51.6777 91.545 54.892 102.085 60.7502 108.093C62.167 113.635 65.2005 126.118 66.0005 133.718C67.0005 143.218 66.0005 172.968 63.7505 172.968C58.5272 172.968 54.852 173.718 53.8755 170.593C52.0005 164.593 53.3755 153.343 51.3755 143.843Z" fill="#311E1C"/>
<path d="M102.126 36.4683C94.7386 29.3766 82.8754 27.8433 81.7504 26.0933C80.5836 22.0933 80.3536 15.3712 85.5004 13.5933C92.3756 11.2184 110.5 20.8432 116.5 36.4683C120.973 48.1153 124.936 61.1478 125.875 77.5933C127.284 102.259 118.163 126.018 118.875 150.968C119.25 164.093 124.19 169.881 116.5 175.968C109.528 181.488 99.2499 181.957 93.7504 174.968C81.7504 159.718 104.901 125.687 111.375 93.9683C112.212 89.869 113.25 85.5098 113.5 83.4683C126.875 85.8433 130.125 65.8433 116.75 63.8433C116.75 55.4538 107.248 41.3855 102.126 36.4683Z" fill="#311E1C"/>
<path d="M117.542 87.0858C119.221 87.0858 120.583 85.7234 120.583 84.0429C120.583 82.3624 119.221 81 117.542 81C115.862 81 114.5 82.3624 114.5 84.0429C114.5 85.7234 115.862 87.0858 117.542 87.0858Z" fill="#D29A48"/>
<path fill-rule="evenodd" clip-rule="evenodd" d="M83.5358 5.01216C101.567 5.51501 121.17 26.2848 127.75 38.7183C131.223 45.279 133.539 55.843 122.5 55.843C112.289 40.093 89.5003 21.5847 64.2503 28.0307C50.7503 31.4773 46.1023 37.2183 46.1023 37.2183C46.1023 37.2183 44.8231 26.8468 50.0003 20.8431C57.5066 12.1388 70.7926 4.65678 83.5358 5.01216Z" fill="#E1CAB3"/>
</svg>
