<svg width="163" height="347" viewBox="0 0 163 347" fill="none" xmlns="http://www.w3.org/2000/svg">
<path d="M109.125 255.459L109.5 333.209L92.5001 333.291L92.1251 255.541L109.125 255.459Z" fill="#F6DDD6"/>
<path d="M58.875 244.988L75.875 245.012L75.75 332.512L58.75 332.488L58.875 244.988Z" fill="#F6DDD6"/>
<path d="M31.4213 343.762C31.3716 338.06 32.1532 337.077 37.1407 334.745C42.1282 332.415 46.8263 329.177 55.455 325.337C55.455 325.337 56.5905 325.122 58.4393 326.117C60.017 326.965 62.0433 329.045 65.0968 329.017C68.4123 328.99 71.367 328.292 73.2028 327.335C73.996 325.175 75.7555 325.16 75.7555 325.16C75.7555 325.16 78.2325 329.845 78.2735 334.552C78.3148 339.262 78.3103 343.355 78.3103 343.355L31.4213 343.762Z" fill="#161616"/>
<path d="M66.025 331.7C67.7715 331.7 69.196 332.278 70.786 333.388L70.9695 333.519C71.2688 333.737 72.1809 334.421 72.4088 334.574C72.7638 334.812 72.997 334.918 73.1278 334.929L73.1498 334.93V336.68C72.6155 336.68 72.1231 336.478 71.5239 336.087L71.4331 336.027C71.1414 335.831 70.075 335.03 69.8967 334.903C68.5248 333.926 67.3887 333.45 66.025 333.45C64.9453 333.45 64.0721 333.736 62.9414 334.395L62.8193 334.467C62.4751 334.672 61.2217 335.477 61.0366 335.592C58.8523 336.946 56.9417 337.674 54.2285 337.919C51.1247 338.199 49.1064 337.634 47.1795 336.332L47.0189 336.222C46.9645 336.184 46.909 336.145 46.851 336.104L46.3868 335.769L47.4127 334.351L47.7816 334.618L47.9409 334.731C48.017 334.785 48.0886 334.834 48.1594 334.882C49.7624 335.965 51.3824 336.419 54.0712 336.176C56.4272 335.964 58.0656 335.356 59.9742 334.191L60.1819 334.062C60.4844 333.871 61.5125 333.212 61.8878 332.985L61.9231 332.964C63.3621 332.106 64.5476 331.7 66.025 331.7Z" fill="white"/>
<path d="M53.6536 324.437C53.9947 324.285 54.395 324.437 54.5477 324.779C54.7412 325.211 54.8809 325.686 54.9765 326.202L55.0082 326.382C55.122 327.065 55.1482 327.673 55.1482 328.685C55.1482 329.159 54.676 329.481 54.2394 329.321L54.1998 329.305L50.9024 327.859L51.6046 330.389C51.7448 330.895 51.2832 331.355 50.7853 331.226L50.7459 331.214L47.4336 330.153L47.4337 333.125C47.4337 333.623 46.9172 333.945 46.4742 333.74L46.4364 333.721L44.1854 332.51L44.1855 334.74C44.1855 335.1 43.9046 335.394 43.55 335.416L43.5088 335.417C43.1489 335.417 42.8546 335.136 42.8333 334.781L42.8321 334.74V331.378C42.8321 330.88 43.3486 330.557 43.7916 330.763L43.8294 330.782L46.0801 331.993L46.0803 329.225C46.0803 328.781 46.4994 328.461 46.9226 328.569L46.9636 328.581L49.9651 329.543L49.2177 326.848C49.0688 326.312 49.5938 325.841 50.105 326.033L50.1415 326.048L53.7769 327.642L53.773 327.558C53.7536 327.181 53.719 326.863 53.6598 326.526L53.6457 326.448C53.5685 326.032 53.4587 325.659 53.3123 325.331C53.1597 324.99 53.3124 324.59 53.6536 324.437Z" fill="white"/>
<path d="M33.3087 335.182C34.8389 334.632 36.4594 334.215 39.5663 333.515L38.2458 337.292L38.2834 341.597L29.4403 341.672C29.0794 341.677 28.4345 341.197 28.7425 339.257C29.1273 336.835 31.1344 335.967 33.3087 335.182Z" fill="#393A40"/>
<path d="M72.2748 335.555C73.3925 334.38 76.9 333.07 78.15 333.442L78.3998 337.915L78.3995 341.67C71.208 341.672 70.6495 341.672 70.6495 341.672C71.0343 339.247 70.1498 337.792 72.2748 335.555Z" fill="#393A40"/>
<path d="M78.5045 343.897L78.4518 340.575L59.001 341.38L38.5504 341.19L28.6638 340.47L28.4222 342.635C28.2856 343.86 29.1968 344.952 30.426 345.037L38.5997 345.597L77.4388 344.997C78.0368 344.987 78.514 344.495 78.5045 343.897Z" fill="#D3D5E0"/>
<path d="M78.0163 341.393L78.0328 341.892L59.1495 342.515L38.5078 342.517L29.1329 341.894L29.166 341.395L38.5244 342.017L59.1413 342.015L78.0163 341.393Z" fill="black"/>
<path d="M134.603 343.762C134.653 338.06 133.871 337.077 128.884 334.745C123.896 332.415 119.198 329.177 110.569 325.337C110.569 325.337 109.434 325.122 107.585 326.117C106.007 326.965 103.981 329.045 100.928 329.017C97.6118 328.99 94.6573 328.292 92.8215 327.335C92.0283 325.175 90.2688 325.16 90.2688 325.16C90.2688 325.16 87.7918 329.845 87.7505 334.552C87.7095 339.262 87.714 343.355 87.714 343.355L134.603 343.762Z" fill="#161616"/>
<path d="M99.9993 331.7C101.43 331.7 102.588 332.081 103.967 332.885L104.101 332.964C104.475 333.187 105.747 334.004 105.91 334.105C107.879 335.326 109.54 335.958 111.953 336.176C114.642 336.419 116.262 335.965 117.865 334.882L118.009 334.783L118.385 334.515L118.612 334.351L119.637 335.769L119.262 336.04L119.088 336.164C119.004 336.223 118.924 336.278 118.845 336.332C116.918 337.634 114.9 338.199 111.796 337.919C109.143 337.68 107.257 336.978 105.133 335.681L104.877 335.522C104.512 335.291 103.507 334.647 103.205 334.467C102.014 333.757 101.117 333.45 99.9993 333.45C98.6769 333.45 97.5685 333.897 96.2516 334.815L96.0805 334.937C95.8201 335.127 94.9302 335.794 94.6228 336.005L94.5911 336.027C93.9808 336.437 93.4848 336.658 92.9544 336.678L92.8745 336.68V334.93C92.9932 334.93 93.2134 334.837 93.5541 334.615L93.6154 334.574C93.8522 334.415 94.8267 333.684 95.0865 333.496L95.1124 333.477C96.7535 332.308 98.2068 331.7 99.9993 331.7Z" fill="white"/>
<path d="M111.476 324.779C111.629 324.438 112.029 324.285 112.37 324.437C112.711 324.59 112.864 324.99 112.712 325.331C112.565 325.659 112.456 326.032 112.379 326.448C112.311 326.815 112.272 327.152 112.251 327.558L112.247 327.642L115.883 326.048C116.393 325.824 116.933 326.277 116.816 326.81L116.806 326.848L116.059 329.543L119.061 328.581C119.484 328.445 119.916 328.747 119.943 329.182L119.944 329.225L119.944 331.993L122.195 330.782C122.633 330.546 123.162 330.848 123.191 331.335L123.192 331.378V334.74C123.192 335.114 122.889 335.417 122.516 335.417C122.156 335.417 121.861 335.136 121.84 334.781L121.839 334.74L121.839 332.51L119.588 333.721C119.15 333.957 118.621 333.655 118.592 333.167L118.591 333.125L118.59 330.153L115.278 331.214C114.779 331.375 114.301 330.932 114.41 330.429L114.419 330.389L115.121 327.859L111.824 329.305C111.39 329.495 110.905 329.192 110.877 328.728L110.876 328.685L110.878 328.309C110.885 327.434 110.924 326.871 111.048 326.202C111.143 325.686 111.283 325.211 111.476 324.779Z" fill="white"/>
<path d="M132.716 335.182C131.185 334.632 129.565 334.215 126.458 333.515L127.779 337.292L127.741 341.597L136.584 341.672C136.945 341.677 137.59 341.197 137.282 339.257C136.897 336.835 134.89 335.967 132.716 335.182Z" fill="#393A40"/>
<path d="M93.7495 335.555C92.6318 334.38 89.1243 333.07 87.8743 333.442L87.6245 337.915L87.6248 341.67C94.816 341.672 95.3748 341.672 95.3748 341.672C94.9898 339.247 95.8745 337.792 93.7495 335.555Z" fill="#393A40"/>
<path d="M87.5198 343.897L87.5725 340.575L107.023 341.38L127.474 341.19L137.361 340.47L137.602 342.635C137.739 343.86 136.828 344.952 135.598 345.037L127.425 345.597L88.5855 344.997C87.9875 344.987 87.5103 344.495 87.5198 343.897Z" fill="#D3D5E0"/>
<path d="M88.008 341.393L106.875 342.015L127.483 342.018L136.858 341.395L136.891 341.894L127.5 342.517L106.867 342.515L87.9915 341.892L88.008 341.393Z" fill="black"/>
<path d="M81.25 210.75H113.75L111.5 319.75H87.9573L81.25 210.75Z" fill="#252424"/>
<path d="M81.75 210.75H49.25L54.25 319.75H77.7928L81.75 210.75Z" fill="#252424"/>
<path fill-rule="evenodd" clip-rule="evenodd" d="M39.1775 54.875C37.5525 68.9167 33.307 103.408 31.9273 109.875C30.8919 114.728 29.2872 119.916 27.772 124.815C26.3602 129.38 25.0261 133.693 24.3026 137.25C23.2881 142.238 21.1775 166.5 26.3025 163.875C29.6213 162.175 69.7207 138.301 91.3338 120.005C93.6923 121.666 97.8506 123.219 101.928 124.742C105.853 126.208 109.704 127.646 111.802 129.125C132.552 143.75 128.427 117.25 127.552 112C127.292 110.442 126.867 108.498 126.398 106.352C125.287 101.267 123.927 95.0472 123.927 90.125C123.927 89.5337 123.943 88.4656 123.962 87.1265C124.021 83.0827 124.115 76.568 123.927 73.25L118.052 74L103.677 86.125C102.866 88.0011 101.155 91.348 99.19 95.1929C98.1312 97.2647 96.9985 99.481 95.8927 101.69L45.0525 52.5L39.1775 54.875Z" fill="#17100F"/>
<path d="M81.4998 231.25C97.3781 231.25 110.25 225.374 110.25 218.125C110.25 210.876 97.3781 205 81.4998 205C65.6216 205 52.7498 210.876 52.7498 218.125C52.7498 225.374 65.6216 231.25 81.4998 231.25Z" fill="#252424"/>
<path d="M64.2501 204.742V116.25H98.2501V204.742C98.2501 204.742 86.3313 207 81.2501 207C76.1688 207 64.2501 204.742 64.2501 204.742Z" fill="#FAF3EA"/>
<path d="M71.2501 104.75L74.8773 106.564C78.8891 108.569 83.6111 108.569 87.6228 106.564L91.2501 104.75V117.25C91.2501 122.773 86.7728 127.25 81.2501 127.25C75.7273 127.25 71.2501 122.773 71.2501 117.25V104.75Z" fill="#EADFD2"/>
<path d="M64.5001 214.5V199.75H98.5001V214.5H64.5001Z" fill="#EADFD2"/>
<path d="M31.4412 135.462C33.0444 123.501 44.1293 115.168 56.0648 116.952C67.7478 118.698 75.8663 129.498 74.2971 141.206L67.0518 195.264C65.4486 207.225 54.3636 215.558 42.4283 213.774C30.7453 212.028 22.6267 201.228 24.1959 189.52L31.4412 135.462Z" fill="#2B4166"/>
<path d="M131.127 131.328C129.557 119.337 118.457 110.966 106.497 112.754C94.8393 114.496 86.7261 125.255 88.2563 136.942L95.8596 195.006C97.4298 206.997 108.53 215.368 120.491 213.58C132.148 211.838 140.261 201.079 138.731 189.392L131.127 131.328Z" fill="#2B4166"/>
<path d="M36.7208 247.786L47.4578 114.432L70.6251 112.75L78.7501 160.125C76.6026 188.471 73.6561 252.295 73.6561 255.732C73.6561 259.167 47.4578 251.365 36.7208 247.786Z" fill="#3C557C"/>
<path d="M54.8251 202.059L44.8583 221.758L41.797 217.86L51.8663 200.694L54.8251 202.059Z" fill="#62789C"/>
<path d="M78.8751 159.875L70.8751 109.875L53.2501 112.125L74.6251 159.125L76.6251 194.25L78.8751 159.875Z" fill="#62789C"/>
<path d="M126.053 246.283L115.375 114.375L91.0001 113.375L84.1251 160.75C86.2726 189.096 89.1173 250.792 89.1173 254.227C89.1173 257.665 115.316 249.862 126.053 246.283Z" fill="#3C557C"/>
<path d="M105.008 201.809L114.975 221.508L118.036 217.61L107.967 200.444L105.008 201.809Z" fill="#62789C"/>
<path d="M84.1251 161L91.5001 110.5C91.5001 110.5 104.458 111.75 107.375 111.75L90.0001 163.125L86.5001 201.5L84.1251 161Z" fill="#62789C"/>
<path d="M106.658 111.551C106.768 111.224 107.122 111.048 107.449 111.158C107.763 111.263 107.938 111.594 107.854 111.91L107.842 111.949L90.6149 163.133L87.1219 197.813C87.0887 198.142 86.805 198.386 86.4785 198.375L86.4374 198.372C86.1077 198.339 85.8638 198.055 85.8754 197.728L85.8782 197.687L89.3853 162.867L106.658 111.551Z" fill="white"/>
<path d="M54.7674 111.42C55.0745 111.297 55.4214 111.435 55.5629 111.728L55.5802 111.767L74.8681 159.862L76.874 194.214C76.8941 194.558 76.6311 194.854 76.2865 194.874C75.9557 194.893 75.67 194.652 75.6299 194.327L75.6261 194.286L73.6321 160.138L54.42 112.233C54.2969 111.926 54.4346 111.579 54.7283 111.437L54.7674 111.42Z" fill="white"/>
<path d="M71.1868 167.688C72.5507 167.688 73.6563 166.582 73.6563 165.219C73.6563 163.855 72.5507 162.749 71.1868 162.749C69.8229 162.749 68.7173 163.855 68.7173 165.219C68.7173 166.582 69.8229 167.688 71.1868 167.688Z" fill="#536F9D"/>
<path d="M69.6836 201.188C71.0474 201.188 72.1531 200.082 72.1531 198.718C72.1531 197.354 71.0474 196.249 69.6836 196.249C68.3197 196.249 67.2141 197.354 67.2141 198.718C67.2141 200.082 68.3197 201.188 69.6836 201.188Z" fill="#536F9D"/>
<path d="M70.7571 184.438C72.1209 184.438 73.2266 183.332 73.2266 181.968C73.2266 180.604 72.1209 179.499 70.7571 179.499C69.3932 179.499 68.2876 180.604 68.2876 181.968C68.2876 183.332 69.3932 184.438 70.7571 184.438Z" fill="#536F9D"/>
<path d="M67.7508 217.293C69.1147 217.293 70.2203 216.187 70.2203 214.824C70.2203 213.46 69.1147 212.354 67.7508 212.354C66.3869 212.354 65.2813 213.46 65.2813 214.824C65.2813 216.187 66.3869 217.293 67.7508 217.293Z" fill="#536F9D"/>
<path d="M66.2478 231.251C67.6117 231.251 68.7173 230.146 68.7173 228.782C68.7173 227.418 67.6117 226.312 66.2478 226.312C64.8839 226.312 63.7783 227.418 63.7783 228.782C63.7783 230.146 64.8839 231.251 66.2478 231.251Z" fill="#536F9D"/>
<rect x="71.2501" y="95.75" width="20" height="29" rx="10" fill="#EBBAAA"/>
<path opacity="0.5" d="M120.75 72.5C126.273 72.5 130.75 68.0227 130.75 62.5C130.75 56.9773 126.273 52.5 120.75 52.5C115.227 52.5 110.75 56.9773 110.75 62.5C110.75 68.0227 115.227 72.5 120.75 72.5Z" fill="#DE8E7C"/>
<path opacity="0.5" d="M42.2501 72.5C36.7272 72.5 32.2501 68.0227 32.2501 62.5C32.2501 56.9773 36.7272 52.5 42.2501 52.5C47.7728 52.5 52.2501 56.9773 52.2501 62.5C52.2501 68.0227 47.7728 72.5 42.2501 72.5Z" fill="#DE8E7C"/>
<path d="M43.5001 41.25C43.5001 20.5393 60.2893 3.75 81.0001 3.75C101.711 3.75 118.5 20.5393 118.5 41.25V67.75C118.5 88.4608 101.711 105.25 81.0001 105.25C60.2893 105.25 43.5001 88.4608 43.5001 67.75V41.25Z" fill="#F4D5CC"/>
<path fill-rule="evenodd" clip-rule="evenodd" d="M89.2501 47.25H109.25C111.183 47.25 112.75 48.817 112.75 50.75V63.25C112.75 67.254 109.504 70.5 105.5 70.5H99.2501C91.7943 70.5 85.7501 64.4558 85.7501 57V50.75C85.7501 48.817 87.317 47.25 89.2501 47.25ZM109.25 49.25H89.2501C88.4216 49.25 87.7501 49.9215 87.7501 50.75V57C87.7501 63.3512 92.8989 68.5 99.2501 68.5H105.5C108.4 68.5 110.75 66.1495 110.75 63.25V50.75C110.75 49.9215 110.079 49.25 109.25 49.25Z" fill="white" fill-opacity="0.75"/>
<path fill-rule="evenodd" clip-rule="evenodd" d="M53.2501 47.25H73.2501C75.1831 47.25 76.7501 48.817 76.7501 50.75V57C76.7501 64.4558 70.7058 70.5 63.2501 70.5H57.0001C52.996 70.5 49.7501 67.254 49.7501 63.25V50.75C49.7501 48.817 51.317 47.25 53.2501 47.25ZM73.2501 49.25H53.2501C52.4216 49.25 51.7501 49.9215 51.7501 50.75V63.25C51.7501 66.1495 54.1006 68.5 57.0001 68.5H63.2501C69.6013 68.5 74.7501 63.3512 74.7501 57V50.75C74.7501 49.9215 74.0786 49.25 73.2501 49.25Z" fill="white" fill-opacity="0.75"/>
<rect x="75.0001" y="50.75" width="12.5" height="2" fill="white" fill-opacity="0.75"/>
<path d="M96.6343 50.8518C98.2657 50.8518 99.5929 52.1539 99.6334 53.7756L99.6343 53.8518V60.8243C99.6343 62.4812 98.2912 63.8243 96.6343 63.8243C95.0029 63.8243 93.6757 62.5222 93.6353 60.9005L93.6343 60.8243V53.8518C93.6343 52.195 94.9775 50.8518 96.6343 50.8518Z" fill="black"/>
<path d="M65.3651 50.8518C66.9964 50.8518 68.3236 52.1539 68.3641 53.7756L68.3651 53.8518V60.8243C68.3651 62.4812 67.0219 63.8243 65.3651 63.8243C63.7337 63.8243 62.4065 62.5222 62.366 60.9005L62.3651 60.8243V53.8518C62.3651 52.195 63.7082 50.8518 65.3651 50.8518Z" fill="black"/>
<path fill-rule="evenodd" clip-rule="evenodd" d="M90.0338 81.1508V84.6173C90.0338 89.9423 85.7171 94.2593 80.3918 94.2593C75.0668 94.2593 70.7501 89.9423 70.7501 84.6173V81.1508H90.0338Z" fill="#393939"/>
<mask id="mask0_1_1620" style="mask-type:luminance" maskUnits="userSpaceOnUse" x="70" y="79" width="21" height="16">
<path fill-rule="evenodd" clip-rule="evenodd" d="M89.9063 79.5C89.9901 80.0115 90.0338 80.5365 90.0338 81.0718V84.6175C90.0338 89.9425 85.7171 94.2592 80.3918 94.2592C75.0668 94.2592 70.7501 89.9425 70.7501 84.6175V81.0718C70.7501 80.5365 70.7936 80.0115 70.8776 79.5H89.9063Z" fill="white"/>
</mask>
<g mask="url(#mask0_1_1620)">
<path d="M79.8776 97.6523C76.6663 97.6523 74.063 96.2346 74.063 94.4856C74.063 92.7367 76.6663 91.319 79.8776 91.319C83.0889 91.319 85.6921 92.7367 85.6921 94.4856C85.6921 96.2346 83.0889 97.6523 79.8776 97.6523Z" fill="#FF6C6C"/>
<rect width="19.2837" height="3.97675" transform="matrix(-1 0 0 1 90.0338 80.6511)" fill="white"/>
</g>
<path d="M94.407 2.12517L94.7111 2.23458C103.287 5.169 114.387 13.2124 118.625 24.2501C123.098 35.8972 126 50.375 126 62.875C126 70.25 120 108.5 119.375 114.75L119.321 115.308C118.771 121.224 119.006 125.921 119.364 138.359L119.397 139.535C119.749 152.316 119.695 163.009 117 163.75C112 165.125 96.3751 163.125 94.2501 162.75C92.1251 162.375 93.5001 153.7 93.5001 148.875C93.5001 142.25 98.0001 119.875 100.375 111.25C102.2 104.622 111.25 83.5 111.875 81.75L112.258 80.6743C114.678 73.8454 116.894 66.5875 114.875 51.625L114.874 51.1026C114.858 48.459 114.726 45.3828 114.375 43.625C113.429 38.8935 108.875 32.5 102.625 26.5C95.2381 19.4085 83.3748 17.8751 82.2498 16.1251C82.146 15.7694 82.0497 15.3743 81.9639 14.9485L81.9358 15.1163C81.8007 15.881 81.6093 16.3888 81.3733 16.5031C78.1233 18.7531 65.3733 19.3781 58.6391 27.2677C51.8103 35.2682 47.1233 43.5033 46.8733 51.6283L46.8566 52.2277C46.6891 58.9149 47.033 68.6036 46.2888 74.768L46.3502 74.7558C46.3592 74.7538 46.3674 74.7519 46.3751 74.75C47.0833 77.875 47.3936 82.537 49.7501 87.25C51.6251 91 55.0001 94.7083 56.6251 96.375L56.8026 97.0749C58.2809 102.947 61.1071 115.204 61.8751 122.5C62.8751 132 61.8751 161.75 59.6251 161.75C54.4018 161.75 50.7266 162.5 49.7501 159.375C47.9997 153.774 49.0816 143.597 47.6061 134.541L47.5865 135.264C47.2814 147.213 47.6661 165.786 46.8733 169.75C46.1906 173.165 34.2501 171.878 34.2501 167.625L34.2514 166.513C34.2942 148.451 35.3712 135.067 36.1234 127.628C37.2484 116.503 36.1234 103.878 36.1234 94.1283C36.1234 84.3783 37.1234 57.0033 38.4984 48.3783C41.4282 30 47.8733 17.2531 54.3733 11.1281C58.0995 7.61689 64.4959 4.02345 70.0536 2.20826L69.9631 2.25295C74.7547 -0.142853 84.7643 -1.21042 94.1236 2.02579L94.407 2.12517Z" fill="#311E1C"/>
<path d="M91.5406 40.4001L105.564 40.7264C106.806 40.7553 107.79 41.7858 107.761 43.0281C107.733 44.2482 106.738 45.2188 105.526 45.2257L105.459 45.2252L91.436 44.8989C90.1937 44.87 89.21 43.8395 89.2389 42.5972C89.2673 41.3771 90.2619 40.4064 91.4743 40.3995L91.5406 40.4001Z" fill="#393939"/>
<path d="M69.4333 40.326C70.6752 40.2839 71.7161 41.2565 71.7583 42.4984C71.7997 43.7182 70.8622 44.7441 69.6522 44.8202L69.5859 44.8234L55.5666 45.2992C54.3247 45.3413 53.2838 44.3687 53.2416 43.1268C53.2002 41.907 54.1377 40.8812 55.3477 40.805L55.414 40.8018L69.4333 40.326Z" fill="#393939"/>
<path d="M78.732 62.0713L82.2682 64.4288C81.0663 66.2315 80.1251 68.9376 80.1251 70.9063C80.1251 72.8045 80.8106 73.6025 82.9092 73.6246L83.0001 73.625V77.875C78.3643 77.875 75.8751 75.0747 75.8751 70.9063C75.8751 68.0825 77.0498 64.6547 78.6446 62.204L78.732 62.0713Z" fill="#EBBAAA"/>
</svg>
