<svg width="163" height="347" viewBox="0 0 163 347" fill="none" xmlns="http://www.w3.org/2000/svg">
<path d="M110 275C94.8 272.8 67.6667 274.082 56 275L41.25 251L48.5 204.25L111 216C117.333 235.167 125.2 277.2 110 275Z" fill="#3A4136"/>
<path d="M91.8294 221.419C93.058 227.361 93.9587 243.648 94.4769 266.592C94.8495 283.085 95 301.345 95 318.062C95 322.205 98.3578 325.562 102.5 325.562C106.642 325.562 110 322.205 110 318.062C110 301.241 109.849 282.877 109.473 266.253C108.929 242.179 108.013 225.609 106.519 218.382C105.68 214.325 101.712 211.717 97.6552 212.556C93.5989 213.395 90.9906 217.363 91.8294 221.419Z" fill="#F6DDD6"/>
<path d="M62.4054 214.481C60.7717 222.382 59.3099 241.359 58.7254 261.6C58.0712 284.255 58.599 304.269 60.4771 315.998C61.1319 320.088 64.9784 322.873 69.0685 322.218C73.1585 321.563 75.9433 317.717 75.2884 313.627C73.5984 303.071 73.0904 283.809 73.7192 262.033C74.2794 242.631 75.691 224.307 77.0946 217.519C77.9334 213.462 75.325 209.494 71.2687 208.655C67.2124 207.817 63.2441 210.425 62.4054 214.481Z" fill="#F6DDD6"/>
<path d="M80.75 229.061C97.8708 229.061 111.75 221.45 111.75 212.061C111.75 202.672 97.8708 195.061 80.75 195.061C63.6292 195.061 49.75 202.672 49.75 212.061C49.75 221.45 63.6292 229.061 80.75 229.061Z" fill="#2A2A2A"/>
<path d="M47.5 203.354L79.5 205.75L75.75 312.25C75.75 312.25 71.625 313.875 67.25 314C62.875 314.125 59.25 312.25 59.25 312.25L47.5 203.354Z" fill="#2B2B2B"/>
<path d="M59.25 312.5L58.875 308.625C64.175 310.925 72.5 309.582 75.875 308.625V312.5C74.4167 313 70.425 314 67.125 314C63.825 314 60.5 313 59.25 312.5Z" fill="#3F3F40"/>
<path d="M78.409 226.963C94.7424 226.963 107.983 220.143 107.983 211.731C107.983 203.319 94.7424 196.5 78.409 196.5C62.0756 196.5 48.8348 203.319 48.8348 211.731C48.8348 220.143 62.0756 226.963 78.409 226.963Z" fill="#2B2B2B"/>
<path d="M85.0707 206.4H116.549L110.25 313C110.25 313 107.25 314.5 102.5 314.5C97.75 314.5 94.75 313 94.75 313L85.0707 206.4Z" fill="#2B2B2B"/>
<path d="M94.875 313.125L94.5 309.25C99.8 311.55 107.125 310.207 110.5 309.25V313.125C109.042 313.625 106.05 314.625 102.75 314.625C99.45 314.625 96.125 313.625 94.875 313.125Z" fill="#3F3F40"/>
<path d="M55.352 130.914C55.352 147.868 42.102 170.181 35.8519 194.914" stroke="#F6DDD6" stroke-width="18.5" stroke-linecap="round" stroke-linejoin="bevel"/>
<rect x="46.8517" y="105.414" width="67.5" height="64.5" rx="28" fill="#E1E8EE"/>
<path d="M118.704 110.086C123.504 112.686 127.5 124 125.5 129L45.6019 120.423C39.1852 113.839 53.0445 103.764 74.5277 98.2899C81.4063 96.537 96.0185 100.364 105.5 102.25C109.059 102.958 112.704 106.836 118.704 110.086Z" fill="#414A3B"/>
<path d="M41.852 168.882L20.25 150.75L46.352 116.382L54.602 111.882L67.352 107.882L64.102 141.632L41.852 168.882Z" fill="#A97219"/>
<path d="M112.352 163.382L141.352 149.382L115.852 115.382L99.852 107.882L91.102 110.821L99.852 143.664L112.352 163.382Z" fill="#A97219"/>
<path d="M49.6628 143.345L54.5773 126.364L62.815 109.132L75.1453 111.63L98.1618 109.132C113.455 132.357 110.266 140.099 115.786 163.324C121.306 186.549 116.277 205.652 115.786 207.4C115.295 209.148 112.597 208.524 112.597 208.524L98.1618 199.784C98.1618 199.784 90.64 201.408 79.4778 201.033C68.3155 200.658 61.569 198.661 61.569 198.661C61.569 198.661 52.9825 202.655 49.6628 206.526C46.3428 210.397 45.6228 205.777 45.6228 205.777C43.485 196.833 43.0318 188.323 43.544 179.306C44.286 166.242 47.0548 153.688 49.6628 143.345Z" fill="#B97D1B"/>
<path d="M83.75 135.75C95.7622 135.75 105.5 128.251 105.5 119C105.5 109.749 95.7622 102.25 83.75 102.25C71.7378 102.25 62 109.749 62 119C62 128.251 71.7378 135.75 83.75 135.75Z" fill="#A66C0F"/>
<path d="M105.25 156.25C106.927 149.85 111 128.5 115.25 114.25C115.25 114.25 123.5 118.25 127 122.5C130.5 126.75 141.25 147.061 141.25 147.061C138.105 153.561 137.305 153.919 130.768 167.561C122.383 185.061 130.768 234.5 130.768 272C130.768 272 123 275 115.25 277.5C107.5 280 97.75 277.5 97.75 277.5V204.561C99.5 182 103.573 162.65 105.25 156.25Z" fill="#4F5D46"/>
<path d="M136.75 214.5C131.917 211.667 125.8 207.3 125 206.5L121.25 231.5L128.75 246.75C129 242.75 131 232.2 134 228C137 223.8 136.75 219 136.75 214.5Z" fill="#4F5D46"/>
<path d="M146.125 168.75C146.125 168.75 144.5 152.245 142.75 148.623C141 145 138.75 142.75 138.75 142.75L134.75 138.5L126.75 170.5V199L124 214L137 218.122L144.5 208L147.75 191.623L144.5 184.625L147 177.123L144.875 170.5L146.125 168.75Z" fill="#424B3C"/>
<path d="M137 167.5L126.5 172.252H137V167.5Z" fill="#393F35"/>
<path d="M134.777 175.934L126.547 173.75L133.829 180.591L134.777 175.934Z" fill="#393F35"/>
<path d="M123.749 207.872L138.879 213.424L137.017 218.923L121.844 213.639L123.749 207.872Z" fill="#5D6856"/>
<path d="M134.499 337.295C134.946 336.29 134.624 334.045 134.374 333.67C134.124 333.295 103.748 330.92 103.748 330.92C98.7067 330.545 89.314 330.58 88.6232 333.295C86.8732 340.17 91.6245 340.17 95.6245 340.17C101.124 340.17 101.777 338.712 105.373 339.17C107.248 339.407 109.998 340.67 122.623 340.67C132.749 340.67 133.499 339.545 134.499 337.295Z" fill="#C9D1DC"/>
<path d="M103.124 320.352C98.0242 320.252 96.3324 316.977 96.1242 315.352H93.4994C93.2494 315.727 92.4369 316.602 91.8744 319.227C91.1244 322.727 89.8744 323.352 89.1244 326.602C88.6052 328.852 88.4994 332.227 89.7494 334.102C91.6907 337.015 94.1244 336.727 98.2494 336.727C100.624 336.727 104.624 336.102 108.249 337.102C113.31 338.5 127.249 339.227 130.75 338.102C136.714 336.185 134.874 330.602 132.375 328.477C127.988 324.747 119.513 325.005 117.374 322.102C115.625 319.727 114.629 313.997 113.374 312.602C111.124 310.102 109.596 312.305 109.999 314.727C110.499 317.727 109.499 320.477 103.124 320.352Z" fill="#3B434E"/>
<mask id="mask0_1_1883" style="mask-type:luminance" maskUnits="userSpaceOnUse" x="88" y="311" width="47" height="28">
<path d="M103.124 320.352C98.0242 320.252 96.3324 316.977 96.1242 315.352H93.4994C93.2494 315.727 92.4369 316.602 91.8744 319.227C91.1244 322.727 89.8744 323.352 89.1244 326.602C88.6052 328.852 88.4994 332.227 89.7494 334.102C91.6907 337.015 94.1244 336.727 98.2494 336.727C100.624 336.727 104.624 336.102 108.249 337.102C113.31 338.5 127.249 339.227 130.75 338.102C136.714 336.185 134.874 330.602 132.375 328.477C127.988 324.747 119.513 325.005 117.374 322.102C115.625 319.727 114.629 313.997 113.374 312.602C111.124 310.102 109.596 312.305 109.999 314.727C110.499 317.727 109.499 320.477 103.124 320.352Z" fill="white"/>
</mask>
<g mask="url(#mask0_1_1883)">
<path d="M123.972 328.75C122.272 328.35 114.43 324.25 110.722 322.25C104.347 324.125 99.5972 330.75 95.9722 337.375C96.0972 338.875 110.507 340.34 112.097 338.375C114.222 335.75 118.097 330.375 123.972 328.75Z" fill="#32373F"/>
<path d="M129.723 332.395C131.677 332.395 132.165 330.965 132.165 330.25C132.307 332.477 132.272 337.263 130.997 338.573C129.405 340.213 116.322 339.33 114.729 338.573C113.137 337.815 119.401 332.542 120.781 333.55C122.162 334.56 123.247 335.548 124.946 334.033C126.644 332.52 127.281 332.395 129.723 332.395Z" fill="#32373F"/>
<path d="M130.847 331.625C130.947 330.125 133.055 329.212 133.347 329.252L137.472 329.502L136.972 337.002L131.722 340.002C130.722 339.962 124.347 338.875 128.347 338.875C130.222 338.875 130.597 338.127 131.722 337.002C132.847 335.877 130.722 333.5 130.847 331.625Z" fill="#C8D1DC"/>
<path d="M111.5 315.227C111.2 313.427 110.625 312.31 110.375 311.977L110.874 310.727H113.75C115.083 311.895 117.325 314.752 115.625 316.852C113.5 319.477 111.875 317.477 111.5 315.227Z" fill="#C8D1DC"/>
</g>
<path d="M115.099 326.194C115.058 326.739 115.595 327.143 116.107 326.953L121.051 325.126L121.865 328.788C121.976 329.286 122.542 329.531 122.98 329.27L127.605 326.52C127.962 326.308 128.079 325.848 127.867 325.492C127.655 325.136 127.195 325.019 126.839 325.23L123.105 327.451L122.329 323.962C122.231 323.519 121.763 323.264 121.337 323.422L116.682 325.142L116.97 321.306C117.003 320.871 116.658 320.5 116.222 320.5H110.972C110.558 320.5 110.222 320.836 110.222 321.25C110.222 321.664 110.558 322 110.972 322H115.414L115.099 326.194Z" fill="#272F39"/>
<path d="M36.0008 337.295C35.554 336.29 35.8755 334.045 36.1258 333.67C36.3758 333.295 66.7518 330.92 66.7518 330.92C71.7933 330.545 81.186 330.58 81.8768 333.295C83.6268 340.17 78.8755 340.17 74.8755 340.17C69.3755 340.17 68.7228 338.712 65.1268 339.17C63.2518 339.407 60.5015 340.67 47.8765 340.67C37.751 340.67 37.0008 339.545 36.0008 337.295Z" fill="#C9D1DC"/>
<path d="M67.3758 320.352C72.4758 320.252 74.1676 316.977 74.3758 315.352H77.0006C77.2506 315.727 78.0631 316.602 78.6256 319.227C79.3756 322.727 80.6256 323.352 81.3756 326.602C81.8948 328.852 82.0006 332.227 80.7506 334.102C78.8093 337.015 76.3756 336.727 72.2506 336.727C69.8756 336.727 65.8756 336.102 62.2506 337.102C57.1896 338.5 43.2508 339.227 39.7503 338.102C33.7858 336.185 35.6256 330.602 38.1253 328.477C42.5123 324.747 50.9868 325.005 53.1256 322.102C54.8753 319.727 55.8713 313.997 57.1256 312.602C59.3756 310.102 60.9041 312.305 60.5006 314.727C60.0008 317.727 61.0008 320.477 67.3758 320.352Z" fill="#3B434E"/>
<mask id="mask1_1_1883" style="mask-type:luminance" maskUnits="userSpaceOnUse" x="35" y="311" width="47" height="28">
<path d="M67.3758 320.352C72.4758 320.252 74.1676 316.977 74.3758 315.352H77.0006C77.2506 315.727 78.0631 316.602 78.6256 319.227C79.3756 322.727 80.6256 323.352 81.3756 326.602C81.8948 328.852 82.0006 332.227 80.7506 334.102C78.8093 337.015 76.3756 336.727 72.2506 336.727C69.8756 336.727 65.8756 336.102 62.2506 337.102C57.1896 338.5 43.2508 339.227 39.7503 338.102C33.7858 336.185 35.6256 330.602 38.1253 328.477C42.5123 324.747 50.9868 325.005 53.1256 322.102C54.8753 319.727 55.8713 313.997 57.1256 312.602C59.3756 310.102 60.9041 312.305 60.5006 314.727C60.0008 317.727 61.0008 320.477 67.3758 320.352Z" fill="white"/>
</mask>
<g mask="url(#mask1_1_1883)">
<path d="M46.5278 328.75C48.2278 328.35 56.0696 324.25 59.7778 322.25C66.1528 324.125 70.9028 330.75 74.5278 337.375C74.4028 338.875 59.9933 340.34 58.4028 338.375C56.2778 335.75 52.4028 330.375 46.5278 328.75Z" fill="#32373F"/>
<path d="M40.7766 332.395C38.8231 332.395 38.3346 330.965 38.3346 330.25C38.1931 332.477 38.2283 337.263 39.5026 338.573C41.0951 340.213 54.1778 339.33 55.7706 338.573C57.3631 337.815 51.0988 332.542 49.7186 333.55C48.3383 334.56 47.2533 335.548 45.5543 334.033C43.8556 332.52 43.2186 332.395 40.7766 332.395Z" fill="#32373F"/>
<path d="M39.6528 331.625C39.5528 330.125 37.4445 329.212 37.1528 329.252L33.0278 329.502L33.5278 337.002L38.7778 340.002C39.7778 339.962 46.1528 338.875 42.1528 338.875C40.2778 338.875 39.9028 338.127 38.7778 337.002C37.6528 335.877 39.7778 333.5 39.6528 331.625Z" fill="#C8D1DC"/>
<path d="M59.0003 315.227C59.3003 313.427 59.8753 312.31 60.1253 311.977L59.6256 310.727H56.7503C55.4168 311.895 53.1753 314.752 54.8753 316.852C57.0003 319.477 58.6253 317.477 59.0003 315.227Z" fill="#C8D1DC"/>
</g>
<path d="M55.4007 326.194C55.4416 326.739 54.9052 327.143 54.3928 326.953L49.4486 325.126L48.635 328.788C48.5242 329.286 47.9585 329.531 47.5195 329.27L42.8945 326.52C42.5385 326.308 42.4215 325.848 42.6332 325.492C42.8449 325.136 43.3051 325.019 43.6611 325.23L47.3955 327.451L48.1707 323.962C48.2693 323.519 48.7366 323.264 49.1628 323.422L53.8176 325.142L53.5299 321.306C53.4973 320.871 53.8415 320.5 54.2778 320.5H59.5278C59.942 320.5 60.2778 320.836 60.2778 321.25C60.2778 321.664 59.942 322 59.5278 322H55.0862L55.4007 326.194Z" fill="#272F39"/>
<path d="M61.9013 228.819C60.088 211.423 61.0353 151.001 65.015 125.687L72.314 125.982C73.226 160.325 71.6948 214.269 71.244 229.196C69.108 232.167 62.9823 230.901 61.9013 228.819Z" fill="#D8DEE4"/>
<path d="M95.9408 222.527C93.0033 205.363 90.9658 145.313 94.1503 119.941L106.822 115.802C109.614 149.846 111.239 201.412 112.284 221.657C110.029 224.735 97.2663 224.53 95.9408 222.527Z" fill="#D8DEE4"/>
<path d="M70.1785 231.82C66.9105 214.486 65.685 153.99 70.1785 128.5H80.3905C83.1137 162.826 85.625 216.865 85.625 231.82C82.7655 234.878 71.7767 233.859 70.1785 231.82Z" fill="#EAF0F5"/>
<path d="M76.375 116.625C86.0475 118.152 100.5 112.375 105.5 105.375C107.5 106.625 109.625 112 109.625 116.625C109.625 121.25 96.375 134 78.502 131.25C72.8187 130.376 70.4575 127.25 70.125 123.625C69.7925 120 69.25 115.5 76.375 116.625Z" fill="#D8DEE4"/>
<path d="M86.471 117.39C76.7197 118.285 64.093 110.458 62.1065 107.528C59.952 108.488 59.545 111.384 58.543 118.514C57.2902 127.427 76.0687 133.889 89.035 133.277C109.875 132.292 110.146 119.581 108.777 115.855C107.407 112.128 101.688 115.994 86.471 117.39Z" fill="#EAF0F5"/>
<path d="M62.25 151.75C57.4662 124.004 54.8565 118.685 51.9028 113.131C51.6898 112.731 51.1722 112.61 50.8035 112.874L42.25 119L29.75 134.811C32.75 141.311 39.75 140.311 39.75 155.311C39.75 162.826 31.3333 256.082 34 269.25C34 269.25 38.25 274.552 48.75 276C59.25 277.447 67.5 277.25 67.5 277.25L65.25 190.25C62.25 171.25 63.3707 158.251 62.25 151.75Z" fill="#4F5E46"/>
<path d="M31.5875 187.475C29.3647 192.397 31.5529 198.19 36.4751 200.412C39.7257 201.88 42.8201 201.859 46.183 201.042C47.0914 200.821 47.9593 200.558 49.0848 200.182C49.2868 200.114 50.9802 199.538 51.4662 199.379C54.015 198.544 55.8234 198.169 57.7799 198.151C60.3193 198.128 63.0391 198.751 66.2336 200.299C71.0934 202.656 76.9431 200.626 79.2994 195.766C81.6556 190.907 78.4709 185.933 75.988 182.901C74.6977 181.325 71.4352 178.923 65.9612 179C65.8301 179.002 57.2729 179.499 57.1423 179.5C52.8467 179.539 49.6695 179.386 45.3766 180.793C44.7607 180.994 42.9951 181.596 42.8924 181.63C42.6105 181.724 42.3735 181.801 42.1736 181.863C37.8816 181.114 33.4635 183.321 31.5875 187.475Z" fill="#EBBAAA"/>
<path d="M16.0091 159.728C19.6479 149.175 27.5 134.5 39.3207 124.25L40.5707 164C42.6932 165.516 41.7532 172.191 46.4837 172.918C52.3965 173.828 56.4902 175.193 61.4935 180.196C56.4902 181.106 56.0352 191.567 58.7645 200.664C58.7645 203.165 55.353 205.439 51.9417 205.439L31.7012 208.851L16.0091 191.567C14.493 185.35 12.3704 170.28 16.0091 159.728Z" fill="#424B3C"/>
<path d="M28 166L39.371 167.819L28 170.776V166Z" fill="#393F35"/>
<path d="M32.25 174.845L40.4373 168.25L36.571 177.347L32.25 174.845Z" fill="#393F35"/>
<path d="M67.1678 179H60.5728C55.342 179 53.75 185.595 53.75 188.779C53.75 196.512 54.0532 196.89 55.342 201.06C58.6775 201.136 62.1645 201.515 64.4388 199.695C62.8468 188.097 64.6663 182.866 67.1678 179Z" fill="#515E4A"/>
<rect x="40.3438" y="65.3747" width="86.5" height="36.5145" rx="18.2572" transform="rotate(-0.495513 40.3438 65.3747)" fill="#2D2622"/>
<path d="M47.1024 84.8694C55.167 84.8694 61.7047 78.6307 61.7047 70.9348C61.7047 63.2389 55.167 57.0001 47.1024 57.0001C39.0377 57.0001 32.5 63.2389 32.5 70.9348C32.5 78.6307 39.0377 84.8694 47.1024 84.8694Z" fill="#EFC8BD"/>
<path d="M118.544 85.0144C126.608 85.0144 133.146 78.7756 133.146 71.0797C133.146 63.3838 126.608 57.1451 118.544 57.1451C110.479 57.1451 103.941 63.3838 103.941 71.0797C103.941 78.7756 110.479 85.0144 118.544 85.0144Z" fill="#EFC8BD"/>
<path d="M44.1263 43.7235C44.1263 23.3768 61.5631 6.88257 83.0721 6.88257C104.581 6.88257 122.018 23.3768 122.018 43.7235L119.518 80.3665C116.377 104.135 100.032 117.207 83.0721 117.207C66.1118 117.207 48.9296 101.362 46.6263 80.3665L44.1263 43.7235Z" fill="#F6DDD6"/>
<path d="M61.5001 93C66.6088 93 70.7501 88.8586 70.7501 83.75C70.7501 78.6414 66.6088 74.5 61.5001 74.5C56.3915 74.5 52.2501 78.6414 52.2501 83.75C52.2501 88.8586 56.3915 93 61.5001 93Z" fill="#F2CACA" fill-opacity="0.36"/>
<path d="M106.375 92.5C111.415 92.5 115.5 88.3586 115.5 83.25C115.5 78.1414 111.415 74 106.375 74C101.336 74 97.2501 78.1414 97.2501 83.25C97.2501 88.3586 101.336 92.5 106.375 92.5Z" fill="#F2CACA" fill-opacity="0.36"/>
<path d="M88.9123 91.5029C88.9244 91.4834 88.9249 91.4826 88.9131 91.4982C88.8735 91.5507 88.8188 91.616 88.7486 91.6914C88.5236 91.9333 88.2278 92.185 87.8548 92.427C86.7131 93.1675 85.169 93.625 83.1251 93.625C81.0812 93.625 79.5372 93.1675 78.3955 92.427C78.0225 92.185 77.7267 91.9333 77.5017 91.6914C77.4314 91.616 77.3768 91.5507 77.3372 91.4982C77.3247 91.4818 77.3259 91.4835 77.3401 91.5063C76.7913 90.6281 75.6345 90.3612 74.7564 90.91C73.8782 91.4588 73.6113 92.6156 74.1601 93.4938C74.2799 93.6854 74.4757 93.9444 74.7564 94.2461C75.1857 94.7074 75.7161 95.1588 76.3548 95.5731C78.1037 96.7075 80.3565 97.375 83.1251 97.375C85.8937 97.375 88.1465 96.7075 89.8955 95.5731C90.5342 95.1588 91.0646 94.7074 91.4939 94.2461C91.7745 93.9444 91.9703 93.6854 92.0901 93.4938C92.639 92.6156 92.372 91.4588 91.4939 90.91C90.6162 90.3615 89.4601 90.6279 88.911 91.5049L88.9123 91.5029Z" fill="#EC908B"/>
<path d="M63.3354 57.4722C63.3874 57.4505 63.5082 57.404 63.6891 57.3408C64.0028 57.2311 64.3599 57.1205 64.7515 57.0169C65.8655 56.7223 67.0182 56.546 68.1336 56.546C69.2445 56.546 70.3591 56.7208 71.4145 57.0125C71.7839 57.1147 72.1177 57.2235 72.4081 57.3312C72.574 57.3927 72.6826 57.4373 72.7264 57.4569C73.4828 57.795 74.3699 57.456 74.708 56.6996C75.0461 55.9433 74.707 55.0562 73.9507 54.7181C73.8489 54.6726 73.6802 54.6033 73.451 54.5183C73.0831 54.3819 72.6686 54.2467 72.2139 54.121C70.9146 53.7618 69.5383 53.546 68.1336 53.546C66.7333 53.546 65.3314 53.7604 63.9844 54.1166C63.5146 54.2409 63.0836 54.3744 62.6991 54.5088C62.4611 54.592 62.286 54.6594 62.1817 54.7029C61.417 55.0215 61.0553 55.8996 61.3739 56.6644C61.6925 57.4291 62.5707 57.7908 63.3354 57.4722Z" fill="#513F32"/>
<path d="M92.8354 57.4722C92.8874 57.4505 93.0082 57.404 93.1891 57.3408C93.5028 57.2311 93.8599 57.1205 94.2515 57.0169C95.3655 56.7223 96.5182 56.546 97.6336 56.546C98.7445 56.546 99.8591 56.7208 100.915 57.0125C101.284 57.1147 101.618 57.2235 101.908 57.3312C102.074 57.3927 102.183 57.4373 102.226 57.4569C102.983 57.795 103.87 57.456 104.208 56.6996C104.546 55.9433 104.207 55.0562 103.451 54.7181C103.349 54.6726 103.18 54.6033 102.951 54.5183C102.583 54.3819 102.169 54.2467 101.714 54.121C100.415 53.7618 99.0383 53.546 97.6336 53.546C96.2333 53.546 94.8314 53.7604 93.4844 54.1166C93.0146 54.2409 92.5836 54.3744 92.1991 54.5088C91.9611 54.592 91.786 54.6594 91.6817 54.7029C90.917 55.0215 90.5553 55.8996 90.8739 56.6644C91.1925 57.4291 92.0707 57.7908 92.8354 57.4722Z" fill="#513F32"/>
<path d="M63.1087 66.8756L69.8427 65.8111C70.5246 65.7034 70.99 65.0632 70.8822 64.3813C70.7745 63.6994 70.1343 63.234 69.4524 63.3418L62.7184 64.4063C62.0365 64.5141 61.5711 65.1543 61.6789 65.8362C61.7867 66.518 62.4269 66.9834 63.1087 66.8756Z" fill="black"/>
<path d="M95.0851 65.1589L101.819 66.2237C102.501 66.3315 103.141 65.8661 103.249 65.1842C103.357 64.5023 102.891 63.8622 102.21 63.7543L95.4756 62.6896C94.7937 62.5818 94.1535 63.0472 94.0457 63.729C93.9379 64.4109 94.4032 65.0511 95.0851 65.1589Z" fill="black"/>
<path d="M65.3723 64.5761L65.3721 71.7706C65.372 73.4275 66.7151 74.7707 68.372 74.7707C70.0288 74.7708 71.372 73.4277 71.3721 71.7708L71.3723 64.5763C71.3724 62.9195 70.0293 61.5763 68.3724 61.5762C66.7156 61.5762 65.3724 62.9193 65.3723 64.5761Z" fill="black"/>
<path d="M93.8289 63.924V71.1188C93.8289 72.7756 95.172 74.1188 96.8289 74.1188C98.4857 74.1188 99.8289 72.7756 99.8289 71.1188V63.924C99.8289 62.2672 98.4857 60.924 96.8289 60.924C95.172 60.924 93.8289 62.2672 93.8289 63.924Z" fill="black"/>
<path d="M80.2566 73.8171C80.1739 74.4199 80.0805 74.826 79.6377 76.6046C79.5304 77.0354 79.4543 77.3481 79.3813 77.6617C78.8412 79.9814 78.6744 81.5667 79.0267 83.0358C79.5787 85.3375 81.4059 86.6638 84.0996 86.6638V82.4138C83.8181 82.4138 83.5975 82.3874 83.4349 82.3435C83.3368 82.3171 83.2806 82.2909 83.251 82.2694C83.2436 82.2641 83.2412 82.2615 83.2332 82.2484C83.2095 82.2098 83.1833 82.1439 83.1595 82.0447C83.0096 81.4196 83.1248 80.3255 83.5206 78.6254C83.5877 78.3371 83.6593 78.043 83.7618 77.6314C84.2534 75.6571 84.354 75.219 84.4671 74.3949L80.2566 73.8171Z" fill="#EBBAAA"/>
<path d="M47.0001 67.25C48.7501 57.75 53.2469 25.5 71.4969 25.5C74.6741 25.5 80.8719 13.375 71.4969 11C50.9969 11 42.0001 20.5 42.0001 40.5C42.0001 56.5 45.2501 76.75 47.0001 67.25Z" fill="#2D2622"/>
<path d="M118.963 65.75C117.213 56.25 112.716 24 94.4661 24C91.2888 24 79.1251 11.875 88.5001 9.5C109 9.5 118.963 16.5 123.963 39C127.434 54.619 120.713 75.25 118.963 65.75Z" fill="#2D2622"/>
<path d="M49.1276 42.4248C48.4263 36.6765 49.8616 27.5001 55.3456 22.7501C57.9691 31.522 53.8848 38.9295 55.3456 43.2248C59.2693 54.7625 49.9873 58.7228 49.2493 64.0188C47.8651 59.3913 48.0233 56.7885 49.8616 51.7375C52.3176 44.9898 49.9856 49.4578 49.1276 42.4248Z" fill="#2D2622"/>
<path d="M67.1481 27.3112C61.9463 29.6974 60.5648 20.8446 60.3981 17.1161C62.6481 1.56125 99.1481 1.56135 106.398 13.8113C106.398 20.4891 111.585 31.726 102.898 27.3112C87.6481 19.5612 73.6503 24.3285 67.1481 27.3112Z" fill="#2D2622"/>
<path d="M49.2946 38.0635C48.0361 29.9131 50.7806 23.3121 53.2278 20.5529C53.2278 20.5529 56.2023 17.0613 61.5326 17.0613C66.8628 17.0613 70.3981 18.2631 70.3981 18.2631C70.0486 21.6591 61.0941 29.7495 66.8628 42.1663C72.2378 53.7358 52.7908 68.8398 46.1481 71.8113C47.1968 69.901 55.0633 59.6448 55.0633 52.072C55.0633 46.3413 50.8678 48.2515 49.2946 38.0635Z" fill="#60432F"/>
<path d="M115.148 38.0612C116.355 30.432 113.148 25.3113 107.148 21.5613C101.148 17.8113 92.2731 20.0613 92.2731 20.0613C92.6083 23.2402 102.081 28.5685 103.898 41.3112C105.11 49.8112 108.244 52.9362 116.398 67.4362C116.398 63.4362 116.398 59.8112 118.023 55.3112C119.845 50.2657 113.64 47.598 115.148 38.0612Z" fill="#60432F"/>
<path d="M69.0931 18.8431C65.1478 24.1974 65.285 34.6654 69.7278 41.1278C70.0407 41.5829 70.6633 41.6982 71.1184 41.3853C71.5735 41.0724 71.6888 40.4498 71.3759 39.9947C67.4031 34.216 67.2781 24.6778 70.7032 20.0295C71.0308 19.5849 70.9359 18.9588 70.4913 18.6312C70.0467 18.3036 69.4207 18.3985 69.0931 18.8431Z" fill="#47372B"/>
<path d="M91.2513 21.7292C93.8625 22.8578 96.0975 25.8244 97.7278 29.9884C99.0871 33.4601 99.8981 37.5341 99.8981 40.3113C99.8981 40.8636 100.346 41.3113 100.898 41.3113C101.45 41.3113 101.898 40.8636 101.898 40.3113C101.898 37.2775 101.038 32.9573 99.5902 29.2592C97.7842 24.6465 95.2453 21.2767 92.0448 19.8934C91.5379 19.6742 90.9493 19.9076 90.7302 20.4145C90.511 20.9215 90.7444 21.5101 91.2513 21.7292Z" fill="#47372B"/>
</svg>
