<svg width="163" height="347" viewBox="0 0 163 347" fill="none" xmlns="http://www.w3.org/2000/svg">
<path d="M97.5229 273.5C100.94 273.501 103.716 276.245 103.77 279.649L103.77 279.752L103.75 333.002C103.749 336.454 100.949 339.251 97.4976 339.25C94.0803 339.249 91.3047 336.505 91.2508 333.101L91.25 332.998L91.2705 279.748C91.2718 276.296 94.0711 273.499 97.5229 273.5Z" fill="#EDBC3D"/>
<path d="M64.2729 273.5C67.6902 273.501 70.4658 276.245 70.5197 279.649L70.5205 279.752L70.5 333.002C70.4987 336.454 67.6994 339.251 64.2476 339.25C60.8303 339.249 58.0547 336.505 58.0008 333.101L58 332.998L58.0205 279.748C58.0218 276.296 60.8211 273.499 64.2729 273.5Z" fill="#EDBC3D"/>
<path d="M104.125 328.5C103.172 326.31 104 324.5 106 324.125C113.875 332.25 124.625 332.925 127.75 333.925L127.5 335.925L121.25 335.425C115.125 334.8 105.077 330.69 104.125 328.5Z" fill="#3B3937"/>
<path d="M89.3214 339.12C89.3214 339.12 88.3749 331.675 91.2499 328.75C91.2499 328.75 92.1249 332.125 99.1249 331.125C103.846 330.45 103.75 326 103.75 326C110.108 330.957 123.702 333.085 131.561 334.75C133.828 334.75 135.666 336.587 135.666 338.855V340.943H110.772L89.3214 339.12Z" fill="#1C1B19"/>
<path d="M111.029 327.762C111.436 327.599 111.899 327.797 112.062 328.205C112.219 328.598 112.04 329.042 111.662 329.219L111.619 329.238L110.295 329.768C109.888 329.931 109.425 329.733 109.262 329.325C109.105 328.932 109.284 328.488 109.662 328.311L109.705 328.292L111.029 327.762Z" fill="#ECECEC"/>
<path d="M108.029 326.262C108.436 326.099 108.899 326.297 109.062 326.705C109.219 327.098 109.04 327.542 108.662 327.719L108.619 327.738L107.295 328.268C106.888 328.431 106.425 328.233 106.262 327.825C106.105 327.432 106.284 326.988 106.662 326.811L106.705 326.792L108.029 326.262Z" fill="#ECECEC"/>
<path d="M114.279 329.012C114.686 328.849 115.149 329.047 115.312 329.455C115.469 329.848 115.29 330.292 114.912 330.469L114.869 330.488L113.545 331.018C113.138 331.181 112.675 330.983 112.512 330.575C112.355 330.182 112.534 329.738 112.912 329.561L112.955 329.542L114.279 329.012Z" fill="#ECECEC"/>
<path d="M117.529 330.262C117.936 330.099 118.399 330.297 118.562 330.705C118.719 331.098 118.54 331.542 118.162 331.719L118.119 331.738L116.795 332.268C116.388 332.431 115.925 332.233 115.762 331.825C115.605 331.432 115.784 330.988 116.162 330.811L116.205 330.792L117.529 330.262Z" fill="#ECECEC"/>
<path d="M120.779 331.512C121.186 331.349 121.649 331.547 121.812 331.955C121.969 332.348 121.79 332.792 121.412 332.969L121.369 332.988L120.045 333.518C119.638 333.681 119.175 333.483 119.012 333.075C118.855 332.682 119.034 332.238 119.412 332.061L119.455 332.042L120.779 331.512Z" fill="#ECECEC"/>
<path d="M89.0179 338.863L112.455 339.92L135.75 338.925L136.12 341.903C136.236 342.83 135.531 343.655 134.598 343.688L112.941 344.423L100.847 344.555L88.7532 344.158L89.0179 338.863Z" fill="#D0CEC1"/>
<path d="M88.8668 342.437L88.9046 341.378L95.65 341.633L98.8174 341.744C102.009 341.85 104.409 341.908 105.967 341.908L106.352 341.907C109.619 341.887 116.431 341.635 119.352 341.408L119.692 341.38L119.784 342.435L119.44 342.463C116.408 342.7 109.272 342.96 106.092 342.967L105.574 342.966C103.799 342.957 101.125 342.885 97.5974 342.763L88.8668 342.437Z" fill="#1C1B19"/>
<path d="M118.75 344.175L119.076 341.775V340.848L135.875 340.05L136.173 342.213C136.281 342.993 135.687 343.695 134.899 343.718L118.75 344.175Z" fill="#ECEADF"/>
<path d="M135.75 338.925C135.95 335.425 133.25 334.425 127.75 333.925C127.75 333.925 126.943 334.128 125.5 336.05C124.375 337.55 124.125 339.425 124.125 339.425L135.75 338.925Z" fill="#ECEADF"/>
<path d="M57.597 328.5C58.5495 326.31 57.722 324.5 55.722 324.125C47.847 332.25 37.097 332.925 33.972 333.925L34.222 335.925L40.4721 335.425C46.5971 334.8 56.6447 330.69 57.597 328.5Z" fill="#3B3937"/>
<path d="M72.4004 339.12C72.4004 339.12 73.3469 331.675 70.4719 328.75C70.4719 328.75 69.5969 332.125 62.5969 331.125C57.8762 330.45 57.9719 326 57.9719 326C51.6137 330.957 38.0197 333.085 30.1605 334.75C27.8935 334.75 26.0557 336.587 26.0557 338.855V340.943H50.9494L72.4004 339.12Z" fill="#1C1B19"/>
<path d="M49.6601 328.205C49.8173 327.812 50.2529 327.614 50.6491 327.746L50.6929 327.762L52.0172 328.292C52.4245 328.455 52.6226 328.918 52.4596 329.325C52.3024 329.718 51.8668 329.916 51.4706 329.784L51.4268 329.768L50.1025 329.238C49.6951 329.075 49.4971 328.612 49.6601 328.205Z" fill="#ECECEC"/>
<path d="M52.6601 326.705C52.8173 326.312 53.2529 326.114 53.6491 326.246L53.6929 326.262L55.0172 326.792C55.4245 326.955 55.6226 327.418 55.4596 327.825C55.3024 328.218 54.8668 328.416 54.4706 328.284L54.4268 328.268L53.1025 327.738C52.6951 327.575 52.4971 327.112 52.6601 326.705Z" fill="#ECECEC"/>
<path d="M46.4101 329.455C46.5673 329.062 47.0029 328.864 47.3991 328.996L47.4429 329.012L48.7672 329.542C49.1745 329.705 49.3726 330.168 49.2095 330.575C49.0523 330.968 48.6167 331.166 48.2206 331.034L48.1767 331.018L46.8525 330.488C46.4451 330.325 46.2471 329.862 46.4101 329.455Z" fill="#ECECEC"/>
<path d="M43.1601 330.705C43.3173 330.312 43.7529 330.114 44.1491 330.246L44.1929 330.262L45.5172 330.792C45.9246 330.955 46.1226 331.418 45.9596 331.825C45.8024 332.218 45.3668 332.416 44.9706 332.284L44.9268 332.268L43.6025 331.738C43.1952 331.575 42.9971 331.112 43.1601 330.705Z" fill="#ECECEC"/>
<path d="M39.9101 331.955C40.0673 331.562 40.5029 331.364 40.8991 331.496L40.9429 331.512L42.2672 332.042C42.6746 332.205 42.8726 332.668 42.7096 333.075C42.5524 333.468 42.1168 333.666 41.7206 333.534L41.6768 333.518L40.3525 332.988C39.9452 332.825 39.7471 332.362 39.9101 331.955Z" fill="#ECECEC"/>
<path d="M72.7039 338.863L49.2665 339.92L25.9719 338.925L25.6015 341.903C25.4862 342.83 26.1911 343.655 27.1243 343.688L48.7805 344.423L60.8747 344.555L72.9687 344.158L72.7039 338.863Z" fill="#D0CEC1"/>
<path d="M72.8173 341.378L72.8551 342.437L66.1108 342.692L64.1248 342.763C60.5288 342.888 57.8203 342.959 56.047 342.967L55.6299 342.967L55.2351 342.965C51.8912 342.94 45.1877 342.69 42.2771 342.463L41.938 342.435L42.0298 341.38L42.3698 341.408C45.3313 341.639 52.2899 341.894 55.5028 341.907L55.946 341.908C57.4415 341.903 59.6471 341.851 62.5254 341.757L64.6366 341.685L72.8173 341.378Z" fill="#1C1B19"/>
<path d="M42.972 344.175L42.646 341.775V340.848L25.847 340.05L25.5488 342.213C25.4411 342.993 26.0351 343.695 26.8229 343.718L42.972 344.175Z" fill="#ECEADF"/>
<path d="M25.972 338.925C25.772 335.425 28.472 334.425 33.972 333.925C33.972 333.925 34.7794 334.128 36.222 336.05C37.347 337.55 37.597 339.425 37.597 339.425L25.972 338.925Z" fill="#ECEADF"/>
<path d="M81 241C96.8783 241 109.75 235.124 109.75 227.875C109.75 220.626 96.8783 214.75 81 214.75C65.1217 214.75 52.25 220.626 52.25 227.875C52.25 235.124 65.1217 241 81 241Z" fill="#385B75"/>
<path d="M79 222.25H109L106.322 324H91.8215L87.75 313.25L79 222.25Z" fill="#385B75"/>
<path d="M83 222.25H53L55.6788 324H70.1787L74.25 313.25L83 222.25Z" fill="#385B75"/>
<path d="M87.75 316.75H107.25V324H88.6858L87.75 316.75Z" fill="#5F86A3"/>
<path d="M74.25 316.75H54.75V324H73.3143L74.25 316.75Z" fill="#5F86A3"/>
<path d="M81 136C101.02 136 117.25 122.904 117.25 106.75C117.25 90.5957 101.02 77.5 81 77.5C60.9797 77.5 44.75 90.5957 44.75 106.75C44.75 122.904 60.9797 136 81 136Z" fill="#3D2C18"/>
<path d="M64 221.001L69.25 113.375L81 107.25L92.875 113.375L98 221.001C98 221.001 86.0812 224 81 224C75.9187 224 64 221.001 64 221.001Z" fill="#F2F2F2"/>
<path d="M72.25 101.25C72.25 96.4175 76.1675 92.5 81 92.5C85.8325 92.5 89.75 96.4175 89.75 101.25V112.5C89.75 117.333 85.8325 121.25 81 121.25C76.1675 121.25 72.25 117.333 72.25 112.5V101.25Z" fill="#EBBAAA"/>
<path d="M37.4199 130.307C43.4522 118.369 53.311 119.27 57.5 119.722L49.6805 161.1V221.5C13.8336 211.388 18.7184 167.32 37.4199 130.307Z" fill="#A1D9EB"/>
<path d="M124.58 130.307C118.548 118.369 108.689 119.27 104.5 119.722L112.319 161.1V221.5C148.167 211.388 143.282 167.32 124.58 130.307Z" fill="#A1D9EB"/>
<path d="M89.001 254.5L126 245.45L120.652 183.244L115.304 121.039L89.75 111.75L84 159.915C86.151 188.261 89.001 254.5 89.001 254.5Z" fill="#8CC9DC"/>
<path d="M72.999 254.5L36 245.45L41.3481 183.244L46.6961 121.039L72.25 111.75L78 159.75C75.849 188.096 72.999 254.5 72.999 254.5Z" fill="#8CC9DC"/>
<path d="M83.9043 160.164L89.75 111.75L107.607 117.47L89.75 162.375L86.5 201.625L83.9043 160.164Z" fill="#66ABC1"/>
<path d="M78 159.75L72.25 111.75L53.8602 117.47L74.375 158.375L76.75 179L78 159.75Z" fill="#66ABC1"/>
<path d="M71.216 167.102C72.5799 167.102 73.6855 165.996 73.6855 164.632C73.6855 163.268 72.5799 162.163 71.216 162.163C69.8521 162.163 68.7465 163.268 68.7465 164.632C68.7465 165.996 69.8521 167.102 71.216 167.102Z" fill="#66ACC1"/>
<path d="M69.2127 200.351C70.5766 200.351 71.6823 199.245 71.6823 197.881C71.6823 196.518 70.5766 195.412 69.2127 195.412C67.8489 195.412 66.7432 196.518 66.7432 197.881C66.7432 199.245 67.8489 200.351 69.2127 200.351Z" fill="#66ACC1"/>
<path d="M70.5365 183.851C71.9004 183.851 73.0061 182.745 73.0061 181.381C73.0061 180.018 71.9004 178.912 70.5365 178.912C69.1727 178.912 68.067 180.018 68.067 181.381C68.067 182.745 69.1727 183.851 70.5365 183.851Z" fill="#66ACC1"/>
<path d="M67.53 216.457C68.8939 216.457 69.9995 215.351 69.9995 213.987C69.9995 212.623 68.8939 211.518 67.53 211.518C66.1661 211.518 65.0605 212.623 65.0605 213.987C65.0605 215.351 66.1661 216.457 67.53 216.457Z" fill="#66ACC1"/>
<path d="M66.0273 232.665C67.3911 232.665 68.4968 231.559 68.4968 230.195C68.4968 228.831 67.3911 227.726 66.0273 227.726C64.6634 227.726 63.5577 228.831 63.5577 230.195C63.5577 231.559 64.6634 232.665 66.0273 232.665Z" fill="#66ACC1"/>
<path d="M43.5 43.25C43.5 22.5393 60.2892 5.75 81 5.75C101.711 5.75 118.5 22.5393 118.5 43.25V60.3435L116.92 75.8737C115.049 94.2617 99.5645 108.25 81.0815 108.25C62.9545 108.25 47.6511 94.7803 45.35 76.8L43.5 62.345V43.25Z" fill="#F4D5CC"/>
<path d="M108.2 52.0848C100.168 44.3603 102.3 21.4359 83.9768 21.4359C80.7868 21.4359 73.437 4.2426 83.9768 2C104.558 2 115.11 16.4523 119.628 27.7065C128.92 50.8545 131.174 89.9597 125.15 116.912C122.705 127.853 123.885 132.507 122.128 134.5C122.128 134.5 113.343 129.828 103.554 120.608C109.204 100.304 114.475 63.2353 108.2 52.0848Z" fill="#3D2C18"/>
<path d="M53.8005 52.0848C61.8322 44.3603 59.7005 21.4359 78.0232 21.4359C81.2132 21.4359 88.563 4.2426 78.0232 2C57.4417 2 46.8899 16.4523 42.3721 27.7065C33.0796 50.8545 30.8263 89.9597 36.8502 116.912C39.2955 127.853 38.1151 132.507 39.8721 134.5C39.8721 134.5 48.6567 129.828 58.4457 120.608C52.7965 100.304 47.5255 63.2353 53.8005 52.0848Z" fill="#3D2C18"/>
<path d="M73.1742 6.76619C73.8556 6.65526 74.4979 7.11771 74.6088 7.7991C74.7197 8.48049 74.2573 9.12278 73.5759 9.2337L71.6092 9.55713C71.0456 9.65196 70.6721 9.71852 70.2786 9.79308L70.1874 9.81044C69.1834 10.0023 68.4347 10.1838 67.7193 10.413L67.6003 10.4516C66.493 10.8163 65.3617 11.3243 63.3166 12.3642C62.7012 12.6771 61.9487 12.4319 61.6358 11.8165C61.3229 11.2011 61.5681 10.4486 62.1835 10.1357L62.4647 9.99315C64.3963 9.01726 65.5631 8.49684 66.7346 8.10488L66.8183 8.0771C67.5925 7.8221 68.3757 7.62236 69.3615 7.42464L70.1422 7.27542C70.7903 7.15665 71.5189 7.03564 73.1742 6.76619Z" fill="#6E5232"/>
<path d="M73.789 11.378C74.4777 11.3305 75.0745 11.8503 75.122 12.539C75.1695 13.2278 74.6497 13.8246 73.961 13.8721C70.8999 14.0832 69.6452 14.541 66.7829 16.3129C66.1959 16.6763 65.4255 16.495 65.0622 15.908C64.6988 15.321 64.8801 14.5506 65.467 14.1872L65.7706 14.0007C68.7595 12.1774 70.3982 11.6119 73.789 11.378Z" fill="#6E5232"/>
<path d="M71.4955 41.1086C72.3232 41.0725 73.0234 41.7141 73.0596 42.5417C73.0949 43.3506 72.4829 44.0377 71.6826 44.1023L71.6265 44.1058L57.3032 44.7315C56.4756 44.7677 55.7753 44.1261 55.7392 43.2984C55.7039 42.4896 56.3158 41.8024 57.1162 41.7379L57.1723 41.7344L71.4955 41.1086Z" fill="#62360D"/>
<path d="M68.2021 52.5504C68.884 52.4426 69.5241 52.908 69.6319 53.5899C69.7369 54.2539 69.2984 54.8782 68.6458 55.0102L68.5924 55.0198L61.8584 56.0843C61.1766 56.1921 60.5364 55.7267 60.4286 55.0448C60.3236 54.3808 60.7621 53.7564 61.4147 53.6245L61.4681 53.6149L68.2021 52.5504Z" fill="black"/>
<path d="M92.7955 52.9375C92.9005 52.2736 93.5102 51.8149 94.1717 51.8908L94.2254 51.8981L100.959 52.9628C101.641 53.0707 102.107 53.7108 101.999 54.3927C101.894 55.0567 101.284 55.5153 100.623 55.4395L100.569 55.4322L93.835 54.3674C93.1531 54.2596 92.6877 53.6194 92.7955 52.9375Z" fill="black"/>
<path d="M67.122 50.7847C68.7534 50.7847 70.0806 52.0868 70.1211 53.7084L70.122 53.7847V60.9792C70.122 62.636 68.7789 63.9792 67.122 63.9792C65.4906 63.9792 64.1634 62.677 64.123 61.0554L64.122 60.9792V53.7847C64.122 52.1278 65.4652 50.7847 67.122 50.7847Z" fill="black"/>
<path d="M95.5787 50.6328C97.2101 50.6328 98.5373 51.9349 98.5778 53.5566L98.5787 53.6328V60.8276C98.5787 62.4844 97.2356 63.8276 95.5787 63.8276C93.9474 63.8276 92.6201 62.5254 92.5797 60.9038L92.5787 60.8276V53.6328C92.5787 51.976 93.9219 50.6328 95.5787 50.6328Z" fill="black"/>
<path d="M89.466 42.0503C89.5155 41.2422 90.196 40.6228 90.9987 40.6423L91.0549 40.6447L105.365 41.5204C106.192 41.571 106.821 42.2824 106.771 43.1093C106.721 43.9174 106.041 44.5367 105.238 44.5172L105.182 44.5148L90.8716 43.6391C90.0447 43.5885 89.4154 42.8772 89.466 42.0503Z" fill="#62360D"/>
<path fill-rule="evenodd" clip-rule="evenodd" d="M90.7838 78.4009V81.8674C90.7838 87.1924 86.467 91.5094 81.1418 91.5094C75.8168 91.5094 71.5 87.1924 71.5 81.8674V78.4009H90.7838Z" fill="#393939"/>
<mask id="mask0_1_3" style="mask-type:luminance" maskUnits="userSpaceOnUse" x="71" y="76" width="20" height="16">
<path fill-rule="evenodd" clip-rule="evenodd" d="M90.6562 76.75C90.74 77.2615 90.7838 77.7865 90.7838 78.3218V81.8675C90.7838 87.1925 86.467 91.5092 81.1418 91.5092C75.8168 91.5092 71.5 87.1925 71.5 81.8675V78.3218C71.5 77.7865 71.5435 77.2615 71.6275 76.75H90.6562Z" fill="white"/>
</mask>
<g mask="url(#mask0_1_3)">
<path d="M80.6275 94.9022C77.4162 94.9022 74.8129 93.4844 74.8129 91.7355C74.8129 89.9866 77.4162 88.5688 80.6275 88.5688C83.8388 88.5688 86.442 89.9866 86.442 91.7355C86.442 93.4844 83.8388 94.9022 80.6275 94.9022Z" fill="#FF6C6C"/>
<rect width="19.2837" height="3.97675" transform="matrix(-1 0 0 1 90.7838 77.9009)" fill="white"/>
</g>
<path d="M80.2006 60.21L83.7369 62.5674C82.535 64.3702 81.5938 67.0763 81.5938 69.0449C81.5938 70.9432 82.2792 71.7411 84.3779 71.7632L84.4688 71.7637V76.0137C79.833 76.0137 77.3438 73.2133 77.3438 69.0449C77.3438 66.2212 78.5185 62.7934 80.1132 60.3427L80.2006 60.21Z" fill="#EBBAAA"/>
<path d="M109.134 116.537C107.346 111.158 108.389 99.6045 109.134 94.5C103.669 101.845 103.876 112 103.876 116.537C103.876 122.577 103.172 135.212 102.054 140.441C103.296 140.068 106.451 138.051 109.134 132.971C112.488 126.622 111.37 123.26 109.134 116.537Z" fill="#3D2C18"/>
<path d="M107.876 111.375C110.501 106.213 110.005 96.8545 110.751 91.75C105.285 99.0955 104.601 106.464 101.759 110C94.1257 119.5 101.494 126.396 100.376 131.625C103.259 127.75 104.001 125.25 104.001 119.875C104.001 112.694 104.664 117.691 107.876 111.375Z" fill="#3D2C18"/>
<path d="M121.384 120.787C119.595 115.408 120.639 103.854 121.384 98.75C115.919 106.095 102.613 120.102 107.681 123.389C112.748 126.676 115.422 139.462 114.304 144.691C115.546 144.318 118.701 142.301 121.384 137.221C124.738 130.872 123.62 127.51 121.384 120.787Z" fill="#3D2C18"/>
<path d="M52.8667 116.537C54.6552 111.158 53.612 99.6045 52.8667 94.5C58.332 101.845 58.125 112 58.125 116.537C58.125 122.577 58.829 135.212 59.9467 140.441C58.7047 140.068 55.5497 138.051 52.8667 132.971C49.513 126.622 50.6307 123.26 52.8667 116.537Z" fill="#3D2C18"/>
<path d="M54.125 111.375C51.5 106.213 51.9952 96.8545 51.25 91.75C56.7155 99.0955 57.4 106.464 60.2417 110C67.875 119.5 60.507 126.396 61.625 131.625C58.7417 127.75 58 125.25 58 119.875C58 112.694 57.3368 117.691 54.125 111.375Z" fill="#3D2C18"/>
<path d="M40.6167 120.787C42.4053 115.408 41.3619 103.854 40.6167 98.75C46.0821 106.095 59.388 120.102 54.32 123.389C49.2522 126.676 46.5789 139.462 47.6968 144.691C46.4547 144.318 43.2997 142.301 40.6167 137.221C37.2629 130.872 38.3808 127.51 40.6167 120.787Z" fill="#3D2C18"/>
<path fill-rule="evenodd" clip-rule="evenodd" d="M94.625 48.25H98.375C104.724 48.25 109.896 53.3436 109.999 59.6912L110 59.875C110 66.2953 104.795 71.5 98.375 71.5H94.625C88.2047 71.5 83 66.2953 83 59.875C83 53.4547 88.2047 48.25 94.625 48.25ZM98.375 50.25H94.625C89.3093 50.25 85 54.5593 85 59.875C85 65.1907 89.3093 69.5 94.625 69.5H98.375C103.691 69.5 108 65.1907 108 59.8831L107.999 59.7155C107.914 54.4674 103.631 50.25 98.375 50.25Z" fill="#060606" fill-opacity="0.75"/>
<path fill-rule="evenodd" clip-rule="evenodd" d="M63.625 48.25H67.375C73.7953 48.25 79 53.4547 79 59.875C79 66.2953 73.7953 71.5 67.375 71.5H63.625C57.2047 71.5 52 66.2953 52 59.8669L52.0015 59.6831C52.1043 53.3436 57.2763 48.25 63.625 48.25ZM67.375 50.25H63.625C58.3686 50.25 54.0864 54.4674 54.0014 59.7074L54 59.875C54 65.1907 58.3093 69.5 63.625 69.5H67.375C72.6907 69.5 77 65.1907 77 59.875C77 54.5593 72.6907 50.25 67.375 50.25Z" fill="#060606" fill-opacity="0.75"/>
<rect x="77.25" y="57" width="7.5" height="2" fill="#423A38"/>
</svg>
